<?xml version="1.0" encoding="utf-8"?>
<!-- Generator: Adobe Illustrator 15.0.2, SVG Export Plug-In . SVG Version: 6.00 Build 0)  -->
<!DOCTYPE svg PUBLIC "-//W3C//DTD SVG 1.1//EN" "http://www.w3.org/Graphics/SVG/1.1/DTD/svg11.dtd">
<svg version="1.1"
	 id="Livello_1" xmlns:dc="http://purl.org/dc/elements/1.1/" xmlns:cc="http://web.resource.org/cc/" xmlns:rdf="http://www.w3.org/1999/02/22-rdf-syntax-ns#" xmlns:sodipodi="http://sodipodi.sourceforge.net/DTD/sodipodi-0.dtd" xmlns:svg="http://www.w3.org/2000/svg" xmlns:inkscape="http://www.inkscape.org/namespaces/inkscape" inkscape:output_extension="org.inkscape.output.svg.inkscape" sodipodi:version="0.32" inkscape:version="0.45.1" sodipodi:docbase="C:\online\Guardian3rd\GuardGUI\gfx" sodipodi:docname="menu.svg"
	 xmlns="http://www.w3.org/2000/svg" xmlns:xlink="http://www.w3.org/1999/xlink" x="0px" y="0px" width="216.003px"
	 height="209.283px" viewBox="-65.501 -63.269 216.003 209.283" enable-background="new -65.501 -63.269 216.003 209.283"
	 xml:space="preserve">
<sodipodi:namedview  pagecolor="#ffffff" gridtolerance="10.0" inkscape:zoom="4.5752426" guidetolerance="10.0" inkscape:cx="42.549999" bordercolor="#666666" borderopacity="1.0" inkscape:cy="41.200001" objecttolerance="10.0" id="base" inkscape:window-height="573" inkscape:pageopacity="0.0" inkscape:pageshadow="2" inkscape:window-width="791" inkscape:window-x="88" inkscape:window-y="116" inkscape:current-layer="Livello_1">
	</sodipodi:namedview>
<g id="g2403" transform="translate(0,4.1527853)">
	
		<radialGradient id="ellipse8_1_" cx="268.7004" cy="404.5023" r="54.2455" gradientTransform="matrix(2.0042 0 0 1.9014 -496.3324 -731.3587)" gradientUnits="userSpaceOnUse">
		<stop  offset="0.3152" style="stop-color:#FAD1C1"/>
		<stop  offset="0.6424" style="stop-color:#FF4532"/>
		<stop  offset="0.8788" style="stop-color:#B31E11"/>
	</radialGradient>
	
		<ellipse id="ellipse8" sodipodi:cx="42.400002" sodipodi:cy="37.400002" sodipodi:rx="35.900002" sodipodi:ry="34.700001" fill="url(#ellipse8_1_)" cx="42.198" cy="37.761" rx="107.701" ry="104.101">
	</ellipse>
	<radialGradient id="SVGID_1_" cx="41.05" cy="34.2137" r="105.8724" gradientUnits="userSpaceOnUse">
		<stop  offset="0.4545" style="stop-color:#FFEDC8"/>
		<stop  offset="1" style="stop-color:#FF2100"/>
	</radialGradient>
	<path opacity="0.5" fill="url(#SVGID_1_)" d="M-4.609,15.826c-23.303,0-44.595,8.756-60.875,23.206
		c0.706,56.905,48.64,102.829,107.682,102.829c15.297,0,29.846-3.09,43.024-8.647c1.842-7.409,2.823-15.167,2.823-23.159
		C88.045,58.021,46.554,15.826-4.609,15.826z"/>
	
		<linearGradient id="path15_1_" gradientUnits="userSpaceOnUse" x1="710.9075" y1="155.4085" x2="919.9299" y2="155.4085" gradientTransform="matrix(0.8908 0.4847 -0.9892 1.818 -502.9776 -690.6793)">
		<stop  offset="0" style="stop-color:#2BBFF7"/>
		<stop  offset="1" style="stop-color:#033375"/>
	</linearGradient>
	<path id="path15" fill="url(#path15_1_)" d="M-46.9-20.437c22.5-41.101,92.098-62.701,143.698-33.601
		c49.5,27.899,66,93.299,44.399,131.399"/>
	<g id="g17">
		<path id="path19" fill="#FFFFFF" stroke="#FFFFFF" d="M143.899,68.962C143.899,18.261-5.802-89.437-46.9-18.34"/>
		
			<radialGradient id="path26_1_" cx="273.7278" cy="397.5726" r="38.7574" gradientTransform="matrix(1.9769 0 0 1.9088 -495.3339 -731.1375)" gradientUnits="userSpaceOnUse">
			<stop  offset="0.3152" style="stop-color:#FAD1C1"/>
			<stop  offset="0.6424" style="stop-color:#FF4532"/>
			<stop  offset="0.8788" style="stop-color:#B31E11"/>
		</radialGradient>
		<path id="path26" fill="url(#path26_1_)" stroke="#FFFFFF" d="M141.198,77.362c0-38.101-118.799-124.5-190.799-92.101"/>
		<polygon id="polygon28" fill="#FFFFFF" points="136.1,62.962 145.1,68.66 142.999,74.962 		"/>
		<polygon id="polygon30" fill="#FFFFFF" points="139.999,81.862 139.999,70.462 143.298,73.761 		"/>
		<polygon id="polygon32" fill="#FFFFFF" points="-43.302,-16.538 -52.601,-11.739 -46.601,-21.34 		"/>
	</g>
	<g id="g34">
		<g id="g36">
			<g id="g38">
				<g id="g40">
					<path id="path42" fill="none" stroke="#FFFFFF" stroke-width="0.25" stroke-opacity="0.54" d="M-23.202,53.063
						c38.101-27,90.302-20.101,117.302,15"/>
					<g id="g44">
						<g id="g46">
							<path id="path48" fill="none" stroke="#FFFFFF" stroke-width="0.25" stroke-opacity="0.54" d="M70.399,117.261
								C70.399,53.66,18.198,2.362-46.302,2.362"/>
							<path id="path50" fill="none" stroke="#FFFFFF" stroke-width="0.25" stroke-opacity="0.54" d="M-31.9,92.66
								c62.098-20.698,94.5-63,73.5-121.799"/>
							<path id="path52" fill="none" stroke="#FFFFFF" stroke-width="0.25" stroke-opacity="0.54" d="M0.499,116.66
								C47.6,72.261,57.198,7.462,12.198-36.937"/>
							<path id="path54" fill="none" stroke="#FFFFFF" stroke-width="0.25" stroke-opacity="0.54" d="M-52.9,28.761
								C5.899,57.563,65.298,58.16,94.1,2.66"/>
						</g>
						<path id="path56" fill="none" stroke="#FFFFFF" stroke-width="0.25" stroke-opacity="0.54" d="M19.1-36.937
							C1.399,24.261,40.399,65.962,102.499,82.761"/>
						<path id="path58" fill="none" stroke="#FFFFFF" stroke-width="0.25" stroke-opacity="0.54" d="M59.899-22.538
							c0,45.601-36.601,82.198-81.899,82.198"/>
						<path id="path60" fill="none" stroke="#FFFFFF" stroke-width="0.25" stroke-opacity="0.54" d="M-14.501-4.538
							c45,13.799,70.198,58.799,56.698,100.198"/>
						<path id="path62" fill="none" stroke="#FFFFFF" stroke-width="0.25" stroke-opacity="0.54" d="M3.198,46.16
							c42.902-18.899,93-1.5,111.601,38.402"/>
						<path id="path64" fill="none" stroke="#FFFFFF" stroke-width="0.25" stroke-opacity="0.54" d="M-32.501,12.261
							c47.101-3,87.601,29.701,90.601,73.5"/>
						<path id="path66" fill="none" stroke="#FFFFFF" stroke-width="0.25" stroke-opacity="0.54" d="M35.298,87.563
							C22.1,43.761,25.399,2.063,68.899-10.538"/>
					</g>
					<path id="path68" fill="none" stroke="#FFFFFF" stroke-width="0.25" stroke-opacity="0.54" d="M-21.4,44.66
						c10.198-17.399,32.098-24.299,48.598-15.598"/>
					<path id="path70" fill="none" stroke="#FFFFFF" stroke-width="0.25" stroke-opacity="0.54" d="M78.499,82.761
						c-16.201-12.601-19.802-34.5-7.802-48.899"/>
				</g>
				<g id="g72">
					<path id="path74" fill="none" stroke="#FFFFFF" stroke-width="0.25" stroke-opacity="0.54" d="M-16.601,16.16
						c47.101,2.101,83.701,38.701,81.601,82.5"/>
					<g id="g76">
						<g id="g78">
							<path id="path80" fill="none" stroke="#FFFFFF" stroke-width="0.25" stroke-opacity="0.54" d="M15.198,122.66
								C56.298,72.862,49.1,1.16-1.302-37.84"/>
							<path id="path82" fill="none" stroke="#FFFFFF" stroke-width="0.25" stroke-opacity="0.54" d="M-49.001,41.66
								C13.1,63.261,60.198,52.462,82.1-5.739"/>
							<path id="path84" fill="none" stroke="#FFFFFF" stroke-width="0.25" stroke-opacity="0.54" d="M-39.4,79.761
								C25.999,73.462,73.399,44.962,67.1-16.84"/>
							<path id="path86" fill="none" stroke="#FFFFFF" stroke-width="0.25" stroke-opacity="0.54" d="M-24.101-21.038
								C3.198,36.862,49.1,73.16,107.6,47.362"/>
						</g>
						<path id="path88" fill="none" stroke="#FFFFFF" stroke-width="0.25" stroke-opacity="0.54" d="M55.999-21.638
							C31.999-4.84-0.4,30.563,62.298,115.16"/>
						<path id="path90" fill="none" stroke="#FFFFFF" stroke-width="0.25" stroke-opacity="0.54" d="M97.399,7.462
							C67.999,42.862,15.198,49.462-19.9,22.16"/>
						<path id="path92" fill="none" stroke="#FFFFFF" stroke-width="0.25" stroke-opacity="0.54" d="M27.198-23.739
							c26.101,37.802,17.101,88.201-20.698,112.5"/>
						<path id="path94" fill="none" stroke="#FFFFFF" stroke-width="0.25" stroke-opacity="0.54" d="M8.6,26.362
							c45.598,11.399,73.5,54.601,62.098,97.201"/>
						<path id="path96" fill="none" stroke="#FFFFFF" stroke-width="0.25" stroke-opacity="0.54" d="M2.6-21.638
							C41.298,4.462,51.798,54.563,25.698,90.563"/>
						<path id="path98" fill="none" stroke="#FFFFFF" stroke-width="0.25" stroke-opacity="0.54" d="M6.798,78.261
							c18-42.299,66.302-62.698,108.302-46.198"/>
					</g>
					<path id="path100" fill="none" stroke="#FFFFFF" stroke-width="0.25" stroke-opacity="0.54" d="M-10.001,10.462
						c19.198-7.5,40.799,0.299,47.698,17.399"/>
					<path id="path102" fill="none" stroke="#FFFFFF" stroke-width="0.25" stroke-opacity="0.54" d="M43.399,100.761
						c-4.5-19.799,6.899-39,25.5-42.899"/>
				</g>
				<g id="g104">
					<path id="path106" fill="none" stroke="#FFFFFF" stroke-width="0.25" stroke-opacity="0.54" d="M-5.202-0.937
						C38.6,16.16,60.499,62.66,43.698,103.16"/>
					<g id="g108">
						<g id="g110">
							<path id="path112" fill="none" stroke="#FFFFFF" stroke-width="0.25" stroke-opacity="0.54" d="M-11.501,110.063
								c55.799-33.902,68.101-94.201,33.899-147"/>
							<path id="path114" fill="none" stroke="#FFFFFF" stroke-width="0.25" stroke-opacity="0.54" d="M-44.202,13.16
								C7.1,53.063,55.698,57.563,96.198,8.962"/>
							<path id="path116" fill="none" stroke="#FFFFFF" stroke-width="0.25" stroke-opacity="0.54" d="M-48.702,52.16
								C15.499,67.16,56.6,56.66,71.6-3.937"/>
							<path id="path118" fill="none" stroke="#FFFFFF" stroke-width="0.25" stroke-opacity="0.54" d="M0.499-38.138
								c6,63.299,36.899,112.201,101.101,106.5"/>
						</g>
						<path id="path120" fill="none" stroke="#FFFFFF" stroke-width="0.25" stroke-opacity="0.54" d="M78.798-7.538
							c-63.299,18-61.799,65.399-43.5,125.101"/>
						<path id="path122" fill="none" stroke="#FFFFFF" stroke-width="0.25" stroke-opacity="0.54" d="M105.499,26.962
							C65.6,50.962,13.698,40.761-10.302,3.563"/>
						<path id="path124" fill="none" stroke="#FFFFFF" stroke-width="0.25" stroke-opacity="0.54" d="M49.999-24.638
							c12,44.101-14.101,88.5-57.899,99.899"/>
						<path id="path126" fill="none" stroke="#FFFFFF" stroke-width="0.25" stroke-opacity="0.54" d="M15.198,16.761
							c39.302,25.201,50.701,75.302,25.5,111.601"/>
						<path id="path128" fill="none" stroke="#FFFFFF" stroke-width="0.25" stroke-opacity="0.54" d="M25.698-30.038
							C53.298,6.563,46.399,57.563,9.499,83.063"/>
						<path id="path130" fill="none" stroke="#FFFFFF" stroke-width="0.25" stroke-opacity="0.54" d="M-4.601,65.362
							c31.201-33.899,84-38.101,118.201-9"/>
					</g>
					<path id="path132" fill="none" stroke="#FFFFFF" stroke-width="0.25" stroke-opacity="0.54" d="M2.899-3.937
						C23.6-4.84,41.298,9.261,42.198,27.563"/>
					<path id="path134" fill="none" stroke="#FFFFFF" stroke-width="0.25" stroke-opacity="0.54" d="M22.698,98.362
						c2.402-20.101,19.5-34.5,38.701-32.399"/>
				</g>
			</g>
			<path id="path136" fill="none" stroke="#FFFFFF" stroke-width="0.25" stroke-opacity="0.54" d="M138.798,77.962
				C60.198,36.862,12.198,11.66-33.101,67.462"/>
			<path id="path138" fill="none" stroke="#FFFFFF" stroke-width="0.25" stroke-opacity="0.54" d="M74.6,104.063
				c-31.201-81-68.101-92.402-122.402-117"/>
		</g>
		<g id="g140">
			<g id="g142">
				<g id="g144">
					<path id="path146" fill="none" stroke="#FFFFFF" stroke-width="0.25" stroke-opacity="0.54" d="M99.499,57.563
						c-38.101-27-90.302-20.101-117.302,15"/>
					<g id="g148">
						<g id="g150">
							<path id="path152" fill="none" stroke="#FFFFFF" stroke-width="0.25" stroke-opacity="0.54" d="M5.899,121.761
								c0-63.601,27-114.299,91.5-114.299"/>
							<path id="path154" fill="none" stroke="#FFFFFF" stroke-width="0.25" stroke-opacity="0.54" d="M108.198,97.16
								c-62.098-20.698-94.5-63-73.5-121.799"/>
							<path id="path156" fill="none" stroke="#FFFFFF" stroke-width="0.25" stroke-opacity="0.54" d="M76.399,121.16
								C28.999,76.761,6.798,20.962,51.798-23.739"/>
							<path id="path158" fill="none" stroke="#FFFFFF" stroke-width="0.25" stroke-opacity="0.54" d="M129.499,32.962
								c-58.802,28.799-118.201,29.399-147-26.101"/>
						</g>
						<path id="path160" fill="none" stroke="#FFFFFF" stroke-width="0.25" stroke-opacity="0.54" d="M58.399-19.84
							C76.1,41.362,36.198,70.462-25.9,87.563"/>
						<path id="path162" fill="none" stroke="#FFFFFF" stroke-width="0.25" stroke-opacity="0.54" d="M16.399-18.34
							c0,45.302,36.601,82.201,81.899,82.201"/>
						<path id="path164" fill="none" stroke="#FFFFFF" stroke-width="0.25" stroke-opacity="0.54" d="M91.399-0.038
							c-45,13.799-70.201,58.5-57,100.198"/>
						<path id="path166" fill="none" stroke="#FFFFFF" stroke-width="0.25" stroke-opacity="0.54" d="M73.399,50.362
							c-42.899-18.899-93-1.5-111.601,38.399"/>
						<path id="path168" fill="none" stroke="#FFFFFF" stroke-width="0.25" stroke-opacity="0.54" d="M109.1,16.462
							c-47.101-3-87.601,30-90.601,73.5"/>
						<path id="path170" fill="none" stroke="#FFFFFF" stroke-width="0.25" stroke-opacity="0.54" d="M41.298,92.063
							c13.201-43.802,9.899-85.5-33.601-98.101"/>
					</g>
					<path id="path172" fill="none" stroke="#FFFFFF" stroke-width="0.25" stroke-opacity="0.54" d="M97.999,49.462
						C87.798,32.063,65.899,25.16,49.399,33.862"/>
					<path id="path174" fill="none" stroke="#FFFFFF" stroke-width="0.25" stroke-opacity="0.54" d="M-2.202,87.563
						C13.999,74.962,17.6,53.362,5.6,38.66"/>
				</g>
				<g id="g176">
					<path id="path178" fill="none" stroke="#FFFFFF" stroke-width="0.25" stroke-opacity="0.54" d="M92.899,20.362
						c-47.101,2.101-83.701,38.701-81.899,82.5"/>
					<g id="g180">
						<g id="g182">
							<path id="path184" fill="none" stroke="#FFFFFF" stroke-width="0.25" stroke-opacity="0.54" d="M61.698,127.16
								C20.6,77.362,13.698,25.462,64.1-13.538"/>
							<path id="path186" fill="none" stroke="#FFFFFF" stroke-width="0.25" stroke-opacity="0.54" d="M125.298,46.16
								C63.198,67.761,16.1,56.962-5.802-1.239"/>
							<path id="path188" fill="none" stroke="#FFFFFF" stroke-width="0.25" stroke-opacity="0.54" d="M115.999,84.261
								C50.6,77.962,2.899,49.462,9.499-12.34"/>
							<path id="path190" fill="none" stroke="#FFFFFF" stroke-width="0.25" stroke-opacity="0.54" d="M73.399-10.84
								C46.1,47.063,27.499,77.66-31.001,51.862"/>
						</g>
						<path id="path192" fill="none" stroke="#FFFFFF" stroke-width="0.25" stroke-opacity="0.54" d="M20.6-17.138
							c24,16.799,56.399,52.201-6.302,136.799"/>
						<path id="path194" fill="none" stroke="#FFFFFF" stroke-width="0.25" stroke-opacity="0.54" d="M-21.101,11.66
							C8.298,47.362,60.798,53.962,96.198,26.362"/>
						<path id="path196" fill="none" stroke="#FFFFFF" stroke-width="0.25" stroke-opacity="0.54" d="M49.1-19.239
							c-26.101,37.802-17.101,88.201,20.698,112.5"/>
						<path id="path198" fill="none" stroke="#FFFFFF" stroke-width="0.25" stroke-opacity="0.54" d="M67.999,30.862
							c-45.601,11.399-73.5,54.899-62.101,97.201"/>
						<path id="path200" fill="none" stroke="#FFFFFF" stroke-width="0.25" stroke-opacity="0.54" d="M62.6-14.138
							C23.899,11.66,24.798,59.063,50.6,95.063"/>
						<path id="path202" fill="none" stroke="#FFFFFF" stroke-width="0.25" stroke-opacity="0.54" d="M69.798,82.761
							c-18-42.299-66.299-63-108.299-46.198"/>
					</g>
					<path id="path204" fill="none" stroke="#FFFFFF" stroke-width="0.25" stroke-opacity="0.54" d="M86.298,14.962
						C67.1,7.462,45.499,15.261,38.6,32.362"/>
					<path id="path206" fill="none" stroke="#FFFFFF" stroke-width="0.25" stroke-opacity="0.54" d="M32.899,105.261
						c4.5-19.799-6.899-39-25.5-42.899"/>
				</g>
				<g id="g208">
					<path id="path210" fill="none" stroke="#FFFFFF" stroke-width="0.25" stroke-opacity="0.54" d="M81.798,3.563
						c-43.799,16.799-66,63.299-49.198,103.799"/>
					<g id="g212">
						<g id="g214">
							<path id="path216" fill="none" stroke="#FFFFFF" stroke-width="0.25" stroke-opacity="0.54" d="M88.1,114.261
								c-55.802-33.899-75-85.198-40.5-137.698"/>
							<path id="path218" fill="none" stroke="#FFFFFF" stroke-width="0.25" stroke-opacity="0.54" d="M109.1,16.462
								c-51.302,40.198-88.201,45.299-128.402-3"/>
							<path id="path220" fill="none" stroke="#FFFFFF" stroke-width="0.25" stroke-opacity="0.54" d="M124.999,56.66
								c-63.899,15-105,4.5-120.302-56.098"/>
							<path id="path222" fill="none" stroke="#FFFFFF" stroke-width="0.25" stroke-opacity="0.54" d="M75.198-8.437
								c-6,63.299-35.698,86.698-99.899,81"/>
						</g>
						<path id="path224" fill="none" stroke="#FFFFFF" stroke-width="0.25" stroke-opacity="0.54" d="M-2.501-3.34
							c63.299,18,61.799,65.402,43.5,125.101"/>
						<path id="path226" fill="none" stroke="#FFFFFF" stroke-width="0.25" stroke-opacity="0.54" d="M-28.9,31.462
							c39.899,24,91.799,13.799,115.799-23.399"/>
						<path id="path228" fill="none" stroke="#FFFFFF" stroke-width="0.25" stroke-opacity="0.54" d="M26.899-19.84
							c-12,44.101,14.101,88.5,57.899,99.902"/>
						<path id="path230" fill="none" stroke="#FFFFFF" stroke-width="0.25" stroke-opacity="0.54" d="M61.698,21.563
							c-39.598,24.899-51,75-25.799,111.299"/>
						<path id="path232" fill="none" stroke="#FFFFFF" stroke-width="0.25" stroke-opacity="0.54" d="M50.899-25.84
							C23.298,11.362,30.198,61.761,67.1,87.261"/>
						<path id="path234" fill="none" stroke="#FFFFFF" stroke-width="0.25" stroke-opacity="0.54" d="M80.899,69.563
							c-31.201-33.902-84-38.101-118.201-9"/>
					</g>
					<path id="path236" fill="none" stroke="#FFFFFF" stroke-width="0.25" stroke-opacity="0.54" d="M73.698,0.563
						c-20.698-0.902-38.399,13.198-39.299,31.5"/>
					<path id="path238" fill="none" stroke="#FFFFFF" stroke-width="0.25" stroke-opacity="0.54" d="M53.899,102.563
						c-2.399-20.101-19.5-34.5-38.701-32.402"/>
				</g>
			</g>
			<path id="path240" fill="none" stroke="#FFFFFF" stroke-width="0.25" stroke-opacity="0.54" d="M-50.802,75.261
				C27.798,34.16,64.1,16.462,109.698,71.962"/>
			<path id="path242" fill="none" stroke="#FFFFFF" stroke-width="0.25" stroke-opacity="0.54" d="M1.999,108.261
				c31.198-81,16.799-90.899,71.101-115.5"/>
		</g>
	</g>
	
		<ellipse id="ellipse244" sodipodi:cx="41.799999" sodipodi:cy="37.799999" sodipodi:rx="14.9" sodipodi:ry="13.9" fill="#1B171B" cx="40.399" cy="38.961" rx="44.701" ry="41.7">
	</ellipse>
	
		<ellipse id="ellipse246" sodipodi:cx="28.9" sodipodi:cy="31.200001" sodipodi:rx="5.8000002" sodipodi:ry="5.9000001" fill="#FFFFFF" cx="1.698" cy="19.162" rx="17.402" ry="17.7">
	</ellipse>
</g>
</svg>
