<?xml version="1.0" encoding="UTF-8"?>
<!-- Generator: Ikivo Animator 2.2 (build 2.2.0.10) -->
<!DOCTYPE svg PUBLIC "-//W3C//DTD SVG 1.1 Tiny//EN" "http://www.w3.org/Graphics/SVG/1.1/DTD/svg11-tiny.dtd">
<svg display="inherit" height="120" id="svg" version="1.1" viewBox="0 0 400 120" width="400" baseProfile="tiny" xmlns="http://www.w3.org/2000/svg" xmlns:xlink="http://www.w3.org/1999/xlink" xmlns:ev="http://www.w3.org/2001/xml-events">
	<metadata id="metadata59">
    
  </metadata>
	<defs display="inherit" id="defs5">
		<linearGradient id="gr_1153" x1="0.523" x2="0.523" y1="-0.003" y2="0.953">
			<stop id="stop7" offset="0.21" stop-color="#ffffff" stop-opacity="0"/>
			<stop id="stop9" offset="1" stop-color="#cdcdcd" stop-opacity="0.9"/>
		</linearGradient>
		<linearGradient id="gr_1228" x1="0.433" x2="0.433" y1="0.383" y2="1.031">
			<stop id="stop12" offset="0.016" stop-color="#ffffff"/>
			<stop id="stop14" offset="0.197" stop-color="#cdcdcd"/>
			<stop id="stop16" offset="0.607" stop-color="#ffffff"/>
			<stop id="stop18" offset="1" stop-color="#b3b3b3"/>
		</linearGradient>
		<linearGradient id="gr_922" x1="-0.064" x2="0.967" y1="0.917" y2="0.064">
			<stop id="stop5" offset="0.406" stop-color="#f3de36"/>
			<stop id="stop22" offset="0.516" stop-color="#f0f787"/>
			<stop id="stop24" offset="0.767" stop-color="#fac01a"/>
		</linearGradient>
		<linearGradient id="gr_942" y1="0.5" y2="0.5">
			<stop id="stop27" offset="0.02" stop-color="#8a800d"/>
			<stop id="stop29" offset="0.14" stop-color="#d8b9a5"/>
			<stop id="stop31" offset="0.34" stop-color="#ffffff"/>
			<stop id="stop33" offset="0.63" stop-color="#9f940f"/>
			<stop id="stop20" offset="0.78" stop-color="#f7f6eb"/>
			<stop id="stop36" offset="0.85" stop-color="#847a0c"/>
			<stop id="stop38" offset="1" stop-color="#edddd3"/>
		</linearGradient>
		<linearGradient id="gr_946" x1="0.5" x2="0.5" y2="1">
			<stop id="stop41" offset="0.21" stop-color="#ffffff" stop-opacity="0"/>
			<stop id="stop43" offset="1" stop-color="#ffed66" stop-opacity="0.9"/>
		</linearGradient>
		<linearGradient id="gr_1229" x1="0.433" x2="0.433" y1="0.383" y2="1.031">
			<stop id="stop30" offset="0.016" stop-color="#ffffff"/>
			<stop id="stop32" offset="0.197" stop-color="#cdcdcd"/>
			<stop id="stop34" offset="0.607" stop-color="#ffffff"/>
			<stop id="stop37" offset="1" stop-color="#b3b3b3"/>
		</linearGradient>
		<linearGradient id="gr_1230" y1="0.5" y2="0.5">
			<stop id="stop40" offset="0.02" stop-color="#8a800d"/>
			<stop id="stop42" offset="0.14" stop-color="#d8b9a5"/>
			<stop id="stop44" offset="0.34" stop-color="#ffffff"/>
			<stop id="stop46" offset="0.63" stop-color="#9f940f"/>
			<stop id="stop48" offset="0.78" stop-color="#f7f6eb"/>
			<stop id="stop50" offset="0.85" stop-color="#847a0c"/>
			<stop id="stop52" offset="1" stop-color="#edddd3"/>
		</linearGradient>
		<linearGradient id="gr_1231" x1="-0.064" x2="0.967" y1="0.917" y2="0.064">
			<stop id="stop55" offset="0.406" stop-color="#f3de36"/>
			<stop id="stop57" offset="0.516" stop-color="#f0f787"/>
			<stop id="stop59" offset="0.767" stop-color="#fac01a"/>
		</linearGradient>
		<linearGradient id="gr_1232" y1="0.5" y2="0.5">
			<stop id="stop62" offset="0.02" stop-color="#8a800d"/>
			<stop id="stop64" offset="0.14" stop-color="#d8b9a5"/>
			<stop id="stop66" offset="0.34" stop-color="#ffffff"/>
			<stop id="stop68" offset="0.63" stop-color="#9f940f"/>
			<stop id="stop70" offset="0.78" stop-color="#f7f6eb"/>
			<stop id="stop72" offset="0.85" stop-color="#847a0c"/>
			<stop id="stop74" offset="1" stop-color="#edddd3"/>
		</linearGradient>
		<linearGradient id="gr_1233" x1="0.523" x2="0.523" y1="-0.003" y2="0.953">
			<stop id="stop77" offset="0.21" stop-color="#ffffff" stop-opacity="0"/>
			<stop id="stop79" offset="1" stop-color="#cdcdcd" stop-opacity="0.9"/>
		</linearGradient>
		<linearGradient id="gr_1232-1" y1="0.5" y2="0.5">
			<stop id="stop62-7" offset="0.02" stop-color="#8a800d"/>
			<stop id="stop64-4" offset="0.14" stop-color="#d8b9a5"/>
			<stop id="stop66-0" offset="0.34" stop-color="#ffffff"/>
			<stop id="stop68-9" offset="0.63" stop-color="#9f940f"/>
			<stop id="stop70-4" offset="0.78" stop-color="#f7f6eb"/>
			<stop id="stop72-8" offset="0.85" stop-color="#847a0c"/>
			<stop id="stop74-8" offset="1" stop-color="#edddd3"/>
		</linearGradient>
		<linearGradient id="linearGradient3102" y1="0.5" y2="0.5">
			<stop id="stop3104" offset="0.02" stop-color="#8a800d"/>
			<stop id="stop3106" offset="0.14" stop-color="#d8b9a5"/>
			<stop id="stop3108" offset="0.34" stop-color="#ffffff"/>
			<stop id="stop3110" offset="0.63" stop-color="#9f940f"/>
			<stop id="stop3112" offset="0.78" stop-color="#f7f6eb"/>
			<stop id="stop3114" offset="0.85" stop-color="#847a0c"/>
			<stop id="stop3116" offset="1" stop-color="#edddd3"/>
		</linearGradient>
		<linearGradient id="linearGradient3118" y1="0.5" y2="0.5">
			<stop id="stop3120" offset="0.02" stop-color="#8a800d"/>
			<stop id="stop3122" offset="0.14" stop-color="#d8b9a5"/>
			<stop id="stop3124" offset="0.34" stop-color="#ffffff"/>
			<stop id="stop3126" offset="0.63" stop-color="#9f940f"/>
			<stop id="stop3128" offset="0.78" stop-color="#f7f6eb"/>
			<stop id="stop3130" offset="0.85" stop-color="#847a0c"/>
			<stop id="stop3132" offset="1" stop-color="#edddd3"/>
		</linearGradient>
		<linearGradient id="linearGradient3134" y1="0.5" y2="0.5">
			<stop id="stop3136" offset="0.02" stop-color="#8a800d"/>
			<stop id="stop3138" offset="0.14" stop-color="#d8b9a5"/>
			<stop id="stop3140" offset="0.34" stop-color="#ffffff"/>
			<stop id="stop3142" offset="0.63" stop-color="#9f940f"/>
			<stop id="stop3144" offset="0.78" stop-color="#f7f6eb"/>
			<stop id="stop3146" offset="0.85" stop-color="#847a0c"/>
			<stop id="stop3148" offset="1" stop-color="#edddd3"/>
		</linearGradient>
		<linearGradient id="linearGradient3150" y1="0.5" y2="0.5">
			<stop id="stop3152" offset="0.02" stop-color="#8a800d"/>
			<stop id="stop3154" offset="0.14" stop-color="#d8b9a5"/>
			<stop id="stop3156" offset="0.34" stop-color="#ffffff"/>
			<stop id="stop3158" offset="0.63" stop-color="#9f940f"/>
			<stop id="stop3160" offset="0.78" stop-color="#f7f6eb"/>
			<stop id="stop3162" offset="0.85" stop-color="#847a0c"/>
			<stop id="stop3164" offset="1" stop-color="#edddd3"/>
		</linearGradient>
		<linearGradient id="linearGradient3166" y1="0.5" y2="0.5">
			<stop id="stop3168" offset="0.02" stop-color="#8a800d"/>
			<stop id="stop3170" offset="0.14" stop-color="#d8b9a5"/>
			<stop id="stop3172" offset="0.34" stop-color="#ffffff"/>
			<stop id="stop3174" offset="0.63" stop-color="#9f940f"/>
			<stop id="stop3176" offset="0.78" stop-color="#f7f6eb"/>
			<stop id="stop3178" offset="0.85" stop-color="#847a0c"/>
			<stop id="stop3180" offset="1" stop-color="#edddd3"/>
		</linearGradient>
		<linearGradient id="linearGradient3182" y1="0.5" y2="0.5">
			<stop id="stop3184" offset="0.02" stop-color="#8a800d"/>
			<stop id="stop3186" offset="0.14" stop-color="#d8b9a5"/>
			<stop id="stop3188" offset="0.34" stop-color="#ffffff"/>
			<stop id="stop3190" offset="0.63" stop-color="#9f940f"/>
			<stop id="stop3192" offset="0.78" stop-color="#f7f6eb"/>
			<stop id="stop3194" offset="0.85" stop-color="#847a0c"/>
			<stop id="stop3196" offset="1" stop-color="#edddd3"/>
		</linearGradient>
		<linearGradient id="linearGradient3198" y1="0.5" y2="0.5">
			<stop id="stop3200" offset="0.02" stop-color="#8a800d"/>
			<stop id="stop3202" offset="0.14" stop-color="#d8b9a5"/>
			<stop id="stop3204" offset="0.34" stop-color="#ffffff"/>
			<stop id="stop3206" offset="0.63" stop-color="#9f940f"/>
			<stop id="stop3208" offset="0.78" stop-color="#f7f6eb"/>
			<stop id="stop3210" offset="0.85" stop-color="#847a0c"/>
			<stop id="stop3212" offset="1" stop-color="#edddd3"/>
		</linearGradient>
		<linearGradient gradientUnits="userSpaceOnUse" id="linearGradient3236" x1="31.251" x2="156.136" y1="59.938" y2="59.938"/>
		<linearGradient id="gr_1234" x1="-0.064" x2="0.967" y1="0.917" y2="0.064">
			<stop id="stop122" offset="0.406" stop-color="#f3de36"/>
			<stop id="stop124" offset="0.516" stop-color="#f0f787"/>
			<stop id="stop126" offset="0.767" stop-color="#fac01a"/>
		</linearGradient>
		<linearGradient id="gr_1229-1" x1="0.433" x2="0.433" y1="0.383" y2="1.031">
			<stop id="stop30-7" offset="0.016" stop-color="#ffffff"/>
			<stop id="stop32-4" offset="0.197" stop-color="#cdcdcd"/>
			<stop id="stop34-0" offset="0.607" stop-color="#ffffff"/>
			<stop id="stop37-9" offset="1" stop-color="#b3b3b3"/>
		</linearGradient>
		<linearGradient id="linearGradient3147" x1="0.433" x2="0.433" y1="0.383" y2="1.031">
			<stop id="stop3149" offset="0.016" stop-color="#ffffff"/>
			<stop id="stop3151" offset="0.197" stop-color="#cdcdcd"/>
			<stop id="stop3153" offset="0.607" stop-color="#ffffff"/>
			<stop id="stop3155" offset="1" stop-color="#b3b3b3"/>
		</linearGradient>
		<linearGradient id="linearGradient3157" x1="0.433" x2="0.433" y1="0.383" y2="1.031">
			<stop id="stop3159" offset="0.016" stop-color="#ffffff"/>
			<stop id="stop3161" offset="0.197" stop-color="#cdcdcd"/>
			<stop id="stop3163" offset="0.607" stop-color="#ffffff"/>
			<stop id="stop3165" offset="1" stop-color="#b3b3b3"/>
		</linearGradient>
		<linearGradient id="linearGradient3167" x1="0.433" x2="0.433" y1="0.383" y2="1.031">
			<stop id="stop3169" offset="0.016" stop-color="#ffffff"/>
			<stop id="stop3171" offset="0.197" stop-color="#cdcdcd"/>
			<stop id="stop3173" offset="0.607" stop-color="#ffffff"/>
			<stop id="stop3175" offset="1" stop-color="#b3b3b3"/>
		</linearGradient>
		<linearGradient id="linearGradient3177" x1="0.433" x2="0.433" y1="0.383" y2="1.031">
			<stop id="stop3179" offset="0.016" stop-color="#ffffff"/>
			<stop id="stop3181" offset="0.197" stop-color="#cdcdcd"/>
			<stop id="stop3183" offset="0.607" stop-color="#ffffff"/>
			<stop id="stop3185" offset="1" stop-color="#b3b3b3"/>
		</linearGradient>
		<linearGradient id="linearGradient3187" x1="0.433" x2="0.433" y1="0.383" y2="1.031">
			<stop id="stop3189" offset="0.016" stop-color="#ffffff"/>
			<stop id="stop3191" offset="0.197" stop-color="#cdcdcd"/>
			<stop id="stop3193" offset="0.607" stop-color="#ffffff"/>
			<stop id="stop3195" offset="1" stop-color="#b3b3b3"/>
		</linearGradient>
		<linearGradient id="linearGradient3197" x1="0.433" x2="0.433" y1="0.383" y2="1.031">
			<stop id="stop3199" offset="0.016" stop-color="#ffffff"/>
			<stop id="stop3201" offset="0.197" stop-color="#cdcdcd"/>
			<stop id="stop3203" offset="0.607" stop-color="#ffffff"/>
			<stop id="stop3205" offset="1" stop-color="#b3b3b3"/>
		</linearGradient>
		<linearGradient id="linearGradient3207" x1="0.433" x2="0.433" y1="0.383" y2="1.031">
			<stop id="stop3209" offset="0.016" stop-color="#ffffff"/>
			<stop id="stop3211" offset="0.197" stop-color="#cdcdcd"/>
			<stop id="stop3213" offset="0.607" stop-color="#ffffff"/>
			<stop id="stop3215" offset="1" stop-color="#b3b3b3"/>
		</linearGradient>
		<linearGradient id="gr_1235" y1="0.5" y2="0.5">
			<stop offset="0.02" stop-color="#8a800d"/>
			<stop offset="0.14" stop-color="#d8b9a5"/>
			<stop offset="0.34" stop-color="#ffffff"/>
			<stop offset="0.63" stop-color="#9f940f"/>
			<stop offset="0.78" stop-color="#f7f6eb"/>
			<stop offset="0.85" stop-color="#847a0c"/>
			<stop offset="1" stop-color="#edddd3"/>
		</linearGradient>
		<linearGradient id="gr_1236" x1="-0.064" x2="0.967" y1="0.917" y2="0.064">
			<stop offset="0.406" stop-color="#f3de36"/>
			<stop offset="0.516" stop-color="#f0f787"/>
			<stop offset="0.767" stop-color="#fac01a"/>
		</linearGradient>
	</defs>
	<g display="inherit" fill="url(#gr_1235)" id="g4029" transform="matrix(1,0,0,1,0,73.137)">
		<path d="M70.031,-72.465 C68.012,-72.26 66.308,-70.37 66.313,-68.34 L66.313,-16.809 C66.319,-14.651 68.279,-12.69 70.438,-12.684 L80.844,-12.684 C83.002,-12.69 84.963,-14.651 84.969,-16.809 L84.969,-68.34 C84.963,-70.498 83.002,-72.459 80.844,-72.465 L70.438,-72.465 C70.302,-72.472 70.167,-72.472 70.031,-72.465 Z" display="inherit" id="path3199"/>
		<path d="M90.344,-72.453 C88.325,-72.248 86.62,-70.357 86.625,-68.328 L86.625,-16.797 C86.631,-14.638 88.592,-12.678 90.75,-12.672 L101.156,-12.672 C103.314,-12.678 105.275,-14.638 105.281,-16.797 L105.281,-33.984 C105.898,-33.913 107.032,-33.86 107.125,-33.828 C107.463,-33.71 107.98,-33.418 108.625,-32.734 C109.102,-32.229 111.06,-29.675 113.688,-25.734 C113.687,-25.724 113.687,-25.713 113.688,-25.703 L121.219,-14.484 C121.976,-13.369 123.308,-12.667 124.656,-12.672 L137.094,-12.672 C137.575,-12.672 139.84,-14.067 140.5,-14.89 L138.625,-22.203 L134.313,-29.047 C131.756,-33.17 129.747,-36.04 127.906,-38.015 C129.661,-38.951 131.254,-40.065 132.563,-41.515 C135.547,-44.823 137.031,-49.214 137.031,-53.89 C137.031,-57.616 136.087,-61.187 134.156,-64.234 C132.228,-67.276 129.41,-69.597 126.094,-70.828 C122.657,-72.102 118.388,-72.453 112.656,-72.453 L90.75,-72.453 C90.615,-72.46 90.479,-72.46 90.344,-72.453 Z M105.281,-55.484 L109.281,-55.484 C113.38,-55.484 116.146,-55.325 116.188,-55.328 C117.197,-55.16 117.495,-54.924 117.688,-54.703 C117.859,-54.506 118.063,-54.223 118.063,-53.203 C118.063,-52.297 117.904,-51.974 117.719,-51.703 C117.489,-51.366 117.35,-51.239 116.875,-51.078 C117.242,-51.202 113.755,-50.672 108.875,-50.672 L105.281,-50.672 L105.281,-55.484 Z" display="inherit" id="path3218"/>
		<path d="M162.281,-72.453 C160.262,-72.248 158.558,-70.357 158.563,-68.328 L158.563,-16.797 C158.568,-14.638 160.529,-12.678 162.688,-12.672 L182.281,-12.672 C186.388,-12.672 189.8,-13.029 192.719,-13.953 C196.231,-15.079 199.277,-16.698 201.656,-19.015 C204.582,-21.855 206.758,-25.516 208.219,-29.765 C209.461,-33.381 210.031,-37.486 210.031,-42.078 C210.031,-47.227 209.45,-51.729 208.125,-55.609 C206.828,-59.404 204.867,-62.727 202.281,-65.453 C199.642,-68.235 196.339,-70.243 192.656,-71.328 C189.72,-72.184 186.209,-72.453 181.719,-72.453 L162.688,-72.453 C162.552,-72.46 162.417,-72.46 162.281,-72.453 Z M177.219,-55.484 L177.781,-55.484 C181.911,-55.484 184.778,-55.22 185.406,-55.078 C185.417,-55.078 185.427,-55.078 185.437,-55.078 C186.798,-54.783 187.623,-54.325 188.281,-53.703 C188.936,-53.084 189.615,-52.06 190.156,-50.422 C190.61,-49.045 191,-46.273 191,-42.515 C191,-38.759 190.627,-35.946 190.125,-34.297 C189.558,-32.436 188.862,-31.442 188.562,-31.172 C187.984,-30.647 187.274,-30.232 186.156,-29.953 C186.146,-29.953 186.135,-29.953 186.125,-29.953 C185.6,-29.819 183.648,-29.609 180.875,-29.609 L177.219,-29.609 L177.219,-55.484 Z" display="inherit" id="path3195"/>
		<path d="M214.031,-72.465 C212.012,-72.26 210.308,-70.37 210.313,-68.34 L210.313,-16.809 C210.318,-14.651 212.279,-12.69 214.438,-12.684 L224.844,-12.684 C227.002,-12.69 228.963,-14.651 228.969,-16.809 L228.969,-68.34 C228.963,-70.498 227.002,-72.459 224.844,-72.465 L214.438,-72.465 C214.302,-72.472 214.167,-72.472 214.031,-72.465 Z" display="inherit" id="path3193"/>
		<path d="M234.25,-72.465 C232.231,-72.26 230.527,-70.37 230.531,-68.34 L230.531,-40.84 C230.531,-34.92 230.811,-30.379 231.625,-26.84 C232.257,-24.154 233.576,-21.678 235.375,-19.465 C237.316,-17.077 239.913,-15.192 242.938,-13.84 C246.399,-12.292 250.582,-11.809 255.813,-11.809 C260.242,-11.809 264.028,-12.343 267.281,-13.684 C270.29,-14.923 272.908,-16.673 274.906,-18.996 C276.891,-21.304 278.247,-24.145 278.938,-27.277 C279.65,-30.518 279.875,-34.964 279.875,-41.277 L279.875,-68.34 C279.869,-70.498 277.908,-72.459 275.75,-72.465 L265.344,-72.465 C263.186,-72.459 261.225,-70.498 261.219,-68.34 L261.219,-39.84 C261.219,-35.873 261.029,-33.054 260.813,-31.809 C260.67,-30.986 260.405,-30.492 259.594,-29.84 C259.13,-29.467 257.888,-28.934 255.5,-28.934 C253.22,-28.934 251.899,-29.437 251.125,-30.027 C250.17,-30.755 249.761,-31.407 249.5,-32.621 C249.5,-32.623 249.5,-32.651 249.5,-32.652 C249.417,-33.09 249.188,-36.094 249.188,-40.434 L249.188,-68.34 C249.182,-70.498 247.221,-72.459 245.063,-72.465 L234.656,-72.465 C234.521,-72.472 234.385,-72.472 234.25,-72.465 Z" display="inherit" id="path3191"/>
		<path d="M286.219,-72.465 C284.2,-72.26 282.495,-70.37 282.5,-68.34 L282.5,-16.809 C282.506,-14.651 284.467,-12.69 286.625,-12.684 L296.281,-12.684 C298.439,-12.69 300.4,-14.651 300.406,-16.809 L300.406,-24.027 L302.469,-15.809 C302.914,-14.042 304.647,-12.689 306.469,-12.684 L316.5,-12.684 C318.322,-12.689 320.055,-14.042 320.5,-15.809 L322.594,-24.121 L322.594,-16.809 C322.6,-14.651 324.561,-12.69 326.719,-12.684 L336.406,-12.684 C338.564,-12.69 340.525,-14.651 340.531,-16.809 L340.531,-68.34 C340.525,-70.498 338.564,-72.459 336.406,-72.465 L320.781,-72.465 C318.976,-72.467 317.25,-71.146 316.781,-69.402 L311.5,-49.371 L306.187,-69.402 C305.719,-71.146 303.993,-72.467 302.187,-72.465 L286.625,-72.465 C286.49,-72.472 286.354,-72.472 286.219,-72.465 Z" display="inherit" id="path3189"/>
		<path d="M142.038,-72.437 C140.018,-72.232 138.314,-70.342 138.319,-68.312 L138.319,-16.781 C138.325,-14.623 140.286,-12.662 142.444,-12.656 L152.85,-12.656 C155.008,-12.662 156.969,-14.623 156.975,-16.781 L156.975,-68.312 C156.969,-70.47 155.008,-72.431 152.85,-72.437 L142.444,-72.437 C142.309,-72.444 142.173,-72.444 142.038,-72.437 Z" display="inherit" id="path3193-4"/>
	</g>
	<g display="inherit" fill="url(#gr_1233)" font-family="Arial" font-size="72" font-style="normal" font-weight="700" id="mirror_iridium" stroke="none" text-anchor="start" transform="matrix(1,0,0,-1,0.006,118.216)">
		<path d="M70.4,-1.154 C69.057,-1.154 67.837,0.066 67.837,1.408 L67.837,52.94 C67.834,54.282 69.057,55.505 70.4,55.502 L80.806,55.502 C82.148,55.505 83.371,54.282 83.368,52.94 L83.368,1.408 C83.368,0.066 82.148,-1.154 80.806,-1.154 Z" display="inherit" id="path5734-5"/>
		<path d="M90.75,58.375 C89.407,58.372 88.188,59.595 88.188,60.938 L88.188,112.469 C88.185,113.811 89.407,115.034 90.75,115.031 L101.156,115.031 C102.499,115.034 103.722,113.811 103.719,112.469 L103.719,93.563 C105.615,93.604 107.184,93.772 107.656,93.938 C108.288,94.159 109.006,94.617 109.781,95.438 C110.435,96.13 112.319,98.682 114.969,102.656 C114.969,102.667 114.969,102.677 114.969,102.687 L122.5,113.906 C122.967,114.598 123.791,115.033 124.625,115.031 L137.063,115.031 C137.966,115.026 138.844,114.51 139.281,113.719 C139.718,112.928 139.696,111.893 139.219,111.125 L132.938,101.063 L132.969,101.063 C130.44,96.983 128.418,94.134 126.719,92.313 C126.226,91.785 125.624,91.31 125.062,90.813 C127.548,89.849 129.718,88.524 131.375,86.688 C134.08,83.689 135.469,79.755 135.469,75.375 C135.469,71.909 134.578,68.662 132.812,65.875 C131.048,63.091 128.534,61.02 125.531,59.906 C122.454,58.765 118.303,58.375 112.656,58.375 L90.75,58.375 Z M103.719,72.219 L109.281,72.219 C113.448,72.219 116.196,72.311 116.469,72.344 C116.471,72.344 116.529,72.343 116.531,72.344 C117.719,72.553 118.346,72.958 118.844,73.531 C119.302,74.06 119.594,74.77 119.594,76.063 C119.594,77.248 119.363,77.936 119,78.469 C118.609,79.042 118.154,79.423 117.375,79.688 C117.126,79.772 113.767,80.156 108.844,80.156 L103.719,80.156 L103.719,72.219 Z" display="inherit" id="path5732-3" transform="matrix(1,0,0,1,-0.007,-59.529)"/>
		<path d="M142.4,-1.154 C141.057,-1.157 139.834,0.066 139.837,1.408 L139.837,52.94 C139.834,54.282 141.057,55.505 142.4,55.502 L152.806,55.502 C154.148,55.505 155.371,54.282 155.368,52.94 L155.368,1.408 C155.371,0.066 154.148,-1.157 152.806,-1.154 Z" display="inherit" id="path5730-0"/>
		<path d="M162.656,58.375 C161.314,58.372 160.091,59.595 160.094,60.938 L160.094,112.469 C160.091,113.811 161.314,115.034 162.656,115.031 L182.25,115.031 C186.257,115.031 189.563,114.662 192.25,113.813 C195.594,112.741 198.403,111.229 200.563,109.125 C203.292,106.475 205.297,103.046 206.688,99 C207.858,95.593 208.437,91.646 208.438,87.188 C208.437,82.161 207.843,77.843 206.594,74.188 C205.367,70.598 203.555,67.469 201.125,64.906 C198.671,62.319 195.65,60.48 192.219,59.469 C192.219,59.458 192.219,59.448 192.219,59.438 C189.538,58.656 186.101,58.375 181.688,58.375 L162.656,58.375 Z M175.625,72.219 L177.75,72.219 C181.923,72.219 184.775,72.443 185.719,72.656 C185.729,72.656 185.74,72.656 185.75,72.656 C187.34,73.001 188.499,73.579 189.375,74.406 C190.249,75.232 191.016,76.528 191.625,78.375 C192.181,80.061 192.562,82.919 192.562,86.75 C192.562,90.581 192.21,93.516 191.625,95.438 C191,97.488 190.217,98.714 189.625,99.25 C188.879,99.926 187.873,100.469 186.5,100.813 C185.643,101.031 183.649,101.219 180.844,101.219 L175.625,101.219 L175.625,72.219 Z" display="inherit" id="path5728-6" transform="matrix(1,0,0,1,-0.007,-59.529)"/>
		<path d="M214.4,-1.154 C213.057,-1.157 211.834,0.066 211.837,1.408 L211.837,52.94 C211.834,54.282 213.057,55.505 214.4,55.502 L224.806,55.502 C226.148,55.505 227.371,54.282 227.368,52.94 L227.368,1.408 C227.371,0.066 226.148,-1.157 224.806,-1.154 Z" display="inherit" id="path5726-6"/>
		<path d="M234.618,-1.154 C233.276,-1.157 232.053,0.066 232.056,1.408 L232.056,28.908 C232.056,34.778 232.39,39.234 233.15,42.533 C233.15,42.544 233.15,42.554 233.15,42.564 C233.713,44.96 234.9,47.239 236.587,49.314 C238.351,51.484 240.715,53.201 243.556,54.471 C246.674,55.864 250.693,56.377 255.806,56.377 C260.101,56.377 263.703,55.854 266.681,54.627 C269.507,53.462 271.9,51.828 273.712,49.721 C275.527,47.61 276.731,45.051 277.368,42.158 C278.024,39.179 278.275,34.736 278.275,28.471 L278.275,1.408 C278.278,0.066 277.055,-1.157 275.712,-1.154 L265.306,-1.154 C263.963,-1.157 262.74,0.066 262.743,1.408 L262.743,29.908 C262.743,33.931 262.582,36.808 262.337,38.221 C262.137,39.373 261.643,40.252 260.556,41.127 C259.697,41.818 258.066,42.377 255.462,42.377 C252.943,42.377 251.269,41.824 250.15,40.971 C248.936,40.045 248.269,39.015 247.931,37.439 C247.93,37.436 247.932,37.411 247.931,37.408 C247.774,36.595 247.587,33.67 247.587,29.314 L247.587,1.408 C247.59,0.066 246.367,-1.157 245.025,-1.154 L234.618,-1.154 Z" display="inherit" id="path5724-0"/>
		<path d="M286.587,-1.154 C285.245,-1.157 284.022,0.066 284.025,1.408 L284.025,52.94 C284.022,54.282 285.245,55.505 286.587,55.502 L296.243,55.502 C297.586,55.505 298.809,54.282 298.806,52.94 L298.806,32.971 L303.993,53.565 C304.266,54.657 305.336,55.497 306.462,55.502 L316.462,55.502 C317.588,55.497 318.658,54.657 318.931,53.565 L324.15,32.908 L324.15,52.94 C324.147,54.282 325.37,55.505 326.712,55.502 L336.368,55.502 C337.711,55.505 338.934,54.282 338.931,52.94 L338.931,1.408 C338.934,0.066 337.711,-1.157 336.368,-1.154 L320.775,-1.154 C319.656,-1.153 318.59,-0.329 318.306,0.752 L311.493,26.596 L304.618,0.752 C304.334,-0.329 303.268,-1.153 302.15,-1.154 Z" display="inherit" id="path5722-9"/>
	</g>
	<g display="inherit" fill="url(#gr_1236)" font-family="Arial" font-size="72" font-style="normal" font-weight="700" id="bg_iridium" stroke="none" text-anchor="start" transform="matrix(1,0,0,1,0.007,3.451)">
		<path d="M70.4,-1.154 C69.057,-1.154 67.837,0.066 67.837,1.408 L67.837,52.94 C67.834,54.282 69.057,55.505 70.4,55.502 L80.806,55.502 C82.148,55.505 83.371,54.282 83.368,52.94 L83.368,1.408 C83.368,0.066 82.148,-1.154 80.806,-1.154 Z" display="inherit" id="path5734"/>
		<path d="M90.75,58.375 C89.407,58.372 88.188,59.595 88.188,60.938 L88.188,112.469 C88.185,113.811 89.407,115.034 90.75,115.031 L101.156,115.031 C102.499,115.034 103.722,113.811 103.719,112.469 L103.719,93.563 C105.615,93.604 107.184,93.772 107.656,93.938 C108.288,94.159 109.006,94.617 109.781,95.438 C110.435,96.13 112.319,98.682 114.969,102.656 C114.969,102.667 114.969,102.677 114.969,102.687 L122.5,113.906 C122.967,114.598 123.791,115.033 124.625,115.031 L137.063,115.031 C137.966,115.026 138.844,114.51 139.281,113.719 C139.718,112.928 139.696,111.893 139.219,111.125 L132.938,101.063 L132.969,101.063 C130.44,96.983 128.418,94.134 126.719,92.313 C126.226,91.785 125.624,91.31 125.062,90.813 C127.548,89.849 129.718,88.524 131.375,86.688 C134.08,83.689 135.469,79.755 135.469,75.375 C135.469,71.909 134.578,68.662 132.812,65.875 C131.048,63.091 128.534,61.02 125.531,59.906 C122.454,58.765 118.303,58.375 112.656,58.375 L90.75,58.375 Z M103.719,72.219 L109.281,72.219 C113.448,72.219 116.196,72.311 116.469,72.344 C116.471,72.344 116.529,72.343 116.531,72.344 C117.719,72.553 118.346,72.958 118.844,73.531 C119.302,74.06 119.594,74.77 119.594,76.063 C119.594,77.248 119.363,77.936 119,78.469 C118.609,79.042 118.154,79.423 117.375,79.688 C117.126,79.772 113.767,80.156 108.844,80.156 L103.719,80.156 L103.719,72.219 Z" display="inherit" id="path5732" transform="matrix(1,0,0,1,-0.007,-59.529)"/>
		<path d="M142.4,-1.154 C141.057,-1.157 139.834,0.066 139.837,1.408 L139.837,52.94 C139.834,54.282 141.057,55.505 142.4,55.502 L152.806,55.502 C154.148,55.505 155.371,54.282 155.368,52.94 L155.368,1.408 C155.371,0.066 154.148,-1.157 152.806,-1.154 Z" display="inherit" id="path5730"/>
		<path d="M162.656,58.375 C161.314,58.372 160.091,59.595 160.094,60.938 L160.094,112.469 C160.091,113.811 161.314,115.034 162.656,115.031 L182.25,115.031 C186.257,115.031 189.563,114.662 192.25,113.813 C195.594,112.741 198.403,111.229 200.563,109.125 C203.292,106.475 205.297,103.046 206.688,99 C207.858,95.593 208.437,91.646 208.438,87.188 C208.437,82.161 207.843,77.843 206.594,74.188 C205.367,70.598 203.555,67.469 201.125,64.906 C198.671,62.319 195.65,60.48 192.219,59.469 C192.219,59.458 192.219,59.448 192.219,59.438 C189.538,58.656 186.101,58.375 181.688,58.375 L162.656,58.375 Z M175.625,72.219 L177.75,72.219 C181.923,72.219 184.775,72.443 185.719,72.656 C185.729,72.656 185.74,72.656 185.75,72.656 C187.34,73.001 188.499,73.579 189.375,74.406 C190.249,75.232 191.016,76.528 191.625,78.375 C192.181,80.061 192.562,82.919 192.562,86.75 C192.562,90.581 192.21,93.516 191.625,95.438 C191,97.488 190.217,98.714 189.625,99.25 C188.879,99.926 187.873,100.469 186.5,100.813 C185.643,101.031 183.649,101.219 180.844,101.219 L175.625,101.219 L175.625,72.219 Z" display="inherit" id="path5728" transform="matrix(1,0,0,1,-0.007,-59.529)"/>
		<path d="M214.4,-1.154 C213.057,-1.157 211.834,0.066 211.837,1.408 L211.837,52.94 C211.834,54.282 213.057,55.505 214.4,55.502 L224.806,55.502 C226.148,55.505 227.371,54.282 227.368,52.94 L227.368,1.408 C227.371,0.066 226.148,-1.157 224.806,-1.154 Z" display="inherit" id="path5726"/>
		<path d="M234.618,-1.154 C233.276,-1.157 232.053,0.066 232.056,1.408 L232.056,28.908 C232.056,34.778 232.39,39.234 233.15,42.533 C233.15,42.544 233.15,42.554 233.15,42.564 C233.713,44.96 234.9,47.239 236.587,49.314 C238.351,51.484 240.715,53.201 243.556,54.471 C246.674,55.864 250.693,56.377 255.806,56.377 C260.101,56.377 263.703,55.854 266.681,54.627 C269.507,53.462 271.9,51.828 273.712,49.721 C275.527,47.61 276.731,45.051 277.368,42.158 C278.024,39.179 278.275,34.736 278.275,28.471 L278.275,1.408 C278.278,0.066 277.055,-1.157 275.712,-1.154 L265.306,-1.154 C263.963,-1.157 262.74,0.066 262.743,1.408 L262.743,29.908 C262.743,33.931 262.582,36.808 262.337,38.221 C262.137,39.373 261.643,40.252 260.556,41.127 C259.697,41.818 258.066,42.377 255.462,42.377 C252.943,42.377 251.269,41.824 250.15,40.971 C248.936,40.045 248.269,39.015 247.931,37.439 C247.93,37.436 247.932,37.411 247.931,37.408 C247.774,36.595 247.587,33.67 247.587,29.314 L247.587,1.408 C247.59,0.066 246.367,-1.157 245.025,-1.154 L234.618,-1.154 Z" display="inherit" id="path5724"/>
		<path d="M286.587,-1.154 C285.245,-1.157 284.022,0.066 284.025,1.408 L284.025,52.94 C284.022,54.282 285.245,55.505 286.587,55.502 L296.243,55.502 C297.586,55.505 298.809,54.282 298.806,52.94 L298.806,32.971 L303.993,53.565 C304.266,54.657 305.336,55.497 306.462,55.502 L316.462,55.502 C317.588,55.497 318.658,54.657 318.931,53.565 L324.15,32.908 L324.15,52.94 C324.147,54.282 325.37,55.505 326.712,55.502 L336.368,55.502 C337.711,55.505 338.934,54.282 338.931,52.94 L338.931,1.408 C338.934,0.066 337.711,-1.157 336.368,-1.154 L320.775,-1.154 C319.656,-1.153 318.59,-0.329 318.306,0.752 L311.493,26.596 L304.618,0.752 C304.334,-0.329 303.268,-1.153 302.15,-1.154 Z" display="inherit" id="path5722"/>
	</g>
	<g display="inherit" fill="url(#gr_1229)" font-family="Arial" font-size="72" font-style="normal" font-weight="700" id="fg_iridium" stroke="none" text-anchor="start" transform="matrix(1,0,0,1,0,3.022)">
		<path d="M70.412,52.941 L70.412,1.402 L80.818,1.402 L80.818,52.941 Z" display="inherit" id="path5497"/>
		<path d="M90.732,52.941 L90.732,1.402 L112.635,1.402 C118.142,1.402 122.144,1.865 124.641,2.791 C127.137,3.717 129.135,5.363 130.635,7.73 C132.135,10.097 132.885,12.804 132.885,15.851 C132.885,19.719 131.748,22.912 129.475,25.431 C127.201,27.951 123.803,29.539 119.279,30.195 C121.529,31.508 123.387,32.949 124.852,34.519 C126.316,36.09 128.291,38.879 130.775,42.886 L137.068,52.941 L124.623,52.941 L117.1,41.726 C114.428,37.719 112.6,35.193 111.615,34.15 C110.631,33.107 109.588,32.392 108.486,32.006 C107.385,31.619 105.639,31.426 103.248,31.426 L101.139,31.426 L101.139,52.941 Z M101.139,23.199 L108.838,23.199 C113.83,23.199 116.947,22.988 118.189,22.566 C119.432,22.144 120.404,21.418 121.107,20.386 C121.81,19.355 122.162,18.066 122.162,16.519 C122.162,14.785 121.699,13.385 120.773,12.318 C119.848,11.252 118.541,10.578 116.853,10.297 C116.01,10.179 113.478,10.121 109.26,10.121 L101.139,10.121 Z" display="inherit" id="path5499"/>
		<path d="M142.412,52.941 L142.412,1.402 L152.818,1.402 L152.818,52.941 Z" display="inherit" id="path5501"/>
		<path d="M162.662,1.402 L181.682,1.402 C185.971,1.402 189.24,1.73 191.49,2.386 C194.514,3.277 197.103,4.859 199.26,7.133 C201.416,9.406 203.057,12.189 204.182,15.482 C205.307,18.775 205.869,22.836 205.869,27.664 C205.869,31.906 205.342,35.562 204.287,38.633 C202.998,42.383 201.158,45.418 198.768,47.738 C196.963,49.496 194.525,50.867 191.455,51.851 C189.158,52.578 186.088,52.941 182.244,52.941 L162.662,52.941 Z M173.068,10.121 L173.068,44.258 L180.838,44.258 C183.744,44.258 185.842,44.094 187.131,43.765 C188.818,43.344 190.219,42.629 191.332,41.621 C192.445,40.613 193.353,38.955 194.057,36.646 C194.76,34.338 195.111,31.191 195.111,27.207 C195.111,23.222 194.76,20.164 194.057,18.031 C193.353,15.898 192.369,14.234 191.103,13.039 C189.838,11.844 188.232,11.035 186.287,10.613 C184.834,10.285 181.986,10.121 177.744,10.121 Z" display="inherit" id="path5503"/>
		<path d="M214.412,52.941 L214.412,1.402 L224.818,1.402 L224.818,52.941 Z" display="inherit" id="path5505"/>
		<path d="M234.627,1.402 L245.033,1.402 L245.033,29.316 C245.033,33.746 245.162,36.617 245.42,37.929 C245.865,40.039 246.926,41.732 248.602,43.01 C250.277,44.287 252.568,44.926 255.475,44.926 C258.428,44.926 260.654,44.322 262.154,43.115 C263.654,41.908 264.557,40.426 264.861,38.668 C265.166,36.91 265.318,33.992 265.318,29.914 L265.318,1.402 L275.725,1.402 L275.725,28.472 C275.725,34.66 275.443,39.031 274.881,41.586 C274.318,44.14 273.281,46.297 271.77,48.054 C270.258,49.812 268.236,51.213 265.705,52.256 C263.174,53.299 259.869,53.82 255.791,53.82 C250.869,53.82 247.137,53.252 244.594,52.115 C242.051,50.978 240.041,49.502 238.564,47.685 C237.088,45.869 236.115,43.965 235.646,41.972 C234.967,39.019 234.627,34.66 234.627,28.894 Z" display="inherit" id="path5507"/>
		<path d="M286.588,52.941 L286.588,1.402 L302.162,1.402 L311.514,36.558 L320.76,1.402 L336.369,1.402 L336.369,52.941 L326.701,52.941 L326.701,12.371 L316.471,52.941 L306.451,52.941 L296.256,12.371 L296.256,52.941 Z" display="inherit" id="path5509"/>
	</g>
	<g id="ikivo_ctrl_anim">
		<animate accumulate="none" attributeName="display" begin="0" calcMode="discrete" fill="remove" id="Default" keyTimes="0;1" repeatCount="1" values="inherit;inherit"/>
	</g>
</svg>
