<?xml version="1.0" encoding="UTF-8" standalone="no"?>
<!-- Generator: Adobe Illustrator 13.0.0, SVG Export Plug-In . SVG Version: 6.00 Build 14948)  -->
<svg
   xmlns:dc="http://purl.org/dc/elements/1.1/"
   xmlns:cc="http://web.resource.org/cc/"
   xmlns:rdf="http://www.w3.org/1999/02/22-rdf-syntax-ns#"
   xmlns:svg="http://www.w3.org/2000/svg"
   xmlns="http://www.w3.org/2000/svg"
   xmlns:sodipodi="http://sodipodi.sourceforge.net/DTD/sodipodi-0.dtd"
   xmlns:inkscape="http://www.inkscape.org/namespaces/inkscape"
   version="1.1"
   id="Livello_1"
   x="0px"
   y="0px"
   width="85.1px"
   height="82.4px"
   viewBox="0 0 85.1 82.4"
   enable-background="new 0 0 85.1 82.4"
   xml:space="preserve"
   sodipodi:version="0.32"
   inkscape:version="0.45.1"
   sodipodi:docname="menu.svg"
   inkscape:output_extension="org.inkscape.output.svg.inkscape"
   sodipodi:docbase="C:\online\Guardian3rd\GuardGUI\gfx"><metadata
   id="metadata251"><rdf:RDF><cc:Work
       rdf:about=""><dc:format>image/svg+xml</dc:format><dc:type
         rdf:resource="http://purl.org/dc/dcmitype/StillImage" /></cc:Work></rdf:RDF></metadata><defs
   id="defs249" /><sodipodi:namedview
   inkscape:window-height="573"
   inkscape:window-width="791"
   inkscape:pageshadow="2"
   inkscape:pageopacity="0.0"
   guidetolerance="10.0"
   gridtolerance="10.0"
   objecttolerance="10.0"
   borderopacity="1.0"
   bordercolor="#666666"
   pagecolor="#ffffff"
   id="base"
   inkscape:zoom="4.5752426"
   inkscape:cx="42.549999"
   inkscape:cy="41.200001"
   inkscape:window-x="88"
   inkscape:window-y="116"
   inkscape:current-layer="Livello_1" />
<radialGradient
   id="SVGID_1_"
   cx="138.7532"
   cy="-127.3489"
   r="18.0993"
   gradientTransform="matrix(2.0042,0,0,-1.9014,-235.6684,-204.7706)"
   gradientUnits="userSpaceOnUse">
	<stop
   offset="0"
   style="stop-color:#FAD1C1"
   id="stop4" />
	<stop
   offset="1"
   style="stop-color:#AB301E"
   id="stop6" />
</radialGradient>

<linearGradient
   id="SVGID_2_"
   gradientUnits="userSpaceOnUse"
   x1="378.4377"
   y1="5.9011"
   x2="448.1223"
   y2="5.9011"
   gradientTransform="matrix(0.8908,0.4847,0.9892,-1.818,-322.4206,-169.0812)">
	<stop
   offset="0"
   style="stop-color:#66A1B4"
   id="stop11" />
	<stop
   offset="1"
   style="stop-color:#0371B4"
   id="stop13" />
</linearGradient>




<g
   id="g2403"
   transform="translate(0,4.1527853)"><ellipse
     id="ellipse8"
     ry="34.700001"
     rx="35.900002"
     cy="37.400002"
     cx="42.400002"
     style="fill:url(#SVGID_1_)"
     sodipodi:cx="42.400002"
     sodipodi:cy="37.400002"
     sodipodi:rx="35.900002"
     sodipodi:ry="34.700001" /><path
     id="path15"
     d="M 12.7,18 C 20.2,4.3 43.4,-2.9 60.6,6.8 C 77.1,16.1 82.6,37.9 75.4,50.6"
     style="fill:url(#SVGID_2_)" /><g
     id="g17">
	<path
   id="path19"
   d="M 76.3,47.8 C 76.3,30.9 26.4,-5 12.7,18.7"
   style="fill:#ffffff;stroke:#ffffff" />
	
		<radialGradient
   gradientUnits="userSpaceOnUse"
   gradientTransform="matrix(1.9769,0,0,-1.9088,-234.7548,-203.9757)"
   r="12.9145"
   cy="-124.6897"
   cx="140.82739"
   id="SVGID_3_">
		<stop
   id="stop22"
   style="stop-color:#FAD1C1"
   offset="0" />
		<stop
   id="stop24"
   style="stop-color:#AB301E"
   offset="1" />
	</radialGradient>
	<path
   id="path26"
   d="M 75.4,50.6 C 75.4,37.9 35.8,9.1 11.8,19.9"
   style="fill:url(#SVGID_3_);stroke:#ffffff" />
	<polygon
   id="polygon28"
   points="73.7,45.8 76.7,47.7 76,49.8 73.7,45.8 "
   style="fill:#ffffff" />
	<polygon
   id="polygon30"
   points="75,52.1 75,48.3 76.1,49.4 75,52.1 "
   style="fill:#ffffff" />
	<polygon
   id="polygon32"
   points="13.9,19.3 10.8,20.9 12.8,17.7 13.9,19.3 "
   style="fill:#ffffff" />
</g><g
     id="g34">
	<g
   id="g36">
		<g
   id="g38">
			<g
   id="g40">
				<path
   id="path42"
   d="M 20.6,42.5 C 33.3,33.5 50.7,35.8 59.7,47.5"
   style="fill:none;stroke:#ffffff;stroke-width:0.25;stroke-opacity:0.54000005" />
				<g
   id="g44">
					<g
   id="g46">
						<path
   id="path48"
   d="M 51.8,63.9 C 51.8,42.7 34.4,25.6 12.9,25.6"
   style="fill:none;stroke:#ffffff;stroke-width:0.25;stroke-opacity:0.54000005" />
						<path
   id="path50"
   d="M 17.7,55.7 C 38.4,48.8 49.2,34.7 42.2,15.1"
   style="fill:none;stroke:#ffffff;stroke-width:0.25;stroke-opacity:0.54000005" />
						<path
   id="path52"
   d="M 28.5,63.7 C 44.2,48.9 47.4,27.3 32.4,12.5"
   style="fill:none;stroke:#ffffff;stroke-width:0.25;stroke-opacity:0.54000005" />
						<path
   id="path54"
   d="M 10.7,34.4 C 30.3,44 50.1,44.2 59.7,25.7"
   style="fill:none;stroke:#ffffff;stroke-width:0.25;stroke-opacity:0.54000005" />
					</g>
					<path
   id="path56"
   d="M 34.7,12.5 C 28.8,32.9 41.8,46.8 62.5,52.4"
   style="fill:none;stroke:#ffffff;stroke-width:0.25;stroke-opacity:0.54000005" />
					<path
   id="path58"
   d="M 48.3,17.3 C 48.3,32.5 36.1,44.7 21,44.7"
   style="fill:none;stroke:#ffffff;stroke-width:0.25;stroke-opacity:0.54000005" />
					<path
   id="path60"
   d="M 23.5,23.3 C 38.5,27.9 46.9,42.9 42.4,56.7"
   style="fill:none;stroke:#ffffff;stroke-width:0.25;stroke-opacity:0.54000005" />
					<path
   id="path62"
   d="M 29.4,40.2 C 43.7,33.9 60.4,39.7 66.6,53"
   style="fill:none;stroke:#ffffff;stroke-width:0.25;stroke-opacity:0.54000005" />
					<path
   id="path64"
   d="M 17.5,28.9 C 33.2,27.9 46.7,38.8 47.7,53.4"
   style="fill:none;stroke:#ffffff;stroke-width:0.25;stroke-opacity:0.54000005" />
					<path
   id="path66"
   d="M 40.1,54 C 35.7,39.4 36.8,25.5 51.3,21.3"
   style="fill:none;stroke:#ffffff;stroke-width:0.25;stroke-opacity:0.54000005" />
				</g>
				<path
   id="path68"
   d="M 21.2,39.7 C 24.6,33.9 31.9,31.6 37.4,34.5"
   style="fill:none;stroke:#ffffff;stroke-width:0.25;stroke-opacity:0.54000005" />
				<path
   id="path70"
   d="M 54.5,52.4 C 49.1,48.2 47.9,40.9 51.9,36.1"
   style="fill:none;stroke:#ffffff;stroke-width:0.25;stroke-opacity:0.54000005" />
			</g>
			<g
   id="g72">
				<path
   id="path74"
   d="M 22.8,30.2 C 38.5,30.9 50.7,43.1 50,57.7"
   style="fill:none;stroke:#ffffff;stroke-width:0.25;stroke-opacity:0.54000005" />
				<g
   id="g76">
					<g
   id="g78">
						<path
   id="path80"
   d="M 33.4,65.7 C 47.1,49.1 44.7,25.2 27.9,12.2"
   style="fill:none;stroke:#ffffff;stroke-width:0.25;stroke-opacity:0.54000005" />
						<path
   id="path82"
   d="M 12,38.7 C 32.7,45.9 48.4,42.3 55.7,22.9"
   style="fill:none;stroke:#ffffff;stroke-width:0.25;stroke-opacity:0.54000005" />
						<path
   id="path84"
   d="M 15.2,51.4 C 37,49.3 52.8,39.8 50.7,19.2"
   style="fill:none;stroke:#ffffff;stroke-width:0.25;stroke-opacity:0.54000005" />
						<path
   id="path86"
   d="M 20.3,17.8 C 29.4,37.1 44.7,49.2 64.2,40.6"
   style="fill:none;stroke:#ffffff;stroke-width:0.25;stroke-opacity:0.54000005" />
					</g>
					<path
   id="path88"
   d="M 47,17.6 C 39,23.2 28.2,35 49.1,63.2"
   style="fill:none;stroke:#ffffff;stroke-width:0.25;stroke-opacity:0.54000005" />
					<path
   id="path90"
   d="M 60.8,27.3 C 51,39.1 33.4,41.3 21.7,32.2"
   style="fill:none;stroke:#ffffff;stroke-width:0.25;stroke-opacity:0.54000005" />
					<path
   id="path92"
   d="M 37.4,16.9 C 46.1,29.5 43.1,46.3 30.5,54.4"
   style="fill:none;stroke:#ffffff;stroke-width:0.25;stroke-opacity:0.54000005" />
					<path
   id="path94"
   d="M 31.2,33.6 C 46.4,37.4 55.7,51.8 51.9,66"
   style="fill:none;stroke:#ffffff;stroke-width:0.25;stroke-opacity:0.54000005" />
					<path
   id="path96"
   d="M 29.2,17.6 C 42.1,26.3 45.6,43 36.9,55"
   style="fill:none;stroke:#ffffff;stroke-width:0.25;stroke-opacity:0.54000005" />
					<path
   id="path98"
   d="M 30.6,50.9 C 36.6,36.8 52.7,30 66.7,35.5"
   style="fill:none;stroke:#ffffff;stroke-width:0.25;stroke-opacity:0.54000005" />
				</g>
				<path
   id="path100"
   d="M 25,28.3 C 31.4,25.8 38.6,28.4 40.9,34.1"
   style="fill:none;stroke:#ffffff;stroke-width:0.25;stroke-opacity:0.54000005" />
				<path
   id="path102"
   d="M 42.8,58.4 C 41.3,51.8 45.1,45.4 51.3,44.1"
   style="fill:none;stroke:#ffffff;stroke-width:0.25;stroke-opacity:0.54000005" />
			</g>
			<g
   id="g104">
				<path
   id="path106"
   d="M 26.6,24.5 C 41.2,30.2 48.5,45.7 42.9,59.2"
   style="fill:none;stroke:#ffffff;stroke-width:0.25;stroke-opacity:0.54000005" />
				<g
   id="g108">
					<g
   id="g110">
						<path
   id="path112"
   d="M 24.5,61.5 C 43.1,50.2 47.2,30.1 35.8,12.5"
   style="fill:none;stroke:#ffffff;stroke-width:0.25;stroke-opacity:0.54000005" />
						<path
   id="path114"
   d="M 13.6,29.2 C 30.7,42.5 46.9,44 60.4,27.8"
   style="fill:none;stroke:#ffffff;stroke-width:0.25;stroke-opacity:0.54000005" />
						<path
   id="path116"
   d="M 12.1,42.2 C 33.5,47.2 47.2,43.7 52.2,23.5"
   style="fill:none;stroke:#ffffff;stroke-width:0.25;stroke-opacity:0.54000005" />
						<path
   id="path118"
   d="M 28.5,12.1 C 30.5,33.2 40.8,49.5 62.2,47.6"
   style="fill:none;stroke:#ffffff;stroke-width:0.25;stroke-opacity:0.54000005" />
					</g>
					<path
   id="path120"
   d="M 54.6,22.3 C 33.5,28.3 34,44.1 40.1,64"
   style="fill:none;stroke:#ffffff;stroke-width:0.25;stroke-opacity:0.54000005" />
					<path
   id="path122"
   d="M 63.5,33.8 C 50.2,41.8 32.9,38.4 24.9,26"
   style="fill:none;stroke:#ffffff;stroke-width:0.25;stroke-opacity:0.54000005" />
					<path
   id="path124"
   d="M 45,16.6 C 49,31.3 40.3,46.1 25.7,49.9"
   style="fill:none;stroke:#ffffff;stroke-width:0.25;stroke-opacity:0.54000005" />
					<path
   id="path126"
   d="M 33.4,30.4 C 46.5,38.8 50.3,55.5 41.9,67.6"
   style="fill:none;stroke:#ffffff;stroke-width:0.25;stroke-opacity:0.54000005" />
					<path
   id="path128"
   d="M 36.9,14.8 C 46.1,27 43.8,44 31.5,52.5"
   style="fill:none;stroke:#ffffff;stroke-width:0.25;stroke-opacity:0.54000005" />
					<path
   id="path130"
   d="M 26.8,46.6 C 37.2,35.3 54.8,33.9 66.2,43.6"
   style="fill:none;stroke:#ffffff;stroke-width:0.25;stroke-opacity:0.54000005" />
				</g>
				<path
   id="path132"
   d="M 29.3,23.5 C 36.2,23.2 42.1,27.9 42.4,34"
   style="fill:none;stroke:#ffffff;stroke-width:0.25;stroke-opacity:0.54000005" />
				<path
   id="path134"
   d="M 35.9,57.6 C 36.7,50.9 42.4,46.1 48.8,46.8"
   style="fill:none;stroke:#ffffff;stroke-width:0.25;stroke-opacity:0.54000005" />
			</g>
		</g>
		<path
   id="path136"
   d="M 74.6,50.8 C 48.4,37.1 32.4,28.7 17.3,47.3"
   style="fill:none;stroke:#ffffff;stroke-width:0.25;stroke-opacity:0.54000005" />
		<path
   id="path138"
   d="M 53.2,59.5 C 42.8,32.5 30.5,28.7 12.4,20.5"
   style="fill:none;stroke:#ffffff;stroke-width:0.25;stroke-opacity:0.54000005" />
	</g>
	<g
   id="g140">
		<g
   id="g142">
			<g
   id="g144">
				<path
   id="path146"
   d="M 61.5,44 C 48.8,35 31.4,37.3 22.4,49"
   style="fill:none;stroke:#ffffff;stroke-width:0.25;stroke-opacity:0.54000005" />
				<g
   id="g148">
					<g
   id="g150">
						<path
   id="path152"
   d="M 30.3,65.4 C 30.3,44.2 39.3,27.3 60.8,27.3"
   style="fill:none;stroke:#ffffff;stroke-width:0.25;stroke-opacity:0.54000005" />
						<path
   id="path154"
   d="M 64.4,57.2 C 43.7,50.3 32.9,36.2 39.9,16.6"
   style="fill:none;stroke:#ffffff;stroke-width:0.25;stroke-opacity:0.54000005" />
						<path
   id="path156"
   d="M 53.8,65.2 C 38,50.4 30.6,31.8 45.6,16.9"
   style="fill:none;stroke:#ffffff;stroke-width:0.25;stroke-opacity:0.54000005" />
						<path
   id="path158"
   d="M 71.5,35.8 C 51.9,45.4 32.1,45.6 22.5,27.1"
   style="fill:none;stroke:#ffffff;stroke-width:0.25;stroke-opacity:0.54000005" />
					</g>
					<path
   id="path160"
   d="M 47.8,18.2 C 53.7,38.6 40.4,48.3 19.7,54"
   style="fill:none;stroke:#ffffff;stroke-width:0.25;stroke-opacity:0.54000005" />
					<path
   id="path162"
   d="M 33.8,18.7 C 33.8,33.8 46,46.1 61.1,46.1"
   style="fill:none;stroke:#ffffff;stroke-width:0.25;stroke-opacity:0.54000005" />
					<path
   id="path164"
   d="M 58.8,24.8 C 43.8,29.4 35.4,44.3 39.8,58.2"
   style="fill:none;stroke:#ffffff;stroke-width:0.25;stroke-opacity:0.54000005" />
					<path
   id="path166"
   d="M 52.8,41.6 C 38.5,35.3 21.8,41.1 15.6,54.4"
   style="fill:none;stroke:#ffffff;stroke-width:0.25;stroke-opacity:0.54000005" />
					<path
   id="path168"
   d="M 64.7,30.3 C 49,29.3 35.5,40.3 34.5,54.8"
   style="fill:none;stroke:#ffffff;stroke-width:0.25;stroke-opacity:0.54000005" />
					<path
   id="path170"
   d="M 42.1,55.5 C 46.5,40.9 45.4,27 30.9,22.8"
   style="fill:none;stroke:#ffffff;stroke-width:0.25;stroke-opacity:0.54000005" />
				</g>
				<path
   id="path172"
   d="M 61,41.3 C 57.6,35.5 50.3,33.2 44.8,36.1"
   style="fill:none;stroke:#ffffff;stroke-width:0.25;stroke-opacity:0.54000005" />
				<path
   id="path174"
   d="M 27.6,54 C 33,49.8 34.2,42.6 30.2,37.7"
   style="fill:none;stroke:#ffffff;stroke-width:0.25;stroke-opacity:0.54000005" />
			</g>
			<g
   id="g176">
				<path
   id="path178"
   d="M 59.3,31.6 C 43.6,32.3 31.4,44.5 32,59.1"
   style="fill:none;stroke:#ffffff;stroke-width:0.25;stroke-opacity:0.54000005" />
				<g
   id="g180">
					<g
   id="g182">
						<path
   id="path184"
   d="M 48.9,67.2 C 35.2,50.6 32.9,33.3 49.7,20.3"
   style="fill:none;stroke:#ffffff;stroke-width:0.25;stroke-opacity:0.54000005" />
						<path
   id="path186"
   d="M 70.1,40.2 C 49.4,47.4 33.7,43.8 26.4,24.4"
   style="fill:none;stroke:#ffffff;stroke-width:0.25;stroke-opacity:0.54000005" />
						<path
   id="path188"
   d="M 67,52.9 C 45.2,50.8 29.3,41.3 31.5,20.7"
   style="fill:none;stroke:#ffffff;stroke-width:0.25;stroke-opacity:0.54000005" />
						<path
   id="path190"
   d="M 52.8,21.2 C 43.7,40.5 37.5,50.7 18,42.1"
   style="fill:none;stroke:#ffffff;stroke-width:0.25;stroke-opacity:0.54000005" />
					</g>
					<path
   id="path192"
   d="M 35.2,19.1 C 43.2,24.7 54,36.5 33.1,64.7"
   style="fill:none;stroke:#ffffff;stroke-width:0.25;stroke-opacity:0.54000005" />
					<path
   id="path194"
   d="M 21.3,28.7 C 31.1,40.6 48.6,42.8 60.4,33.6"
   style="fill:none;stroke:#ffffff;stroke-width:0.25;stroke-opacity:0.54000005" />
					<path
   id="path196"
   d="M 44.7,18.4 C 36,31 39,47.8 51.6,55.9"
   style="fill:none;stroke:#ffffff;stroke-width:0.25;stroke-opacity:0.54000005" />
					<path
   id="path198"
   d="M 51,35.1 C 35.8,38.9 26.5,53.4 30.3,67.5"
   style="fill:none;stroke:#ffffff;stroke-width:0.25;stroke-opacity:0.54000005" />
					<path
   id="path200"
   d="M 49.2,20.1 C 36.3,28.7 36.6,44.5 45.2,56.5"
   style="fill:none;stroke:#ffffff;stroke-width:0.25;stroke-opacity:0.54000005" />
					<path
   id="path202"
   d="M 51.6,52.4 C 45.6,38.3 29.5,31.4 15.5,37"
   style="fill:none;stroke:#ffffff;stroke-width:0.25;stroke-opacity:0.54000005" />
				</g>
				<path
   id="path204"
   d="M 57.1,29.8 C 50.7,27.3 43.5,29.9 41.2,35.6"
   style="fill:none;stroke:#ffffff;stroke-width:0.25;stroke-opacity:0.54000005" />
				<path
   id="path206"
   d="M 39.3,59.9 C 40.8,53.3 37,46.9 30.8,45.6"
   style="fill:none;stroke:#ffffff;stroke-width:0.25;stroke-opacity:0.54000005" />
			</g>
			<g
   id="g208">
				<path
   id="path210"
   d="M 55.6,26 C 41,31.6 33.6,47.1 39.2,60.6"
   style="fill:none;stroke:#ffffff;stroke-width:0.25;stroke-opacity:0.54000005" />
				<g
   id="g212">
					<g
   id="g214">
						<path
   id="path216"
   d="M 57.7,62.9 C 39.1,51.6 32.7,34.5 44.2,17"
   style="fill:none;stroke:#ffffff;stroke-width:0.25;stroke-opacity:0.54000005" />
						<path
   id="path218"
   d="M 64.7,30.3 C 47.6,43.7 35.3,45.4 21.9,29.3"
   style="fill:none;stroke:#ffffff;stroke-width:0.25;stroke-opacity:0.54000005" />
						<path
   id="path220"
   d="M 70,43.7 C 48.7,48.7 35,45.2 29.9,25"
   style="fill:none;stroke:#ffffff;stroke-width:0.25;stroke-opacity:0.54000005" />
						<path
   id="path222"
   d="M 53.4,22 C 51.4,43.1 41.5,50.9 20.1,49"
   style="fill:none;stroke:#ffffff;stroke-width:0.25;stroke-opacity:0.54000005" />
					</g>
					<path
   id="path224"
   d="M 27.5,23.7 C 48.6,29.7 48.1,45.5 42,65.4"
   style="fill:none;stroke:#ffffff;stroke-width:0.25;stroke-opacity:0.54000005" />
					<path
   id="path226"
   d="M 18.7,35.3 C 32,43.3 49.3,39.9 57.3,27.5"
   style="fill:none;stroke:#ffffff;stroke-width:0.25;stroke-opacity:0.54000005" />
					<path
   id="path228"
   d="M 37.3,18.2 C 33.3,32.9 42,47.7 56.6,51.5"
   style="fill:none;stroke:#ffffff;stroke-width:0.25;stroke-opacity:0.54000005" />
					<path
   id="path230"
   d="M 48.9,32 C 35.7,40.3 31.9,57 40.3,69.1"
   style="fill:none;stroke:#ffffff;stroke-width:0.25;stroke-opacity:0.54000005" />
					<path
   id="path232"
   d="M 45.3,16.2 C 36.1,28.6 38.4,45.4 50.7,53.9"
   style="fill:none;stroke:#ffffff;stroke-width:0.25;stroke-opacity:0.54000005" />
					<path
   id="path234"
   d="M 55.3,48 C 44.9,36.7 27.3,35.3 15.9,45"
   style="fill:none;stroke:#ffffff;stroke-width:0.25;stroke-opacity:0.54000005" />
				</g>
				<path
   id="path236"
   d="M 52.9,25 C 46,24.7 40.1,29.4 39.8,35.5"
   style="fill:none;stroke:#ffffff;stroke-width:0.25;stroke-opacity:0.54000005" />
				<path
   id="path238"
   d="M 46.3,59 C 45.5,52.3 39.8,47.5 33.4,48.2"
   style="fill:none;stroke:#ffffff;stroke-width:0.25;stroke-opacity:0.54000005" />
			</g>
		</g>
		<path
   id="path240"
   d="M 11.4,49.9 C 37.6,36.2 49.7,30.3 64.9,48.8"
   style="fill:none;stroke:#ffffff;stroke-width:0.25;stroke-opacity:0.54000005" />
		<path
   id="path242"
   d="M 29,60.9 C 39.4,33.9 34.6,30.6 52.7,22.4"
   style="fill:none;stroke:#ffffff;stroke-width:0.25;stroke-opacity:0.54000005" />
	</g>
</g><ellipse
     id="ellipse244"
     ry="13.9"
     rx="14.9"
     cy="37.799999"
     cx="41.799999"
     sodipodi:cx="41.799999"
     sodipodi:cy="37.799999"
     sodipodi:rx="14.9"
     sodipodi:ry="13.9"
     style="fill:#1b171b" /><ellipse
     id="ellipse246"
     ry="5.9000001"
     rx="5.8000002"
     cy="31.200001"
     cx="28.9"
     sodipodi:cx="28.9"
     sodipodi:cy="31.200001"
     sodipodi:rx="5.8000002"
     sodipodi:ry="5.9000001"
     style="fill:#ffffff" /></g>
</svg>