<?xml version="1.0" encoding="UTF-8"?>
<!-- Generator: Ikivo Animator 2.2 (build 2.2.0.10) -->
<svg baseProfile="tiny" display="inherit" height="40" id="Livello_1" version="1.1" viewBox="0 0 68 40" width="68" xml:space="preserve" xmlns="http://www.w3.org/2000/svg" xmlns:xlink="http://www.w3.org/1999/xlink" xmlns:ev="http://www.w3.org/2001/xml-events">
	<title/>
	<desc/>
	<metadata id="metadata20"/>
	<defs display="inherit" id="defs18"/>
	<path d="M4.5,0 C3.6,0 0.1,2.287 0,3.687 L0,9.313 C-0,11.313 0.6,11 2.5,11 L16.094,11 C17.994,11 18.594,11.412 18.594,9.313 L18.594,2.687 C18.594,0.688 17.994,-0 16.094,0 L4.5,0 Z M10.094,1.25 L13.188,1.25 C15.303,1.25 16.969,2.027 16.969,4.031 L16.969,7.063 C16.969,9.178 15.303,9.844 13.188,9.844 L10.094,9.844 C7.978,9.844 6.281,9.067 6.281,7.063 L6.281,4.031 C6.281,1.915 7.978,1.25 10.094,1.25 Z M10.437,2.313 C8.745,2.313 7.406,2.837 7.406,4.469 L7.406,6.781 C7.406,8.327 8.745,8.937 10.437,8.937 L12.906,8.937 C14.598,8.937 15.937,8.413 15.937,6.781 L15.937,4.469 C15.937,2.923 14.598,2.313 12.906,2.313 L10.437,2.313 Z M11.406,3.031 L12.094,3.031 L12.094,4.281 C12.344,4.298 12.541,4.442 12.656,4.688 L14.125,3.844 L14.469,4.469 L12.781,5.438 L12.781,5.813 L14.563,6.813 L14.219,7.438 L12.688,6.563 C12.575,6.824 12.35,6.954 12.094,6.969 L12.094,8.25 L11.406,8.25 L11.406,6.969 C11.135,6.96 10.898,6.834 10.781,6.563 L9.156,7.531 L8.813,6.906 L10.688,5.813 L10.688,5.438 L8.875,4.375 L9.25,3.75 L10.813,4.625 C10.937,4.399 11.157,4.288 11.406,4.281 L11.406,3.031 Z M11.5,5.094 C11.389,5.131 11.313,5.229 11.313,5.438 L11.313,5.844 C11.313,6.107 11.452,6.219 11.625,6.219 L11.875,6.219 C12.048,6.219 12.188,6.122 12.188,5.844 L12.188,5.438 C12.188,5.174 12.048,5.094 11.875,5.094 L11.625,5.094 C11.582,5.094 11.537,5.081 11.5,5.094 Z" display="inherit" id="path3" transform="matrix(3.524,0,0,3.524,1.218,0.595)"/>
</svg>