<?xml version="1.0" encoding="UTF-8"?>
<!-- Generator: Ikivo Animator 2.2 (build 2.2.0.10) -->
<!DOCTYPE svg PUBLIC "-//W3C//DTD SVG 1.1 Tiny//EN" "http://www.w3.org/Graphics/SVG/1.1/DTD/svg11-tiny.dtd">
<svg baseProfile="tiny" display="inherit" height="100" id="svg" version="1.1" viewBox="0 0 200 100" width="200" xmlns="http://www.w3.org/2000/svg" xmlns:xlink="http://www.w3.org/1999/xlink" xmlns:ev="http://www.w3.org/2001/xml-events">
	<metadata id="metadata76">
    
  </metadata>
	<defs display="inherit" id="defs5">
		<linearGradient id="gr_917" x1="0.5" x2="0.5" y1="1">
			<stop offset="0.148" stop-color="#ffffff" stop-opacity="0"/>
			<stop offset="1" stop-color="#000000" stop-opacity="0.9"/>
		</linearGradient>
	</defs>
	<g display="inherit" id="Edition" transform="matrix(7.66,0,0,7.66,-596.582,-231.819)">
		<path d="M78.111,31.886 L81.455,31.886 L81.455,32.748 L79.362,32.748 L79.362,33.389 L81.303,33.389 L81.303,34.213 L79.362,34.213 L79.362,35.009 L81.515,35.009 L81.515,35.923 L78.111,35.923 L78.111,31.886 Z M82.206,31.886 L84.06,31.886 C84.425,31.886 84.72,31.935 84.945,32.034 C85.17,32.134 85.356,32.276 85.503,32.461 C85.65,32.647 85.756,32.862 85.822,33.108 C85.888,33.354 85.921,33.615 85.921,33.89 C85.921,34.322 85.872,34.657 85.774,34.894 C85.676,35.132 85.539,35.331 85.365,35.492 C85.191,35.652 85.003,35.759 84.803,35.813 C84.53,35.886 84.282,35.923 84.06,35.923 L82.206,35.923 L82.206,31.886 Z M83.454,32.8 L83.454,35.006 L83.76,35.006 C84.02,35.006 84.206,34.977 84.316,34.919 C84.426,34.861 84.512,34.76 84.575,34.616 C84.637,34.472 84.668,34.238 84.668,33.915 C84.668,33.488 84.599,33.195 84.459,33.037 C84.319,32.879 84.088,32.8 83.765,32.8 L83.454,32.8 Z M86.624,31.886 L87.874,31.886 L87.874,35.923 L86.624,35.923 L86.624,31.886 Z M88.482,31.886 L92.274,31.886 L92.274,32.883 L91.002,32.883 L91.002,35.923 L89.755,35.923 L89.755,32.883 L88.482,32.883 L88.482,31.886 Z M92.891,31.886 L94.142,31.886 L94.142,35.923 L92.891,35.923 L92.891,31.886 Z M94.877,33.907 C94.877,33.248 95.06,32.735 95.428,32.368 C95.795,32 96.306,31.817 96.961,31.817 C97.633,31.817 98.151,31.997 98.515,32.358 C98.878,32.719 99.06,33.224 99.06,33.874 C99.06,34.346 98.981,34.733 98.822,35.035 C98.663,35.337 98.433,35.572 98.133,35.74 C97.833,35.908 97.459,35.992 97.011,35.992 C96.556,35.992 96.179,35.919 95.881,35.774 C95.582,35.629 95.34,35.4 95.155,35.086 C94.97,34.772 94.877,34.379 94.877,33.907 L94.877,33.907 Z M96.124,33.913 C96.124,34.32 96.2,34.613 96.352,34.791 C96.503,34.969 96.709,35.058 96.97,35.058 C97.238,35.058 97.445,34.971 97.592,34.796 C97.739,34.622 97.812,34.309 97.812,33.857 C97.812,33.477 97.736,33.2 97.582,33.024 C97.429,32.849 97.221,32.761 96.959,32.761 C96.707,32.761 96.505,32.85 96.353,33.029 C96.201,33.207 96.124,33.501 96.124,33.913 L96.124,33.913 Z M99.746,31.886 L100.911,31.886 L102.431,34.119 L102.431,31.886 L103.607,31.886 L103.607,35.923 L102.431,35.923 L100.919,33.706 L100.919,35.923 L99.746,35.923 L99.746,31.886 Z" display="inherit" fill="#000000" id="scrittaEd" stroke="none" stroke-linecap="butt" stroke-linejoin="miter" stroke-width="1" transform="matrix(1,0,0,1,0,0)"/>
		<path d="M78.111,41.488 L81.455,41.488 L81.455,40.626 L79.362,40.626 L79.362,39.984 L81.303,39.984 L81.303,39.161 L79.362,39.161 L79.362,38.365 L81.515,38.365 L81.515,37.451 L78.111,37.451 L78.111,41.488 Z M82.206,41.488 L84.06,41.488 C84.425,41.488 84.72,41.438 84.945,41.339 C85.17,41.24 85.356,41.098 85.503,40.913 C85.65,40.727 85.756,40.511 85.822,40.265 C85.888,40.019 85.921,39.759 85.921,39.483 C85.921,39.052 85.872,38.717 85.774,38.479 C85.676,38.242 85.539,38.043 85.365,37.882 C85.191,37.721 85.003,37.614 84.803,37.561 C84.53,37.488 84.282,37.451 84.06,37.451 L82.206,37.451 L82.206,41.488 Z M83.454,40.574 L83.454,38.368 L83.76,38.368 C84.02,38.368 84.206,38.397 84.316,38.455 C84.426,38.513 84.512,38.614 84.575,38.758 C84.637,38.902 84.668,39.135 84.668,39.458 C84.668,39.886 84.599,40.179 84.459,40.337 C84.319,40.495 84.088,40.574 83.765,40.574 L83.454,40.574 Z M86.624,41.488 L87.874,41.488 L87.874,37.451 L86.624,37.451 L86.624,41.488 Z M88.482,41.488 L92.274,41.488 L92.274,40.491 L91.002,40.491 L91.002,37.451 L89.755,37.451 L89.755,40.491 L88.482,40.491 L88.482,41.488 Z M92.891,41.488 L94.142,41.488 L94.142,37.451 L92.891,37.451 L92.891,41.488 Z M94.877,39.467 C94.877,40.126 95.06,40.639 95.428,41.006 C95.795,41.373 96.306,41.557 96.961,41.557 C97.633,41.557 98.151,41.377 98.515,41.016 C98.878,40.655 99.06,40.15 99.06,39.5 C99.06,39.028 98.981,38.641 98.822,38.339 C98.663,38.037 98.433,37.802 98.133,37.634 C97.833,37.466 97.459,37.382 97.011,37.382 C96.556,37.382 96.179,37.455 95.881,37.6 C95.582,37.745 95.34,37.974 95.155,38.288 C94.97,38.602 94.877,38.995 94.877,39.467 L94.877,39.467 Z M96.124,39.461 C96.124,39.054 96.2,38.761 96.352,38.583 C96.503,38.405 96.709,38.316 96.97,38.316 C97.238,38.316 97.445,38.403 97.592,38.577 C97.739,38.752 97.812,39.065 97.812,39.516 C97.812,39.896 97.736,40.174 97.582,40.349 C97.429,40.525 97.221,40.612 96.959,40.612 C96.707,40.612 96.505,40.523 96.353,40.345 C96.201,40.167 96.124,39.872 96.124,39.461 L96.124,39.461 Z M99.746,41.488 L100.911,41.488 L102.431,39.255 L102.431,41.488 L103.607,41.488 L103.607,37.451 L102.431,37.451 L100.919,39.668 L100.919,37.451 L99.746,37.451 L99.746,41.488 Z" display="inherit" fill="url(#gr_917)" id="riflEd" stroke="none" stroke-linecap="butt" stroke-linejoin="miter" stroke-width="1" transform="matrix(1,0,0,1,0,-1.11)"/>
	</g>
	<g id="ikivo_ctrl_anim">
		<animate accumulate="none" attributeName="display" begin="0" calcMode="discrete" fill="remove" id="Default" keyTimes="0;1" repeatCount="1" values="inherit;inherit"/>
	</g>
</svg>
