<?xml version="1.0" encoding="UTF-8"?>
<!-- Generator: Ikivo Animator 2.2 (build 2.2.0.10) -->
<!DOCTYPE svg PUBLIC "-//W3C//DTD SVG 1.1 Tiny//EN" "http://www.w3.org/Graphics/SVG/1.1/DTD/svg11-tiny.dtd">
<svg baseProfile="tiny" display="inherit" height="100" id="svg" version="1.1" viewBox="0 0 180 100" width="180" xmlns="http://www.w3.org/2000/svg" xmlns:xlink="http://www.w3.org/1999/xlink" xmlns:ev="http://www.w3.org/2001/xml-events">
	<metadata id="metadata61">
    
  </metadata>
	<defs display="inherit" id="defs5">
		<linearGradient id="gr_1138" x1="0.5" x2="0.5" y1="1">
			<stop offset="0.205" stop-color="#ffffff" stop-opacity="0"/>
			<stop offset="1" stop-color="#33cc33" stop-opacity="0.9"/>
		</linearGradient>
		<linearGradient id="gr_1341" x1="0.56" x2="0.56" y1="0.142" y2="0.958">
			<stop offset="0" stop-color="#ccff00"/>
			<stop offset="1" stop-color="#009900"/>
		</linearGradient>
	</defs>
	<g id="ikivo_ctrl_anim">
		<animate accumulate="none" attributeName="display" begin="0" calcMode="discrete" fill="remove" id="Default" keyTimes="0;1" repeatCount="1" values="inherit;inherit"/>
	</g>
	<g display="inherit" id="Free" transform="matrix(1.123,0,0,1.123,-6.51,-5.556)">
		<path d="M15.479,-35.315 C12.582,-34.454 14.009,-30.881 13.667,-28.63 C13.667,-17.66 13.667,-6.691 13.667,4.279 C14.263,7.428 18.075,5.979 20.352,6.31 C23.143,6.042 26.234,6.922 28.787,5.712 C29.985,3.111 29.125,-0.02 29.385,-2.857 C29.385,-4.916 29.385,-6.975 29.385,-9.034 C33.82,-9.138 38.298,-8.822 42.705,-9.197 C44.888,-10.82 43.599,-13.969 43.948,-16.339 C44.646,-19.163 42.65,-21.424 39.745,-20.69 C36.292,-20.69 32.838,-20.69 29.385,-20.69 C28.613,-23.33 30.309,-23.501 32.488,-23.19 C36.722,-23.294 40.999,-22.979 45.205,-23.353 C47.388,-24.976 46.099,-28.125 46.448,-30.496 C47.006,-33.188 45.726,-36.131 42.555,-35.315 C33.53,-35.315 24.504,-35.315 15.479,-35.315 Z M50.635,-35.315 C47.738,-34.454 49.166,-30.881 48.823,-28.63 C48.823,-17.66 48.823,-6.691 48.823,4.279 C49.42,7.428 53.231,5.979 55.508,6.31 C58.299,6.042 61.39,6.922 63.943,5.712 C65.141,3.111 64.281,-0.02 64.542,-2.857 C64.542,-4.781 64.542,-6.704 64.542,-8.628 C66.93,-7.156 67.653,-3.901 69.202,-1.579 C70.739,0.916 71.714,3.823 73.644,6.029 C78.301,6.652 83.106,6.146 87.823,6.31 C89.917,4.718 91.999,7.004 94.892,6.31 C104.306,6.31 113.721,6.31 123.135,6.31 C126.285,5.713 124.836,1.902 125.167,-0.375 C125.074,-2.569 125.963,-6.539 122.515,-6.253 C116.722,-6.253 110.928,-6.253 105.135,-6.253 C104.91,-8.42 104.868,-10.404 107.617,-9.596 C112.392,-9.7 117.208,-9.386 121.955,-9.759 C124.138,-11.382 122.849,-14.532 123.198,-16.902 C123.889,-19.738 121.942,-22.063 118.995,-21.315 C114.375,-21.315 109.755,-21.315 105.135,-21.315 C104.222,-24.105 107.155,-23.048 108.858,-23.221 C113.687,-23.328 118.56,-23.007 123.361,-23.384 C125.544,-25.007 124.255,-28.157 124.604,-30.527 C125.168,-33.214 123.861,-36.126 120.711,-35.315 C110.967,-35.315 101.223,-35.315 91.479,-35.315 C88.329,-34.718 89.779,-30.907 89.448,-28.63 C89.448,-18.098 89.448,-7.566 89.448,2.966 C86.543,-2.037 84.733,-7.815 80.542,-11.94 C89.416,-16.204 88.73,-31.427 79.073,-34.315 C71.804,-36.01 64.262,-35.069 56.857,-35.315 C54.783,-35.315 52.709,-35.315 50.635,-35.315 Z M129.198,-35.315 C126.301,-34.454 127.728,-30.881 127.385,-28.63 C127.385,-17.66 127.385,-6.691 127.385,4.279 C127.982,7.428 131.793,5.979 134.07,6.31 C143.071,6.31 152.072,6.31 161.073,6.31 C164.222,5.713 162.773,1.902 163.104,-0.375 C163.011,-2.569 163.901,-6.539 160.452,-6.253 C154.659,-6.253 148.866,-6.253 143.073,-6.253 C142.847,-8.42 142.805,-10.404 145.555,-9.596 C150.329,-9.7 155.146,-9.386 159.893,-9.759 C162.075,-11.382 160.786,-14.532 161.135,-16.902 C161.827,-19.738 159.88,-22.063 156.932,-21.315 C152.312,-21.315 147.693,-21.315 143.073,-21.315 C142.159,-24.105 145.093,-23.048 146.796,-23.221 C151.625,-23.328 156.497,-23.007 161.299,-23.384 C163.482,-25.007 162.193,-28.157 162.542,-30.527 C163.106,-33.214 161.799,-36.126 158.649,-35.315 C148.832,-35.315 139.015,-35.315 129.198,-35.315 Z M64.542,-23.659 C66.793,-23.637 72.726,-24.306 70.458,-20.708 C68.969,-20.685 64.233,-18.674 64.542,-21.337 C64.542,-22.111 64.542,-22.885 64.542,-23.659 Z" display="inherit" fill="#009900" font-family="Arial Black" font-size="52.477" font-style="normal" font-weight="400" id="path2183" stroke="none" stroke-linecap="butt" stroke-linejoin="miter" stroke-width="1" transform="matrix(1,0,0,1,-3,42)"/>
		<path d="M15.479,92.141 C12.582,91.28 14.009,87.707 13.667,85.456 C13.667,74.486 13.667,63.516 13.667,52.547 C14.263,49.397 18.075,50.847 20.352,50.516 C23.143,50.783 26.234,49.904 28.787,51.114 C29.985,53.714 29.125,56.845 29.385,59.683 C29.385,61.742 29.385,63.8 29.385,65.859 C33.82,65.964 38.298,65.648 42.705,66.022 C44.888,67.645 43.599,70.795 43.948,73.165 C44.646,75.989 42.65,78.25 39.745,77.516 C36.292,77.516 32.838,77.516 29.385,77.516 C28.613,80.156 30.309,80.327 32.488,80.016 C36.722,80.119 40.999,79.805 45.205,80.178 C47.388,81.802 46.099,84.951 46.448,87.321 C47.006,90.013 45.726,92.957 42.555,92.141 C33.53,92.141 24.504,92.141 15.479,92.141 Z M50.635,92.141 C47.738,91.28 49.166,87.707 48.823,85.456 C48.823,74.486 48.823,63.516 48.823,52.547 C49.42,49.397 53.231,50.847 55.508,50.516 C58.299,50.783 61.39,49.904 63.943,51.114 C65.141,53.714 64.281,56.845 64.542,59.683 C64.542,61.606 64.542,63.53 64.542,65.453 C66.93,63.982 67.653,60.726 69.202,58.405 C70.739,55.91 71.714,53.002 73.644,50.796 C78.301,50.173 83.106,50.68 87.823,50.516 C89.917,52.108 91.999,49.821 94.892,50.516 C104.306,50.516 113.721,50.516 123.135,50.516 C126.285,51.113 124.836,54.924 125.167,57.201 C125.074,59.394 125.963,63.365 122.515,63.078 C116.722,63.078 110.928,63.078 105.135,63.078 C104.91,65.246 104.868,67.23 107.617,66.422 C112.392,66.525 117.208,66.212 121.955,66.585 C124.138,68.208 122.849,71.357 123.198,73.727 C123.889,76.563 121.942,78.888 118.995,78.141 C114.375,78.141 109.755,78.141 105.135,78.141 C104.222,80.931 107.155,79.874 108.858,80.047 C113.687,80.153 118.56,79.833 123.361,80.21 C125.544,81.833 124.255,84.982 124.604,87.352 C125.168,90.04 123.861,92.952 120.711,92.141 C110.967,92.141 101.223,92.141 91.479,92.141 C88.329,91.544 89.779,87.732 89.448,85.456 C89.448,74.924 89.448,64.391 89.448,53.859 C86.543,58.862 84.733,64.64 80.542,68.766 C89.416,73.029 88.73,88.253 79.073,91.141 C71.804,92.835 64.262,91.894 56.857,92.141 C54.783,92.141 52.709,92.141 50.635,92.141 Z M129.198,92.141 C126.301,91.28 127.728,87.707 127.385,85.456 C127.385,74.486 127.385,63.516 127.385,52.547 C127.982,49.397 131.793,50.847 134.07,50.516 C143.071,50.516 152.072,50.516 161.073,50.516 C164.222,51.113 162.773,54.924 163.104,57.201 C163.011,59.394 163.901,63.365 160.452,63.078 C154.659,63.078 148.866,63.078 143.073,63.078 C142.847,65.246 142.805,67.23 145.555,66.422 C150.329,66.525 155.146,66.212 159.893,66.585 C162.075,68.208 160.786,71.357 161.135,73.727 C161.827,76.563 159.88,78.888 156.932,78.141 C152.312,78.141 147.693,78.141 143.073,78.141 C142.159,80.931 145.093,79.874 146.796,80.047 C151.625,80.153 156.497,79.833 161.299,80.21 C163.482,81.833 162.193,84.982 162.542,87.352 C163.106,90.04 161.799,92.952 158.649,92.141 C148.832,92.141 139.015,92.141 129.198,92.141 Z M64.542,80.484 C66.793,80.463 72.726,81.131 70.458,77.533 C68.969,77.511 64.233,75.499 64.542,78.163 C64.542,78.937 64.542,79.711 64.542,80.484 Z" display="inherit" fill="url(#gr_1138)" font-family="Arial Black" font-size="52.477" font-style="normal" font-weight="400" id="path2225" stroke="none" stroke-linecap="butt" stroke-linejoin="miter" stroke-width="1" transform="matrix(1,0,0,1,-2.75,-0.25)"/>
		<path d="M13.609,9.056 C13.609,21.577 13.609,34.098 13.609,46.619 C17.495,46.619 21.38,46.619 25.265,46.619 C25.265,41.504 25.265,36.39 25.265,31.275 C30.12,31.275 34.974,31.275 39.828,31.275 C39.828,28.744 39.828,26.213 39.828,23.681 C34.974,23.681 30.12,23.681 25.265,23.681 C25.265,21.494 25.265,19.306 25.265,17.119 C30.953,17.119 36.64,17.119 42.328,17.119 C42.328,14.431 42.328,11.744 42.328,9.056 C32.755,9.056 23.182,9.056 13.609,9.056 Z M48.765,9.056 C48.765,21.577 48.765,34.098 48.765,46.619 C52.651,46.619 56.536,46.619 60.422,46.619 C60.422,41.536 60.422,36.452 60.422,31.369 C64.127,30.701 66.093,34.133 67.42,37 C69.15,40.206 70.879,43.413 72.609,46.619 C76.984,46.619 81.359,46.619 85.734,46.619 C82.779,41.515 80.929,35.622 76.64,31.431 C73.587,30.068 73.298,29.915 76.862,28.983 C84.73,25.776 84.634,12.542 76.359,9.963 C69.326,8.41 62.05,9.29 54.896,9.056 C52.852,9.056 50.809,9.056 48.765,9.056 Z M89.39,9.056 C89.39,21.577 89.39,34.098 89.39,46.619 C99.943,46.619 110.495,46.619 121.047,46.619 C121.047,43.786 121.047,40.952 121.047,38.119 C114.37,38.119 107.692,38.119 101.015,38.119 C101.015,35.65 101.015,33.181 101.015,30.713 C107.036,30.713 113.057,30.713 119.078,30.713 C119.078,28.161 119.078,25.608 119.078,23.056 C113.057,23.056 107.036,23.056 101.015,23.056 C101.015,21.067 101.015,19.077 101.015,17.088 C107.505,17.088 113.995,17.088 120.484,17.088 C120.484,14.411 120.484,11.733 120.484,9.056 C110.12,9.056 99.755,9.056 89.39,9.056 Z M127.328,9.056 C127.328,21.577 127.328,34.098 127.328,46.619 C137.88,46.619 148.432,46.619 158.984,46.619 C158.984,43.786 158.984,40.952 158.984,38.119 C152.307,38.119 145.63,38.119 138.953,38.119 C138.953,35.65 138.953,33.181 138.953,30.713 C144.974,30.713 150.995,30.713 157.015,30.713 C157.015,28.161 157.015,25.608 157.015,23.056 C150.995,23.056 144.974,23.056 138.953,23.056 C138.953,21.067 138.953,19.077 138.953,17.088 C145.442,17.088 151.932,17.088 158.422,17.088 C158.422,14.411 158.422,11.733 158.422,9.056 C148.057,9.056 137.693,9.056 127.328,9.056 Z M60.422,16.65 C63.73,16.955 67.689,15.728 70.364,18.157 C73.164,23.281 66.478,24.819 62.625,24.275 C59.941,25.124 60.332,22.898 60.422,20.972 C60.422,19.531 60.422,18.091 60.422,16.65 Z" display="inherit" fill="url(#gr_1341)" font-family="Arial Black" font-size="52.477" font-style="normal" font-weight="400" id="path2223" stroke="none" stroke-linecap="butt" stroke-linejoin="miter" stroke-width="1" transform="matrix(1,0,0,1,-1,0)"/>
	</g>
</svg>
