<?xml version="1.0" encoding="UTF-8" standalone="no"?>
<!-- Generator: Ikivo Animator 2.2 (build 2.2.0.10) -->
<!-- This SVG file is created using a Trial Version of Ikivo Animator.
A "Trial Version" is a version of Ikivo Animator that may only be used to review,
demonstrate, and evaluate Ikivo Animator and only for a limited period of time.
Any use of output from an Ikivo Animator Trial Version for commercial purposes is
strictly prohibited. For more information regarding the Trial Version of Ikivo Animator,
please read the End-User License Agreement. -->
<svg
   xmlns:dc="http://purl.org/dc/elements/1.1/"
   xmlns:cc="http://creativecommons.org/ns#"
   xmlns:rdf="http://www.w3.org/1999/02/22-rdf-syntax-ns#"
   xmlns:svg="http://www.w3.org/2000/svg"
   xmlns="http://www.w3.org/2000/svg"
   xmlns:sodipodi="http://sodipodi.sourceforge.net/DTD/sodipodi-0.dtd"
   xmlns:inkscape="http://www.inkscape.org/namespaces/inkscape"
   baseProfile="tiny"
   display="inherit"
   height="235"
   id="svg2"
   version="1.1"
   viewBox="0 0 240 235"
   width="240"
   sodipodi:version="0.32"
   inkscape:version="0.46"
   sodipodi:docname="Copia di InternoFree.svg"
   inkscape:output_extension="org.inkscape.output.svg.inkscape">
  <metadata
     id="metadata65">
    <rdf:RDF>
      <cc:Work
         rdf:about="">
        <dc:format>image/svg+xml</dc:format>
        <dc:type
           rdf:resource="http://purl.org/dc/dcmitype/StillImage" />
      </cc:Work>
    </rdf:RDF>
  </metadata>
  <sodipodi:namedview
     inkscape:window-height="740"
     inkscape:window-width="1280"
     inkscape:pageshadow="2"
     inkscape:pageopacity="0.0"
     guidetolerance="10.0"
     gridtolerance="10.0"
     objecttolerance="10.0"
     borderopacity="1.0"
     bordercolor="#666666"
     pagecolor="#ffffff"
     id="base"
     showgrid="false"
     inkscape:zoom="1.9659574"
     inkscape:cx="120"
     inkscape:cy="117.5"
     inkscape:window-x="-4"
     inkscape:window-y="-4"
     inkscape:current-layer="svg2" />
  <rect
     display="inherit"
     fill="none"
     height="235"
     id="rect4"
     width="240" />
  <defs
     display="inherit"
     id="defs27">
    <inkscape:perspective
       sodipodi:type="inkscape:persp3d"
       inkscape:vp_x="0 : 117.5 : 1"
       inkscape:vp_y="0 : 1000 : 0"
       inkscape:vp_z="240 : 117.5 : 1"
       inkscape:persp3d-origin="120 : 78.333333 : 1"
       id="perspective67" />
    <linearGradient
       id="gr_1042"
       x1="0.5"
       x2="0.5"
       y1="0.777">
      <stop
         offset="0.148"
         stop-color="#ffffff"
         stop-opacity="0"
         id="stop30" />
      <stop
         offset="1"
         stop-color="#000000"
         stop-opacity="0.9"
         id="stop32" />
    </linearGradient>
    <linearGradient
       id="gr_1045"
       x1="0.5"
       x2="0.5"
       y1="1">
      <stop
         offset="0.21"
         stop-color="#ffffff"
         stop-opacity="0"
         id="stop35" />
      <stop
         offset="1"
         stop-color="#000000"
         stop-opacity="0.9"
         id="stop37" />
    </linearGradient>
    <linearGradient
       id="gr_13"
       x1="0.5"
       x2="0.5"
       y1="1">
      <stop
         offset="0.148"
         stop-color="#ffffff"
         stop-opacity="0"
         id="stop40" />
      <stop
         offset="1"
         stop-color="#e1101a"
         stop-opacity="0.9"
         id="stop42" />
    </linearGradient>
    <linearGradient
       id="gr_1216"
       x1="0.503"
       x2="0.503"
       y1="0.803"
       y2="0.051">
      <stop
         offset="0.21"
         stop-color="#ffffff"
         stop-opacity="0"
         id="stop45" />
      <stop
         offset="1"
         stop-color="#000000"
         stop-opacity="0.9"
         id="stop47" />
    </linearGradient>
    <linearGradient
       id="gr_1138"
       x1="0.5"
       x2="0.5"
       y1="1">
      <stop
         offset="0.205"
         stop-color="#ffffff"
         stop-opacity="0"
         id="stop50" />
      <stop
         offset="1"
         stop-color="#33cc33"
         stop-opacity="0.9"
         id="stop52" />
    </linearGradient>
    <linearGradient
       id="gr_1341"
       x1="0.56"
       x2="0.56"
       y1="0.142"
       y2="0.958">
      <stop
         offset="0"
         stop-color="#ccff00"
         id="stop55" />
      <stop
         offset="1"
         stop-color="#009900"
         id="stop57" />
    </linearGradient>
  </defs>
	<path d="M96.673,220.541 L95.069,220.541 L93.768,211.668 L95.263,211.668 L96.189,218.381 L99.197,211.668 L100.68,211.668 L96.673,220.541 Z M104.929,217.866 L101.352,217.866 L101.352,218.03 C101.352,218.461 101.453,218.806 101.654,219.065 C101.856,219.323 102.098,219.452 102.381,219.452 C102.849,219.452 103.218,219.153 103.488,218.556 L104.766,218.816 C104.515,219.442 104.182,219.91 103.767,220.221 C103.351,220.531 102.885,220.687 102.369,220.687 C101.683,220.687 101.113,220.419 100.659,219.885 C100.205,219.35 99.978,218.625 99.978,217.709 C99.978,216.72 100.236,215.85 100.753,215.097 C101.269,214.344 101.991,213.968 102.919,213.968 C103.545,213.968 104.052,214.205 104.442,214.679 C104.831,215.154 105.026,215.838 105.026,216.734 C105.026,217.158 104.994,217.535 104.929,217.866 L104.929,217.866 Z M103.724,216.807 L103.731,216.637 C103.731,216.149 103.641,215.788 103.461,215.554 C103.282,215.32 103.049,215.203 102.762,215.203 C102.472,215.203 102.208,215.338 101.972,215.608 C101.736,215.879 101.578,216.278 101.497,216.807 L103.724,216.807 Z M106.485,214.113 L107.816,214.113 L107.604,215.36 C108.097,214.432 108.633,213.968 109.214,213.968 C109.416,213.968 109.636,214.029 109.874,214.15 L109.329,215.572 C109.2,215.516 109.065,215.487 108.924,215.487 C108.702,215.487 108.494,215.562 108.3,215.711 C108.006,215.941 107.78,216.242 107.622,216.613 C107.465,216.984 107.31,217.622 107.156,218.526 L106.805,220.541 L105.383,220.541 L106.485,214.113 Z M109.226,218.744 L110.606,218.477 C110.727,218.841 110.881,219.094 111.066,219.237 C111.252,219.38 111.498,219.452 111.805,219.452 C112.099,219.452 112.338,219.381 112.519,219.24 C112.701,219.099 112.791,218.933 112.791,218.744 C112.791,218.615 112.753,218.506 112.676,218.417 C112.596,218.332 112.402,218.229 112.095,218.108 C111.244,217.765 110.715,217.495 110.51,217.297 C110.183,216.978 110.019,216.563 110.019,216.05 C110.019,215.445 110.233,214.947 110.661,214.555 C111.089,214.164 111.674,213.968 112.416,213.968 C113.675,213.968 114.406,214.527 114.607,215.645 L113.294,215.923 C113.141,215.415 112.773,215.161 112.192,215.161 C111.918,215.161 111.71,215.217 111.569,215.33 C111.428,215.443 111.357,215.586 111.357,215.76 C111.357,215.905 111.411,216.028 111.52,216.129 C111.601,216.206 111.88,216.329 112.356,216.498 C113.038,216.74 113.496,216.976 113.73,217.206 C114.073,217.541 114.244,217.949 114.244,218.429 C114.244,219.079 114.024,219.617 113.584,220.045 C113.145,220.473 112.561,220.687 111.835,220.687 C110.407,220.687 109.537,220.039 109.226,218.744 L109.226,218.744 Z M116.599,211.668 L118.027,211.668 L117.755,213.242 L116.332,213.242 L116.599,211.668 Z M116.181,214.113 L117.603,214.113 L116.502,220.541 L115.079,220.541 L116.181,214.113 Z M118.118,217.872 C118.118,216.819 118.356,215.923 118.832,215.185 C119.361,214.374 120.125,213.968 121.126,213.968 C121.877,213.968 122.475,214.222 122.921,214.731 C123.367,215.239 123.59,215.947 123.59,216.855 C123.59,217.921 123.312,218.826 122.757,219.57 C122.202,220.314 121.477,220.687 120.581,220.687 C119.851,220.687 119.258,220.435 118.802,219.93 C118.346,219.426 118.118,218.74 118.118,217.872 L118.118,217.872 Z M122.179,216.631 C122.179,216.208 122.079,215.875 121.88,215.633 C121.68,215.391 121.427,215.27 121.12,215.27 C120.862,215.27 120.62,215.358 120.394,215.536 C120.168,215.713 119.97,216.022 119.801,216.462 C119.631,216.902 119.546,217.358 119.546,217.83 C119.546,218.31 119.65,218.683 119.858,218.95 C120.066,219.216 120.323,219.349 120.63,219.349 C121.017,219.349 121.346,219.143 121.616,218.732 C121.992,218.167 122.179,217.467 122.179,216.631 L122.179,216.631 Z M125.248,214.113 L126.598,214.113 L126.459,214.949 C126.81,214.582 127.131,214.326 127.424,214.183 C127.717,214.04 128.018,213.968 128.329,213.968 C128.753,213.968 129.092,214.115 129.346,214.41 C129.6,214.705 129.727,215.108 129.727,215.621 C129.727,215.842 129.675,216.268 129.57,216.898 L128.946,220.541 L127.518,220.541 L128.147,216.898 C128.24,216.353 128.287,216.026 128.287,215.917 C128.287,215.687 128.231,215.511 128.12,215.388 C128.009,215.264 127.865,215.203 127.687,215.203 C127.494,215.203 127.296,215.28 127.094,215.433 C126.804,215.651 126.588,215.91 126.446,216.211 C126.305,216.511 126.164,217.075 126.023,217.902 L125.569,220.541 L124.146,220.541 L125.248,214.113 Z M131.761,214.113 L133.165,214.113 L132.881,215.796 L131.47,215.796 L131.761,214.113 Z M130.95,218.865 L132.354,218.865 L132.063,220.541 L130.659,220.541 L130.95,218.865 Z M137.372,215.445 L137.638,213.896 C138.869,213.242 139.819,212.481 140.489,211.614 L141.354,211.614 L139.823,220.541 L138.389,220.541 L139.448,214.392 C139.157,214.622 138.817,214.834 138.428,215.027 C138.039,215.221 137.686,215.36 137.372,215.445 L137.372,215.445 Z M142.571,218.865 L143.975,218.865 L143.685,220.541 L142.28,220.541 L142.571,218.865 Z M145.319,217.654 C145.319,216.508 145.502,215.412 145.867,214.365 C146.232,213.317 146.665,212.574 147.165,212.134 C147.544,211.799 147.972,211.632 148.448,211.632 C149.033,211.632 149.517,211.891 149.898,212.41 C150.279,212.928 150.47,213.688 150.47,214.688 C150.47,215.834 150.289,216.93 149.928,217.975 C149.567,219.02 149.136,219.763 148.636,220.202 C148.261,220.529 147.831,220.693 147.347,220.693 C146.77,220.693 146.287,220.437 145.9,219.924 C145.513,219.412 145.319,218.655 145.319,217.654 L145.319,217.654 Z M146.717,218.005 C146.717,218.481 146.781,218.816 146.908,219.01 C147.035,219.204 147.197,219.301 147.395,219.301 C147.645,219.301 147.873,219.161 148.079,218.883 C148.349,218.508 148.584,217.79 148.784,216.731 C148.984,215.672 149.084,214.854 149.084,214.277 C149.084,213.833 149.019,213.513 148.89,213.317 C148.761,213.122 148.598,213.024 148.4,213.024 C148.162,213.024 147.946,213.161 147.752,213.436 C147.445,213.867 147.185,214.66 146.971,215.814 C146.802,216.718 146.717,217.448 146.717,218.005 L146.717,218.005 Z M150.978,217.999 L152.364,217.848 L152.358,218.03 C152.358,218.445 152.435,218.755 152.588,218.959 C152.742,219.162 152.933,219.264 153.163,219.264 C153.502,219.264 153.811,219.069 154.089,218.677 C154.368,218.286 154.507,217.741 154.507,217.043 C154.507,216.623 154.428,216.311 154.271,216.105 C154.114,215.899 153.912,215.796 153.666,215.796 C153.476,215.796 153.293,215.849 153.118,215.953 C152.942,216.058 152.774,216.218 152.613,216.432 L151.438,216.323 L152.546,211.789 L156.208,211.789 L155.935,213.375 L153.52,213.375 L153.188,214.743 C153.325,214.666 153.463,214.609 153.602,214.57 C153.741,214.532 153.88,214.513 154.017,214.513 C154.557,214.513 155.01,214.737 155.376,215.185 C155.741,215.633 155.923,216.248 155.923,217.031 C155.923,217.709 155.785,218.342 155.509,218.931 C155.232,219.521 154.88,219.961 154.453,220.254 C154.025,220.546 153.579,220.693 153.115,220.693 C152.51,220.693 152.003,220.453 151.596,219.972 C151.188,219.492 150.982,218.835 150.978,217.999 L150.978,217.999 Z" display="inherit" fill="#000000" font-family="Arial Narrow" font-size="12.396" font-style="italic" font-weight="700" id="text2442" stroke="none" stroke-linecap="butt" stroke-linejoin="miter" stroke-width="1" text-anchor="start" transform="matrix(0.97,0,0,1.031,0,0)"/>
</svg>
