<?xml version="1.0" encoding="UTF-8"?>
<!-- Generator: Ikivo Animator 2.2 (build 2.2.0.10) -->
<!-- This SVG file is created using a Trial Version of Ikivo Animator.
A "Trial Version" is a version of Ikivo Animator that may only be used to review,
demonstrate, and evaluate Ikivo Animator and only for a limited period of time.
Any use of output from an Ikivo Animator Trial Version for commercial purposes is
strictly prohibited. For more information regarding the Trial Version of Ikivo Animator,
please read the End-User License Agreement. -->
<!DOCTYPE svg PUBLIC "-//W3C//DTD SVG 1.1 Tiny//EN" "http://www.w3.org/Graphics/SVG/1.1/DTD/svg11-tiny.dtd">
<svg baseProfile="tiny" display="inherit" height="235" id="svg2" version="1.1" viewBox="0 0 240 235" width="240" xmlns="http://www.w3.org/2000/svg" xmlns:xlink="http://www.w3.org/1999/xlink" xmlns:ev="http://www.w3.org/2001/xml-events">
	<rect display="inherit" fill="none" height="235" id="rect4" width="240"/>
	<g display="inherit" id="Guardian" transform="matrix(1,0,0,1,-1,-1)">
		<g display="inherit" fill="url(#gr_1045)" id="RiflessoGuardian">
			<path d="M45.3,180.8 C46.2,180.8 47,180.9 47.7,181.2 C48.4,181.5 49,181.9 49.5,182.4 C50.6,183.5 51.1,184.9 51.1,186.6 L51.1,210.1 L34.4,210.1 C32.6,210.1 31.2,209.6 30.1,208.5 C29,207.4 28.5,206 28.5,204.3 L28.5,197 C28.5,192.9 29,190.2 30.1,189.1 C31.2,188 33.7,187.5 37.9,187.5 L45.3,187.5 L45.3,186.6 L28.6,180.8 L28.6,180.8 L45.3,180.8 Z M34.4,193.4 L34.4,204.3 L45.3,204.3 L45.3,193.4 L34.4,193.4 Z" display="inherit" fill="url(#gr_13)" id="_g"/>
			<path d="M54.4,210 L54.4,198.7 L54.3,197.2 L54.3,195.7 C54.3,193.1 54.6,191.2 55.1,189.9 C55.9,188.1 57.5,187.3 59.8,187.3 L61.8,187.3 L63.8,187.3 L71.2,187.3 C73,187.3 74.4,187.8 75.4,188.9 C76.5,190 77,191.4 77,193.1 L77,209.9 L71.2,209.9 L71.2,193.1 L60.3,193.1 L60.3,209.9 L54.4,210 L54.4,210 Z" display="inherit" id="_u"/>
			<path d="M81.6,189.3 C82.6,188.1 84,187.5 86,187.5 L102.7,187.5 L102.7,198.7 L102.7,200 L102.8,201.4 C102.8,204.1 102.5,206.1 101.9,207.3 C101,209.1 99.3,210 96.8,210 L80,210 L80,204.2 L96.8,204.2 L96.8,201.5 L85.9,201.5 C83.6,201.5 82,200.8 81.1,199.3 C80.4,198.1 80,196.4 80,194 C80.2,192.1 80.6,190.5 81.6,189.3 Z M86,193.4 L86,195.8 L96.9,195.8 L96.9,193.4 L86,193.4 Z" display="inherit" id="_a1"/>
			<path d="M128.5,199 L128.5,202.6 C128.5,204.9 128.1,206.7 127.4,207.9 C126.5,209.4 124.9,210.1 122.7,210.1 L106,210.1 L106,187.5 L111.8,187.5 L111.8,204.2 L122.7,204.2 L122.7,198.9 L128.5,199 L128.5,199 Z" display="inherit" id="_r"/>
			<path d="M131.5,190.6 C132.3,188.6 134,187.6 136.7,187.6 L153.4,187.6 L153.4,216.4 L147.6,216.4 L147.6,210.1 L136.7,210.1 C134.9,210.1 133.5,209.6 132.4,208.5 C131.3,207.4 130.8,206 130.8,204.3 L130.8,197 C130.8,193.9 131.1,191.7 131.5,190.6 Z M147.6,204.2 L147.6,193.3 L136.7,193.3 L136.7,204.2 L147.6,204.2 Z" display="inherit" fill="url(#gr_1042)" id="_d"/>
			<path d="M162.5,215.8 L156.7,215.8 L156.7,210 L162.5,210 L162.5,215.8 Z M156.7,209.3 L156.7,187.5 L162.5,187.5 L162.5,209.3 L156.7,209.3 Z" display="inherit" fill="url(#gr_1042)" id="_i"/>
			<path d="M167,189.3 C168,188.1 169.4,187.5 171.4,187.5 L188.1,187.5 L188.1,198.7 L188.1,200 L188.2,201.4 C188.2,204.1 187.9,206.1 187.3,207.3 C186.4,209.1 184.7,210 182.2,210 L165.4,210 L165.4,204.2 L182.2,204.2 L182.2,201.5 L171.3,201.5 C169,201.5 167.4,200.8 166.5,199.3 C165.8,198.1 165.4,196.4 165.4,194 C165.6,192.1 166.1,190.5 167,189.3 Z M171.4,193.4 L171.4,195.8 L182.3,195.8 L182.3,193.4 L171.4,193.4 Z" display="inherit" id="_a"/>
			<path d="M213.9,200.2 L214,201.7 C214,205 213.5,207.3 212.5,208.5 C211.6,209.5 210.3,210 208.5,210 L206.5,210.1 L204.6,210.1 L197.2,210.1 C195.4,210.1 194,209.6 192.9,208.5 C191.8,207.4 191.3,206 191.3,204.2 L191.3,187.5 L197.1,187.5 L197.1,204.3 L208,204.3 L208,187.5 L213.8,187.5 L213.8,198.7 L213.8,200.2 L213.9,200.2 Z" display="inherit" id="_n"/>
		</g>
		<g display="inherit" id="ScrittaGuardian">
			<path d="M28.8,192 L28.8,192 L45.5,186.2 L45.5,185.3 L38.1,185.3 C34,185.3 31.4,184.8 30.3,183.7 C29.2,182.6 28.7,180 28.7,175.8 L28.7,168.5 C28.7,166.7 29.2,165.3 30.3,164.3 C31.4,163.3 32.8,162.7 34.6,162.7 L51.3,162.7 L51.3,186.2 C51.3,187.9 50.8,189.3 49.7,190.4 C49.2,190.9 48.6,191.3 47.9,191.6 C47.2,191.9 46.4,192 45.5,192 L28.8,192 Z M45.5,179.4 L45.5,168.5 L34.6,168.5 L34.6,179.4 L45.5,179.4 Z" display="inherit" fill="#e1101a" id="g"/>
			<path d="M60.5,162.7 L60.5,179.5 L71.4,179.5 L71.4,162.7 L77.2,162.7 L77.2,179.5 C77.2,181.3 76.7,182.7 75.6,183.7 C74.5,184.8 73.1,185.3 71.4,185.3 L64,185.3 L62,185.3 L60,185.3 C57.7,185.3 56.2,184.4 55.3,182.7 C54.7,181.5 54.5,179.6 54.5,176.9 L54.5,175.4 L54.6,173.9 L54.6,162.6 L60.5,162.6 L60.5,162.7 Z" display="inherit" id="u"/>
			<path d="M80.4,178.6 C80.4,176.3 80.8,174.5 81.5,173.3 C82.4,171.8 84,171.1 86.3,171.1 L97.2,171.1 L97.2,168.5 L80.4,168.5 L80.4,162.7 L97.2,162.7 C99.7,162.7 101.4,163.6 102.3,165.4 C102.9,166.7 103.2,168.6 103.2,171.3 L103.1,172.7 L103.1,174 L103.1,185.2 L86.4,185.2 C84.4,185.2 83,184.6 82,183.4 C80.9,182.3 80.4,180.7 80.4,178.6 Z M97.1,179.4 L97.1,177.1 L86.2,177.1 L86.2,179.4 L97.1,179.4 Z" display="inherit" id="a1"/>
			<path d="M122.9,173.8 L122.9,168.5 L112,168.5 L112,185.2 L106.2,185.2 L106.2,162.7 L122.9,162.7 C125.1,162.7 126.7,163.4 127.6,164.9 C128.4,166.1 128.7,167.9 128.7,170.2 L128.7,173.8 L122.9,173.8 Z" display="inherit" id="r"/>
			<path d="M131,175.8 L131,168.5 C131,166.7 131.5,165.3 132.6,164.3 C133.7,163.2 135.1,162.7 136.9,162.7 L147.8,162.7 L147.8,156.4 L153.6,156.4 L153.6,185.2 L136.9,185.2 C134.2,185.2 132.5,184.2 131.7,182.2 C131.3,181 131,178.9 131,175.8 Z M136.9,168.5 L136.9,179.4 L147.8,179.4 L147.8,168.5 L136.9,168.5 Z" display="inherit" id="d"/>
			<path d="M162.7,162.6 L156.9,162.6 L156.9,156.8 L162.7,156.8 L162.7,162.6 Z M162.7,163.4 L162.7,185.2 L156.9,185.2 L156.9,163.4 L162.7,163.4 Z" display="inherit" id="i"/>
			<path d="M165.8,178.6 C165.8,176.3 166.2,174.5 166.9,173.3 C167.8,171.8 169.4,171.1 171.7,171.1 L182.6,171.1 L182.6,168.5 L165.8,168.5 L165.8,162.7 L182.5,162.7 C185,162.7 186.7,163.6 187.6,165.4 C188.2,166.7 188.5,168.6 188.5,171.3 L188.4,172.7 L188.4,174 L188.4,185.2 L171.7,185.2 C169.7,185.2 168.3,184.6 167.3,183.4 C166.3,182.3 165.8,180.7 165.8,178.6 Z M182.6,179.4 L182.6,177.1 L171.7,177.1 L171.7,179.4 L182.6,179.4 Z" display="inherit" id="a"/>
			<path d="M214.1,174 L214.1,185.2 L208.3,185.2 L208.3,168.4 L197.4,168.4 L197.4,185.2 L191.6,185.2 L191.6,168.4 C191.6,166.6 192.1,165.2 193.2,164.1 C194.3,163 195.7,162.5 197.5,162.5 L204.9,162.5 L206.8,162.5 L208.8,162.6 C210.6,162.6 211.9,163.1 212.8,164.1 C213.8,165.3 214.3,167.6 214.3,170.9 L214.2,172.4 L214.2,174 L214.1,174 Z" display="inherit" id="n"/>
		</g>
	</g>
	<g display="inherit" id="www" transform="matrix(1,0,0,1,21,15)">
		<text display="inherit" fill="#000000" font-family="Arial Black" font-size="28" font-style="normal" font-weight="400" id="text2166" stroke="none" stroke-linecap="butt" stroke-linejoin="miter" stroke-width="1" x="11.615" xml:space="preserve" y="32.011"/>
		<path d="M7.79,8.383 L10.208,8.383 L11.257,12.489 L12.582,8.383 L14.835,8.383 L16.209,12.489 L17.259,8.383 L19.658,8.383 L17.259,14.9 L15.037,14.9 L13.718,10.979 L12.441,14.9 L10.208,14.9 L7.79,8.383 Z M19.646,8.383 L22.063,8.383 L23.113,12.489 L24.438,8.383 L26.69,8.383 L28.065,12.489 L29.114,8.383 L31.514,8.383 L29.114,14.9 L26.893,14.9 L25.573,10.979 L24.297,14.9 L22.063,14.9 L19.646,8.383 Z M31.501,8.383 L33.919,8.383 L34.968,12.489 L36.294,8.383 L38.546,8.383 L39.921,12.489 L40.97,8.383 L43.369,8.383 L40.97,14.9 L38.749,14.9 L37.429,10.979 L36.153,14.9 L33.919,14.9 L31.501,8.383 Z M44.1,12.397 L46.769,12.397 L46.769,14.9 L44.1,14.9 L44.1,12.397 Z M52.979,11.642 L52.979,9.77 L57.275,9.77 L57.275,13.606 C56.452,14.166 55.725,14.548 55.093,14.75 C54.461,14.953 53.711,15.054 52.844,15.054 C51.776,15.054 50.906,14.872 50.233,14.508 C49.56,14.144 49.038,13.602 48.668,12.882 C48.298,12.161 48.113,11.335 48.113,10.402 C48.113,9.421 48.315,8.567 48.72,7.84 C49.125,7.114 49.719,6.563 50.5,6.187 C51.109,5.896 51.93,5.751 52.961,5.751 C53.955,5.751 54.698,5.841 55.191,6.021 C55.684,6.201 56.093,6.48 56.419,6.859 C56.744,7.237 56.988,7.717 57.152,8.298 L54.47,8.776 C54.36,8.437 54.173,8.177 53.909,7.997 C53.645,7.817 53.308,7.727 52.899,7.727 C52.29,7.727 51.804,7.939 51.442,8.362 C51.08,8.785 50.899,9.455 50.899,10.372 C50.899,11.345 51.082,12.041 51.448,12.458 C51.814,12.875 52.325,13.084 52.979,13.084 C53.29,13.084 53.587,13.039 53.869,12.949 C54.151,12.859 54.474,12.706 54.838,12.489 L54.838,11.642 L52.979,11.642 Z M65.639,14.9 L63.307,14.9 L63.307,13.845 C62.959,14.279 62.608,14.587 62.254,14.772 C61.901,14.956 61.466,15.048 60.95,15.048 C60.263,15.048 59.724,14.842 59.333,14.431 C58.943,14.02 58.747,13.387 58.747,12.532 L58.747,8.383 L61.257,8.383 L61.257,11.967 C61.257,12.376 61.333,12.667 61.484,12.839 C61.636,13.01 61.848,13.096 62.122,13.096 C62.421,13.096 62.666,12.982 62.856,12.753 C63.046,12.524 63.141,12.112 63.141,11.519 L63.141,8.383 L65.639,8.383 L65.639,14.9 Z M69.443,10.494 L67.056,10.243 C67.146,9.826 67.276,9.497 67.446,9.258 C67.616,9.019 67.86,8.811 68.179,8.635 C68.408,8.508 68.723,8.41 69.124,8.34 C69.525,8.271 69.959,8.236 70.425,8.236 C71.174,8.236 71.775,8.278 72.229,8.362 C72.683,8.446 73.062,8.621 73.365,8.887 C73.577,9.071 73.745,9.332 73.868,9.669 C73.99,10.007 74.052,10.329 74.052,10.636 L74.052,13.514 C74.052,13.82 74.071,14.061 74.11,14.235 C74.149,14.408 74.234,14.63 74.365,14.9 L72.021,14.9 C71.927,14.733 71.865,14.605 71.837,14.517 C71.808,14.429 71.779,14.291 71.751,14.103 C71.423,14.418 71.098,14.643 70.775,14.778 C70.333,14.958 69.82,15.048 69.235,15.048 C68.457,15.048 67.867,14.868 67.464,14.508 C67.061,14.148 66.86,13.704 66.86,13.176 C66.86,12.681 67.005,12.274 67.296,11.955 C67.586,11.636 68.122,11.399 68.903,11.243 C69.84,11.055 70.448,10.923 70.726,10.847 C71.004,10.772 71.299,10.672 71.609,10.55 C71.609,10.243 71.546,10.028 71.419,9.905 C71.292,9.783 71.069,9.721 70.75,9.721 C70.341,9.721 70.034,9.787 69.83,9.918 C69.67,10.02 69.541,10.212 69.443,10.494 L69.443,10.494 Z M71.609,11.808 C71.266,11.93 70.908,12.039 70.536,12.133 C70.028,12.268 69.707,12.401 69.572,12.532 C69.433,12.667 69.364,12.82 69.364,12.992 C69.364,13.188 69.432,13.349 69.569,13.474 C69.706,13.598 69.908,13.661 70.174,13.661 C70.452,13.661 70.71,13.593 70.95,13.458 C71.189,13.323 71.359,13.159 71.459,12.964 C71.559,12.77 71.609,12.517 71.609,12.206 L71.609,11.808 Z M75.586,8.383 L77.924,8.383 L77.924,9.451 C78.149,8.989 78.381,8.671 78.62,8.497 C78.86,8.323 79.155,8.236 79.507,8.236 C79.875,8.236 80.278,8.351 80.716,8.58 L79.943,10.359 C79.648,10.237 79.415,10.175 79.243,10.175 C78.916,10.175 78.662,10.31 78.482,10.58 C78.225,10.961 78.096,11.673 78.096,12.716 L78.096,14.9 L75.586,14.9 L75.586,8.383 Z M87.994,5.904 L87.994,14.9 L85.656,14.9 L85.656,13.937 C85.329,14.346 85.03,14.622 84.76,14.765 C84.4,14.954 83.999,15.048 83.557,15.048 C82.67,15.048 81.991,14.71 81.523,14.035 C81.055,13.36 80.82,12.54 80.82,11.574 C80.82,10.494 81.079,9.668 81.597,9.095 C82.114,8.523 82.772,8.236 83.57,8.236 C83.958,8.236 84.311,8.302 84.628,8.433 C84.945,8.563 85.226,8.76 85.472,9.022 L85.472,5.904 L87.994,5.904 Z M85.49,11.624 C85.49,11.112 85.382,10.731 85.165,10.479 C84.948,10.227 84.674,10.102 84.343,10.102 C84.052,10.102 83.809,10.222 83.612,10.464 C83.416,10.705 83.318,11.11 83.318,11.679 C83.318,12.211 83.419,12.6 83.622,12.848 C83.824,13.095 84.075,13.219 84.373,13.219 C84.692,13.219 84.958,13.094 85.171,12.845 C85.384,12.595 85.49,12.188 85.49,11.624 L85.49,11.624 Z M89.62,5.904 L92.118,5.904 L92.118,7.604 L89.62,7.604 L89.62,5.904 Z M89.62,8.383 L92.118,8.383 L92.118,14.9 L89.62,14.9 L89.62,8.383 Z M96.002,10.494 L93.615,10.243 C93.705,9.826 93.835,9.497 94.005,9.258 C94.174,9.019 94.419,8.811 94.738,8.635 C94.967,8.508 95.282,8.41 95.683,8.34 C96.084,8.271 96.518,8.236 96.984,8.236 C97.733,8.236 98.334,8.278 98.788,8.362 C99.242,8.446 99.621,8.621 99.923,8.887 C100.136,9.071 100.304,9.332 100.426,9.669 C100.549,10.007 100.611,10.329 100.611,10.636 L100.611,13.514 C100.611,13.82 100.63,14.061 100.669,14.235 C100.708,14.408 100.793,14.63 100.924,14.9 L98.579,14.9 C98.485,14.733 98.424,14.605 98.395,14.517 C98.367,14.429 98.338,14.291 98.309,14.103 C97.982,14.418 97.657,14.643 97.334,14.778 C96.892,14.958 96.378,15.048 95.793,15.048 C95.016,15.048 94.426,14.868 94.023,14.508 C93.62,14.148 93.419,13.704 93.419,13.176 C93.419,12.681 93.564,12.274 93.854,11.955 C94.145,11.636 94.681,11.399 95.462,11.243 C96.399,11.055 97.006,10.923 97.285,10.847 C97.563,10.772 97.857,10.672 98.168,10.55 C98.168,10.243 98.105,10.028 97.978,9.905 C97.851,9.783 97.628,9.721 97.309,9.721 C96.9,9.721 96.593,9.787 96.389,9.918 C96.229,10.02 96.1,10.212 96.002,10.494 L96.002,10.494 Z M98.168,11.808 C97.825,11.93 97.467,12.039 97.094,12.133 C96.587,12.268 96.266,12.401 96.131,12.532 C95.992,12.667 95.922,12.82 95.922,12.992 C95.922,13.188 95.991,13.349 96.128,13.474 C96.265,13.598 96.466,13.661 96.732,13.661 C97.01,13.661 97.269,13.593 97.509,13.458 C97.748,13.323 97.918,13.159 98.018,12.964 C98.118,12.77 98.168,12.517 98.168,12.206 L98.168,11.808 Z M102.12,8.383 L104.446,8.383 L104.446,9.445 C104.794,9.011 105.145,8.702 105.501,8.515 C105.857,8.329 106.291,8.236 106.802,8.236 C107.494,8.236 108.035,8.442 108.425,8.853 C108.816,9.264 109.011,9.899 109.011,10.758 L109.011,14.9 L106.502,14.9 L106.502,11.317 C106.502,10.908 106.426,10.618 106.275,10.448 C106.123,10.279 105.91,10.194 105.636,10.194 C105.334,10.194 105.088,10.308 104.9,10.537 C104.712,10.766 104.618,11.178 104.618,11.771 L104.618,14.9 L102.12,14.9 L102.12,8.383 Z M110.036,10.654 L113.669,10.654 L113.669,12.587 L110.036,12.587 L110.036,10.654 Z M114.847,5.904 L118.505,5.904 L119.916,11.378 L121.321,5.904 L124.966,5.904 L124.966,14.9 L122.696,14.9 L122.696,8.04 L120.935,14.9 L118.879,14.9 L117.124,8.04 L117.124,14.9 L114.847,14.9 L114.847,5.904 Z M126.261,11.66 C126.261,10.666 126.597,9.847 127.268,9.203 C127.938,8.558 128.845,8.236 129.986,8.236 C131.291,8.236 132.277,8.615 132.944,9.371 C133.48,9.981 133.748,10.732 133.748,11.624 C133.748,12.626 133.415,13.447 132.751,14.087 C132.086,14.728 131.166,15.048 129.992,15.048 C128.945,15.048 128.098,14.782 127.452,14.25 C126.658,13.591 126.261,12.728 126.261,11.66 L126.261,11.66 Z M128.765,11.654 C128.765,12.235 128.882,12.665 129.118,12.943 C129.353,13.221 129.648,13.36 130.004,13.36 C130.364,13.36 130.66,13.223 130.891,12.949 C131.122,12.675 131.238,12.235 131.238,11.63 C131.238,11.065 131.121,10.645 130.888,10.369 C130.655,10.092 130.366,9.954 130.023,9.954 C129.659,9.954 129.358,10.095 129.121,10.375 C128.883,10.655 128.765,11.081 128.765,11.654 L128.765,11.654 Z M134.975,5.904 L137.497,5.904 L137.497,9.022 C137.747,8.76 138.03,8.563 138.347,8.433 C138.664,8.302 139.015,8.236 139.399,8.236 C140.193,8.236 140.85,8.522 141.369,9.092 C141.889,9.663 142.149,10.482 142.149,11.55 C142.149,12.262 142.03,12.889 141.793,13.431 C141.555,13.973 141.227,14.378 140.808,14.646 C140.388,14.914 139.923,15.048 139.412,15.048 C138.974,15.048 138.573,14.954 138.209,14.765 C137.935,14.618 137.636,14.342 137.313,13.937 L137.313,14.9 L134.975,14.9 L134.975,5.904 Z M137.479,11.624 C137.479,12.184 137.584,12.59 137.795,12.842 C138.005,13.093 138.272,13.219 138.596,13.219 C138.894,13.219 139.145,13.095 139.347,12.848 C139.55,12.6 139.651,12.184 139.651,11.599 C139.651,11.084 139.552,10.705 139.353,10.464 C139.155,10.222 138.915,10.102 138.632,10.102 C138.293,10.102 138.016,10.227 137.801,10.479 C137.586,10.731 137.479,11.112 137.479,11.624 L137.479,11.624 Z M143.449,5.904 L145.947,5.904 L145.947,7.604 L143.449,7.604 L143.449,5.904 Z M143.449,8.383 L145.947,8.383 L145.947,14.9 L143.449,14.9 L143.449,8.383 Z M147.641,5.904 L150.144,5.904 L150.144,14.9 L147.641,14.9 L147.641,5.904 Z M158.987,12.262 L153.98,12.262 C154.025,12.663 154.133,12.961 154.305,13.158 C154.546,13.44 154.861,13.581 155.25,13.581 C155.495,13.581 155.729,13.52 155.95,13.397 C156.085,13.319 156.23,13.182 156.385,12.986 L158.846,13.213 C158.47,13.867 158.015,14.337 157.484,14.621 C156.952,14.906 156.189,15.048 155.195,15.048 C154.332,15.048 153.652,14.926 153.157,14.683 C152.662,14.439 152.252,14.053 151.927,13.523 C151.602,12.993 151.439,12.37 151.439,11.654 C151.439,10.636 151.765,9.811 152.418,9.181 C153.07,8.551 153.972,8.236 155.121,8.236 C156.054,8.236 156.79,8.377 157.33,8.66 C157.87,8.942 158.281,9.351 158.564,9.887 C158.846,10.423 158.987,11.12 158.987,11.979 L158.987,12.262 Z M156.447,11.065 C156.397,10.582 156.268,10.237 156.057,10.028 C155.846,9.819 155.569,9.715 155.225,9.715 C154.829,9.715 154.512,9.873 154.274,10.188 C154.123,10.384 154.027,10.676 153.986,11.065 L156.447,11.065 Z M160.153,12.397 L162.822,12.397 L162.822,14.9 L160.153,14.9 L160.153,12.397 Z M169.204,12.354 L171.579,12.624 C171.448,13.119 171.234,13.547 170.935,13.909 C170.636,14.271 170.255,14.553 169.79,14.753 C169.326,14.954 168.736,15.054 168.02,15.054 C167.329,15.054 166.753,14.989 166.293,14.861 C165.832,14.732 165.437,14.523 165.105,14.235 C164.774,13.946 164.514,13.608 164.326,13.219 C164.138,12.83 164.044,12.315 164.044,11.673 C164.044,11.002 164.158,10.443 164.387,9.997 C164.555,9.67 164.784,9.377 165.075,9.117 C165.365,8.857 165.664,8.664 165.97,8.537 C166.457,8.336 167.081,8.236 167.842,8.236 C168.906,8.236 169.717,8.426 170.275,8.807 C170.834,9.187 171.225,9.744 171.45,10.476 L169.1,10.789 C169.026,10.511 168.892,10.301 168.698,10.16 C168.504,10.019 168.243,9.948 167.916,9.948 C167.503,9.948 167.168,10.097 166.912,10.393 C166.657,10.69 166.529,11.139 166.529,11.74 C166.529,12.276 166.656,12.683 166.909,12.961 C167.163,13.239 167.486,13.379 167.879,13.379 C168.206,13.379 168.481,13.295 168.704,13.127 C168.927,12.959 169.094,12.701 169.204,12.354 L169.204,12.354 Z M172.432,11.66 C172.432,10.666 172.768,9.847 173.439,9.203 C174.109,8.558 175.016,8.236 176.157,8.236 C177.462,8.236 178.448,8.615 179.115,9.371 C179.651,9.981 179.919,10.732 179.919,11.624 C179.919,12.626 179.586,13.447 178.922,14.087 C178.257,14.728 177.337,15.048 176.163,15.048 C175.116,15.048 174.269,14.782 173.623,14.25 C172.829,13.591 172.432,12.728 172.432,11.66 L172.432,11.66 Z M174.936,11.654 C174.936,12.235 175.053,12.665 175.289,12.943 C175.524,13.221 175.82,13.36 176.175,13.36 C176.535,13.36 176.831,13.223 177.062,12.949 C177.293,12.675 177.409,12.235 177.409,11.63 C177.409,11.065 177.292,10.645 177.059,10.369 C176.826,10.092 176.537,9.954 176.194,9.954 C175.83,9.954 175.529,10.095 175.292,10.375 C175.055,10.655 174.936,11.081 174.936,11.654 L174.936,11.654 Z M181.152,8.383 L183.484,8.383 L183.484,9.335 C183.819,8.938 184.158,8.656 184.5,8.488 C184.841,8.32 185.253,8.236 185.736,8.236 C186.256,8.236 186.667,8.328 186.97,8.512 C187.272,8.696 187.52,8.971 187.712,9.335 C188.105,8.909 188.463,8.62 188.786,8.466 C189.109,8.313 189.508,8.236 189.983,8.236 C190.682,8.236 191.228,8.444 191.621,8.859 C192.014,9.274 192.21,9.924 192.21,10.807 L192.21,14.9 L189.706,14.9 L189.706,11.188 C189.706,10.893 189.649,10.674 189.535,10.531 C189.367,10.306 189.158,10.194 188.909,10.194 C188.614,10.194 188.377,10.3 188.197,10.513 C188.017,10.726 187.927,11.067 187.927,11.538 L187.927,14.9 L185.423,14.9 L185.423,11.311 C185.423,11.024 185.407,10.83 185.374,10.728 C185.321,10.564 185.229,10.432 185.098,10.332 C184.967,10.232 184.814,10.181 184.638,10.181 C184.351,10.181 184.116,10.29 183.932,10.507 C183.748,10.724 183.656,11.079 183.656,11.574 L183.656,14.9 L181.152,14.9 L181.152,8.383 Z" display="inherit" fill="#000000" id="text2163" stroke="none" stroke-linecap="butt" stroke-linejoin="miter" stroke-width="1"/>
		<path d="M7.79,22.699 L10.208,22.699 L11.257,18.593 L12.582,22.699 L14.835,22.699 L16.209,18.593 L17.259,22.699 L19.658,22.699 L17.259,16.182 L15.037,16.182 L13.718,20.103 L12.441,16.182 L10.208,16.182 L7.79,22.699 Z M19.646,22.699 L22.063,22.699 L23.113,18.593 L24.438,22.699 L26.69,22.699 L28.065,18.593 L29.114,22.699 L31.514,22.699 L29.114,16.182 L26.893,16.182 L25.573,20.103 L24.297,16.182 L22.063,16.182 L19.646,22.699 Z M31.501,22.699 L33.919,22.699 L34.968,18.593 L36.294,22.699 L38.546,22.699 L39.921,18.593 L40.97,22.699 L43.369,22.699 L40.97,16.182 L38.749,16.182 L37.429,20.103 L36.153,16.182 L33.919,16.182 L31.501,22.699 Z M44.1,18.686 L46.769,18.686 L46.769,16.182 L44.1,16.182 L44.1,18.686 Z M52.979,19.44 L52.979,21.312 L57.275,21.312 L57.275,17.477 C56.452,16.916 55.725,16.535 55.093,16.332 C54.461,16.13 53.711,16.028 52.844,16.028 C51.776,16.028 50.906,16.21 50.233,16.575 C49.56,16.939 49.038,17.481 48.668,18.201 C48.298,18.921 48.113,19.747 48.113,20.68 C48.113,21.662 48.315,22.516 48.72,23.242 C49.125,23.968 49.719,24.519 50.5,24.896 C51.109,25.186 51.93,25.331 52.961,25.331 C53.955,25.331 54.698,25.241 55.191,25.061 C55.684,24.881 56.093,24.602 56.419,24.224 C56.744,23.845 56.988,23.366 57.152,22.785 L54.47,22.306 C54.36,22.646 54.173,22.905 53.909,23.085 C53.645,23.265 53.308,23.355 52.899,23.355 C52.29,23.355 51.804,23.144 51.442,22.72 C51.08,22.297 50.899,21.627 50.899,20.711 C50.899,19.737 51.082,19.041 51.448,18.624 C51.814,18.207 52.325,17.998 52.979,17.998 C53.29,17.998 53.587,18.043 53.869,18.133 C54.151,18.223 54.474,18.377 54.838,18.593 L54.838,19.44 L52.979,19.44 Z M65.639,16.182 L63.307,16.182 L63.307,17.237 C62.959,16.804 62.608,16.495 62.254,16.311 C61.901,16.127 61.466,16.035 60.95,16.035 C60.263,16.035 59.724,16.24 59.333,16.651 C58.943,17.062 58.747,17.696 58.747,18.551 L58.747,22.699 L61.257,22.699 L61.257,19.115 C61.257,18.706 61.333,18.416 61.484,18.244 C61.636,18.072 61.848,17.986 62.122,17.986 C62.421,17.986 62.666,18.101 62.856,18.33 C63.046,18.559 63.141,18.97 63.141,19.563 L63.141,22.699 L65.639,22.699 L65.639,16.182 Z M69.443,20.588 L67.056,20.839 C67.146,21.257 67.276,21.585 67.446,21.824 C67.616,22.064 67.86,22.271 68.179,22.447 C68.408,22.574 68.723,22.672 69.124,22.742 C69.525,22.811 69.959,22.846 70.425,22.846 C71.174,22.846 71.775,22.804 72.229,22.72 C72.683,22.636 73.062,22.462 73.365,22.196 C73.577,22.012 73.745,21.751 73.868,21.413 C73.99,21.076 74.052,20.754 74.052,20.447 L74.052,17.569 C74.052,17.262 74.071,17.022 74.11,16.848 C74.149,16.674 74.234,16.452 74.365,16.182 L72.021,16.182 C71.927,16.35 71.865,16.477 71.837,16.565 C71.808,16.653 71.779,16.791 71.751,16.98 C71.423,16.665 71.098,16.44 70.775,16.305 C70.333,16.125 69.82,16.035 69.235,16.035 C68.457,16.035 67.867,16.215 67.464,16.575 C67.061,16.935 66.86,17.378 66.86,17.906 C66.86,18.401 67.005,18.808 67.296,19.127 C67.586,19.446 68.122,19.684 68.903,19.839 C69.84,20.027 70.448,20.159 70.726,20.235 C71.004,20.311 71.299,20.41 71.609,20.533 C71.609,20.839 71.546,21.054 71.419,21.177 C71.292,21.3 71.069,21.361 70.75,21.361 C70.341,21.361 70.034,21.296 69.83,21.165 C69.67,21.062 69.541,20.87 69.443,20.588 L69.443,20.588 Z M71.609,19.275 C71.266,19.152 70.908,19.043 70.536,18.949 C70.028,18.814 69.707,18.681 69.572,18.551 C69.433,18.416 69.364,18.262 69.364,18.09 C69.364,17.894 69.432,17.733 69.569,17.609 C69.706,17.484 69.908,17.421 70.174,17.421 C70.452,17.421 70.71,17.489 70.95,17.624 C71.189,17.759 71.359,17.924 71.459,18.118 C71.559,18.312 71.609,18.565 71.609,18.876 L71.609,19.275 Z M75.586,22.699 L77.924,22.699 L77.924,21.631 C78.149,22.093 78.381,22.411 78.62,22.585 C78.86,22.759 79.155,22.846 79.507,22.846 C79.875,22.846 80.278,22.732 80.716,22.502 L79.943,20.723 C79.648,20.846 79.415,20.907 79.243,20.907 C78.916,20.907 78.662,20.772 78.482,20.502 C78.225,20.121 78.096,19.41 78.096,18.366 L78.096,16.182 L75.586,16.182 L75.586,22.699 Z M87.994,25.178 L87.994,16.182 L85.656,16.182 L85.656,17.145 C85.329,16.736 85.03,16.46 84.76,16.317 C84.4,16.129 83.999,16.035 83.557,16.035 C82.67,16.035 81.991,16.372 81.523,17.047 C81.055,17.722 80.82,18.542 80.82,19.508 C80.82,20.588 81.079,21.414 81.597,21.987 C82.114,22.56 82.772,22.846 83.57,22.846 C83.958,22.846 84.311,22.781 84.628,22.65 C84.945,22.519 85.226,22.322 85.472,22.061 L85.472,25.178 L87.994,25.178 Z M85.49,19.459 C85.49,19.97 85.382,20.352 85.165,20.603 C84.948,20.855 84.674,20.981 84.343,20.981 C84.052,20.981 83.809,20.86 83.612,20.619 C83.416,20.377 83.318,19.972 83.318,19.403 C83.318,18.872 83.419,18.482 83.622,18.234 C83.824,17.987 84.075,17.863 84.373,17.863 C84.692,17.863 84.958,17.988 85.171,18.238 C85.384,18.487 85.49,18.894 85.49,19.459 L85.49,19.459 Z M89.62,25.178 L92.118,25.178 L92.118,23.478 L89.62,23.478 L89.62,25.178 Z M89.62,22.699 L92.118,22.699 L92.118,16.182 L89.62,16.182 L89.62,22.699 Z M96.002,20.588 L93.615,20.839 C93.705,21.257 93.835,21.585 94.005,21.824 C94.174,22.064 94.419,22.271 94.738,22.447 C94.967,22.574 95.282,22.672 95.683,22.742 C96.084,22.811 96.518,22.846 96.984,22.846 C97.733,22.846 98.334,22.804 98.788,22.72 C99.242,22.636 99.621,22.462 99.923,22.196 C100.136,22.012 100.304,21.751 100.426,21.413 C100.549,21.076 100.611,20.754 100.611,20.447 L100.611,17.569 C100.611,17.262 100.63,17.022 100.669,16.848 C100.708,16.674 100.793,16.452 100.924,16.182 L98.579,16.182 C98.485,16.35 98.424,16.477 98.395,16.565 C98.367,16.653 98.338,16.791 98.309,16.98 C97.982,16.665 97.657,16.44 97.334,16.305 C96.892,16.125 96.378,16.035 95.793,16.035 C95.016,16.035 94.426,16.215 94.023,16.575 C93.62,16.935 93.419,17.378 93.419,17.906 C93.419,18.401 93.564,18.808 93.854,19.127 C94.145,19.446 94.681,19.684 95.462,19.839 C96.399,20.027 97.006,20.159 97.285,20.235 C97.563,20.311 97.857,20.41 98.168,20.533 C98.168,20.839 98.105,21.054 97.978,21.177 C97.851,21.3 97.628,21.361 97.309,21.361 C96.9,21.361 96.593,21.296 96.389,21.165 C96.229,21.062 96.1,20.87 96.002,20.588 L96.002,20.588 Z M98.168,19.275 C97.825,19.152 97.467,19.043 97.094,18.949 C96.587,18.814 96.266,18.681 96.131,18.551 C95.992,18.416 95.922,18.262 95.922,18.09 C95.922,17.894 95.991,17.733 96.128,17.609 C96.265,17.484 96.466,17.421 96.732,17.421 C97.01,17.421 97.269,17.489 97.509,17.624 C97.748,17.759 97.918,17.924 98.018,18.118 C98.118,18.312 98.168,18.565 98.168,18.876 L98.168,19.275 Z M102.12,22.699 L104.446,22.699 L104.446,21.637 C104.794,22.071 105.145,22.381 105.501,22.567 C105.857,22.753 106.291,22.846 106.802,22.846 C107.494,22.846 108.035,22.64 108.425,22.229 C108.816,21.818 109.011,21.183 109.011,20.324 L109.011,16.182 L106.502,16.182 L106.502,19.766 C106.502,20.175 106.426,20.464 106.275,20.634 C106.123,20.804 105.91,20.889 105.636,20.889 C105.334,20.889 105.088,20.774 104.9,20.545 C104.712,20.316 104.618,19.905 104.618,19.311 L104.618,16.182 L102.12,16.182 L102.12,22.699 Z M110.036,20.428 L113.669,20.428 L113.669,18.495 L110.036,18.495 L110.036,20.428 Z M114.847,25.178 L118.505,25.178 L119.916,19.704 L121.321,25.178 L124.966,25.178 L124.966,16.182 L122.696,16.182 L122.696,23.042 L120.935,16.182 L118.879,16.182 L117.124,23.042 L117.124,16.182 L114.847,16.182 L114.847,25.178 Z M126.261,19.422 C126.261,20.416 126.597,21.235 127.268,21.88 C127.938,22.524 128.845,22.846 129.986,22.846 C131.291,22.846 132.277,22.468 132.944,21.711 C133.48,21.101 133.748,20.351 133.748,19.459 C133.748,18.456 133.415,17.635 132.75,16.995 C132.086,16.355 131.166,16.035 129.992,16.035 C128.945,16.035 128.098,16.3 127.452,16.832 C126.658,17.491 126.261,18.354 126.261,19.422 L126.261,19.422 Z M128.765,19.428 C128.765,18.847 128.882,18.418 129.118,18.139 C129.353,17.861 129.648,17.722 130.004,17.722 C130.364,17.722 130.66,17.859 130.891,18.133 C131.122,18.407 131.238,18.847 131.238,19.453 C131.238,20.017 131.121,20.437 130.888,20.714 C130.655,20.99 130.366,21.128 130.023,21.128 C129.659,21.128 129.358,20.988 129.121,20.708 C128.883,20.427 128.765,20.001 128.765,19.428 L128.765,19.428 Z M134.975,25.178 L137.497,25.178 L137.497,22.061 C137.747,22.322 138.03,22.519 138.347,22.65 C138.664,22.781 139.015,22.846 139.399,22.846 C140.193,22.846 140.85,22.561 141.369,21.99 C141.889,21.419 142.149,20.6 142.149,19.532 C142.149,18.821 142.03,18.194 141.793,17.652 C141.555,17.109 141.227,16.704 140.808,16.437 C140.388,16.169 139.923,16.035 139.412,16.035 C138.974,16.035 138.573,16.129 138.209,16.317 C137.935,16.464 137.636,16.74 137.313,17.145 L137.313,16.182 L134.975,16.182 L134.975,25.178 Z M137.479,19.459 C137.479,18.898 137.584,18.492 137.795,18.241 C138.005,17.989 138.272,17.863 138.596,17.863 C138.894,17.863 139.145,17.987 139.347,18.234 C139.55,18.482 139.651,18.898 139.651,19.483 C139.651,19.999 139.552,20.377 139.353,20.619 C139.155,20.86 138.915,20.981 138.632,20.981 C138.293,20.981 138.016,20.855 137.801,20.603 C137.586,20.352 137.479,19.97 137.479,19.459 L137.479,19.459 Z M143.449,25.178 L145.947,25.178 L145.947,23.478 L143.449,23.478 L143.449,25.178 Z M143.449,22.699 L145.947,22.699 L145.947,16.182 L143.449,16.182 L143.449,22.699 Z M147.641,25.178 L150.144,25.178 L150.144,16.182 L147.641,16.182 L147.641,25.178 Z M158.987,18.821 L153.98,18.821 C154.025,18.42 154.133,18.121 154.305,17.925 C154.546,17.642 154.861,17.501 155.25,17.501 C155.495,17.501 155.729,17.563 155.95,17.685 C156.085,17.763 156.23,17.9 156.385,18.096 L158.846,17.869 C158.47,17.215 158.015,16.745 157.484,16.461 C156.952,16.177 156.189,16.035 155.195,16.035 C154.332,16.035 153.652,16.156 153.157,16.4 C152.662,16.643 152.252,17.03 151.927,17.559 C151.602,18.089 151.439,18.712 151.439,19.428 C151.439,20.447 151.765,21.271 152.418,21.901 C153.07,22.531 153.972,22.846 155.121,22.846 C156.054,22.846 156.79,22.705 157.33,22.423 C157.87,22.14 158.281,21.731 158.564,21.195 C158.846,20.659 158.987,19.962 158.987,19.103 L158.987,18.821 Z M156.447,20.017 C156.397,20.5 156.268,20.846 156.057,21.054 C155.846,21.263 155.569,21.367 155.225,21.367 C154.829,21.367 154.512,21.21 154.274,20.895 C154.123,20.698 154.027,20.406 153.986,20.017 L156.447,20.017 Z M160.153,18.686 L162.822,18.686 L162.822,16.182 L160.153,16.182 L160.153,18.686 Z M169.204,18.728 L171.579,18.458 C171.448,17.963 171.233,17.535 170.935,17.173 C170.636,16.811 170.255,16.53 169.79,16.329 C169.326,16.129 168.736,16.028 168.02,16.028 C167.329,16.028 166.753,16.093 166.293,16.222 C165.832,16.351 165.437,16.559 165.105,16.848 C164.774,17.136 164.514,17.475 164.326,17.863 C164.138,18.252 164.044,18.767 164.044,19.41 C164.044,20.081 164.158,20.639 164.387,21.085 C164.555,21.412 164.784,21.706 165.075,21.965 C165.365,22.225 165.664,22.419 165.97,22.545 C166.457,22.746 167.081,22.846 167.842,22.846 C168.906,22.846 169.717,22.656 170.275,22.275 C170.834,21.895 171.225,21.339 171.45,20.606 L169.1,20.293 C169.026,20.571 168.892,20.781 168.698,20.922 C168.504,21.063 168.243,21.134 167.916,21.134 C167.503,21.134 167.168,20.986 166.912,20.689 C166.657,20.392 166.529,19.944 166.529,19.342 C166.529,18.806 166.656,18.399 166.909,18.121 C167.163,17.843 167.486,17.704 167.879,17.704 C168.206,17.704 168.481,17.788 168.704,17.955 C168.927,18.123 169.094,18.381 169.204,18.728 L169.204,18.728 Z M172.432,19.422 C172.432,20.416 172.768,21.235 173.439,21.88 C174.109,22.524 175.016,22.846 176.157,22.846 C177.462,22.846 178.448,22.468 179.115,21.711 C179.651,21.101 179.919,20.351 179.919,19.459 C179.919,18.456 179.586,17.635 178.922,16.995 C178.257,16.355 177.337,16.035 176.163,16.035 C175.116,16.035 174.269,16.3 173.623,16.832 C172.829,17.491 172.432,18.354 172.432,19.422 L172.432,19.422 Z M174.936,19.428 C174.936,18.847 175.053,18.418 175.289,18.139 C175.524,17.861 175.82,17.722 176.175,17.722 C176.535,17.722 176.831,17.859 177.062,18.133 C177.293,18.407 177.409,18.847 177.409,19.453 C177.409,20.017 177.292,20.437 177.059,20.714 C176.826,20.99 176.537,21.128 176.194,21.128 C175.83,21.128 175.529,20.988 175.292,20.708 C175.054,20.427 174.936,20.001 174.936,19.428 L174.936,19.428 Z M181.152,22.699 L183.484,22.699 L183.484,21.748 C183.819,22.144 184.158,22.427 184.5,22.594 C184.841,22.762 185.253,22.846 185.736,22.846 C186.256,22.846 186.667,22.754 186.97,22.57 C187.272,22.386 187.52,22.112 187.712,21.748 C188.105,22.173 188.463,22.463 188.786,22.616 C189.109,22.769 189.508,22.846 189.983,22.846 C190.682,22.846 191.228,22.638 191.621,22.223 C192.014,21.808 192.21,21.159 192.21,20.275 L192.21,16.182 L189.706,16.182 L189.706,19.894 C189.706,20.189 189.649,20.408 189.535,20.551 C189.367,20.776 189.158,20.889 188.909,20.889 C188.614,20.889 188.377,20.782 188.197,20.569 C188.017,20.357 187.927,20.015 187.927,19.545 L187.927,16.182 L185.423,16.182 L185.423,19.772 C185.423,20.058 185.407,20.252 185.374,20.355 C185.321,20.518 185.229,20.65 185.098,20.75 C184.967,20.851 184.814,20.901 184.638,20.901 C184.351,20.901 184.116,20.792 183.932,20.576 C183.748,20.359 183.656,20.003 183.656,19.508 L183.656,16.182 L181.152,16.182 L181.152,22.699 Z" display="inherit" fill="url(#gr_1216)" id="path2168" stroke="none" stroke-linecap="butt" stroke-linejoin="miter" stroke-width="1"/>
	</g>
	<defs display="inherit">
		<linearGradient id="gr_1042" x1="0.5" x2="0.5" y1="0.777">
			<stop offset="0.148" stop-color="#ffffff" stop-opacity="0"/>
			<stop offset="1" stop-color="#000000" stop-opacity="0.9"/>
		</linearGradient>
		<linearGradient id="gr_1045" x1="0.5" x2="0.5" y1="1">
			<stop offset="0.21" stop-color="#ffffff" stop-opacity="0"/>
			<stop offset="1" stop-color="#000000" stop-opacity="0.9"/>
		</linearGradient>
		<linearGradient id="gr_13" x1="0.5" x2="0.5" y1="1">
			<stop offset="0.148" stop-color="#ffffff" stop-opacity="0"/>
			<stop offset="1" stop-color="#e1101a" stop-opacity="0.9"/>
		</linearGradient>
		<linearGradient id="gr_1216" x1="0.503" x2="0.503" y1="0.803" y2="0.051">
			<stop offset="0.21" stop-color="#ffffff" stop-opacity="0"/>
			<stop offset="1" stop-color="#000000" stop-opacity="0.9"/>
		</linearGradient>
		<linearGradient id="gr_922" x1="-0.064" x2="0.967" y1="0.917" y2="0.064">
			<stop offset="0.406" stop-color="#f3de36"/>
			<stop offset="0.516" stop-color="#f0f787"/>
			<stop offset="0.767" stop-color="#fac01a"/>
		</linearGradient>
		<linearGradient id="gr_942" y1="0.5" y2="0.5">
			<stop offset="0.02" stop-color="#8a800d"/>
			<stop offset="0.14" stop-color="#d8b9a5"/>
			<stop offset="0.34" stop-color="#ffffff"/>
			<stop offset="0.63" stop-color="#9f940f"/>
			<stop offset="0.78" stop-color="#f7f6eb"/>
			<stop offset="0.85" stop-color="#847a0c"/>
			<stop offset="1" stop-color="#edddd3"/>
		</linearGradient>
		<linearGradient id="gr_946" x1="0.5" x2="0.5" y2="1">
			<stop offset="0.21" stop-color="#ffffff" stop-opacity="0"/>
			<stop offset="1" stop-color="#ffed66" stop-opacity="0.9"/>
		</linearGradient>
	</defs>
	<g display="inherit" id="Gold" transform="matrix(0.591,0,0,0.591,60.832,83.199)">
		<g display="inherit" fill="#000000" fill-opacity="0.8" id="Ombra" stroke="none" transform="matrix(2.709,0,0,2.709,-6.555,-7.92)">
			<path d="M13.5,3.938 C11.519,3.938 9.943,4.106 8.594,4.781 C6.993,5.528 5.732,6.719 4.875,8.219 C4.023,9.709 3.594,11.422 3.594,13.375 C3.594,15.149 4.017,16.815 4.75,18.281 C5.494,19.769 6.572,20.904 7.969,21.656 C9.407,22.431 11.202,22.719 13.219,22.719 C14.932,22.719 16.396,22.514 17.656,22.094 C18.908,21.677 20.308,20.942 21.906,19.844 C22.137,19.69 22.277,19.433 22.281,19.156 L22.281,12.125 C22.282,11.901 22.193,11.686 22.035,11.528 C21.876,11.369 21.661,11.281 21.438,11.281 L13.5,11.281 C13.276,11.281 13.061,11.369 12.903,11.528 C12.744,11.686 12.656,11.901 12.656,12.125 L12.656,15.5 C12.656,15.724 12.744,15.939 12.903,16.097 C13.061,16.256 13.276,16.344 13.5,16.344 L16.125,16.344 L16.125,16.531 C15.666,16.768 15.179,16.991 14.844,17.125 C14.5,17.263 13.994,17.344 13.5,17.344 C12.526,17.344 11.815,17.043 11.313,16.469 C10.858,15.95 10.594,14.943 10.594,13.188 C10.594,11.635 10.867,10.572 11.313,10.063 C11.84,9.459 12.433,9.187 13.406,9.188 C14.014,9.188 14.493,9.288 14.719,9.469 C15.095,9.769 15.367,10.164 15.5,10.563 C15.633,10.969 16.05,11.211 16.469,11.125 L21.375,10.25 C21.609,10.207 21.814,10.067 21.939,9.865 C22.064,9.662 22.098,9.416 22.031,9.188 C21.71,8.011 21.16,7.02 20.5,6.25 C19.87,5.515 19.074,4.788 17.906,4.438 C16.824,4.113 15.39,3.938 13.5,3.938 Z" display="inherit" id="O_G" stroke="none" stroke-dasharray="none" stroke-linejoin="bevel" stroke-miterlimit="4" stroke-width="0.65"/>
			<path d="M32.344,3.813 C29.492,3.813 27.064,4.544 25.406,6.313 C23.787,8.04 22.969,10.408 22.969,13.281 C22.969,15.302 23.246,17.177 24.156,18.656 C24.995,20.02 26.089,21.147 27.531,21.813 C28.933,22.459 30.601,22.75 32.531,22.75 C34.491,22.75 36.249,22.378 37.594,21.594 C38.918,20.821 40.006,19.619 40.75,18.344 C41.552,16.968 41.812,15.209 41.812,13.188 C41.812,10.314 40.989,7.926 39.344,6.281 C37.699,4.636 35.308,3.813 32.344,3.813 Z M32.438,9.406 C33.285,9.406 33.63,9.63 34.219,10.219 C34.628,10.628 34.938,11.535 34.938,12.969 C34.938,14.709 34.543,15.909 34.25,16.25 C33.843,16.724 33.285,17.031 32.438,17.031 C31.59,17.031 31.123,16.779 30.563,16.219 C30.181,15.837 29.844,14.818 29.844,13.281 C29.844,11.745 30.22,10.562 30.563,10.219 C31.123,9.659 31.59,9.406 32.438,9.406 Z" display="inherit" id="O_O" stroke="none" stroke-dasharray="none" stroke-linejoin="bevel" stroke-miterlimit="4" stroke-width="0.65"/>
			<path d="M59.375,4.063 C59.134,4.059 58.901,4.153 58.73,4.324 C58.56,4.495 58.465,4.727 58.469,4.969 L58.469,21.594 C58.465,21.835 58.56,22.068 58.73,22.238 C58.901,22.409 59.134,22.503 59.375,22.5 L67.031,22.5 C68.127,22.5 69.17,22.262 70.344,21.969 C70.365,21.959 70.386,21.949 70.406,21.938 C71.404,21.605 72.284,21.078 73.031,20.438 C73.865,19.722 74.479,18.724 74.906,17.656 C75.364,16.512 75.563,14.997 75.563,13.188 C75.563,12.06 75.439,10.9 75.125,9.75 C74.816,8.619 74.384,7.59 73.594,6.688 C72.873,5.864 72.063,5.138 70.938,4.688 C69.832,4.245 68.551,4.063 66.938,4.063 L59.375,4.063 Z M65.406,9.625 L65.75,9.625 C66.931,9.625 67.664,9.945 68.031,10.313 C68.255,10.536 68.625,11.644 68.625,13.281 C68.625,14.596 68.492,15.454 68.344,15.75 C68.085,16.268 67.923,16.477 67.625,16.656 C67.448,16.762 66.765,16.906 65.75,16.906 L65.406,16.906 L65.406,9.625 Z" display="inherit" id="O_D" stroke="none" stroke-dasharray="none" stroke-linejoin="bevel" stroke-miterlimit="4" stroke-width="0.65"/>
			<path d="M43.656,4.031 C43.215,4.125 42.901,4.517 42.906,4.969 L42.906,21.469 C42.911,21.984 43.328,22.401 43.844,22.406 L56.969,22.406 C57.484,22.401 57.901,21.984 57.906,21.469 L57.906,17.438 C57.901,16.922 57.484,16.505 56.969,16.5 L49.906,16.5 L49.906,4.969 C49.901,4.453 49.484,4.036 48.969,4.031 L43.844,4.031 C43.781,4.025 43.719,4.025 43.656,4.031 Z" display="inherit" id="O_L" stroke="none" stroke-dasharray="none" stroke-linejoin="bevel" stroke-miterlimit="4" stroke-width="0.65"/>
		</g>
		<g display="inherit" fill="url(#gr_942)" id="GoldBg" stroke="none" transform="matrix(2.709,0,0,2.709,-8.055,-9.42)">
			<path d="M13.5,3.938 C11.519,3.938 9.943,4.106 8.594,4.781 C6.993,5.528 5.732,6.719 4.875,8.219 C4.023,9.709 3.594,11.422 3.594,13.375 C3.594,15.149 4.017,16.815 4.75,18.281 C5.494,19.769 6.572,20.904 7.969,21.656 C9.407,22.431 11.202,22.719 13.219,22.719 C14.932,22.719 16.396,22.514 17.656,22.094 C18.908,21.677 20.308,20.942 21.906,19.844 C22.137,19.69 22.277,19.433 22.281,19.156 L22.281,12.125 C22.282,11.901 22.193,11.686 22.035,11.528 C21.876,11.369 21.661,11.281 21.438,11.281 L13.5,11.281 C13.276,11.281 13.061,11.369 12.903,11.528 C12.744,11.686 12.656,11.901 12.656,12.125 L12.656,15.5 C12.656,15.724 12.744,15.939 12.903,16.097 C13.061,16.256 13.276,16.344 13.5,16.344 L16.125,16.344 L16.125,16.531 C15.666,16.768 15.179,16.991 14.844,17.125 C14.5,17.263 13.994,17.344 13.5,17.344 C12.526,17.344 11.815,17.043 11.313,16.469 C10.858,15.95 10.594,14.943 10.594,13.188 C10.594,11.635 10.867,10.572 11.313,10.063 C11.84,9.459 12.433,9.187 13.406,9.188 C14.014,9.188 14.493,9.288 14.719,9.469 C15.095,9.769 15.367,10.164 15.5,10.563 C15.633,10.969 16.05,11.211 16.469,11.125 L21.375,10.25 C21.609,10.207 21.814,10.067 21.939,9.865 C22.064,9.662 22.098,9.416 22.031,9.188 C21.71,8.011 21.16,7.02 20.5,6.25 C19.87,5.515 19.074,4.788 17.906,4.438 C16.824,4.113 15.39,3.938 13.5,3.938 Z" display="inherit" id="bg_G" stroke="none" stroke-dasharray="none" stroke-linejoin="bevel" stroke-miterlimit="4" stroke-width="0.65"/>
			<path d="M32.344,3.813 C29.492,3.813 27.064,4.544 25.406,6.313 C23.787,8.04 22.969,10.408 22.969,13.281 C22.969,15.302 23.246,17.177 24.156,18.656 C24.995,20.02 26.089,21.147 27.531,21.813 C28.933,22.459 30.601,22.75 32.531,22.75 C34.491,22.75 36.249,22.378 37.594,21.594 C38.918,20.821 40.006,19.619 40.75,18.344 C41.552,16.968 41.812,15.209 41.812,13.188 C41.812,10.314 40.989,7.926 39.344,6.281 C37.699,4.636 35.308,3.813 32.344,3.813 Z M32.438,9.406 C33.285,9.406 33.63,9.63 34.219,10.219 C34.628,10.628 34.938,11.535 34.938,12.969 C34.938,14.709 34.543,15.909 34.25,16.25 C33.843,16.724 33.285,17.031 32.438,17.031 C31.59,17.031 31.123,16.779 30.563,16.219 C30.181,15.837 29.844,14.818 29.844,13.281 C29.844,11.745 30.22,10.562 30.563,10.219 C31.123,9.659 31.59,9.406 32.438,9.406 Z" display="inherit" id="bg_O" stroke="none" stroke-dasharray="none" stroke-linejoin="bevel" stroke-miterlimit="4" stroke-width="0.65"/>
			<path d="M59.375,4.063 C59.134,4.059 58.901,4.153 58.73,4.324 C58.56,4.495 58.465,4.727 58.469,4.969 L58.469,21.594 C58.465,21.835 58.56,22.068 58.73,22.238 C58.901,22.409 59.134,22.503 59.375,22.5 L67.031,22.5 C68.127,22.5 69.17,22.262 70.344,21.969 C70.365,21.959 70.386,21.949 70.406,21.938 C71.404,21.605 72.284,21.078 73.031,20.438 C73.865,19.722 74.479,18.724 74.906,17.656 C75.364,16.512 75.563,14.997 75.563,13.188 C75.563,12.06 75.439,10.9 75.125,9.75 C74.816,8.619 74.384,7.59 73.594,6.688 C72.873,5.864 72.063,5.138 70.938,4.688 C69.832,4.245 68.551,4.063 66.938,4.063 L59.375,4.063 Z M65.406,9.625 L65.75,9.625 C66.931,9.625 67.664,9.945 68.031,10.313 C68.255,10.536 68.625,11.644 68.625,13.281 C68.625,14.596 68.492,15.454 68.344,15.75 C68.085,16.268 67.923,16.477 67.625,16.656 C67.448,16.762 66.765,16.906 65.75,16.906 L65.406,16.906 L65.406,9.625 Z" display="inherit" id="bg_D" stroke="none" stroke-dasharray="none" stroke-linejoin="bevel" stroke-miterlimit="4" stroke-width="0.65"/>
			<path d="M43.656,4.031 C43.215,4.125 42.901,4.517 42.906,4.969 L42.906,21.469 C42.911,21.984 43.328,22.401 43.844,22.406 L56.969,22.406 C57.484,22.401 57.901,21.984 57.906,21.469 L57.906,17.438 C57.901,16.922 57.484,16.505 56.969,16.5 L49.906,16.5 L49.906,4.969 C49.901,4.453 49.484,4.036 48.969,4.031 L43.844,4.031 C43.781,4.025 43.719,4.025 43.656,4.031 Z" display="inherit" id="bg_L" stroke="none" stroke-dasharray="none" stroke-linejoin="bevel" stroke-miterlimit="4" stroke-width="0.65"/>
		</g>
		<g display="inherit" fill="url(#gr_922)" id="GoldFg" stroke="none" transform="matrix(2.709,0,0,2.709,-8.022,-9.371)">
			<g display="inherit" id="GoldFg_1" stroke="none" transform="matrix(0.966,0,0,0.966,28.25,-12.189)">
				<path d="M-15.266,28.756 L-15.266,25.156 L-7.066,25.156 L-7.066,32.456 C-8.666,33.556 -10.066,34.256 -11.266,34.656 C-12.466,35.056 -13.866,35.256 -15.566,35.256 C-17.566,35.256 -19.266,34.956 -20.566,34.256 C-21.866,33.556 -22.866,32.556 -23.566,31.156 C-24.266,29.756 -24.666,28.156 -24.666,26.456 C-24.666,24.556 -24.266,22.956 -23.466,21.556 C-22.666,20.156 -21.466,19.056 -19.966,18.356 C-18.766,17.756 -17.266,17.556 -15.266,17.556 C-13.366,17.556 -11.966,17.756 -10.966,18.056 C-9.966,18.356 -9.266,18.956 -8.666,19.656 C-8.066,20.356 -7.566,21.256 -7.266,22.356 L-12.366,23.256 C-12.566,22.656 -12.966,22.156 -13.466,21.756 C-13.966,21.356 -14.666,21.256 -15.366,21.256 C-16.566,21.256 -17.466,21.656 -18.166,22.456 C-18.866,23.256 -19.166,24.556 -19.166,26.256 C-19.166,28.156 -18.866,29.456 -18.166,30.256 C-17.466,31.056 -16.466,31.456 -15.266,31.456 C-14.666,31.456 -14.066,31.356 -13.566,31.156 C-13.066,30.956 -12.366,30.656 -11.666,30.256 L-11.666,28.656 L-15.266,28.656 L-15.266,28.756 Z" display="inherit" id="fg_G" stroke="none" stroke-dasharray="none" stroke-linejoin="bevel" stroke-miterlimit="4" stroke-width="0.65"/>
				<path d="M-4.566,26.356 C-4.566,23.556 -3.766,21.356 -2.266,19.756 C-0.766,18.156 1.434,17.456 4.234,17.456 C7.134,17.456 9.334,18.256 10.834,19.756 C12.334,21.256 13.134,23.456 13.134,26.256 C13.134,28.256 12.834,29.956 12.134,31.156 C11.434,32.356 10.434,33.456 9.234,34.156 C8.034,34.856 6.334,35.256 4.434,35.256 C2.534,35.256 0.934,34.956 -0.366,34.356 C-1.666,33.756 -2.666,32.756 -3.466,31.456 C-4.266,30.156 -4.566,28.356 -4.566,26.356 Z M0.734,26.356 C0.734,28.056 1.034,29.356 1.734,30.056 C2.434,30.756 3.234,31.156 4.334,31.156 C5.434,31.156 6.334,30.756 6.934,30.056 C7.534,29.356 7.834,27.956 7.834,26.056 C7.834,24.456 7.534,23.256 6.834,22.556 C6.134,21.856 5.434,21.456 4.334,21.456 C3.234,21.456 2.434,21.856 1.734,22.556 C1.034,23.256 0.734,24.656 0.734,26.356 Z" display="inherit" id="fg_O" stroke="none" stroke-dasharray="none" stroke-linejoin="bevel" stroke-miterlimit="4" stroke-width="0.65"/>
				<path d="M32.134,17.756 L40.034,17.756 C41.634,17.756 42.834,17.956 43.834,18.356 C44.834,18.756 45.534,19.356 46.234,20.156 C46.934,20.956 47.334,21.856 47.634,22.956 C47.934,24.056 48.034,25.156 48.034,26.256 C48.034,28.056 47.834,29.556 47.434,30.556 C47.034,31.556 46.434,32.456 45.734,33.056 C45.034,33.656 44.234,34.156 43.334,34.456 C42.134,34.756 41.134,34.956 40.134,34.956 L32.234,34.956 L32.234,17.756 L32.134,17.756 Z M37.534,21.656 L37.534,31.056 L38.834,31.056 C39.934,31.056 40.734,30.956 41.234,30.656 C41.734,30.356 42.034,29.956 42.334,29.356 C42.634,28.756 42.734,27.756 42.734,26.356 C42.734,24.556 42.434,23.256 41.834,22.656 C41.234,22.056 40.234,21.656 38.834,21.656 L37.534,21.656 L37.534,21.656 Z" display="inherit" id="fg_D" stroke="none" stroke-dasharray="none" stroke-linejoin="bevel" stroke-miterlimit="4" stroke-width="0.65"/>
				<path d="M16.134,17.756 L21.434,17.756 L21.434,30.656 L29.734,30.656 L29.734,34.856 L16.134,34.856 L16.134,17.756 Z" display="inherit" id="fg_L" stroke="none" stroke-dasharray="none" stroke-linejoin="bevel" stroke-miterlimit="4" stroke-width="0.65" transform="matrix(1,0,0,1,0,0)"/>
			</g>
		</g>
		<g display="inherit" fill="url(#gr_946)" fill-opacity="0.7" id="Riflesso" stroke="none" transform="matrix(2.709,0,0,-2.709,-7.555,118.056)">
			<path d="M13.5,3.938 C11.519,3.938 9.943,4.106 8.594,4.781 C6.993,5.528 5.732,6.719 4.875,8.219 C4.023,9.709 3.594,11.422 3.594,13.375 C3.594,15.149 4.017,16.815 4.75,18.281 C5.494,19.769 6.572,20.904 7.969,21.656 C9.407,22.431 11.202,22.719 13.219,22.719 C14.932,22.719 16.396,22.514 17.656,22.094 C18.908,21.677 20.308,20.942 21.906,19.844 C22.137,19.69 22.277,19.433 22.281,19.156 L22.281,12.125 C22.282,11.901 22.193,11.686 22.035,11.528 C21.876,11.369 21.661,11.281 21.438,11.281 L13.5,11.281 C13.276,11.281 13.061,11.369 12.903,11.528 C12.744,11.686 12.656,11.901 12.656,12.125 L12.656,15.5 C12.656,15.724 12.744,15.939 12.903,16.097 C13.061,16.256 13.276,16.344 13.5,16.344 L16.125,16.344 L16.125,16.531 C15.666,16.768 15.179,16.991 14.844,17.125 C14.5,17.263 13.994,17.344 13.5,17.344 C12.526,17.344 11.815,17.043 11.313,16.469 C10.858,15.95 10.594,14.943 10.594,13.188 C10.594,11.635 10.867,10.572 11.313,10.063 C11.84,9.459 12.433,9.187 13.406,9.188 C14.014,9.188 14.493,9.288 14.719,9.469 C15.095,9.769 15.367,10.164 15.5,10.563 C15.633,10.969 16.05,11.211 16.469,11.125 L21.375,10.25 C21.609,10.207 21.814,10.067 21.939,9.865 C22.064,9.662 22.098,9.416 22.031,9.188 C21.71,8.011 21.16,7.02 20.5,6.25 C19.87,5.515 19.074,4.788 17.906,4.438 C16.824,4.113 15.39,3.938 13.5,3.938 Z" display="inherit" id="O_G_1" stroke="none" stroke-dasharray="none" stroke-linejoin="bevel" stroke-miterlimit="4" stroke-width="0.65"/>
			<path d="M32.344,3.813 C29.492,3.813 27.064,4.544 25.406,6.313 C23.787,8.04 22.969,10.408 22.969,13.281 C22.969,15.302 23.246,17.177 24.156,18.656 C24.995,20.02 26.089,21.147 27.531,21.813 C28.933,22.459 30.601,22.75 32.531,22.75 C34.491,22.75 36.249,22.378 37.594,21.594 C38.918,20.821 40.006,19.619 40.75,18.344 C41.552,16.968 41.812,15.209 41.812,13.188 C41.812,10.314 40.989,7.926 39.344,6.281 C37.699,4.636 35.308,3.813 32.344,3.813 Z M32.438,9.406 C33.285,9.406 33.63,9.63 34.219,10.219 C34.628,10.628 34.938,11.535 34.938,12.969 C34.938,14.709 34.543,15.909 34.25,16.25 C33.843,16.724 33.285,17.031 32.438,17.031 C31.59,17.031 31.123,16.779 30.563,16.219 C30.181,15.837 29.844,14.818 29.844,13.281 C29.844,11.745 30.22,10.562 30.563,10.219 C31.123,9.659 31.59,9.406 32.438,9.406 Z" display="inherit" id="O_O_1" stroke="none" stroke-dasharray="none" stroke-linejoin="bevel" stroke-miterlimit="4" stroke-width="0.65"/>
			<path d="M59.375,4.063 C59.134,4.059 58.901,4.153 58.73,4.324 C58.56,4.495 58.465,4.727 58.469,4.969 L58.469,21.594 C58.465,21.835 58.56,22.068 58.73,22.238 C58.901,22.409 59.134,22.503 59.375,22.5 L67.031,22.5 C68.127,22.5 69.17,22.262 70.344,21.969 C70.365,21.959 70.386,21.949 70.406,21.938 C71.404,21.605 72.284,21.078 73.031,20.438 C73.865,19.722 74.479,18.724 74.906,17.656 C75.364,16.512 75.563,14.997 75.563,13.188 C75.563,12.06 75.439,10.9 75.125,9.75 C74.816,8.619 74.384,7.59 73.594,6.688 C72.873,5.864 72.063,5.138 70.938,4.688 C69.832,4.245 68.551,4.063 66.938,4.063 L59.375,4.063 Z M65.406,9.625 L65.75,9.625 C66.931,9.625 67.664,9.945 68.031,10.313 C68.255,10.536 68.625,11.644 68.625,13.281 C68.625,14.596 68.492,15.454 68.344,15.75 C68.085,16.268 67.923,16.477 67.625,16.656 C67.448,16.762 66.765,16.906 65.75,16.906 L65.406,16.906 L65.406,9.625 Z" display="inherit" id="O_D_1" stroke="none" stroke-dasharray="none" stroke-linejoin="bevel" stroke-miterlimit="4" stroke-width="0.65"/>
			<path d="M43.656,4.031 C43.215,4.125 42.901,4.517 42.906,4.969 L42.906,21.469 C42.911,21.984 43.328,22.401 43.844,22.406 L56.969,22.406 C57.484,22.401 57.901,21.984 57.906,21.469 L57.906,17.438 C57.901,16.922 57.484,16.505 56.969,16.5 L49.906,16.5 L49.906,4.969 C49.901,4.453 49.484,4.036 48.969,4.031 L43.844,4.031 C43.781,4.025 43.719,4.025 43.656,4.031 Z" display="inherit" id="O_L_1" stroke="none" stroke-dasharray="none" stroke-linejoin="bevel" stroke-miterlimit="4" stroke-width="0.65"/>
		</g>
	</g>
  <path
     style="fill:#000000;stroke:none;display:inherit;"
     d="m 93.77281,227.37777 c -0.825609,-0.005 -1.898865,0.29561 -1.691081,-0.98008 -0.375589,-2.72265 -0.751179,-5.44532 -1.126769,-8.16798 0.91775,-0.0968 1.782162,-0.12847 1.595691,1.12144 0.250893,1.93323 0.501786,3.86644 0.752679,5.79966 0.972587,-2.30704 1.945173,-4.61406 2.91776,-6.9211 0.969573,-0.0927 1.83361,-0.11292 1.000148,1.03173 -1.149475,2.70545 -2.298951,5.41088 -3.448428,8.11633 z m 8.00832,-2.75792 c -1.15656,0 -2.31313,0 -3.46969,0 -0.246293,1.89496 1.71565,1.81341 2.33285,0.76781 2.52915,0.18231 -1.578297,3.54459 -2.653678,1.67523 -1.969699,-1.81058 -1.000393,-6.4284 1.840818,-6.46188 1.96429,-0.008 2.25266,2.45189 1.9497,4.01884 z m -1.16885,-1.09183 c 0.58873,-2.54571 -2.925384,-1.32893 -1.893915,0 0.631305,0 1.26261,0 1.893915,0 z m 2.67817,-2.77752 c 1.07041,-0.21596 1.54488,0.1029 1.09024,1.25555 0.35594,-1.61781 3.04265,-1.82681 1.72063,0.10395 -1.75423,-0.0959 -2.08337,2.32912 -2.27424,3.88734 0.018,1.08304 -0.35489,1.67207 -1.42445,1.38043 -0.36008,-0.40751 0.2073,-1.64619 0.20131,-2.37104 0.22884,-1.41874 0.45768,-2.83749 0.68651,-4.25623 z m 2.65877,4.77456 c 1.47308,-1.10489 2.38979,2.04677 3.45805,0 -1.43164,-0.83695 -4.19612,-2.74725 -1.72617,-4.58348 1.23735,-1.62663 5.07509,1.35274 2.44571,1.62291 -0.37323,-1.21784 -3.30507,-0.50539 -1.45194,0.52316 3.52825,0.23882 1.99592,5.7507 -1.13229,4.3154 -0.83705,-0.21455 -1.42668,-1.00417 -1.59336,-1.87799 z m 7.15181,-7.29535 c 0.9489,-0.11828 1.74122,-0.0964 1.20379,1.11553 0.20674,0.79161 -1.91208,0.81236 -1.37371,-0.0508 0.0566,-0.35491 0.11328,-0.70982 0.16992,-1.06473 z m -0.40546,2.52079 c 0.94898,-0.12026 1.73414,-0.0937 1.19953,1.11581 -0.29605,1.83716 -0.59211,3.67431 -0.88816,5.51146 -0.94896,0.11994 -1.73531,0.0941 -1.20034,-1.11579 0.29632,-1.83716 0.59264,-3.67432 0.88897,-5.51148 z m 1.87889,3.87553 c -0.31952,-2.42292 2.04895,-5.19249 4.30678,-3.58267 2.1664,1.93997 0.69396,7.04935 -2.42383,6.4362 -1.26052,-0.22171 -1.9321,-1.59486 -1.88295,-2.85353 z m 3.93917,-1.27947 c -0.81055,-3.9792 -4.42875,2.09582 -1.50253,2.80226 1.18269,-0.11928 1.4924,-1.76573 1.50253,-2.80226 z m 2.97693,-2.59606 c 0.72734,-0.0151 1.66729,-0.22182 1.17467,0.86192 1.56828,-2.36476 4.20309,-0.041 2.97272,2.28838 -0.18678,1.15898 -0.37356,2.31798 -0.56033,3.47697 -0.94888,0.11828 -1.74121,0.0964 -1.20394,-1.11555 0.16571,-1.32154 0.54256,-2.63553 0.52409,-3.96586 -1.61933,-1.31808 -2.19929,1.98443 -2.31346,3.33681 -0.21595,0.76374 0.0552,2.14183 -1.08119,1.7446 -1.11659,0.27016 -0.18174,-1.29812 -0.26655,-1.95262 0.25133,-1.55821 0.50266,-3.11643 0.75399,-4.67465 z m 6.31761,0 c 0.9494,-0.12617 1.71318,-0.0855 1.18466,1.11629 0.31927,0.90194 -1.73249,0.90596 -1.39888,0.20057 0.0714,-0.43895 0.14281,-0.87791 0.21422,-1.31686 z m -0.78667,4.89931 c 0.94996,-0.12607 1.71357,-0.0855 1.17968,1.11538 0.3133,0.89431 -1.73202,0.90037 -1.39362,0.19431 0.0713,-0.43656 0.14263,-0.87312 0.21394,-1.30969 z"
     id="Version:"/>
  <path
     style="fill:#000000;stroke:none;display:inherit;"
     d="M 136.21875 217.21875 C 135.75639 217.22776 135.27168 217.38294 134.84375 217.65625 C 133.54004 218.26505 132.33064 220.38728 134.53125 220.15625 C 135.07173 219.61813 137.28375 217.72726 137.21875 220.25 C 136.89648 221.72399 134.84994 220.92928 135.15625 222.75 C 137.02546 222.59397 137.32577 226.49616 134.71875 225.84375 C 134.17967 224.49508 133.43528 224.40426 132.0625 224.75 C 132.16042 225.51991 132.46349 226.29309 133.0625 226.8125 C 135.31683 228.86632 139.59251 226.36803 138.53125 223.375 C 137.58827 222.24669 137.41962 222.21713 138.71875 221.3125 C 140.14642 219.35659 138.22231 217.17971 136.21875 217.21875 z M 148.09375 217.28125 C 147.95257 217.29311 147.80493 217.30713 147.65625 217.34375 C 144.87048 218.14359 144.04204 221.53252 143.9375 224.09375 C 143.7885 225.88878 145.06999 227.77516 147.03125 227.5 C 149.77958 227.08043 150.72193 223.9049 151 221.53125 C 151.46412 219.61287 150.21149 217.10338 148.09375 217.28125 z M 155.875 217.28125 C 155.73382 217.29311 155.58618 217.30713 155.4375 217.34375 C 152.65173 218.14359 151.82329 221.53252 151.71875 224.09375 C 151.55279 225.86903 152.87294 227.78984 154.8125 227.5 C 157.56083 227.08043 158.50319 223.90489 158.78125 221.53125 C 159.24538 219.61286 157.99274 217.10338 155.875 217.28125 z M 147.875 219.0625 C 148.88761 219.04099 149.7487 221.19838 148.75 222.78125 C 149.05052 224.58053 146.13573 227.65697 145.84375 224.5 C 145.87631 223.21042 146.16958 221.91157 146.5625 220.6875 C 146.92262 219.51243 147.41472 219.07228 147.875 219.0625 z M 155.6875 219.0625 C 156.70011 219.04099 157.5612 221.19838 156.5625 222.78125 C 156.86302 224.58053 153.94823 227.65697 153.65625 224.5 C 153.68881 223.21042 153.98208 221.91157 154.375 220.6875 C 154.73512 219.51243 155.22722 219.07228 155.6875 219.0625 z M 141.46875 225.40625 C 141.02813 225.427 140.44558 225.57089 140.15625 225.46875 C 140.13665 225.56256 140.11335 225.6562 140.09375 225.75 C 140.0159 226.48756 139.27657 227.73936 140.59375 227.34375 C 141.6969 227.68262 141.90245 226.93751 141.96875 226 C 142.19167 225.48175 141.90937 225.3855 141.46875 225.40625 z "
     id="3.00" />
</svg>
