<?xml version="1.0" encoding="UTF-8"?>
<!-- Generator: Ikivo Animator 2.2 (build 2.2.0.10) -->
<!DOCTYPE svg PUBLIC "-//W3C//DTD SVG 1.1 Tiny//EN" "http://www.w3.org/Graphics/SVG/1.1/DTD/svg11-tiny.dtd">
<svg baseProfile="tiny" display="inherit" height="235" id="svg2" version="1.1" viewBox="0 0 240 235" width="240" xmlns="http://www.w3.org/2000/svg" xmlns:xlink="http://www.w3.org/1999/xlink" xmlns:ev="http://www.w3.org/2001/xml-events">
	<rect display="inherit" fill="none" height="235" id="rect4" width="240"/>
	<defs display="inherit">
		<linearGradient id="gr_1042" x1="0.5" x2="0.5" y1="0.777">
			<stop offset="0.148" stop-color="#ffffff" stop-opacity="0"/>
			<stop offset="1" stop-color="#000000" stop-opacity="0.9"/>
		</linearGradient>
		<linearGradient id="gr_1045" x1="0.5" x2="0.5" y1="1">
			<stop offset="0.21" stop-color="#ffffff" stop-opacity="0"/>
			<stop offset="1" stop-color="#000000" stop-opacity="0.9"/>
		</linearGradient>
		<linearGradient id="gr_13" x1="0.5" x2="0.5" y1="1">
			<stop offset="0.148" stop-color="#ffffff" stop-opacity="0"/>
			<stop offset="1" stop-color="#e1101a" stop-opacity="0.9"/>
		</linearGradient>
		<linearGradient id="gr_1216" x1="0.503" x2="0.503" y1="0.803" y2="0.051">
			<stop offset="0.21" stop-color="#ffffff" stop-opacity="0"/>
			<stop offset="1" stop-color="#000000" stop-opacity="0.9"/>
		</linearGradient>
		<linearGradient id="gr_1138" x1="0.5" x2="0.5" y1="1">
			<stop offset="0.205" stop-color="#ffffff" stop-opacity="0"/>
			<stop offset="1" stop-color="#33cc33" stop-opacity="0.9"/>
		</linearGradient>
		<linearGradient id="gr_1341" x1="0.56" x2="0.56" y1="0.142" y2="0.958">
			<stop offset="0" stop-color="#ccff00"/>
			<stop offset="1" stop-color="#009900"/>
		</linearGradient>
		<linearGradient id="gr_1043" x1="0.5" x2="0.5" y1="0.777">
			<stop id="stop3162" offset="0.148" stop-color="#ffffff" stop-opacity="0"/>
			<stop id="stop3164" offset="1" stop-color="#000000" stop-opacity="0.9"/>
		</linearGradient>
		<linearGradient id="gr_1046" x1="0.5" x2="0.5" y1="1">
			<stop id="stop3167" offset="0.21" stop-color="#ffffff" stop-opacity="0"/>
			<stop id="stop3169" offset="1" stop-color="#000000" stop-opacity="0.9"/>
		</linearGradient>
		<linearGradient id="gr_14" x1="0.5" x2="0.5" y1="1">
			<stop id="stop3157" offset="0.148" stop-color="#ffffff" stop-opacity="0"/>
			<stop id="stop3159" offset="1" stop-color="#e1101a" stop-opacity="0.9"/>
		</linearGradient>
		<linearGradient id="gr_1217" x1="0.503" x2="0.503" y1="0.803" y2="0.051">
			<stop id="stop3023" offset="0.21" stop-color="#ffffff" stop-opacity="0"/>
			<stop id="stop3025" offset="1" stop-color="#000000" stop-opacity="0.9"/>
		</linearGradient>
		<linearGradient id="gr_1218" x1="0.503" x2="0.503" y1="0.803" y2="0.051">
			<stop id="stop3023_1" offset="0.21" stop-color="#ffffff" stop-opacity="0"/>
			<stop id="stop3025_1" offset="1" stop-color="#000000" stop-opacity="0.9"/>
		</linearGradient>
		<linearGradient id="gr_1219" x1="0.503" x2="0.503" y1="0.803" y2="0.051">
			<stop offset="0.21" stop-color="#ffffff" stop-opacity="0"/>
			<stop offset="1" stop-color="#000000" stop-opacity="0.9"/>
		</linearGradient>
		<linearGradient id="gr_1229" x1="0.433" x2="0.433" y1="0.383" y2="1.031">
			<stop offset="0.016" stop-color="#ffffff"/>
			<stop offset="0.197" stop-color="#cdcdcd"/>
			<stop offset="0.607" stop-color="#ffffff"/>
			<stop offset="1" stop-color="#b3b3b3"/>
		</linearGradient>
		<linearGradient id="gr_1232" y1="0.5" y2="0.5">
			<stop offset="0.02" stop-color="#8a800d"/>
			<stop offset="0.14" stop-color="#d8b9a5"/>
			<stop offset="0.34" stop-color="#ffffff"/>
			<stop offset="0.63" stop-color="#9f940f"/>
			<stop offset="0.78" stop-color="#f7f6eb"/>
			<stop offset="0.85" stop-color="#847a0c"/>
			<stop offset="1" stop-color="#edddd3"/>
		</linearGradient>
		<linearGradient id="gr_1233" x1="0.523" x2="0.523" y1="-0.003" y2="0.953">
			<stop offset="0.21" stop-color="#ffffff" stop-opacity="0"/>
			<stop offset="1" stop-color="#cdcdcd" stop-opacity="0.9"/>
		</linearGradient>
		<linearGradient id="gr_1342" x1="-0.064" x2="0.967" y1="0.917" y2="0.064">
			<stop offset="0.406" stop-color="#f3de36"/>
			<stop offset="0.516" stop-color="#f0f787"/>
			<stop offset="0.767" stop-color="#fac01a"/>
		</linearGradient>
		<linearGradient id="gr_1343" y1="0.5" y2="0.5">
			<stop offset="0.02" stop-color="#8a800d"/>
			<stop offset="0.14" stop-color="#d8b9a5"/>
			<stop offset="0.34" stop-color="#ffffff"/>
			<stop offset="0.63" stop-color="#9f940f"/>
			<stop offset="0.78" stop-color="#f7f6eb"/>
			<stop offset="0.85" stop-color="#847a0c"/>
			<stop offset="1" stop-color="#edddd3"/>
		</linearGradient>
		<linearGradient id="gr_1344" x1="-0.064" x2="0.967" y1="0.917" y2="0.064">
			<stop offset="0.406" stop-color="#f3de36"/>
			<stop offset="0.516" stop-color="#f0f787"/>
			<stop offset="0.767" stop-color="#fac01a"/>
		</linearGradient>
		<linearGradient id="gr_1230" x1="0.433" x2="0.433" y1="0.383" y2="1.031">
			<stop id="stop30" offset="0.016" stop-color="#ffffff"/>
			<stop id="stop32" offset="0.197" stop-color="#cdcdcd"/>
			<stop id="stop34" offset="0.607" stop-color="#ffffff"/>
			<stop id="stop37" offset="1" stop-color="#b3b3b3"/>
		</linearGradient>
		<linearGradient id="gr_1235" y1="0.5" y2="0.5">
			<stop id="stop62" offset="0.02" stop-color="#8a800d"/>
			<stop id="stop64" offset="0.14" stop-color="#d8b9a5"/>
			<stop id="stop66" offset="0.34" stop-color="#ffffff"/>
			<stop id="stop68" offset="0.63" stop-color="#9f940f"/>
			<stop id="stop70" offset="0.78" stop-color="#f7f6eb"/>
			<stop id="stop72" offset="0.85" stop-color="#847a0c"/>
			<stop id="stop74" offset="1" stop-color="#edddd3"/>
		</linearGradient>
		<linearGradient id="gr_1236" x1="0.523" x2="0.523" y1="-0.003" y2="0.953">
			<stop id="stop77" offset="0.21" stop-color="#ffffff" stop-opacity="0"/>
			<stop id="stop79" offset="1" stop-color="#cdcdcd" stop-opacity="0.9"/>
		</linearGradient>
		<linearGradient id="gr_1234" x1="-0.064" x2="0.967" y1="0.917" y2="0.064">
			<stop offset="0.406" stop-color="#f3de36"/>
			<stop offset="0.516" stop-color="#f0f787"/>
			<stop offset="0.767" stop-color="#fac01a"/>
		</linearGradient>
		<linearGradient id="gr_1231" x1="0.433" x2="0.433" y1="0.383" y2="1.031">
			<stop id="stop30_1" offset="0.016" stop-color="#ffffff"/>
			<stop id="stop32_1" offset="0.197" stop-color="#cdcdcd"/>
			<stop id="stop34_1" offset="0.607" stop-color="#ffffff"/>
			<stop id="stop37_1" offset="1" stop-color="#b3b3b3"/>
		</linearGradient>
		<linearGradient id="gr_1237" x1="0.523" x2="0.523" y1="-0.003" y2="0.953">
			<stop id="stop77_1" offset="0.21" stop-color="#ffffff" stop-opacity="0"/>
			<stop id="stop79_1" offset="1" stop-color="#ededed" stop-opacity="0.9"/>
		</linearGradient>
		<linearGradient id="gr_1238" y1="0.5" y2="0.5">
			<stop offset="0.02" stop-color="#8a800d"/>
			<stop offset="0.14" stop-color="#d8b9a5"/>
			<stop offset="0.34" stop-color="#ffffff"/>
			<stop offset="0.63" stop-color="#9f940f"/>
			<stop offset="0.78" stop-color="#f7f6eb"/>
			<stop offset="0.85" stop-color="#847a0c"/>
			<stop offset="1" stop-color="#edddd3"/>
		</linearGradient>
		<linearGradient id="gr_1239" x1="-0.064" x2="0.967" y1="0.917" y2="0.064">
			<stop offset="0.406" stop-color="#f3de36"/>
			<stop offset="0.516" stop-color="#f0f787"/>
			<stop offset="0.767" stop-color="#fac01a"/>
		</linearGradient>
	</defs>
	<g display="inherit" id="GuardianEdEffetti" transform="matrix(0.243,0,0,0.243,24.276,153.044)">
		<g display="inherit" fill="url(#gr_1046)" id="RiflessoGuardian" transform="matrix(4.21,0,0,4.21,-115.297,-656.11)">
			<path d="M45.3,180.8 C46.2,180.8 47,180.9 47.7,181.2 C48.4,181.5 49,181.9 49.5,182.4 C50.6,183.5 51.1,184.9 51.1,186.6 L51.1,210.1 L34.4,210.1 C32.6,210.1 31.2,209.6 30.1,208.5 C29,207.4 28.5,206 28.5,204.3 L28.5,197 C28.5,192.9 29,190.2 30.1,189.1 C31.2,188 33.7,187.5 37.9,187.5 L45.3,187.5 L45.3,186.6 L28.6,180.8 L28.6,180.8 L45.3,180.8 Z M34.4,193.4 L34.4,204.3 L45.3,204.3 L45.3,193.4 L34.4,193.4 Z" display="inherit" fill="url(#gr_14)" id="_g"/>
			<path d="M54.4,210 L54.4,198.7 L54.3,197.2 L54.3,195.7 C54.3,193.1 54.6,191.2 55.1,189.9 C55.9,188.1 57.5,187.3 59.8,187.3 L61.8,187.3 L63.8,187.3 L71.2,187.3 C73,187.3 74.4,187.8 75.4,188.9 C76.5,190 77,191.4 77,193.1 L77,209.9 L71.2,209.9 L71.2,193.1 L60.3,193.1 L60.3,209.9 L54.4,210 L54.4,210 Z" display="inherit" id="_u"/>
			<path d="M81.6,189.3 C82.6,188.1 84,187.5 86,187.5 L102.7,187.5 L102.7,198.7 L102.7,200 L102.8,201.4 C102.8,204.1 102.5,206.1 101.9,207.3 C101,209.1 99.3,210 96.8,210 L80,210 L80,204.2 L96.8,204.2 L96.8,201.5 L85.9,201.5 C83.6,201.5 82,200.8 81.1,199.3 C80.4,198.1 80,196.4 80,194 C80.2,192.1 80.6,190.5 81.6,189.3 Z M86,193.4 L86,195.8 L96.9,195.8 L96.9,193.4 L86,193.4 Z" display="inherit" id="_a1"/>
			<path d="M128.5,199 L128.5,202.6 C128.5,204.9 128.1,206.7 127.4,207.9 C126.5,209.4 124.9,210.1 122.7,210.1 L106,210.1 L106,187.5 L111.8,187.5 L111.8,204.2 L122.7,204.2 L122.7,198.9 L128.5,199 L128.5,199 Z" display="inherit" id="_r"/>
			<path d="M131.5,190.6 C132.3,188.6 134,187.6 136.7,187.6 L153.4,187.6 L153.4,216.4 L147.6,216.4 L147.6,210.1 L136.7,210.1 C134.9,210.1 133.5,209.6 132.4,208.5 C131.3,207.4 130.8,206 130.8,204.3 L130.8,197 C130.8,193.9 131.1,191.7 131.5,190.6 Z M147.6,204.2 L147.6,193.3 L136.7,193.3 L136.7,204.2 L147.6,204.2 Z" display="inherit" fill="url(#gr_1043)" id="_d"/>
			<path d="M162.5,215.8 L156.7,215.8 L156.7,210 L162.5,210 L162.5,215.8 Z M156.7,209.3 L156.7,187.5 L162.5,187.5 L162.5,209.3 L156.7,209.3 Z" display="inherit" fill="url(#gr_1043)" id="_i"/>
			<path d="M167,189.3 C168,188.1 169.4,187.5 171.4,187.5 L188.1,187.5 L188.1,198.7 L188.1,200 L188.2,201.4 C188.2,204.1 187.9,206.1 187.3,207.3 C186.4,209.1 184.7,210 182.2,210 L165.4,210 L165.4,204.2 L182.2,204.2 L182.2,201.5 L171.3,201.5 C169,201.5 167.4,200.8 166.5,199.3 C165.8,198.1 165.4,196.4 165.4,194 C165.6,192.1 166.1,190.5 167,189.3 Z M171.4,193.4 L171.4,195.8 L182.3,195.8 L182.3,193.4 L171.4,193.4 Z" display="inherit" id="_a"/>
			<path d="M213.9,200.2 L214,201.7 C214,205 213.5,207.3 212.5,208.5 C211.6,209.5 210.3,210 208.5,210 L206.5,210.1 L204.6,210.1 L197.2,210.1 C195.4,210.1 194,209.6 192.9,208.5 C191.8,207.4 191.3,206 191.3,204.2 L191.3,187.5 L197.1,187.5 L197.1,204.3 L208,204.3 L208,187.5 L213.8,187.5 L213.8,198.7 L213.8,200.2 L213.9,200.2 Z" display="inherit" id="_n"/>
		</g>
		<g display="inherit" id="guardian">
			<path d="M707.06,29.193 C710.991,28.423 715.01,28.703 719,28.673 C733.67,28.713 748.34,28.563 763.01,28.763 C768.43,28.713 774.08,30.203 778.24,33.813 C780.71,36.013 781.929,39.153 783.2,42.133 C786.8,54.883 785.67,68.263 784.82,81.293 C784.83,95.493 784.83,109.683 784.83,123.883 C776.72,123.863 768.62,123.893 760.51,123.863 C760.46,100.293 760.55,76.713 760.47,53.133 C745.2,53.133 729.93,53.123 714.67,53.143 C714.6,76.723 714.66,100.303 714.64,123.883 C706.531,123.873 698.42,123.873 690.31,123.883 C690.3,101.373 690.31,78.863 690.3,56.363 C690.31,51.923 690.481,47.453 691.72,43.163 C694.4,36.483 700.1,31.164 707.06,29.193 L707.06,29.193 Z" display="inherit" id="n-7"/>
			<path d="M314.14,40.293 C310.94,33.513 303.41,29.413 296.04,29.563 C271.46,29.573 246.88,29.553 222.3,29.573 C222.28,37.423 222.3,45.273 222.28,53.123 C228.19,53.353 234.09,53.113 240,53.203 C246.94,53.243 253.89,52.963 260.82,53.383 C271.63,53.213 282.5,52.783 293.3,53.653 C293.22,57.253 293.41,60.873 293.14,64.483 C275.38,65.023 257.58,64.073 239.82,65.033 C236.02,66.223 232.01,67.553 229.3,70.643 C226.6,73.323 225.22,76.933 224.05,80.473 C223.62,82.383 223.36,84.353 222.77,86.243 C222.45,94.783 221.21,104.093 225.68,111.853 C229.63,119.213 237.67,123.913 246.02,123.833 C269.91,123.933 293.8,123.863 317.69,123.873 C317.78,103.013 317.65,82.153 317.78,61.293 C317.9,54.173 317.22,46.803 314.14,40.293 Z M292.54,99.583 C277.22,99.523 261.9,99.513 246.57,99.583 C246.61,96.253 246.59,92.933 246.62,89.603 C261.93,89.533 277.24,89.593 292.54,89.573 C292.52,92.914 292.52,96.244 292.54,99.583 Z" display="inherit" id="a2" transform="matrix(1,0,0,1,359,0)"/>
			<g display="inherit" id="i-4">
				<path d="M544.31,4.233 C552.411,4.353 560.52,3.993 568.611,4.463 C568.581,12.553 568.631,20.643 568.59,28.733 C560.47,28.713 552.35,28.743 544.24,28.713 C544.33,20.553 544.22,12.394 544.31,4.233 L544.31,4.233 Z" display="inherit" id="i2"/>
				<path d="M544.27,123.883 C544.3,93.273 544.231,62.673 544.31,32.073 C552.39,32.133 560.481,32.093 568.571,32.093 C568.64,62.683 568.611,93.273 568.581,123.864 C560.48,123.894 552.38,123.874 544.27,123.883 L544.27,123.883 Z" display="inherit" id="i1"/>
			</g>
			<path d="M530.13,108.333 C530.17,95.333 530.14,82.333 530.14,69.333 C529.951,47.133 530.5,24.913 529.901,2.723 C521.831,2.773 513.77,2.633 505.711,2.803 C505.641,11.733 505.931,20.673 505.551,29.593 C489.362,29.533 473.171,29.583 456.991,29.563 C445.89,29.453 435.571,39.203 435.47,50.383 C435.441,64.023 435.45,77.673 435.46,91.313 C435.58,94.293 435.33,97.343 436.12,100.253 C436.66,106.253 437.56,112.873 441.99,117.363 C445.01,120.933 449.58,122.483 454.01,123.443 C457.66,123.993 461.37,123.853 465.06,123.883 C486.67,123.873 508.281,123.873 529.89,123.883 C530.37,118.713 530.08,113.514 530.13,108.333 Z M460.1,99.553 C460.22,84.083 459.871,68.603 460.281,53.143 C465.191,53.213 470.091,53.103 475.001,53.253 C485.211,52.873 495.421,53.673 505.621,53.113 C505.871,68.592 505.641,84.083 505.741,99.573 C490.53,99.514 475.31,99.553 460.1,99.553 Z" display="inherit" id="d-0"/>
			<path d="M331.19,29.563 C355.78,29.583 380.36,29.533 404.95,29.583 C413.17,29.503 420.63,35.403 423.12,43.123 C426.61,53.663 425.22,64.933 425.51,75.833 C417.38,75.833 409.26,75.833 401.13,75.843 C400.87,68.273 401.61,60.643 400.69,53.114 C387.12,53.064 373.55,53.584 360,53.144 C358.23,53.134 356.5,53.444 354.76,53.714 C354.85,77.104 354.78,100.494 354.8,123.884 C346.93,123.874 339.06,123.874 331.19,123.884 C331.19,92.443 331.2,61.003 331.19,29.563 L331.19,29.563 Z" display="inherit" id="r-9"/>
			<path d="M314.14,40.293 C310.94,33.513 303.41,29.413 296.04,29.563 C271.46,29.573 246.88,29.553 222.3,29.573 C222.28,37.423 222.3,45.273 222.28,53.123 C228.19,53.353 234.09,53.113 240,53.203 C246.94,53.243 253.89,52.963 260.82,53.383 C271.63,53.213 282.5,52.783 293.3,53.653 C293.22,57.253 293.41,60.873 293.14,64.483 C275.38,65.023 257.58,64.073 239.82,65.033 C236.02,66.223 232.01,67.553 229.3,70.643 C226.6,73.323 225.22,76.933 224.05,80.473 C223.62,82.383 223.36,84.353 222.77,86.243 C222.45,94.783 221.21,104.093 225.68,111.853 C229.63,119.213 237.67,123.913 246.02,123.833 C269.91,123.933 293.8,123.863 317.69,123.873 C317.78,103.013 317.65,82.153 317.78,61.293 C317.9,54.173 317.22,46.803 314.14,40.293 Z M292.54,99.583 C277.22,99.523 261.9,99.513 246.57,99.583 C246.61,96.253 246.59,92.933 246.62,89.603 C261.93,89.533 277.24,89.593 292.54,89.573 C292.52,92.914 292.52,96.244 292.54,99.583 Z" display="inherit" id="a1-4"/>
			<path d="M113.79,28.773 C122,28.703 130.21,28.743 138.42,28.763 C138.4,52.533 138.42,76.303 138.41,100.083 C153.71,100.043 169.02,100.143 184.33,100.033 C184.36,76.543 184.33,53.053 184.34,29.573 C192.46,29.563 200.57,29.563 208.68,29.563 C208.67,48.153 208.68,66.733 208.68,85.313 C208.64,92.333 208.89,99.373 208.18,106.373 C207.83,107.413 207.52,108.473 207.26,109.543 C204.62,116.593 198.24,121.743 191.07,123.703 C172.08,124.303 153.06,123.793 134.05,123.963 C126.02,124.293 118.73,118.903 115.71,111.613 C112.19,99.173 113.21,86.063 113.79,73.313 C113.79,58.474 113.79,43.624 113.79,28.773 L113.79,28.773 Z" display="inherit" id="u-8"/>
			<path d="M6.219,152.162 C9.282,152.225 8.63,152.214 9.9,152.224 C32.61,152.264 55.32,152.114 78.02,152.244 C86.6,151.984 93.37,146.004 98.35,139.554 C98.92,135.154 99.84,130.774 99.61,126.304 C99.57,94.075 99.6,61.834 99.6,29.604 C75.42,29.514 51.23,29.594 27.05,29.554 C21.28,29.484 15.69,32.044 11.46,35.865 C6.8,39.935 4.81,46.315 4.63,52.344 C4.63,64.664 4.66,76.974 4.62,89.294 C4.6,91.274 4.77,93.254 5.11,95.214 C5.43,101.904 6.15,108.824 9.34,114.824 C11.5,118.814 15.94,120.774 20.13,121.904 C25.09,123.114 30.19,123.894 35.31,123.944 C48.76,124.024 62.2,123.964 75.65,123.864 C75.64,125.434 75.64,127.024 75.65,128.614 C72.69,129.414 69.69,130.064 66.81,131.104 C49.89,136.924 32.98,142.804 16.16,148.894 M29.42,99.614 C29.42,84.224 29.43,68.824 29.42,53.434 C44.73,52.834 60.07,53.354 75.4,53.174 C75.46,68.664 75.37,84.154 75.45,99.644 C60.11,99.543 44.76,99.604 29.42,99.614 Z" display="inherit" fill="#e2101b" id="g-8"/>
		</g>
		<g display="inherit" id="guardian_effects">
			<path d="M508.28,6.204 C509.92,3.424 513.36,4.414 516.03,4.224 C519.599,4.354 523.25,3.894 526.78,4.684 C527.3,6.004 526.4,7.804 524.849,7.564 C520.079,7.754 515.309,7.544 510.549,7.634 C509.98,7.273 508.85,6.563 508.28,6.204 L508.28,6.204 Z" display="inherit" fill="#bfbfbf" id="path3208"/>
			<path d="M500.06,31.244 C503.54,31.374 506.79,29.934 509.97,28.704 C509.67,30.224 509.79,31.904 508.941,33.274 C507.38,33.954 505.64,33.754 504.001,33.834 C488.661,33.814 473.311,33.744 457.971,33.854 C450.492,34.724 442.862,39.894 440.881,47.404 L440.771,48.394 C440.681,48.814 440.501,49.654 440.412,50.064 C438.641,47.354 440.112,44.114 441.052,41.374 C444.382,35.264 451.052,31.254 458.032,31.204 C472.04,31.244 486.05,31.204 500.06,31.244 L500.06,31.244 Z" display="inherit" fill="#bfbfbf" id="path3210"/>
			<path d="M115.74,31.133 C122.07,29.703 128.68,30.813 135.14,30.473 C135.12,31.093 135.08,32.323 135.07,32.943 C129.41,32.833 123.73,33.133 118.08,32.833 C117.5,32.403 116.32,31.553 115.74,31.133 L115.74,31.133 Z" display="inherit" fill="#bfbfbf" id="path3212"/>
			<path d="M694.96,49.394 C693.31,39.584 702.51,30.694 712,30.474 C728.32,30.444 744.65,30.504 760.97,30.454 C767.2,30.574 774.35,31.784 777.93,37.514 C779.81,41.704 780.731,46.334 780.56,50.924 C782.111,52.994 781.51,55.684 781.581,58.084 C779.291,55.614 780.801,51.854 779.971,48.854 C779.261,42.084 774.661,36.064 768.121,33.984 C764.391,33.774 760.731,32.794 756.981,32.914 C742.64,32.984 728.291,32.904 713.951,32.954 C704.85,33.374 696.71,40.443 694.96,49.394 L694.96,49.394 Z" display="inherit" fill="#bfbfbf" id="path3214"/>
			<path d="M14.65,36.034 C18.48,33.194 23.2,31.314 27.99,31.204 C50.78,31.264 73.57,31.214 96.35,31.234 C96.36,31.874 96.37,33.154 96.37,33.794 C74.24,33.804 52.12,33.814 29.99,33.784 C20,33.754 10.58,41.304 8.86,51.254 C8.52,45.673 10.19,39.673 14.65,36.034 L14.65,36.034 Z" display="inherit" fill="#f8c3c6" id="path3216"/>
			<path d="M186.93,31.273 C193.33,31.193 199.72,31.183 206.12,31.273 C205.85,31.833 205.31,32.933 205.04,33.483 C199.44,34.113 193.69,33.883 188.06,33.613 C187.78,33.023 187.21,31.854 186.93,31.273 L186.93,31.273 Z" display="inherit" fill="#bdbdbd" id="path3218"/>
			<path d="M224.97,31.244 C248.31,31.184 271.64,31.264 294.98,31.204 C298.1,30.994 300.98,32.314 303.91,33.174 C307.41,35.324 310.76,38.224 311.7,42.414 C312.67,46.904 313.88,51.484 313.62,56.114 C311.4,54.944 312.6,52.184 312.55,50.264 C311.44,43.684 307.04,37.324 300.53,35.134 C296.24,33.264 291.52,33.874 286.99,33.804 C266.61,33.794 246.23,33.825 225.85,33.784 C225.63,33.153 225.19,31.883 224.97,31.244 L224.97,31.244 Z" display="inherit" fill="#bfbfbf" id="path3220"/>
			<path d="M333.32,31.284 C356.21,31.134 379.11,31.294 402,31.194 C407.01,31.184 412.47,32.444 415.94,36.324 C418.469,38.634 419.29,42.074 420.379,45.184 C420.379,46.404 420.389,47.634 420.409,48.874 C422.489,50.954 421.489,53.834 420.808,56.284 C421.119,53.774 420.319,51.474 419.388,49.214 C419.038,40.774 411.138,34.314 403.029,33.834 C380.319,33.694 357.589,33.954 334.879,33.714 C334.49,33.104 333.71,31.894 333.32,31.284 L333.32,31.284 Z" display="inherit" fill="#bfbfbf" id="path3222"/>
			<path d="M584.22,31.273 C607.5,31.153 630.79,31.263 654.08,31.213 C660.37,31.393 667.36,34.263 669.97,40.403 C672.56,46.713 672.02,53.693 672.651,60.363 C671.991,54.403 671.97,48.083 668.76,42.793 C665.81,37.483 659.91,34.423 654.01,33.843 C631.25,33.693 608.49,33.943 585.74,33.723 C585.36,33.114 584.6,31.883 584.22,31.273 L584.22,31.273 Z" display="inherit" fill="#bfbfbf" id="path3224"/>
			<path d="M547.28,33.843 C553.25,33.893 559.24,33.553 565.2,33.973 C567.12,35.333 564.41,37.053 562.929,36.913 C557.9,36.713 552.69,37.573 547.789,36.393 C547.66,35.753 547.41,34.483 547.28,33.843 L547.28,33.843 Z" display="inherit" fill="#bfbfbf" id="path3226"/>
			<path d="M289.26,66.574 C291.97,65.694 294.72,64.904 297.33,63.734 C297.26,64.974 297.21,66.234 297.16,67.484 C295.57,68.344 293.93,69.314 292.05,69.134 C276.68,69.124 261.31,69.104 245.94,69.124 C238.32,69.154 231.16,74.004 228.73,81.304 C227.98,83.974 227.36,86.674 226.92,89.414 C226.81,86.234 227.38,83.094 227.81,79.954 C228.43,78.204 228.97,76.414 229.51,74.634 C232.05,69.674 237.65,67.184 242.97,66.664 C258.4,66.574 273.83,66.784 289.26,66.574 L289.26,66.574 Z" display="inherit" fill="#bfbfbf" id="path3228"/>
			<path d="M646.04,66.654 C649.69,66.564 653.2,65.343 656.45,63.744 C656.41,64.724 656.33,66.694 656.29,67.684 C653.19,69.684 649.41,69.054 645.93,69.124 C632.96,69.094 619.981,69.144 607,69.094 C600.97,69.064 594.47,71.204 590.89,76.324 C587.981,80.114 587.17,84.924 586.401,89.514 C586.13,84.364 587.321,79.344 588.981,74.514 C591.52,69.774 596.85,67.454 601.941,66.694 C616.64,66.574 631.34,66.704 646.04,66.654 L646.04,66.654 Z" display="inherit" fill="#bfbfbf" id="path3230"/>
			<path d="M25.26,98.824 C27.69,99.954 30.19,101.294 32.96,101.124 C45.97,101.094 58.99,101.104 72,101.114 C74.7,101.274 77.17,100.074 79.63,99.154 C79.3,100.614 79.94,102.604 78.49,103.604 C76.1,104.484 73.5,104.544 70.98,104.564 C59,104.514 47.02,104.524 35.03,104.554 C32.26,104.534 29.41,104.404 26.77,103.474 C24.93,102.684 25.65,100.383 25.26,98.824 L25.26,98.824 Z" display="inherit" fill="#f8c3c6" id="path3232"/>
			<path d="M455.85,98.793 C458.161,99.763 460.401,101.333 463.031,101.113 C476.041,101.083 489.051,101.083 502.061,101.113 C504.8,101.273 507.321,100.033 509.871,99.223 C509.741,100.313 509.461,102.513 509.331,103.603 C495.601,104.803 481.781,103.813 468.011,104.213 C464.241,104.203 460.482,104.023 456.732,103.593 C456.44,101.994 456.16,100.383 455.85,98.793 L455.85,98.793 Z" display="inherit" fill="#bfbfbf" id="path3234"/>
			<path d="M602.26,98.833 C604.441,99.673 606.51,101.133 608.941,101.093 C622.31,101.103 635.691,101.073 649.071,101.103 C651.791,101.223 654.211,99.773 656.701,98.903 C656.331,100.523 655.941,102.143 655.461,103.743 C641.651,104.643 627.811,103.893 613.991,104.213 C610.491,104.183 607.011,103.963 603.541,103.743 C602.99,102.133 602.58,100.494 602.26,98.833 L602.26,98.833 Z" display="inherit" fill="#bfbfbf" id="path3236"/>
			<path d="M134.1,99.664 C137.37,100.554 140.55,102.204 144.03,101.974 C155.69,101.924 167.34,101.954 178.99,101.964 C182.36,102.044 185.45,100.524 188.57,99.454 C188.28,100.864 188.46,102.484 187.55,103.704 C186.15,104.544 184.5,104.554 182.93,104.554 C168.62,104.524 154.3,104.514 139.99,104.554 C138.19,104.624 136.45,104.204 134.73,103.774 C134.52,102.394 134.31,101.023 134.1,99.664 L134.1,99.664 Z" display="inherit" fill="#bfbfbf" id="path3238"/>
			<path d="M242.34,98.914 C244.82,99.844 247.27,101.254 250,101.104 C263.34,101.074 276.68,101.104 290.02,101.094 C292.44,101.115 294.57,99.774 296.78,98.984 C296.42,100.574 296.93,102.684 295.25,103.664 C289.89,104.554 284.41,104.004 279,104.184 C276,104.154 273,104.154 270.01,104.184 C261.69,103.974 253.35,104.534 245.05,103.824 C242.5,103.894 242.61,100.684 242.34,98.914 L242.34,98.914 Z" display="inherit" fill="#bfbfbf" id="path3240"/>
			<path d="M77.63,129.003 C78.17,128.863 79.24,128.603 79.77,128.463 C79.69,129.653 79.61,130.843 79.53,132.043 C77.98,132.803 76.42,133.593 74.75,134.073 C63.24,137.063 52.26,141.693 41.01,145.483 C34.44,147.923 27.39,148.853 20.42,149.173 C31.08,145.953 41.47,141.923 52.02,138.363 C60.29,134.514 69.67,133.474 77.63,129.003 L77.63,129.003 Z" display="inherit" fill="#f8c3c6" id="path3242"/>
			<path d="M547.58,8.593 C547.559,7.713 547.54,6.853 547.53,5.983 C553.509,5.993 559.5,6.023 565.48,5.973 C565.48,6.843 565.49,7.713 565.49,8.593 C559.52,8.563 553.55,8.574 547.58,8.593 L547.58,8.593 Z" display="inherit" fill="#bfbfbf" id="path3244"/>
		</g>
	</g>
	<g display="inherit" id="Version400" transform="matrix(1,0,0,1,-4.5,0.5)">
		<g display="inherit" fill="#000000" font-family="Sans" font-size="14" font-style="normal" font-weight="400" id="v400" stroke="none" text-anchor="start">
			<path d="M138.944,223.019 L135,223.019 L135.342,221.378 L140.763,215.041 L142.458,215.041 L141.139,221.351 L142.355,221.351 L142.007,223.019 L140.79,223.019 L140.359,225.062 L138.514,225.062 Z M139.293,221.351 L139.942,218.227 L137.297,221.351 Z" display="inherit" font-style="oblique" font-weight="700" id="path3579"/>
			<path d="M143.422,223.169 L145.363,223.169 L144.967,225.063 L143.025,225.063 Z" display="inherit" font-style="oblique" font-weight="700" id="path3581"/>
			<path d="M147.195,221.802 C147.195,220.795 147.366,219.774 147.708,218.739 C148.127,217.477 148.665,216.538 149.321,215.923 C149.978,215.308 150.707,215 151.509,215 C152.32,215 152.986,215.294 153.508,215.882 C154.03,216.47 154.291,217.324 154.291,218.445 C154.291,219.471 154.101,220.554 153.72,221.696 C153.34,222.837 152.826,223.712 152.179,224.321 C151.532,224.929 150.802,225.233 149.991,225.233 C149.18,225.233 148.511,224.939 147.985,224.352 C147.458,223.764 147.195,222.914 147.195,221.802 Z M149.123,222.198 C149.123,222.736 149.21,223.114 149.383,223.333 C149.556,223.552 149.779,223.661 150.053,223.661 C150.417,223.661 150.741,223.493 151.023,223.155 C151.402,222.704 151.737,221.815 152.028,220.489 C152.261,219.437 152.377,218.603 152.377,217.987 C152.377,217.486 152.289,217.125 152.114,216.904 C151.938,216.683 151.714,216.572 151.44,216.572 C151.094,216.572 150.786,216.739 150.518,217.071 C150.121,217.554 149.779,218.404 149.492,219.621 C149.246,220.674 149.123,221.533 149.123,222.198 Z" display="inherit" font-style="oblique" font-weight="700" id="path3583"/>
		<path d="M155.471,219.288 L155.841,217.538 C157.531,216.799 158.839,215.94 159.764,214.961 L160.961,214.961 L158.848,225.044 L156.873,225.044 L158.329,218.098 C157.919,218.363 157.446,218.604 156.91,218.823 C156.375,219.042 155.895,219.197 155.471,219.288 Z" font-size="14" font-style="oblique" id="path3008"/>
		</g>
		<g display="inherit" fill="#000000" font-family="Sans" font-size="37.255" font-style="normal" font-weight="400" id="Version" stroke="none" text-anchor="start" transform="matrix(0.931,0,0,1.074,0,0)">
			<path d="M101.089,209.561 L99.332,209.561 L97.897,201.56 L99.539,201.56 L100.555,207.612 L103.867,201.56 L105.499,201.56 Z" display="inherit" font-size="11.177" font-style="oblique" font-weight="700" id="path3562"/>
			<path d="M110.187,207.149 L106.257,207.149 C106.253,207.21 106.252,207.258 106.252,207.29 C106.252,207.676 106.362,207.987 106.583,208.224 C106.803,208.46 107.071,208.578 107.388,208.578 C107.908,208.578 108.313,208.309 108.605,207.771 L110.007,208.005 C109.734,208.569 109.369,208.992 108.913,209.274 C108.456,209.556 107.944,209.697 107.377,209.697 C106.598,209.697 105.965,209.451 105.477,208.958 C104.99,208.465 104.746,207.813 104.746,207.001 C104.746,206.208 104.966,205.502 105.407,204.884 C106.007,204.047 106.864,203.629 107.977,203.629 C108.686,203.629 109.25,203.848 109.669,204.286 C110.087,204.725 110.296,205.339 110.296,206.128 C110.296,206.506 110.26,206.847 110.187,207.149 Z M108.866,206.194 C108.87,206.124 108.871,206.072 108.871,206.035 C108.871,205.606 108.775,205.284 108.582,205.069 C108.389,204.855 108.131,204.747 107.807,204.747 C107.483,204.747 107.193,204.869 106.936,205.113 C106.68,205.357 106.506,205.717 106.415,206.194 Z" display="inherit" font-size="11.177" font-style="oblique" font-weight="700" id="path3564"/>
			<path d="M111.889,203.765 L113.352,203.765 L113.117,204.889 C113.663,204.049 114.254,203.629 114.891,203.629 C115.116,203.629 115.358,203.685 115.617,203.798 L115.016,205.08 C114.875,205.029 114.724,205.004 114.563,205.004 C114.294,205.004 114.02,205.106 113.742,205.309 C113.464,205.513 113.246,205.785 113.09,206.125 C112.934,206.466 112.779,207.005 112.626,207.743 L112.244,209.561 L110.678,209.561 Z" display="inherit" font-size="11.177" font-style="oblique" font-weight="700" id="path3566"/>
			<path d="M114.907,207.94 L116.424,207.7 C116.559,208.02 116.726,208.246 116.926,208.379 C117.127,208.512 117.399,208.578 117.745,208.578 C118.102,208.578 118.387,208.498 118.602,208.338 C118.751,208.229 118.826,208.096 118.826,207.94 C118.826,207.834 118.787,207.74 118.711,207.656 C118.631,207.576 118.414,207.478 118.062,207.361 C117.116,207.048 116.53,206.801 116.304,206.619 C115.951,206.335 115.775,205.964 115.775,205.506 C115.775,205.047 115.946,204.653 116.288,204.322 C116.765,203.86 117.472,203.629 118.411,203.629 C119.157,203.629 119.721,203.765 120.103,204.038 C120.485,204.311 120.727,204.68 120.828,205.146 L119.382,205.397 C119.306,205.186 119.182,205.027 119.011,204.922 C118.778,204.78 118.498,204.709 118.171,204.709 C117.843,204.709 117.608,204.764 117.464,204.873 C117.32,204.982 117.248,205.108 117.248,205.249 C117.248,205.395 117.321,205.515 117.467,205.61 C117.558,205.668 117.851,205.77 118.345,205.915 C119.109,206.137 119.621,206.355 119.879,206.57 C120.243,206.872 120.425,207.236 120.425,207.662 C120.425,208.211 120.194,208.688 119.732,209.091 C119.269,209.495 118.618,209.697 117.778,209.697 C116.941,209.697 116.294,209.543 115.838,209.236 C115.381,208.929 115.071,208.497 114.907,207.94 Z" display="inherit" font-size="11.177" font-style="oblique" font-weight="700" id="path3568"/>
			<path d="M123,201.56 L124.567,201.56 L124.272,202.979 L122.706,202.979 Z M122.542,203.765 L124.108,203.765 L122.897,209.561 L121.33,209.561 Z" display="inherit" font-size="11.177" font-style="oblique" font-weight="700" id="path3570"/>
			<path d="M124.659,207.154 C124.659,206.081 124.962,205.225 125.568,204.586 C126.174,203.948 126.97,203.629 127.956,203.629 C128.811,203.629 129.478,203.864 129.959,204.335 C130.439,204.806 130.679,205.44 130.679,206.237 C130.679,207.176 130.379,207.987 129.778,208.671 C129.178,209.355 128.374,209.697 127.366,209.697 C126.821,209.697 126.337,209.588 125.915,209.37 C125.493,209.151 125.178,208.842 124.971,208.442 C124.763,208.042 124.659,207.612 124.659,207.154 Z M129.124,206.035 C129.124,205.664 129.015,205.367 128.799,205.143 C128.582,204.919 128.303,204.807 127.961,204.807 C127.623,204.807 127.323,204.912 127.061,205.121 C126.799,205.33 126.595,205.634 126.449,206.033 C126.304,206.431 126.231,206.797 126.231,207.132 C126.231,207.547 126.344,207.876 126.57,208.12 C126.795,208.364 127.079,208.486 127.421,208.486 C127.85,208.486 128.21,208.302 128.501,207.934 C128.916,207.414 129.124,206.781 129.124,206.035 Z" display="inherit" font-size="11.177" font-style="oblique" font-weight="700" id="path3572"/>
			<path d="M132.496,203.765 L133.981,203.765 L133.828,204.518 C134.199,204.198 134.545,203.97 134.867,203.833 C135.189,203.697 135.529,203.629 135.885,203.629 C136.362,203.629 136.737,203.765 137.012,204.038 C137.287,204.311 137.424,204.673 137.424,205.124 C137.424,205.328 137.364,205.713 137.244,206.281 L136.562,209.561 L134.996,209.561 L135.683,206.27 C135.785,205.779 135.836,205.486 135.836,205.391 C135.836,205.191 135.777,205.034 135.659,204.919 C135.54,204.805 135.376,204.747 135.165,204.747 C134.936,204.747 134.681,204.844 134.401,205.037 C134.121,205.229 133.9,205.484 133.74,205.801 C133.624,206.026 133.493,206.486 133.348,207.181 L132.851,209.561 L131.285,209.561 Z" display="inherit" font-size="11.177" font-style="oblique" font-weight="700" id="path3574"/>
			<path d="M139.645,203.765 L141.19,203.765 L140.873,205.282 L139.329,205.282 Z M138.75,208.049 L140.3,208.049 L139.984,209.561 L138.434,209.561 Z" display="inherit" font-size="11.177" font-style="oblique" font-weight="700" id="path3576"/>
		</g>
	</g>
	<g display="inherit" id="www" transform="matrix(1,0,0,1,21,15)">
		<text display="inherit" fill="#000000" font-family="Arial Black" font-size="28" font-style="normal" font-weight="400" id="text2166" stroke="none" stroke-linecap="butt" stroke-linejoin="miter" stroke-width="1" x="11.615" xml:space="preserve" y="32.011"/>
		<path d="M7.79,8.383 L10.208,8.383 L11.257,12.489 L12.582,8.383 L14.835,8.383 L16.209,12.489 L17.259,8.383 L19.658,8.383 L17.259,14.9 L15.037,14.9 L13.718,10.979 L12.441,14.9 L10.208,14.9 L7.79,8.383 Z M19.646,8.383 L22.063,8.383 L23.113,12.489 L24.438,8.383 L26.69,8.383 L28.065,12.489 L29.114,8.383 L31.514,8.383 L29.114,14.9 L26.893,14.9 L25.573,10.979 L24.297,14.9 L22.063,14.9 L19.646,8.383 Z M31.501,8.383 L33.919,8.383 L34.968,12.489 L36.294,8.383 L38.546,8.383 L39.921,12.489 L40.97,8.383 L43.369,8.383 L40.97,14.9 L38.749,14.9 L37.429,10.979 L36.153,14.9 L33.919,14.9 L31.501,8.383 Z M44.1,12.397 L46.769,12.397 L46.769,14.9 L44.1,14.9 L44.1,12.397 Z M52.979,11.642 L52.979,9.77 L57.275,9.77 L57.275,13.606 C56.452,14.166 55.725,14.548 55.093,14.75 C54.461,14.953 53.711,15.054 52.844,15.054 C51.776,15.054 50.906,14.872 50.233,14.508 C49.56,14.144 49.038,13.602 48.668,12.882 C48.298,12.161 48.113,11.335 48.113,10.402 C48.113,9.421 48.315,8.567 48.72,7.84 C49.125,7.114 49.719,6.563 50.5,6.187 C51.109,5.896 51.93,5.751 52.961,5.751 C53.955,5.751 54.698,5.841 55.191,6.021 C55.684,6.201 56.093,6.48 56.419,6.859 C56.744,7.237 56.988,7.717 57.152,8.298 L54.47,8.776 C54.36,8.437 54.173,8.177 53.909,7.997 C53.645,7.817 53.308,7.727 52.899,7.727 C52.29,7.727 51.804,7.939 51.442,8.362 C51.08,8.785 50.899,9.455 50.899,10.372 C50.899,11.345 51.082,12.041 51.448,12.458 C51.814,12.875 52.325,13.084 52.979,13.084 C53.29,13.084 53.587,13.039 53.869,12.949 C54.151,12.859 54.474,12.706 54.838,12.489 L54.838,11.642 L52.979,11.642 Z M65.639,14.9 L63.307,14.9 L63.307,13.845 C62.959,14.279 62.608,14.587 62.254,14.772 C61.901,14.956 61.466,15.048 60.95,15.048 C60.263,15.048 59.724,14.842 59.333,14.431 C58.943,14.02 58.747,13.387 58.747,12.532 L58.747,8.383 L61.257,8.383 L61.257,11.967 C61.257,12.376 61.333,12.667 61.484,12.839 C61.636,13.01 61.848,13.096 62.122,13.096 C62.421,13.096 62.666,12.982 62.856,12.753 C63.046,12.524 63.141,12.112 63.141,11.519 L63.141,8.383 L65.639,8.383 L65.639,14.9 Z M69.443,10.494 L67.056,10.243 C67.146,9.826 67.276,9.497 67.446,9.258 C67.616,9.019 67.86,8.811 68.179,8.635 C68.408,8.508 68.723,8.41 69.124,8.34 C69.525,8.271 69.959,8.236 70.425,8.236 C71.174,8.236 71.775,8.278 72.229,8.362 C72.683,8.446 73.062,8.621 73.365,8.887 C73.577,9.071 73.745,9.332 73.868,9.669 C73.99,10.007 74.052,10.329 74.052,10.636 L74.052,13.514 C74.052,13.82 74.071,14.061 74.11,14.235 C74.149,14.408 74.234,14.63 74.365,14.9 L72.021,14.9 C71.927,14.733 71.865,14.605 71.837,14.517 C71.808,14.429 71.779,14.291 71.751,14.103 C71.423,14.418 71.098,14.643 70.775,14.778 C70.333,14.958 69.82,15.048 69.235,15.048 C68.457,15.048 67.867,14.868 67.464,14.508 C67.061,14.148 66.86,13.704 66.86,13.176 C66.86,12.681 67.005,12.274 67.296,11.955 C67.586,11.636 68.122,11.399 68.903,11.243 C69.84,11.055 70.448,10.923 70.726,10.847 C71.004,10.772 71.299,10.672 71.609,10.55 C71.609,10.243 71.546,10.028 71.419,9.905 C71.292,9.783 71.069,9.721 70.75,9.721 C70.341,9.721 70.034,9.787 69.83,9.918 C69.67,10.02 69.541,10.212 69.443,10.494 L69.443,10.494 Z M71.609,11.808 C71.266,11.93 70.908,12.039 70.536,12.133 C70.028,12.268 69.707,12.401 69.572,12.532 C69.433,12.667 69.364,12.82 69.364,12.992 C69.364,13.188 69.432,13.349 69.569,13.474 C69.706,13.598 69.908,13.661 70.174,13.661 C70.452,13.661 70.71,13.593 70.95,13.458 C71.189,13.323 71.359,13.159 71.459,12.964 C71.559,12.77 71.609,12.517 71.609,12.206 L71.609,11.808 Z M75.586,8.383 L77.924,8.383 L77.924,9.451 C78.149,8.989 78.381,8.671 78.62,8.497 C78.86,8.323 79.155,8.236 79.507,8.236 C79.875,8.236 80.278,8.351 80.716,8.58 L79.943,10.359 C79.648,10.237 79.415,10.175 79.243,10.175 C78.916,10.175 78.662,10.31 78.482,10.58 C78.225,10.961 78.096,11.673 78.096,12.716 L78.096,14.9 L75.586,14.9 L75.586,8.383 Z M87.994,5.904 L87.994,14.9 L85.656,14.9 L85.656,13.937 C85.329,14.346 85.03,14.622 84.76,14.765 C84.4,14.954 83.999,15.048 83.557,15.048 C82.67,15.048 81.991,14.71 81.523,14.035 C81.055,13.36 80.82,12.54 80.82,11.574 C80.82,10.494 81.079,9.668 81.597,9.095 C82.114,8.523 82.772,8.236 83.57,8.236 C83.958,8.236 84.311,8.302 84.628,8.433 C84.945,8.563 85.226,8.76 85.472,9.022 L85.472,5.904 L87.994,5.904 Z M85.49,11.624 C85.49,11.112 85.382,10.731 85.165,10.479 C84.948,10.227 84.674,10.102 84.343,10.102 C84.052,10.102 83.809,10.222 83.612,10.464 C83.416,10.705 83.318,11.11 83.318,11.679 C83.318,12.211 83.419,12.6 83.622,12.848 C83.824,13.095 84.075,13.219 84.373,13.219 C84.692,13.219 84.958,13.094 85.171,12.845 C85.384,12.595 85.49,12.188 85.49,11.624 L85.49,11.624 Z M89.62,5.904 L92.118,5.904 L92.118,7.604 L89.62,7.604 L89.62,5.904 Z M89.62,8.383 L92.118,8.383 L92.118,14.9 L89.62,14.9 L89.62,8.383 Z M96.002,10.494 L93.615,10.243 C93.705,9.826 93.835,9.497 94.005,9.258 C94.174,9.019 94.419,8.811 94.738,8.635 C94.967,8.508 95.282,8.41 95.683,8.34 C96.084,8.271 96.518,8.236 96.984,8.236 C97.733,8.236 98.334,8.278 98.788,8.362 C99.242,8.446 99.621,8.621 99.923,8.887 C100.136,9.071 100.304,9.332 100.426,9.669 C100.549,10.007 100.611,10.329 100.611,10.636 L100.611,13.514 C100.611,13.82 100.63,14.061 100.669,14.235 C100.708,14.408 100.793,14.63 100.924,14.9 L98.579,14.9 C98.485,14.733 98.424,14.605 98.395,14.517 C98.367,14.429 98.338,14.291 98.309,14.103 C97.982,14.418 97.657,14.643 97.334,14.778 C96.892,14.958 96.378,15.048 95.793,15.048 C95.016,15.048 94.426,14.868 94.023,14.508 C93.62,14.148 93.419,13.704 93.419,13.176 C93.419,12.681 93.564,12.274 93.854,11.955 C94.145,11.636 94.681,11.399 95.462,11.243 C96.399,11.055 97.006,10.923 97.285,10.847 C97.563,10.772 97.857,10.672 98.168,10.55 C98.168,10.243 98.105,10.028 97.978,9.905 C97.851,9.783 97.628,9.721 97.309,9.721 C96.9,9.721 96.593,9.787 96.389,9.918 C96.229,10.02 96.1,10.212 96.002,10.494 L96.002,10.494 Z M98.168,11.808 C97.825,11.93 97.467,12.039 97.094,12.133 C96.587,12.268 96.266,12.401 96.131,12.532 C95.992,12.667 95.922,12.82 95.922,12.992 C95.922,13.188 95.991,13.349 96.128,13.474 C96.265,13.598 96.466,13.661 96.732,13.661 C97.01,13.661 97.269,13.593 97.509,13.458 C97.748,13.323 97.918,13.159 98.018,12.964 C98.118,12.77 98.168,12.517 98.168,12.206 L98.168,11.808 Z M102.12,8.383 L104.446,8.383 L104.446,9.445 C104.794,9.011 105.145,8.702 105.501,8.515 C105.857,8.329 106.291,8.236 106.802,8.236 C107.494,8.236 108.035,8.442 108.425,8.853 C108.816,9.264 109.011,9.899 109.011,10.758 L109.011,14.9 L106.502,14.9 L106.502,11.317 C106.502,10.908 106.426,10.618 106.275,10.448 C106.123,10.279 105.91,10.194 105.636,10.194 C105.334,10.194 105.088,10.308 104.9,10.537 C104.712,10.766 104.618,11.178 104.618,11.771 L104.618,14.9 L102.12,14.9 L102.12,8.383 Z M110.036,10.654 L113.669,10.654 L113.669,12.587 L110.036,12.587 L110.036,10.654 Z M114.847,5.904 L118.505,5.904 L119.916,11.378 L121.321,5.904 L124.966,5.904 L124.966,14.9 L122.696,14.9 L122.696,8.04 L120.935,14.9 L118.879,14.9 L117.124,8.04 L117.124,14.9 L114.847,14.9 L114.847,5.904 Z M126.261,11.66 C126.261,10.666 126.597,9.847 127.268,9.203 C127.938,8.558 128.845,8.236 129.986,8.236 C131.291,8.236 132.277,8.615 132.944,9.371 C133.48,9.981 133.748,10.732 133.748,11.624 C133.748,12.626 133.415,13.447 132.751,14.087 C132.086,14.728 131.166,15.048 129.992,15.048 C128.945,15.048 128.098,14.782 127.452,14.25 C126.658,13.591 126.261,12.728 126.261,11.66 L126.261,11.66 Z M128.765,11.654 C128.765,12.235 128.882,12.665 129.118,12.943 C129.353,13.221 129.648,13.36 130.004,13.36 C130.364,13.36 130.66,13.223 130.891,12.949 C131.122,12.675 131.238,12.235 131.238,11.63 C131.238,11.065 131.121,10.645 130.888,10.369 C130.655,10.092 130.366,9.954 130.023,9.954 C129.659,9.954 129.358,10.095 129.121,10.375 C128.883,10.655 128.765,11.081 128.765,11.654 L128.765,11.654 Z M134.975,5.904 L137.497,5.904 L137.497,9.022 C137.747,8.76 138.03,8.563 138.347,8.433 C138.664,8.302 139.015,8.236 139.399,8.236 C140.193,8.236 140.85,8.522 141.369,9.092 C141.889,9.663 142.149,10.482 142.149,11.55 C142.149,12.262 142.03,12.889 141.793,13.431 C141.555,13.973 141.227,14.378 140.808,14.646 C140.388,14.914 139.923,15.048 139.412,15.048 C138.974,15.048 138.573,14.954 138.209,14.765 C137.935,14.618 137.636,14.342 137.313,13.937 L137.313,14.9 L134.975,14.9 L134.975,5.904 Z M137.479,11.624 C137.479,12.184 137.584,12.59 137.795,12.842 C138.005,13.093 138.272,13.219 138.596,13.219 C138.894,13.219 139.145,13.095 139.347,12.848 C139.55,12.6 139.651,12.184 139.651,11.599 C139.651,11.084 139.552,10.705 139.353,10.464 C139.155,10.222 138.915,10.102 138.632,10.102 C138.293,10.102 138.016,10.227 137.801,10.479 C137.586,10.731 137.479,11.112 137.479,11.624 L137.479,11.624 Z M143.449,5.904 L145.947,5.904 L145.947,7.604 L143.449,7.604 L143.449,5.904 Z M143.449,8.383 L145.947,8.383 L145.947,14.9 L143.449,14.9 L143.449,8.383 Z M147.641,5.904 L150.144,5.904 L150.144,14.9 L147.641,14.9 L147.641,5.904 Z M158.987,12.262 L153.98,12.262 C154.025,12.663 154.133,12.961 154.305,13.158 C154.546,13.44 154.861,13.581 155.25,13.581 C155.495,13.581 155.729,13.52 155.95,13.397 C156.085,13.319 156.23,13.182 156.385,12.986 L158.846,13.213 C158.47,13.867 158.015,14.337 157.484,14.621 C156.952,14.906 156.189,15.048 155.195,15.048 C154.332,15.048 153.652,14.926 153.157,14.683 C152.662,14.439 152.252,14.053 151.927,13.523 C151.602,12.993 151.439,12.37 151.439,11.654 C151.439,10.636 151.765,9.811 152.418,9.181 C153.07,8.551 153.972,8.236 155.121,8.236 C156.054,8.236 156.79,8.377 157.33,8.66 C157.87,8.942 158.281,9.351 158.564,9.887 C158.846,10.423 158.987,11.12 158.987,11.979 L158.987,12.262 Z M156.447,11.065 C156.397,10.582 156.268,10.237 156.057,10.028 C155.846,9.819 155.569,9.715 155.225,9.715 C154.829,9.715 154.512,9.873 154.274,10.188 C154.123,10.384 154.027,10.676 153.986,11.065 L156.447,11.065 Z M160.153,12.397 L162.822,12.397 L162.822,14.9 L160.153,14.9 L160.153,12.397 Z M169.204,12.354 L171.579,12.624 C171.448,13.119 171.234,13.547 170.935,13.909 C170.636,14.271 170.255,14.553 169.79,14.753 C169.326,14.954 168.736,15.054 168.02,15.054 C167.329,15.054 166.753,14.989 166.293,14.861 C165.832,14.732 165.437,14.523 165.105,14.235 C164.774,13.946 164.514,13.608 164.326,13.219 C164.138,12.83 164.044,12.315 164.044,11.673 C164.044,11.002 164.158,10.443 164.387,9.997 C164.555,9.67 164.784,9.377 165.075,9.117 C165.365,8.857 165.664,8.664 165.97,8.537 C166.457,8.336 167.081,8.236 167.842,8.236 C168.906,8.236 169.717,8.426 170.275,8.807 C170.834,9.187 171.225,9.744 171.45,10.476 L169.1,10.789 C169.026,10.511 168.892,10.301 168.698,10.16 C168.504,10.019 168.243,9.948 167.916,9.948 C167.503,9.948 167.168,10.097 166.912,10.393 C166.657,10.69 166.529,11.139 166.529,11.74 C166.529,12.276 166.656,12.683 166.909,12.961 C167.163,13.239 167.486,13.379 167.879,13.379 C168.206,13.379 168.481,13.295 168.704,13.127 C168.927,12.959 169.094,12.701 169.204,12.354 L169.204,12.354 Z M172.432,11.66 C172.432,10.666 172.768,9.847 173.439,9.203 C174.109,8.558 175.016,8.236 176.157,8.236 C177.462,8.236 178.448,8.615 179.115,9.371 C179.651,9.981 179.919,10.732 179.919,11.624 C179.919,12.626 179.586,13.447 178.922,14.087 C178.257,14.728 177.337,15.048 176.163,15.048 C175.116,15.048 174.269,14.782 173.623,14.25 C172.829,13.591 172.432,12.728 172.432,11.66 L172.432,11.66 Z M174.936,11.654 C174.936,12.235 175.053,12.665 175.289,12.943 C175.524,13.221 175.82,13.36 176.175,13.36 C176.535,13.36 176.831,13.223 177.062,12.949 C177.293,12.675 177.409,12.235 177.409,11.63 C177.409,11.065 177.292,10.645 177.059,10.369 C176.826,10.092 176.537,9.954 176.194,9.954 C175.83,9.954 175.529,10.095 175.292,10.375 C175.055,10.655 174.936,11.081 174.936,11.654 L174.936,11.654 Z M181.152,8.383 L183.484,8.383 L183.484,9.335 C183.819,8.938 184.158,8.656 184.5,8.488 C184.841,8.32 185.253,8.236 185.736,8.236 C186.256,8.236 186.667,8.328 186.97,8.512 C187.272,8.696 187.52,8.971 187.712,9.335 C188.105,8.909 188.463,8.62 188.786,8.466 C189.109,8.313 189.508,8.236 189.983,8.236 C190.682,8.236 191.228,8.444 191.621,8.859 C192.014,9.274 192.21,9.924 192.21,10.807 L192.21,14.9 L189.706,14.9 L189.706,11.188 C189.706,10.893 189.649,10.674 189.535,10.531 C189.367,10.306 189.158,10.194 188.909,10.194 C188.614,10.194 188.377,10.3 188.197,10.513 C188.017,10.726 187.927,11.067 187.927,11.538 L187.927,14.9 L185.423,14.9 L185.423,11.311 C185.423,11.024 185.407,10.83 185.374,10.728 C185.321,10.564 185.229,10.432 185.098,10.332 C184.967,10.232 184.814,10.181 184.638,10.181 C184.351,10.181 184.116,10.29 183.932,10.507 C183.748,10.724 183.656,11.079 183.656,11.574 L183.656,14.9 L181.152,14.9 L181.152,8.383 Z" display="inherit" fill="#000000" id="text2163" stroke="none" stroke-linecap="butt" stroke-linejoin="miter" stroke-width="1"/>
		<path d="M7.79,22.699 L10.208,22.699 L11.257,18.593 L12.582,22.699 L14.835,22.699 L16.209,18.593 L17.259,22.699 L19.658,22.699 L17.259,16.182 L15.037,16.182 L13.718,20.103 L12.441,16.182 L10.208,16.182 L7.79,22.699 Z M19.646,22.699 L22.063,22.699 L23.113,18.593 L24.438,22.699 L26.69,22.699 L28.065,18.593 L29.114,22.699 L31.514,22.699 L29.114,16.182 L26.893,16.182 L25.573,20.103 L24.297,16.182 L22.063,16.182 L19.646,22.699 Z M31.501,22.699 L33.919,22.699 L34.968,18.593 L36.294,22.699 L38.546,22.699 L39.921,18.593 L40.97,22.699 L43.369,22.699 L40.97,16.182 L38.749,16.182 L37.429,20.103 L36.153,16.182 L33.919,16.182 L31.501,22.699 Z M44.1,18.686 L46.769,18.686 L46.769,16.182 L44.1,16.182 L44.1,18.686 Z M52.979,19.44 L52.979,21.312 L57.275,21.312 L57.275,17.477 C56.452,16.916 55.725,16.535 55.093,16.332 C54.461,16.13 53.711,16.028 52.844,16.028 C51.776,16.028 50.906,16.21 50.233,16.575 C49.56,16.939 49.038,17.481 48.668,18.201 C48.298,18.921 48.113,19.747 48.113,20.68 C48.113,21.662 48.315,22.516 48.72,23.242 C49.125,23.968 49.719,24.519 50.5,24.896 C51.109,25.186 51.93,25.331 52.961,25.331 C53.955,25.331 54.698,25.241 55.191,25.061 C55.684,24.881 56.093,24.602 56.419,24.224 C56.744,23.845 56.988,23.366 57.152,22.785 L54.47,22.306 C54.36,22.646 54.173,22.905 53.909,23.085 C53.645,23.265 53.308,23.355 52.899,23.355 C52.29,23.355 51.804,23.144 51.442,22.72 C51.08,22.297 50.899,21.627 50.899,20.711 C50.899,19.737 51.082,19.041 51.448,18.624 C51.814,18.207 52.325,17.998 52.979,17.998 C53.29,17.998 53.587,18.043 53.869,18.133 C54.151,18.223 54.474,18.377 54.838,18.593 L54.838,19.44 L52.979,19.44 Z M65.639,16.182 L63.307,16.182 L63.307,17.237 C62.959,16.804 62.608,16.495 62.254,16.311 C61.901,16.127 61.466,16.035 60.95,16.035 C60.263,16.035 59.724,16.24 59.333,16.651 C58.943,17.062 58.747,17.696 58.747,18.551 L58.747,22.699 L61.257,22.699 L61.257,19.115 C61.257,18.706 61.333,18.416 61.484,18.244 C61.636,18.072 61.848,17.986 62.122,17.986 C62.421,17.986 62.666,18.101 62.856,18.33 C63.046,18.559 63.141,18.97 63.141,19.563 L63.141,22.699 L65.639,22.699 L65.639,16.182 Z M69.443,20.588 L67.056,20.839 C67.146,21.257 67.276,21.585 67.446,21.824 C67.616,22.064 67.86,22.271 68.179,22.447 C68.408,22.574 68.723,22.672 69.124,22.742 C69.525,22.811 69.959,22.846 70.425,22.846 C71.174,22.846 71.775,22.804 72.229,22.72 C72.683,22.636 73.062,22.462 73.365,22.196 C73.577,22.012 73.745,21.751 73.868,21.413 C73.99,21.076 74.052,20.754 74.052,20.447 L74.052,17.569 C74.052,17.262 74.071,17.022 74.11,16.848 C74.149,16.674 74.234,16.452 74.365,16.182 L72.021,16.182 C71.927,16.35 71.865,16.477 71.837,16.565 C71.808,16.653 71.779,16.791 71.751,16.98 C71.423,16.665 71.098,16.44 70.775,16.305 C70.333,16.125 69.82,16.035 69.235,16.035 C68.457,16.035 67.867,16.215 67.464,16.575 C67.061,16.935 66.86,17.378 66.86,17.906 C66.86,18.401 67.005,18.808 67.296,19.127 C67.586,19.446 68.122,19.684 68.903,19.839 C69.84,20.027 70.448,20.159 70.726,20.235 C71.004,20.311 71.299,20.41 71.609,20.533 C71.609,20.839 71.546,21.054 71.419,21.177 C71.292,21.3 71.069,21.361 70.75,21.361 C70.341,21.361 70.034,21.296 69.83,21.165 C69.67,21.062 69.541,20.87 69.443,20.588 L69.443,20.588 Z M71.609,19.275 C71.266,19.152 70.908,19.043 70.536,18.949 C70.028,18.814 69.707,18.681 69.572,18.551 C69.433,18.416 69.364,18.262 69.364,18.09 C69.364,17.894 69.432,17.733 69.569,17.609 C69.706,17.484 69.908,17.421 70.174,17.421 C70.452,17.421 70.71,17.489 70.95,17.624 C71.189,17.759 71.359,17.924 71.459,18.118 C71.559,18.312 71.609,18.565 71.609,18.876 L71.609,19.275 Z M75.586,22.699 L77.924,22.699 L77.924,21.631 C78.149,22.093 78.381,22.411 78.62,22.585 C78.86,22.759 79.155,22.846 79.507,22.846 C79.875,22.846 80.278,22.732 80.716,22.502 L79.943,20.723 C79.648,20.846 79.415,20.907 79.243,20.907 C78.916,20.907 78.662,20.772 78.482,20.502 C78.225,20.121 78.096,19.41 78.096,18.366 L78.096,16.182 L75.586,16.182 L75.586,22.699 Z M87.994,25.178 L87.994,16.182 L85.656,16.182 L85.656,17.145 C85.329,16.736 85.03,16.46 84.76,16.317 C84.4,16.129 83.999,16.035 83.557,16.035 C82.67,16.035 81.991,16.372 81.523,17.047 C81.055,17.722 80.82,18.542 80.82,19.508 C80.82,20.588 81.079,21.414 81.597,21.987 C82.114,22.56 82.772,22.846 83.57,22.846 C83.958,22.846 84.311,22.781 84.628,22.65 C84.945,22.519 85.226,22.322 85.472,22.061 L85.472,25.178 L87.994,25.178 Z M85.49,19.459 C85.49,19.97 85.382,20.352 85.165,20.603 C84.948,20.855 84.674,20.981 84.343,20.981 C84.052,20.981 83.809,20.86 83.612,20.619 C83.416,20.377 83.318,19.972 83.318,19.403 C83.318,18.872 83.419,18.482 83.622,18.234 C83.824,17.987 84.075,17.863 84.373,17.863 C84.692,17.863 84.958,17.988 85.171,18.238 C85.384,18.487 85.49,18.894 85.49,19.459 L85.49,19.459 Z M89.62,25.178 L92.118,25.178 L92.118,23.478 L89.62,23.478 L89.62,25.178 Z M89.62,22.699 L92.118,22.699 L92.118,16.182 L89.62,16.182 L89.62,22.699 Z M96.002,20.588 L93.615,20.839 C93.705,21.257 93.835,21.585 94.005,21.824 C94.174,22.064 94.419,22.271 94.738,22.447 C94.967,22.574 95.282,22.672 95.683,22.742 C96.084,22.811 96.518,22.846 96.984,22.846 C97.733,22.846 98.334,22.804 98.788,22.72 C99.242,22.636 99.621,22.462 99.923,22.196 C100.136,22.012 100.304,21.751 100.426,21.413 C100.549,21.076 100.611,20.754 100.611,20.447 L100.611,17.569 C100.611,17.262 100.63,17.022 100.669,16.848 C100.708,16.674 100.793,16.452 100.924,16.182 L98.579,16.182 C98.485,16.35 98.424,16.477 98.395,16.565 C98.367,16.653 98.338,16.791 98.309,16.98 C97.982,16.665 97.657,16.44 97.334,16.305 C96.892,16.125 96.378,16.035 95.793,16.035 C95.016,16.035 94.426,16.215 94.023,16.575 C93.62,16.935 93.419,17.378 93.419,17.906 C93.419,18.401 93.564,18.808 93.854,19.127 C94.145,19.446 94.681,19.684 95.462,19.839 C96.399,20.027 97.006,20.159 97.285,20.235 C97.563,20.311 97.857,20.41 98.168,20.533 C98.168,20.839 98.105,21.054 97.978,21.177 C97.851,21.3 97.628,21.361 97.309,21.361 C96.9,21.361 96.593,21.296 96.389,21.165 C96.229,21.062 96.1,20.87 96.002,20.588 L96.002,20.588 Z M98.168,19.275 C97.825,19.152 97.467,19.043 97.094,18.949 C96.587,18.814 96.266,18.681 96.131,18.551 C95.992,18.416 95.922,18.262 95.922,18.09 C95.922,17.894 95.991,17.733 96.128,17.609 C96.265,17.484 96.466,17.421 96.732,17.421 C97.01,17.421 97.269,17.489 97.509,17.624 C97.748,17.759 97.918,17.924 98.018,18.118 C98.118,18.312 98.168,18.565 98.168,18.876 L98.168,19.275 Z M102.12,22.699 L104.446,22.699 L104.446,21.637 C104.794,22.071 105.145,22.381 105.501,22.567 C105.857,22.753 106.291,22.846 106.802,22.846 C107.494,22.846 108.035,22.64 108.425,22.229 C108.816,21.818 109.011,21.183 109.011,20.324 L109.011,16.182 L106.502,16.182 L106.502,19.766 C106.502,20.175 106.426,20.464 106.275,20.634 C106.123,20.804 105.91,20.889 105.636,20.889 C105.334,20.889 105.088,20.774 104.9,20.545 C104.712,20.316 104.618,19.905 104.618,19.311 L104.618,16.182 L102.12,16.182 L102.12,22.699 Z M110.036,20.428 L113.669,20.428 L113.669,18.495 L110.036,18.495 L110.036,20.428 Z M114.847,25.178 L118.505,25.178 L119.916,19.704 L121.321,25.178 L124.966,25.178 L124.966,16.182 L122.696,16.182 L122.696,23.042 L120.935,16.182 L118.879,16.182 L117.124,23.042 L117.124,16.182 L114.847,16.182 L114.847,25.178 Z M126.261,19.422 C126.261,20.416 126.597,21.235 127.268,21.88 C127.938,22.524 128.845,22.846 129.986,22.846 C131.291,22.846 132.277,22.468 132.944,21.711 C133.48,21.101 133.748,20.351 133.748,19.459 C133.748,18.456 133.415,17.635 132.75,16.995 C132.086,16.355 131.166,16.035 129.992,16.035 C128.945,16.035 128.098,16.3 127.452,16.832 C126.658,17.491 126.261,18.354 126.261,19.422 L126.261,19.422 Z M128.765,19.428 C128.765,18.847 128.882,18.418 129.118,18.139 C129.353,17.861 129.648,17.722 130.004,17.722 C130.364,17.722 130.66,17.859 130.891,18.133 C131.122,18.407 131.238,18.847 131.238,19.453 C131.238,20.017 131.121,20.437 130.888,20.714 C130.655,20.99 130.366,21.128 130.023,21.128 C129.659,21.128 129.358,20.988 129.121,20.708 C128.883,20.427 128.765,20.001 128.765,19.428 L128.765,19.428 Z M134.975,25.178 L137.497,25.178 L137.497,22.061 C137.747,22.322 138.03,22.519 138.347,22.65 C138.664,22.781 139.015,22.846 139.399,22.846 C140.193,22.846 140.85,22.561 141.369,21.99 C141.889,21.419 142.149,20.6 142.149,19.532 C142.149,18.821 142.03,18.194 141.793,17.652 C141.555,17.109 141.227,16.704 140.808,16.437 C140.388,16.169 139.923,16.035 139.412,16.035 C138.974,16.035 138.573,16.129 138.209,16.317 C137.935,16.464 137.636,16.74 137.313,17.145 L137.313,16.182 L134.975,16.182 L134.975,25.178 Z M137.479,19.459 C137.479,18.898 137.584,18.492 137.795,18.241 C138.005,17.989 138.272,17.863 138.596,17.863 C138.894,17.863 139.145,17.987 139.347,18.234 C139.55,18.482 139.651,18.898 139.651,19.483 C139.651,19.999 139.552,20.377 139.353,20.619 C139.155,20.86 138.915,20.981 138.632,20.981 C138.293,20.981 138.016,20.855 137.801,20.603 C137.586,20.352 137.479,19.97 137.479,19.459 L137.479,19.459 Z M143.449,25.178 L145.947,25.178 L145.947,23.478 L143.449,23.478 L143.449,25.178 Z M143.449,22.699 L145.947,22.699 L145.947,16.182 L143.449,16.182 L143.449,22.699 Z M147.641,25.178 L150.144,25.178 L150.144,16.182 L147.641,16.182 L147.641,25.178 Z M158.987,18.821 L153.98,18.821 C154.025,18.42 154.133,18.121 154.305,17.925 C154.546,17.642 154.861,17.501 155.25,17.501 C155.495,17.501 155.729,17.563 155.95,17.685 C156.085,17.763 156.23,17.9 156.385,18.096 L158.846,17.869 C158.47,17.215 158.015,16.745 157.484,16.461 C156.952,16.177 156.189,16.035 155.195,16.035 C154.332,16.035 153.652,16.156 153.157,16.4 C152.662,16.643 152.252,17.03 151.927,17.559 C151.602,18.089 151.439,18.712 151.439,19.428 C151.439,20.447 151.765,21.271 152.418,21.901 C153.07,22.531 153.972,22.846 155.121,22.846 C156.054,22.846 156.79,22.705 157.33,22.423 C157.87,22.14 158.281,21.731 158.564,21.195 C158.846,20.659 158.987,19.962 158.987,19.103 L158.987,18.821 Z M156.447,20.017 C156.397,20.5 156.268,20.846 156.057,21.054 C155.846,21.263 155.569,21.367 155.225,21.367 C154.829,21.367 154.512,21.21 154.274,20.895 C154.123,20.698 154.027,20.406 153.986,20.017 L156.447,20.017 Z M160.153,18.686 L162.822,18.686 L162.822,16.182 L160.153,16.182 L160.153,18.686 Z M169.204,18.728 L171.579,18.458 C171.448,17.963 171.233,17.535 170.935,17.173 C170.636,16.811 170.255,16.53 169.79,16.329 C169.326,16.129 168.736,16.028 168.02,16.028 C167.329,16.028 166.753,16.093 166.293,16.222 C165.832,16.351 165.437,16.559 165.105,16.848 C164.774,17.136 164.514,17.475 164.326,17.863 C164.138,18.252 164.044,18.767 164.044,19.41 C164.044,20.081 164.158,20.639 164.387,21.085 C164.555,21.412 164.784,21.706 165.075,21.965 C165.365,22.225 165.664,22.419 165.97,22.545 C166.457,22.746 167.081,22.846 167.842,22.846 C168.906,22.846 169.717,22.656 170.275,22.275 C170.834,21.895 171.225,21.339 171.45,20.606 L169.1,20.293 C169.026,20.571 168.892,20.781 168.698,20.922 C168.504,21.063 168.243,21.134 167.916,21.134 C167.503,21.134 167.168,20.986 166.912,20.689 C166.657,20.392 166.529,19.944 166.529,19.342 C166.529,18.806 166.656,18.399 166.909,18.121 C167.163,17.843 167.486,17.704 167.879,17.704 C168.206,17.704 168.481,17.788 168.704,17.955 C168.927,18.123 169.094,18.381 169.204,18.728 L169.204,18.728 Z M172.432,19.422 C172.432,20.416 172.768,21.235 173.439,21.88 C174.109,22.524 175.016,22.846 176.157,22.846 C177.462,22.846 178.448,22.468 179.115,21.711 C179.651,21.101 179.919,20.351 179.919,19.459 C179.919,18.456 179.586,17.635 178.922,16.995 C178.257,16.355 177.337,16.035 176.163,16.035 C175.116,16.035 174.269,16.3 173.623,16.832 C172.829,17.491 172.432,18.354 172.432,19.422 L172.432,19.422 Z M174.936,19.428 C174.936,18.847 175.053,18.418 175.289,18.139 C175.524,17.861 175.82,17.722 176.175,17.722 C176.535,17.722 176.831,17.859 177.062,18.133 C177.293,18.407 177.409,18.847 177.409,19.453 C177.409,20.017 177.292,20.437 177.059,20.714 C176.826,20.99 176.537,21.128 176.194,21.128 C175.83,21.128 175.529,20.988 175.292,20.708 C175.054,20.427 174.936,20.001 174.936,19.428 L174.936,19.428 Z M181.152,22.699 L183.484,22.699 L183.484,21.748 C183.819,22.144 184.158,22.427 184.5,22.594 C184.841,22.762 185.253,22.846 185.736,22.846 C186.256,22.846 186.667,22.754 186.97,22.57 C187.272,22.386 187.52,22.112 187.712,21.748 C188.105,22.173 188.463,22.463 188.786,22.616 C189.109,22.769 189.508,22.846 189.983,22.846 C190.682,22.846 191.228,22.638 191.621,22.223 C192.014,21.808 192.21,21.159 192.21,20.275 L192.21,16.182 L189.706,16.182 L189.706,19.894 C189.706,20.189 189.649,20.408 189.535,20.551 C189.367,20.776 189.158,20.889 188.909,20.889 C188.614,20.889 188.377,20.782 188.197,20.569 C188.017,20.357 187.927,20.015 187.927,19.545 L187.927,16.182 L185.423,16.182 L185.423,19.772 C185.423,20.058 185.407,20.252 185.374,20.355 C185.321,20.518 185.229,20.65 185.098,20.75 C184.967,20.851 184.814,20.901 184.638,20.901 C184.351,20.901 184.116,20.792 183.932,20.576 C183.748,20.359 183.656,20.003 183.656,19.508 L183.656,16.182 L181.152,16.182 L181.152,22.699 Z" display="inherit" fill="url(#gr_1219)" id="path2168" stroke="none" stroke-linecap="butt" stroke-linejoin="miter" stroke-width="1"/>
	</g>
	<g display="inherit" id="Iridium" transform="matrix(0.534,0,0,0.534,11.365,78.49)">
		<g display="inherit" fill="url(#gr_1238)" id="g4029" transform="matrix(1,0,0,1,0,73.137)">
			<path d="M70.031,-72.465 C68.012,-72.26 66.308,-70.37 66.313,-68.34 L66.313,-16.809 C66.319,-14.651 68.279,-12.69 70.438,-12.684 L80.844,-12.684 C83.002,-12.69 84.963,-14.651 84.969,-16.809 L84.969,-68.34 C84.963,-70.498 83.002,-72.459 80.844,-72.465 L70.438,-72.465 C70.302,-72.472 70.167,-72.472 70.031,-72.465 Z" display="inherit" id="path3199"/>
			<path d="M90.344,-72.453 C88.325,-72.248 86.62,-70.357 86.625,-68.328 L86.625,-16.797 C86.631,-14.638 88.592,-12.678 90.75,-12.672 L101.156,-12.672 C103.314,-12.678 105.275,-14.638 105.281,-16.797 L105.281,-33.984 C105.898,-33.913 107.032,-33.86 107.125,-33.828 C107.463,-33.71 107.98,-33.418 108.625,-32.734 C109.102,-32.229 111.06,-29.675 113.688,-25.734 C113.687,-25.724 113.687,-25.713 113.688,-25.703 L121.219,-14.484 C121.976,-13.369 123.308,-12.667 124.656,-12.672 L137.094,-12.672 C137.575,-12.672 139.84,-14.067 140.5,-14.89 L138.625,-22.203 L134.313,-29.047 C131.756,-33.17 129.747,-36.04 127.906,-38.015 C129.661,-38.951 131.254,-40.065 132.563,-41.515 C135.547,-44.823 137.031,-49.214 137.031,-53.89 C137.031,-57.616 136.087,-61.187 134.156,-64.234 C132.228,-67.276 129.41,-69.597 126.094,-70.828 C122.657,-72.102 118.388,-72.453 112.656,-72.453 L90.75,-72.453 C90.615,-72.46 90.479,-72.46 90.344,-72.453 Z M105.281,-55.484 L109.281,-55.484 C113.38,-55.484 116.146,-55.325 116.188,-55.328 C117.197,-55.16 117.495,-54.924 117.688,-54.703 C117.859,-54.506 118.063,-54.223 118.063,-53.203 C118.063,-52.297 117.904,-51.974 117.719,-51.703 C117.489,-51.366 117.35,-51.239 116.875,-51.078 C117.242,-51.202 113.755,-50.672 108.875,-50.672 L105.281,-50.672 L105.281,-55.484 Z" display="inherit" id="path3218_1"/>
			<path d="M162.281,-72.453 C160.262,-72.248 158.558,-70.357 158.563,-68.328 L158.563,-16.797 C158.568,-14.638 160.529,-12.678 162.688,-12.672 L182.281,-12.672 C186.388,-12.672 189.8,-13.029 192.719,-13.953 C196.231,-15.079 199.277,-16.698 201.656,-19.015 C204.582,-21.855 206.758,-25.516 208.219,-29.765 C209.461,-33.381 210.031,-37.486 210.031,-42.078 C210.031,-47.227 209.45,-51.729 208.125,-55.609 C206.828,-59.404 204.867,-62.727 202.281,-65.453 C199.642,-68.235 196.339,-70.243 192.656,-71.328 C189.72,-72.184 186.209,-72.453 181.719,-72.453 L162.688,-72.453 C162.552,-72.46 162.417,-72.46 162.281,-72.453 Z M177.219,-55.484 L177.781,-55.484 C181.911,-55.484 184.778,-55.22 185.406,-55.078 C185.417,-55.078 185.427,-55.078 185.437,-55.078 C186.798,-54.783 187.623,-54.325 188.281,-53.703 C188.936,-53.084 189.615,-52.06 190.156,-50.422 C190.61,-49.045 191,-46.273 191,-42.515 C191,-38.759 190.627,-35.946 190.125,-34.297 C189.558,-32.436 188.862,-31.442 188.562,-31.172 C187.984,-30.647 187.274,-30.232 186.156,-29.953 C186.146,-29.953 186.135,-29.953 186.125,-29.953 C185.6,-29.819 183.648,-29.609 180.875,-29.609 L177.219,-29.609 L177.219,-55.484 Z" display="inherit" id="path3195"/>
			<path d="M214.031,-72.465 C212.012,-72.26 210.308,-70.37 210.313,-68.34 L210.313,-16.809 C210.318,-14.651 212.279,-12.69 214.438,-12.684 L224.844,-12.684 C227.002,-12.69 228.963,-14.651 228.969,-16.809 L228.969,-68.34 C228.963,-70.498 227.002,-72.459 224.844,-72.465 L214.438,-72.465 C214.302,-72.472 214.167,-72.472 214.031,-72.465 Z" display="inherit" id="path3193"/>
			<path d="M234.25,-72.465 C232.231,-72.26 230.527,-70.37 230.531,-68.34 L230.531,-40.84 C230.531,-34.92 230.811,-30.379 231.625,-26.84 C232.257,-24.154 233.576,-21.678 235.375,-19.465 C237.316,-17.077 239.913,-15.192 242.938,-13.84 C246.399,-12.292 250.582,-11.809 255.813,-11.809 C260.242,-11.809 264.028,-12.343 267.281,-13.684 C270.29,-14.923 272.908,-16.673 274.906,-18.996 C276.891,-21.304 278.247,-24.145 278.938,-27.277 C279.65,-30.518 279.875,-34.964 279.875,-41.277 L279.875,-68.34 C279.869,-70.498 277.908,-72.459 275.75,-72.465 L265.344,-72.465 C263.186,-72.459 261.225,-70.498 261.219,-68.34 L261.219,-39.84 C261.219,-35.873 261.029,-33.054 260.813,-31.809 C260.67,-30.986 260.405,-30.492 259.594,-29.84 C259.13,-29.467 257.888,-28.934 255.5,-28.934 C253.22,-28.934 251.899,-29.437 251.125,-30.027 C250.17,-30.755 249.761,-31.407 249.5,-32.621 C249.5,-32.623 249.5,-32.651 249.5,-32.652 C249.417,-33.09 249.188,-36.094 249.188,-40.434 L249.188,-68.34 C249.182,-70.498 247.221,-72.459 245.063,-72.465 L234.656,-72.465 C234.521,-72.472 234.385,-72.472 234.25,-72.465 Z" display="inherit" id="path3191"/>
			<path d="M286.219,-72.465 C284.2,-72.26 282.495,-70.37 282.5,-68.34 L282.5,-16.809 C282.506,-14.651 284.467,-12.69 286.625,-12.684 L296.281,-12.684 C298.439,-12.69 300.4,-14.651 300.406,-16.809 L300.406,-24.027 L302.469,-15.809 C302.914,-14.042 304.647,-12.689 306.469,-12.684 L316.5,-12.684 C318.322,-12.689 320.055,-14.042 320.5,-15.809 L322.594,-24.121 L322.594,-16.809 C322.6,-14.651 324.561,-12.69 326.719,-12.684 L336.406,-12.684 C338.564,-12.69 340.525,-14.651 340.531,-16.809 L340.531,-68.34 C340.525,-70.498 338.564,-72.459 336.406,-72.465 L320.781,-72.465 C318.976,-72.467 317.25,-71.146 316.781,-69.402 L311.5,-49.371 L306.187,-69.402 C305.719,-71.146 303.993,-72.467 302.187,-72.465 L286.625,-72.465 C286.49,-72.472 286.354,-72.472 286.219,-72.465 Z" display="inherit" id="path3189"/>
			<path d="M142.038,-72.437 C140.018,-72.232 138.314,-70.342 138.319,-68.312 L138.319,-16.781 C138.325,-14.623 140.286,-12.662 142.444,-12.656 L152.85,-12.656 C155.008,-12.662 156.969,-14.623 156.975,-16.781 L156.975,-68.312 C156.969,-70.47 155.008,-72.431 152.85,-72.437 L142.444,-72.437 C142.309,-72.444 142.173,-72.444 142.038,-72.437 Z" display="inherit" id="path3193-4"/>
		</g>
		<g display="inherit" fill="url(#gr_1237)" font-family="Arial" font-size="72" font-style="normal" font-weight="700" id="mirror_iridium" stroke="none" text-anchor="start" transform="matrix(1,0,0,-1,0.006,118.216)">
			<path d="M70.4,-1.154 C69.057,-1.154 67.837,0.066 67.837,1.408 L67.837,52.94 C67.834,54.282 69.057,55.505 70.4,55.502 L80.806,55.502 C82.148,55.505 83.371,54.282 83.368,52.94 L83.368,1.408 C83.368,0.066 82.148,-1.154 80.806,-1.154 Z" display="inherit" id="path5734-5"/>
			<path d="M90.75,58.375 C89.407,58.372 88.188,59.595 88.188,60.938 L88.188,112.469 C88.185,113.811 89.407,115.034 90.75,115.031 L101.156,115.031 C102.499,115.034 103.722,113.811 103.719,112.469 L103.719,93.563 C105.615,93.604 107.184,93.772 107.656,93.938 C108.288,94.159 109.006,94.617 109.781,95.438 C110.435,96.13 112.319,98.682 114.969,102.656 C114.969,102.667 114.969,102.677 114.969,102.687 L122.5,113.906 C122.967,114.598 123.791,115.033 124.625,115.031 L137.063,115.031 C137.966,115.026 138.844,114.51 139.281,113.719 C139.718,112.928 139.696,111.893 139.219,111.125 L132.938,101.063 L132.969,101.063 C130.44,96.983 128.418,94.134 126.719,92.313 C126.226,91.785 125.624,91.31 125.062,90.813 C127.548,89.849 129.718,88.524 131.375,86.688 C134.08,83.689 135.469,79.755 135.469,75.375 C135.469,71.909 134.578,68.662 132.812,65.875 C131.048,63.091 128.534,61.02 125.531,59.906 C122.454,58.765 118.303,58.375 112.656,58.375 L90.75,58.375 Z M103.719,72.219 L109.281,72.219 C113.448,72.219 116.196,72.311 116.469,72.344 C116.471,72.344 116.529,72.343 116.531,72.344 C117.719,72.553 118.346,72.958 118.844,73.531 C119.302,74.06 119.594,74.77 119.594,76.063 C119.594,77.248 119.363,77.936 119,78.469 C118.609,79.042 118.154,79.423 117.375,79.688 C117.126,79.772 113.767,80.156 108.844,80.156 L103.719,80.156 L103.719,72.219 Z" display="inherit" id="path5732-3" transform="matrix(1,0,0,1,-0.007,-59.529)"/>
			<path d="M142.4,-1.154 C141.057,-1.157 139.834,0.066 139.837,1.408 L139.837,52.94 C139.834,54.282 141.057,55.505 142.4,55.502 L152.806,55.502 C154.148,55.505 155.371,54.282 155.368,52.94 L155.368,1.408 C155.371,0.066 154.148,-1.157 152.806,-1.154 Z" display="inherit" id="path5730-0"/>
			<path d="M162.656,58.375 C161.314,58.372 160.091,59.595 160.094,60.938 L160.094,112.469 C160.091,113.811 161.314,115.034 162.656,115.031 L182.25,115.031 C186.257,115.031 189.563,114.662 192.25,113.813 C195.594,112.741 198.403,111.229 200.563,109.125 C203.292,106.475 205.297,103.046 206.688,99 C207.858,95.593 208.437,91.646 208.438,87.188 C208.437,82.161 207.843,77.843 206.594,74.188 C205.367,70.598 203.555,67.469 201.125,64.906 C198.671,62.319 195.65,60.48 192.219,59.469 C192.219,59.458 192.219,59.448 192.219,59.438 C189.538,58.656 186.101,58.375 181.688,58.375 L162.656,58.375 Z M175.625,72.219 L177.75,72.219 C181.923,72.219 184.775,72.443 185.719,72.656 C185.729,72.656 185.74,72.656 185.75,72.656 C187.34,73.001 188.499,73.579 189.375,74.406 C190.249,75.232 191.016,76.528 191.625,78.375 C192.181,80.061 192.562,82.919 192.562,86.75 C192.562,90.581 192.21,93.516 191.625,95.438 C191,97.488 190.217,98.714 189.625,99.25 C188.879,99.926 187.873,100.469 186.5,100.813 C185.643,101.031 183.649,101.219 180.844,101.219 L175.625,101.219 L175.625,72.219 Z" display="inherit" id="path5728-6" transform="matrix(1,0,0,1,-0.007,-59.529)"/>
			<path d="M214.4,-1.154 C213.057,-1.157 211.834,0.066 211.837,1.408 L211.837,52.94 C211.834,54.282 213.057,55.505 214.4,55.502 L224.806,55.502 C226.148,55.505 227.371,54.282 227.368,52.94 L227.368,1.408 C227.371,0.066 226.148,-1.157 224.806,-1.154 Z" display="inherit" id="path5726-6"/>
			<path d="M234.618,-1.154 C233.276,-1.157 232.053,0.066 232.056,1.408 L232.056,28.908 C232.056,34.778 232.39,39.234 233.15,42.533 C233.15,42.544 233.15,42.554 233.15,42.564 C233.713,44.96 234.9,47.239 236.587,49.314 C238.351,51.484 240.715,53.201 243.556,54.471 C246.674,55.864 250.693,56.377 255.806,56.377 C260.101,56.377 263.703,55.854 266.681,54.627 C269.507,53.462 271.9,51.828 273.712,49.721 C275.527,47.61 276.731,45.051 277.368,42.158 C278.024,39.179 278.275,34.736 278.275,28.471 L278.275,1.408 C278.278,0.066 277.055,-1.157 275.712,-1.154 L265.306,-1.154 C263.963,-1.157 262.74,0.066 262.743,1.408 L262.743,29.908 C262.743,33.931 262.582,36.808 262.337,38.221 C262.137,39.373 261.643,40.252 260.556,41.127 C259.697,41.818 258.066,42.377 255.462,42.377 C252.943,42.377 251.269,41.824 250.15,40.971 C248.936,40.045 248.269,39.015 247.931,37.439 C247.93,37.436 247.932,37.411 247.931,37.408 C247.774,36.595 247.587,33.67 247.587,29.314 L247.587,1.408 C247.59,0.066 246.367,-1.157 245.025,-1.154 L234.618,-1.154 Z" display="inherit" id="path5724-0"/>
			<path d="M286.587,-1.154 C285.245,-1.157 284.022,0.066 284.025,1.408 L284.025,52.94 C284.022,54.282 285.245,55.505 286.587,55.502 L296.243,55.502 C297.586,55.505 298.809,54.282 298.806,52.94 L298.806,32.971 L303.993,53.565 C304.266,54.657 305.336,55.497 306.462,55.502 L316.462,55.502 C317.588,55.497 318.658,54.657 318.931,53.565 L324.15,32.908 L324.15,52.94 C324.147,54.282 325.37,55.505 326.712,55.502 L336.368,55.502 C337.711,55.505 338.934,54.282 338.931,52.94 L338.931,1.408 C338.934,0.066 337.711,-1.157 336.368,-1.154 L320.775,-1.154 C319.656,-1.153 318.59,-0.329 318.306,0.752 L311.493,26.596 L304.618,0.752 C304.334,-0.329 303.268,-1.153 302.15,-1.154 Z" display="inherit" id="path5722-9"/>
		</g>
		<g display="inherit" fill="url(#gr_1239)" font-family="Arial" font-size="72" font-style="normal" font-weight="700" id="bg_iridium" stroke="none" text-anchor="start" transform="matrix(1,0,0,1,0.007,3.451)">
			<path d="M70.4,-1.154 C69.057,-1.154 67.837,0.066 67.837,1.408 L67.837,52.94 C67.834,54.282 69.057,55.505 70.4,55.502 L80.806,55.502 C82.148,55.505 83.371,54.282 83.368,52.94 L83.368,1.408 C83.368,0.066 82.148,-1.154 80.806,-1.154 Z" display="inherit" id="path5734"/>
			<path d="M90.75,58.375 C89.407,58.372 88.188,59.595 88.188,60.938 L88.188,112.469 C88.185,113.811 89.407,115.034 90.75,115.031 L101.156,115.031 C102.499,115.034 103.722,113.811 103.719,112.469 L103.719,93.563 C105.615,93.604 107.184,93.772 107.656,93.938 C108.288,94.159 109.006,94.617 109.781,95.438 C110.435,96.13 112.319,98.682 114.969,102.656 C114.969,102.667 114.969,102.677 114.969,102.687 L122.5,113.906 C122.967,114.598 123.791,115.033 124.625,115.031 L137.063,115.031 C137.966,115.026 138.844,114.51 139.281,113.719 C139.718,112.928 139.696,111.893 139.219,111.125 L132.938,101.063 L132.969,101.063 C130.44,96.983 128.418,94.134 126.719,92.313 C126.226,91.785 125.624,91.31 125.062,90.813 C127.548,89.849 129.718,88.524 131.375,86.688 C134.08,83.689 135.469,79.755 135.469,75.375 C135.469,71.909 134.578,68.662 132.812,65.875 C131.048,63.091 128.534,61.02 125.531,59.906 C122.454,58.765 118.303,58.375 112.656,58.375 L90.75,58.375 Z M103.719,72.219 L109.281,72.219 C113.448,72.219 116.196,72.311 116.469,72.344 C116.471,72.344 116.529,72.343 116.531,72.344 C117.719,72.553 118.346,72.958 118.844,73.531 C119.302,74.06 119.594,74.77 119.594,76.063 C119.594,77.248 119.363,77.936 119,78.469 C118.609,79.042 118.154,79.423 117.375,79.688 C117.126,79.772 113.767,80.156 108.844,80.156 L103.719,80.156 L103.719,72.219 Z" display="inherit" id="path5732" transform="matrix(1,0,0,1,-0.007,-59.529)"/>
			<path d="M142.4,-1.154 C141.057,-1.157 139.834,0.066 139.837,1.408 L139.837,52.94 C139.834,54.282 141.057,55.505 142.4,55.502 L152.806,55.502 C154.148,55.505 155.371,54.282 155.368,52.94 L155.368,1.408 C155.371,0.066 154.148,-1.157 152.806,-1.154 Z" display="inherit" id="path5730"/>
			<path d="M162.656,58.375 C161.314,58.372 160.091,59.595 160.094,60.938 L160.094,112.469 C160.091,113.811 161.314,115.034 162.656,115.031 L182.25,115.031 C186.257,115.031 189.563,114.662 192.25,113.813 C195.594,112.741 198.403,111.229 200.563,109.125 C203.292,106.475 205.297,103.046 206.688,99 C207.858,95.593 208.437,91.646 208.438,87.188 C208.437,82.161 207.843,77.843 206.594,74.188 C205.367,70.598 203.555,67.469 201.125,64.906 C198.671,62.319 195.65,60.48 192.219,59.469 C192.219,59.458 192.219,59.448 192.219,59.438 C189.538,58.656 186.101,58.375 181.688,58.375 L162.656,58.375 Z M175.625,72.219 L177.75,72.219 C181.923,72.219 184.775,72.443 185.719,72.656 C185.729,72.656 185.74,72.656 185.75,72.656 C187.34,73.001 188.499,73.579 189.375,74.406 C190.249,75.232 191.016,76.528 191.625,78.375 C192.181,80.061 192.562,82.919 192.562,86.75 C192.562,90.581 192.21,93.516 191.625,95.438 C191,97.488 190.217,98.714 189.625,99.25 C188.879,99.926 187.873,100.469 186.5,100.813 C185.643,101.031 183.649,101.219 180.844,101.219 L175.625,101.219 L175.625,72.219 Z" display="inherit" id="path5728" transform="matrix(1,0,0,1,-0.007,-59.529)"/>
			<path d="M214.4,-1.154 C213.057,-1.157 211.834,0.066 211.837,1.408 L211.837,52.94 C211.834,54.282 213.057,55.505 214.4,55.502 L224.806,55.502 C226.148,55.505 227.371,54.282 227.368,52.94 L227.368,1.408 C227.371,0.066 226.148,-1.157 224.806,-1.154 Z" display="inherit" id="path5726"/>
			<path d="M234.618,-1.154 C233.276,-1.157 232.053,0.066 232.056,1.408 L232.056,28.908 C232.056,34.778 232.39,39.234 233.15,42.533 C233.15,42.544 233.15,42.554 233.15,42.564 C233.713,44.96 234.9,47.239 236.587,49.314 C238.351,51.484 240.715,53.201 243.556,54.471 C246.674,55.864 250.693,56.377 255.806,56.377 C260.101,56.377 263.703,55.854 266.681,54.627 C269.507,53.462 271.9,51.828 273.712,49.721 C275.527,47.61 276.731,45.051 277.368,42.158 C278.024,39.179 278.275,34.736 278.275,28.471 L278.275,1.408 C278.278,0.066 277.055,-1.157 275.712,-1.154 L265.306,-1.154 C263.963,-1.157 262.74,0.066 262.743,1.408 L262.743,29.908 C262.743,33.931 262.582,36.808 262.337,38.221 C262.137,39.373 261.643,40.252 260.556,41.127 C259.697,41.818 258.066,42.377 255.462,42.377 C252.943,42.377 251.269,41.824 250.15,40.971 C248.936,40.045 248.269,39.015 247.931,37.439 C247.93,37.436 247.932,37.411 247.931,37.408 C247.774,36.595 247.587,33.67 247.587,29.314 L247.587,1.408 C247.59,0.066 246.367,-1.157 245.025,-1.154 L234.618,-1.154 Z" display="inherit" id="path5724"/>
			<path d="M286.587,-1.154 C285.245,-1.157 284.022,0.066 284.025,1.408 L284.025,52.94 C284.022,54.282 285.245,55.505 286.587,55.502 L296.243,55.502 C297.586,55.505 298.809,54.282 298.806,52.94 L298.806,32.971 L303.993,53.565 C304.266,54.657 305.336,55.497 306.462,55.502 L316.462,55.502 C317.588,55.497 318.658,54.657 318.931,53.565 L324.15,32.908 L324.15,52.94 C324.147,54.282 325.37,55.505 326.712,55.502 L336.368,55.502 C337.711,55.505 338.934,54.282 338.931,52.94 L338.931,1.408 C338.934,0.066 337.711,-1.157 336.368,-1.154 L320.775,-1.154 C319.656,-1.153 318.59,-0.329 318.306,0.752 L311.493,26.596 L304.618,0.752 C304.334,-0.329 303.268,-1.153 302.15,-1.154 Z" display="inherit" id="path5722"/>
		</g>
		<g display="inherit" fill="url(#gr_1231)" font-family="Arial" font-size="72" font-style="normal" font-weight="700" id="fg_iridium" stroke="none" text-anchor="start" transform="matrix(1,0,0,1,0,3.022)">
			<path d="M70.412,52.941 L70.412,1.402 L80.818,1.402 L80.818,52.941 Z" display="inherit" id="path5497"/>
			<path d="M90.732,52.941 L90.732,1.402 L112.635,1.402 C118.142,1.402 122.144,1.865 124.641,2.791 C127.137,3.717 129.135,5.363 130.635,7.73 C132.135,10.097 132.885,12.804 132.885,15.851 C132.885,19.719 131.748,22.912 129.475,25.431 C127.201,27.951 123.803,29.539 119.279,30.195 C121.529,31.508 123.387,32.949 124.852,34.519 C126.316,36.09 128.291,38.879 130.775,42.886 L137.068,52.941 L124.623,52.941 L117.1,41.726 C114.428,37.719 112.6,35.193 111.615,34.15 C110.631,33.107 109.588,32.392 108.486,32.006 C107.385,31.619 105.639,31.426 103.248,31.426 L101.139,31.426 L101.139,52.941 Z M101.139,23.199 L108.838,23.199 C113.83,23.199 116.947,22.988 118.189,22.566 C119.432,22.144 120.404,21.418 121.107,20.386 C121.81,19.355 122.162,18.066 122.162,16.519 C122.162,14.785 121.699,13.385 120.773,12.318 C119.848,11.252 118.541,10.578 116.853,10.297 C116.01,10.179 113.478,10.121 109.26,10.121 L101.139,10.121 Z" display="inherit" id="path5499"/>
			<path d="M142.412,52.941 L142.412,1.402 L152.818,1.402 L152.818,52.941 Z" display="inherit" id="path5501"/>
			<path d="M162.662,1.402 L181.682,1.402 C185.971,1.402 189.24,1.73 191.49,2.386 C194.514,3.277 197.103,4.859 199.26,7.133 C201.416,9.406 203.057,12.189 204.182,15.482 C205.307,18.775 205.869,22.836 205.869,27.664 C205.869,31.906 205.342,35.562 204.287,38.633 C202.998,42.383 201.158,45.418 198.768,47.738 C196.963,49.496 194.525,50.867 191.455,51.851 C189.158,52.578 186.088,52.941 182.244,52.941 L162.662,52.941 Z M173.068,10.121 L173.068,44.258 L180.838,44.258 C183.744,44.258 185.842,44.094 187.131,43.765 C188.818,43.344 190.219,42.629 191.332,41.621 C192.445,40.613 193.353,38.955 194.057,36.646 C194.76,34.338 195.111,31.191 195.111,27.207 C195.111,23.222 194.76,20.164 194.057,18.031 C193.353,15.898 192.369,14.234 191.103,13.039 C189.838,11.844 188.232,11.035 186.287,10.613 C184.834,10.285 181.986,10.121 177.744,10.121 Z" display="inherit" id="path5503"/>
			<path d="M214.412,52.941 L214.412,1.402 L224.818,1.402 L224.818,52.941 Z" display="inherit" id="path5505"/>
			<path d="M234.627,1.402 L245.033,1.402 L245.033,29.316 C245.033,33.746 245.162,36.617 245.42,37.929 C245.865,40.039 246.926,41.732 248.602,43.01 C250.277,44.287 252.568,44.926 255.475,44.926 C258.428,44.926 260.654,44.322 262.154,43.115 C263.654,41.908 264.557,40.426 264.861,38.668 C265.166,36.91 265.318,33.992 265.318,29.914 L265.318,1.402 L275.725,1.402 L275.725,28.472 C275.725,34.66 275.443,39.031 274.881,41.586 C274.318,44.14 273.281,46.297 271.77,48.054 C270.258,49.812 268.236,51.213 265.705,52.256 C263.174,53.299 259.869,53.82 255.791,53.82 C250.869,53.82 247.137,53.252 244.594,52.115 C242.051,50.978 240.041,49.502 238.564,47.685 C237.088,45.869 236.115,43.965 235.646,41.972 C234.967,39.019 234.627,34.66 234.627,28.894 Z" display="inherit" id="path5507"/>
			<path d="M286.588,52.941 L286.588,1.402 L302.162,1.402 L311.514,36.558 L320.76,1.402 L336.369,1.402 L336.369,52.941 L326.701,52.941 L326.701,12.371 L316.471,52.941 L306.451,52.941 L296.256,12.371 L296.256,52.941 Z" display="inherit" id="path5509"/>
		</g>
	</g>
</svg>
