<?xml version="1.0" encoding="utf-8"?>
<!-- Generator: Adobe Illustrator 15.0.2, SVG Export Plug-In . SVG Version: 6.00 Build 0)  -->
<!DOCTYPE svg PUBLIC "-//W3C//DTD SVG 1.1//EN" "http://www.w3.org/Graphics/SVG/1.1/DTD/svg11.dtd">
<svg version="1.1" id="Livello_1" xmlns="http://www.w3.org/2000/svg" xmlns:xlink="http://www.w3.org/1999/xlink" x="0px" y="0px"
	 width="96px" height="96px" viewBox="0 0 96 96" enable-background="new 0 0 96 96" xml:space="preserve">
<g>
	
		<linearGradient id="SVGID_1_" gradientUnits="userSpaceOnUse" x1="820.8223" y1="-1036.8525" x2="820.8223" y2="-1115.9922" gradientTransform="matrix(1 0 0 -1 -772.7988 -1028.5195)">
		<stop  offset="0" style="stop-color:#FFFFFF"/>
		<stop  offset="1" style="stop-color:#9C9C9C"/>
	</linearGradient>
	<path fill="url(#SVGID_1_)" d="M48.023,8.333c-29.42,0-39.711,10.255-39.711,39.57c0,29.313,10.292,39.57,39.711,39.57
		c29.422,0,39.711-10.257,39.711-39.57C87.734,18.588,77.445,8.333,48.023,8.333"/>
</g>
<g transform="translate(0,4.1527853)">
	
		<radialGradient id="SVGID_2_" cx="823.7129" cy="-1084.2104" r="36.3674" gradientTransform="matrix(0.9945 0 0 -0.9909 -771.1049 -1030.6119)" gradientUnits="userSpaceOnUse">
		<stop  offset="0" style="stop-color:#FAD1C1"/>
		<stop  offset="0.3152" style="stop-color:#FAD1C1"/>
		<stop  offset="0.6424" style="stop-color:#FF4532"/>
		<stop  offset="0.8788" style="stop-color:#B31E11"/>
		<stop  offset="1" style="stop-color:#B31E11"/>
	</radialGradient>
	<path fill="url(#SVGID_2_)" d="M48.079,79.769c26.794,0,36.166-9.339,36.166-36.036c0-11.071-1.614-19.154-5.41-24.827
		c-2.539-2.889-5.508-5.417-8.81-7.494c-5.439-2.589-12.643-3.717-21.946-3.717c-10.29,0-18.008,1.379-23.615,4.588
		c-2.092,1.432-4.034,3.052-5.805,4.833c-4.759,5.715-6.748,14.326-6.748,26.617C11.911,70.43,21.283,79.769,48.079,79.769z"/>
	
		<radialGradient id="SVGID_3_" cx="823.623" cy="-1083.3228" r="36.9555" gradientTransform="matrix(0.9945 0 0 -0.9909 -771.1049 -1030.6119)" gradientUnits="userSpaceOnUse">
		<stop  offset="0" style="stop-color:#FFEDC8"/>
		<stop  offset="0.4545" style="stop-color:#FFEDC8"/>
		<stop  offset="1" style="stop-color:#FF2100"/>
	</radialGradient>
	<path fill="url(#SVGID_3_)" fill-opacity="0.5" d="M30.309,35.874c-6.743,0-13.034,1.948-18.369,5.311
		c-0.019,0.831-0.029,1.681-0.029,2.548c0,26.697,9.372,36.038,36.167,36.038c6.441,0,11.874-0.541,16.412-1.732
		c0.433-2.219,0.662-4.509,0.662-6.854C65.152,51.685,49.548,35.874,30.309,35.874z"/>
	
		<linearGradient id="SVGID_4_" gradientUnits="userSpaceOnUse" x1="788.0469" y1="-1065.4399" x2="857.043" y2="-1065.4399" gradientTransform="matrix(1 0 0 -1 -772.7988 -1032.6729)">
		<stop  offset="0" style="stop-color:#2BBFF7"/>
		<stop  offset="1" style="stop-color:#033375"/>
	</linearGradient>
	<path fill="url(#SVGID_4_)" d="M48.079,7.695c-17.973,0-28.107,4.203-32.832,15.027l67.786,35.117
		c0.828-4.039,1.211-8.719,1.211-14.104C84.244,17.033,74.873,7.695,48.079,7.695z"/>
	<g>
		<path fill="#FFFFFF" d="M84.127,48.632C74.425,29.49,32.524,2.282,16.649,19.968c-0.619,1.046-1.17,2.168-1.66,3.368L83.581,54.61
			C83.841,52.74,84.021,50.75,84.127,48.632z"/>
		
			<radialGradient id="SVGID_5_" cx="824.6836" cy="-1080.2744" r="27.807" gradientTransform="matrix(0.9945 0 0 -0.9909 -771.1049 -1030.6119)" gradientUnits="userSpaceOnUse">
			<stop  offset="0" style="stop-color:#FAD1C1"/>
			<stop  offset="0.3152" style="stop-color:#FAD1C1"/>
			<stop  offset="0.6424" style="stop-color:#FF4532"/>
			<stop  offset="0.8788" style="stop-color:#B31E11"/>
			<stop  offset="1" style="stop-color:#B31E11"/>
		</radialGradient>
		<path fill="url(#SVGID_5_)" d="M83.688,53.82C75.956,38.549,39.024,14.514,14.79,23.841c-0.136,0.349-0.266,0.704-0.39,1.064
			l68.62,33.007C83.287,56.615,83.508,55.252,83.688,53.82z"/>
	</g>
	<g>
		<g>
			<g>
				<g>
					<path fill="none" stroke="#FFFFFF" stroke-width="0.25" stroke-opacity="0.54" d="M23.316,49.828
						c14.328-10.118,33.959-7.533,44.112,5.621"/>
					<g>
						<g>
							<path fill="none" stroke="#FFFFFF" stroke-width="0.25" stroke-opacity="0.54" d="M58.516,73.88
								c0-23.83-19.628-43.052-43.884-43.052"/>
							<path fill="none" stroke="#FFFFFF" stroke-width="0.25" stroke-opacity="0.54" d="M20.046,64.666
								c23.352-7.757,35.538-23.606,27.64-45.641"/>
							<path fill="none" stroke="#FFFFFF" stroke-width="0.25" stroke-opacity="0.54" d="M32.23,73.658
								c17.711-16.637,21.323-40.918,4.4-57.555"/>
							<path fill="none" stroke="#FFFFFF" stroke-width="0.25" stroke-opacity="0.54" d="M12.15,40.72
								c22.11,10.793,44.448,11.017,55.28-9.78"/>
						</g>
						<path fill="none" stroke="#FFFFFF" stroke-width="0.25" stroke-opacity="0.54" d="M39.225,16.103
							c-6.657,22.932,8.009,38.559,31.362,44.852"/>
						<path fill="none" stroke="#FFFFFF" stroke-width="0.25" stroke-opacity="0.54" d="M54.566,21.498
							c0,17.087-13.763,30.8-30.797,30.8"/>
						<path fill="none" stroke="#FFFFFF" stroke-width="0.25" stroke-opacity="0.54" d="M26.589,28.243
							c16.923,5.17,26.397,22.032,21.321,37.545"/>
						<path fill="none" stroke="#FFFFFF" stroke-width="0.25" stroke-opacity="0.54" d="M33.245,47.241
							c16.133-7.082,34.973-0.563,41.968,14.39"/>
						<path fill="none" stroke="#FFFFFF" stroke-width="0.25" stroke-opacity="0.54" d="M19.82,34.538
							c17.713-1.125,32.944,11.127,34.071,27.542"/>
						<path fill="none" stroke="#FFFFFF" stroke-width="0.25" stroke-opacity="0.54" d="M45.316,62.753
							c-4.964-16.412-3.724-32.039,12.635-36.758"/>
					</g>
					<path fill="none" stroke="#FFFFFF" stroke-width="0.25" stroke-opacity="0.54" d="M23.995,46.677
						c3.835-6.521,12.071-9.105,18.275-5.844"/>
					<path fill="none" stroke="#FFFFFF" stroke-width="0.25" stroke-opacity="0.54" d="M61.563,60.955
						c-6.092-4.722-7.446-12.928-2.935-18.322"/>
				</g>
				<g>
					<path fill="none" stroke="#FFFFFF" stroke-width="0.25" stroke-opacity="0.54" d="M25.799,35.999
						c17.714,0.787,31.477,14.5,30.688,30.915"/>
					<g>
						<g>
							<path fill="none" stroke="#FFFFFF" stroke-width="0.25" stroke-opacity="0.54" d="M37.757,75.906
								c15.457-18.66,12.75-45.528-6.205-60.142"/>
							<path fill="none" stroke="#FFFFFF" stroke-width="0.25" stroke-opacity="0.54" d="M13.615,45.552
								c23.353,8.096,41.064,4.049,49.303-17.759"/>
							<path fill="none" stroke="#FFFFFF" stroke-width="0.25" stroke-opacity="0.54" d="M17.226,59.832
								c24.592-2.359,42.418-13.039,40.049-36.198"/>
							<path fill="none" stroke="#FFFFFF" stroke-width="0.25" stroke-opacity="0.54" d="M22.979,22.06
								c10.267,21.696,27.528,35.298,49.526,25.63"/>
						</g>
						<path fill="none" stroke="#FFFFFF" stroke-width="0.25" stroke-opacity="0.54" d="M53.104,21.836
							c-9.026,6.293-21.21,19.56,2.367,51.259"/>
						<path fill="none" stroke="#FFFFFF" stroke-width="0.25" stroke-opacity="0.54" d="M68.669,32.739
							c-11.056,13.265-30.911,15.738-44.11,5.508"/>
						<path fill="none" stroke="#FFFFFF" stroke-width="0.25" stroke-opacity="0.54" d="M42.27,21.048
							c9.815,14.165,6.432,33.05-7.783,42.155"/>
						<path fill="none" stroke="#FFFFFF" stroke-width="0.25" stroke-opacity="0.54" d="M35.277,39.821
							c17.147,4.271,27.641,20.459,23.352,36.423"/>
						<path fill="none" stroke="#FFFFFF" stroke-width="0.25" stroke-opacity="0.54" d="M33.02,21.836
							c14.552,9.779,18.501,28.552,8.687,42.042"/>
						<path fill="none" stroke="#FFFFFF" stroke-width="0.25" stroke-opacity="0.54" d="M34.598,59.268
							c6.769-15.849,24.933-23.492,40.728-17.31"/>
					</g>
					<path fill="none" stroke="#FFFFFF" stroke-width="0.25" stroke-opacity="0.54" d="M28.281,33.863
						c7.219-2.81,15.343,0.113,17.938,6.52"/>
					<path fill="none" stroke="#FFFFFF" stroke-width="0.25" stroke-opacity="0.54" d="M48.362,67.699
						c-1.692-7.418,2.596-14.611,9.589-16.072"/>
				</g>
				<g>
					<path fill="none" stroke="#FFFFFF" stroke-width="0.25" stroke-opacity="0.54" d="M30.086,29.593
						c16.471,6.406,24.707,23.831,18.388,39.006"/>
					<g>
						<g>
							<path fill="none" stroke="#FFFFFF" stroke-width="0.25" stroke-opacity="0.54" d="M27.717,71.185
								c20.984-12.703,25.609-35.298,12.748-55.083"/>
							<path fill="none" stroke="#FFFFFF" stroke-width="0.25" stroke-opacity="0.54" d="M15.42,34.874
								c19.292,14.954,37.566,16.639,52.798-1.573"/>
							<path fill="none" stroke="#FFFFFF" stroke-width="0.25" stroke-opacity="0.54" d="M13.727,49.489
								c24.144,5.62,39.599,1.687,45.241-21.021"/>
							<path fill="none" stroke="#FFFFFF" stroke-width="0.25" stroke-opacity="0.54" d="M32.23,15.653
								c2.257,23.719,13.875,42.044,38.018,39.907"/>
						</g>
						<path fill="none" stroke="#FFFFFF" stroke-width="0.25" stroke-opacity="0.54" d="M61.675,27.119
							c-23.804,6.744-23.24,24.505-16.358,46.876"/>
						<path fill="none" stroke="#FFFFFF" stroke-width="0.25" stroke-opacity="0.54" d="M71.715,40.046
							c-15.003,8.993-34.522,5.17-43.547-8.768"/>
						<path fill="none" stroke="#FFFFFF" stroke-width="0.25" stroke-opacity="0.54" d="M50.844,20.711
							c4.512,16.525-5.303,33.162-21.772,37.433"/>
						<path fill="none" stroke="#FFFFFF" stroke-width="0.25" stroke-opacity="0.54" d="M37.757,36.224
							c14.78,9.443,19.065,28.217,9.589,41.818"/>
						<path fill="none" stroke="#FFFFFF" stroke-width="0.25" stroke-opacity="0.54" d="M41.707,18.689
							c10.378,13.715,7.784,32.825-6.092,42.379"/>
						<path fill="none" stroke="#FFFFFF" stroke-width="0.25" stroke-opacity="0.54" d="M30.311,54.435
							c11.734-12.702,31.587-14.276,44.451-3.371"/>
					</g>
					<path fill="none" stroke="#FFFFFF" stroke-width="0.25" stroke-opacity="0.54" d="M33.132,28.468
						c7.785-0.339,14.44,4.945,14.78,11.804"/>
					<path fill="none" stroke="#FFFFFF" stroke-width="0.25" stroke-opacity="0.54" d="M40.577,66.8
						c0.904-7.532,7.333-12.928,14.555-12.142"/>
				</g>
			</g>
			<path fill="none" stroke="#FFFFFF" stroke-width="0.25" stroke-opacity="0.54" d="M60.096,68.937
				c-11.734-30.352-25.609-34.624-46.03-43.841"/>
		</g>
		<g>
			<g>
				<g>
					<path fill="none" stroke="#FFFFFF" stroke-width="0.25" stroke-opacity="0.54" d="M69.458,51.513
						C55.13,41.396,35.5,43.981,25.347,57.132"/>
					<g>
						<g>
							<path fill="none" stroke="#FFFFFF" stroke-width="0.25" stroke-opacity="0.54" d="M34.26,75.568
								c0-23.832,10.154-42.829,34.409-42.829"/>
							<path fill="none" stroke="#FFFFFF" stroke-width="0.25" stroke-opacity="0.54" d="M72.73,66.351
								C49.378,58.595,37.193,42.744,45.09,20.71"/>
							<path fill="none" stroke="#FFFFFF" stroke-width="0.25" stroke-opacity="0.54" d="M60.773,75.343
								c-17.829-16.637-26.175-37.545-9.252-54.295"/>
							<path fill="none" stroke="#FFFFFF" stroke-width="0.25" stroke-opacity="0.54" d="M80.738,42.294
								c-22.11,10.792-44.447,11.017-55.277-9.78"/>
						</g>
						<path fill="none" stroke="#FFFFFF" stroke-width="0.25" stroke-opacity="0.54" d="M54.003,22.509
							c6.658,22.933-8.348,33.836-31.701,40.247"/>
						<path fill="none" stroke="#FFFFFF" stroke-width="0.25" stroke-opacity="0.54" d="M38.209,23.071
							c0,16.975,13.766,30.802,30.799,30.802"/>
						<path fill="none" stroke="#FFFFFF" stroke-width="0.25" stroke-opacity="0.54" d="M66.413,29.929
							C49.49,35.1,40.015,51.849,44.977,67.475"/>
						<path fill="none" stroke="#FFFFFF" stroke-width="0.25" stroke-opacity="0.54" d="M59.645,48.813
							c-16.13-7.08-34.974-0.562-41.969,14.39"/>
						<path fill="none" stroke="#FFFFFF" stroke-width="0.25" stroke-opacity="0.54" d="M73.068,36.112
							c-17.713-1.124-32.942,11.241-34.07,27.542"/>
						<path fill="none" stroke="#FFFFFF" stroke-width="0.25" stroke-opacity="0.54" d="M47.572,64.441
							c4.965-16.414,3.722-32.038-12.637-36.76"/>
					</g>
					<path fill="none" stroke="#FFFFFF" stroke-width="0.25" stroke-opacity="0.54" d="M68.895,48.477
						c-3.834-6.519-12.069-9.106-18.274-5.845"/>
					<path fill="none" stroke="#FFFFFF" stroke-width="0.25" stroke-opacity="0.54" d="M31.214,62.753
						c6.092-4.723,7.447-12.815,2.934-18.324"/>
				</g>
				<g>
					<path fill="none" stroke="#FFFFFF" stroke-width="0.25" stroke-opacity="0.54" d="M66.977,37.573
						C49.266,38.36,35.501,52.075,36.179,68.487"/>
					<g>
						<g>
							<path fill="none" stroke="#FFFFFF" stroke-width="0.25" stroke-opacity="0.54" d="M55.243,77.591
								c-15.455-18.659-18.05-38.106,0.903-52.721"/>
							<path fill="none" stroke="#FFFFFF" stroke-width="0.25" stroke-opacity="0.54" d="M79.159,47.241
								c-23.353,8.095-41.063,4.048-49.299-17.762"/>
							<path fill="none" stroke="#FFFFFF" stroke-width="0.25" stroke-opacity="0.54" d="M75.663,61.518
								C51.068,59.157,33.132,48.477,35.615,25.32"/>
							<path fill="none" stroke="#FFFFFF" stroke-width="0.25" stroke-opacity="0.54" d="M59.645,25.881
								C49.378,47.58,42.384,59.044,20.385,49.377"/>
						</g>
						<path fill="none" stroke="#FFFFFF" stroke-width="0.25" stroke-opacity="0.54" d="M39.789,23.522
							c9.025,6.294,21.208,19.56-2.369,51.261"/>
						<path fill="none" stroke="#FFFFFF" stroke-width="0.25" stroke-opacity="0.54" d="M24.106,34.313
							c11.056,13.377,30.798,15.851,44.112,5.509"/>
						<path fill="none" stroke="#FFFFFF" stroke-width="0.25" stroke-opacity="0.54" d="M50.507,22.733
							c-9.816,14.166-6.432,33.051,7.782,42.156"/>
						<path fill="none" stroke="#FFFFFF" stroke-width="0.25" stroke-opacity="0.54" d="M57.613,41.508
							C40.464,45.779,29.973,62.08,34.259,77.93"/>
						<path fill="none" stroke="#FFFFFF" stroke-width="0.25" stroke-opacity="0.54" d="M55.584,24.646
							c-14.555,9.667-14.217,27.429-4.516,40.918"/>
						<path fill="none" stroke="#FFFFFF" stroke-width="0.25" stroke-opacity="0.54" d="M58.289,60.955
							c-6.768-15.85-24.931-23.604-40.725-17.311"/>
					</g>
					<path fill="none" stroke="#FFFFFF" stroke-width="0.25" stroke-opacity="0.54" d="M64.493,35.55
						c-7.218-2.811-15.343,0.111-17.936,6.52"/>
					<path fill="none" stroke="#FFFFFF" stroke-width="0.25" stroke-opacity="0.54" d="M44.414,69.384
						c1.691-7.418-2.595-14.612-9.589-16.072"/>
				</g>
				<g>
					<path fill="none" stroke="#FFFFFF" stroke-width="0.25" stroke-opacity="0.54" d="M62.803,31.279
						c-16.472,6.294-24.82,23.719-18.502,38.895"/>
					<g>
						<g>
							<path fill="none" stroke="#FFFFFF" stroke-width="0.25" stroke-opacity="0.54" d="M65.171,72.757
								c-20.983-12.7-28.203-31.923-15.229-51.596"/>
							<path fill="none" stroke="#FFFFFF" stroke-width="0.25" stroke-opacity="0.54" d="M73.068,36.112
								c-19.291,15.063-33.167,16.974-48.284-1.124"/>
							<path fill="none" stroke="#FFFFFF" stroke-width="0.25" stroke-opacity="0.54" d="M79.048,51.175
								c-24.028,5.619-39.484,1.686-45.24-21.021"/>
							<path fill="none" stroke="#FFFFFF" stroke-width="0.25" stroke-opacity="0.54" d="M60.318,26.782
								C58.064,50.5,46.897,59.268,22.753,57.132"/>
						</g>
						<path fill="none" stroke="#FFFFFF" stroke-width="0.25" stroke-opacity="0.54" d="M31.102,28.692
							c23.804,6.744,23.239,24.506,16.358,46.876"/>
						<path fill="none" stroke="#FFFFFF" stroke-width="0.25" stroke-opacity="0.54" d="M21.174,41.733
							c15.004,8.992,34.521,5.171,43.547-8.769"/>
						<path fill="none" stroke="#FFFFFF" stroke-width="0.25" stroke-opacity="0.54" d="M42.157,22.509
							c-4.513,16.525,5.303,33.163,21.774,37.435"/>
						<path fill="none" stroke="#FFFFFF" stroke-width="0.25" stroke-opacity="0.54" d="M55.243,38.024
							c-14.891,9.329-19.178,28.103-9.702,41.705"/>
						<path fill="none" stroke="#FFFFFF" stroke-width="0.25" stroke-opacity="0.54" d="M51.184,20.261
							c-10.378,13.94-7.786,32.827,6.092,42.38"/>
						<path fill="none" stroke="#FFFFFF" stroke-width="0.25" stroke-opacity="0.54" d="M62.464,56.009
							c-11.731-12.704-31.587-14.276-44.449-3.373"/>
					</g>
					<path fill="none" stroke="#FFFFFF" stroke-width="0.25" stroke-opacity="0.54" d="M59.758,30.154
						c-7.783-0.337-14.441,4.946-14.781,11.804"/>
					<path fill="none" stroke="#FFFFFF" stroke-width="0.25" stroke-opacity="0.54" d="M52.311,68.377
						c-0.9-7.535-7.333-12.928-14.553-12.143"/>
				</g>
			</g>
			<path fill="none" stroke="#FFFFFF" stroke-width="0.25" stroke-opacity="0.54" d="M12.938,58.144
				c29.559-15.4,43.21-22.032,60.355-1.235"/>
			<path fill="none" stroke="#FFFFFF" stroke-width="0.25" stroke-opacity="0.54" d="M32.794,70.509
				c11.731-30.353,6.317-34.062,26.737-43.278"/>
		</g>
	</g>
	<ellipse fill="#1B171B" cx="47.234" cy="44.543" rx="16.81" ry="15.626"/>
	<ellipse fill="#FFFFFF" cx="32.681" cy="37.124" rx="6.544" ry="6.633"/>
</g>
<rect fill="none" width="96" height="96"/>
</svg>
