<?xml version="1.0" encoding="UTF-8"?>
<!-- Generator: Ikivo Animator 2.2 (build 2.2.0.10) -->
<!DOCTYPE svg PUBLIC "-//W3C//DTD SVG 1.1 Tiny//EN" "http://www.w3.org/Graphics/SVG/1.1/DTD/svg11-tiny.dtd">
<svg baseProfile="tiny" display="inherit" height="120" id="svg" version="1.1" viewBox="0 0 400 120" width="400" xmlns="http://www.w3.org/2000/svg" xmlns:xlink="http://www.w3.org/1999/xlink" xmlns:ev="http://www.w3.org/2001/xml-events">
	<metadata id="metadata59">
    
  </metadata>
	<defs display="inherit" id="defs5">
		<linearGradient id="gr_1153" x1="0.523" x2="0.523" y1="-0.003" y2="0.953">
			<stop id="stop7" offset="0.21" stop-color="#ffffff" stop-opacity="0"/>
			<stop id="stop9" offset="1" stop-color="#cdcdcd" stop-opacity="0.9"/>
		</linearGradient>
		<linearGradient id="gr_1228" x1="0.433" x2="0.433" y1="0.383" y2="1.031">
			<stop id="stop12" offset="0.016" stop-color="#ffffff"/>
			<stop id="stop14" offset="0.197" stop-color="#cdcdcd"/>
			<stop id="stop16" offset="0.607" stop-color="#ffffff"/>
			<stop id="stop18" offset="1" stop-color="#b3b3b3"/>
		</linearGradient>
		<linearGradient id="gr_922" x1="-0.064" x2="0.967" y1="0.917" y2="0.064">
			<stop id="stop5" offset="0.406" stop-color="#f3de36"/>
			<stop id="stop22" offset="0.516" stop-color="#f0f787"/>
			<stop id="stop24" offset="0.767" stop-color="#fac01a"/>
		</linearGradient>
		<linearGradient id="gr_942" y1="0.5" y2="0.5">
			<stop id="stop27" offset="0.02" stop-color="#8a800d"/>
			<stop id="stop29" offset="0.14" stop-color="#d8b9a5"/>
			<stop id="stop31" offset="0.34" stop-color="#ffffff"/>
			<stop id="stop33" offset="0.63" stop-color="#9f940f"/>
			<stop id="stop20" offset="0.78" stop-color="#f7f6eb"/>
			<stop id="stop36" offset="0.85" stop-color="#847a0c"/>
			<stop id="stop38" offset="1" stop-color="#edddd3"/>
		</linearGradient>
		<linearGradient id="gr_946" x1="0.5" x2="0.5" y2="1">
			<stop id="stop41" offset="0.21" stop-color="#ffffff" stop-opacity="0"/>
			<stop id="stop43" offset="1" stop-color="#ffed66" stop-opacity="0.9"/>
		</linearGradient>
		<linearGradient id="gr_1229" x1="0.433" x2="0.433" y1="0.383" y2="1.031">
			<stop offset="0.016" stop-color="#ffffff"/>
			<stop offset="0.197" stop-color="#cdcdcd"/>
			<stop offset="0.607" stop-color="#ffffff"/>
			<stop offset="1" stop-color="#b3b3b3"/>
		</linearGradient>
		<linearGradient id="gr_1230" y1="0.5" y2="0.5">
			<stop offset="0.02" stop-color="#8a800d"/>
			<stop offset="0.14" stop-color="#d8b9a5"/>
			<stop offset="0.34" stop-color="#ffffff"/>
			<stop offset="0.63" stop-color="#9f940f"/>
			<stop offset="0.78" stop-color="#f7f6eb"/>
			<stop offset="0.85" stop-color="#847a0c"/>
			<stop offset="1" stop-color="#edddd3"/>
		</linearGradient>
		<linearGradient id="gr_1231" x1="-0.064" x2="0.967" y1="0.917" y2="0.064">
			<stop offset="0.406" stop-color="#f3de36"/>
			<stop offset="0.516" stop-color="#f0f787"/>
			<stop offset="0.767" stop-color="#fac01a"/>
		</linearGradient>
		<linearGradient id="gr_1232" y1="0.5" y2="0.5">
			<stop offset="0.02" stop-color="#8a800d"/>
			<stop offset="0.14" stop-color="#d8b9a5"/>
			<stop offset="0.34" stop-color="#ffffff"/>
			<stop offset="0.63" stop-color="#9f940f"/>
			<stop offset="0.78" stop-color="#f7f6eb"/>
			<stop offset="0.85" stop-color="#847a0c"/>
			<stop offset="1" stop-color="#edddd3"/>
		</linearGradient>
		<linearGradient id="gr_1233" x1="0.523" x2="0.523" y1="-0.003" y2="0.953">
			<stop offset="0.21" stop-color="#ffffff" stop-opacity="0"/>
			<stop offset="1" stop-color="#cdcdcd" stop-opacity="0.9"/>
		</linearGradient>
	</defs>
	<g display="inherit" id="Iridium">
		<g display="inherit" fill="url(#gr_1233)" font-family="Arial" font-size="72" font-style="normal" font-weight="700" id="mirror_iridium" stroke="none" text-anchor="start" transform="matrix(1,0,0,-1,0.006,118.216)">
			<path d="M70.4,-1.154 C69.057,-1.154 67.837,0.066 67.837,1.408 L67.837,52.94 C67.834,54.282 69.057,55.505 70.4,55.502 L80.806,55.502 C82.148,55.505 83.371,54.282 83.368,52.94 L83.368,1.408 C83.368,0.066 82.148,-1.154 80.806,-1.154 Z" display="inherit" id="path5734-5"/>
			<path d="M90.75,58.375 C89.407,58.372 88.188,59.595 88.188,60.938 L88.188,112.469 C88.185,113.811 89.407,115.034 90.75,115.031 L101.156,115.031 C102.499,115.034 103.722,113.811 103.719,112.469 L103.719,93.563 C105.615,93.604 107.184,93.772 107.656,93.938 C108.288,94.159 109.006,94.617 109.781,95.438 C110.435,96.13 112.319,98.682 114.969,102.656 C114.969,102.667 114.969,102.677 114.969,102.687 L122.5,113.906 C122.967,114.598 123.791,115.033 124.625,115.031 L137.063,115.031 C137.966,115.026 138.844,114.51 139.281,113.719 C139.718,112.928 139.696,111.893 139.219,111.125 L132.938,101.063 L132.969,101.063 C130.44,96.983 128.418,94.134 126.719,92.313 C126.226,91.785 125.624,91.31 125.062,90.813 C127.548,89.849 129.718,88.524 131.375,86.688 C134.08,83.689 135.469,79.755 135.469,75.375 C135.469,71.909 134.578,68.662 132.812,65.875 C131.048,63.091 128.534,61.02 125.531,59.906 C122.454,58.765 118.303,58.375 112.656,58.375 L90.75,58.375 Z M103.719,72.219 L109.281,72.219 C113.448,72.219 116.196,72.311 116.469,72.344 C116.471,72.344 116.529,72.343 116.531,72.344 C117.719,72.553 118.346,72.958 118.844,73.531 C119.302,74.06 119.594,74.77 119.594,76.063 C119.594,77.248 119.363,77.936 119,78.469 C118.609,79.042 118.154,79.423 117.375,79.688 C117.126,79.772 113.767,80.156 108.844,80.156 L103.719,80.156 L103.719,72.219 Z" display="inherit" id="path5732-3" transform="matrix(1,0,0,1,-0.007,-59.529)"/>
			<path d="M142.4,-1.154 C141.057,-1.157 139.834,0.066 139.837,1.408 L139.837,52.94 C139.834,54.282 141.057,55.505 142.4,55.502 L152.806,55.502 C154.148,55.505 155.371,54.282 155.368,52.94 L155.368,1.408 C155.371,0.066 154.148,-1.157 152.806,-1.154 Z" display="inherit" id="path5730-0"/>
			<path d="M162.656,58.375 C161.314,58.372 160.091,59.595 160.094,60.938 L160.094,112.469 C160.091,113.811 161.314,115.034 162.656,115.031 L182.25,115.031 C186.257,115.031 189.563,114.662 192.25,113.813 C195.594,112.741 198.403,111.229 200.563,109.125 C203.292,106.475 205.297,103.046 206.688,99 C207.858,95.593 208.437,91.646 208.438,87.188 C208.437,82.161 207.843,77.843 206.594,74.188 C205.367,70.598 203.555,67.469 201.125,64.906 C198.671,62.319 195.65,60.48 192.219,59.469 C192.219,59.458 192.219,59.448 192.219,59.438 C189.538,58.656 186.101,58.375 181.688,58.375 L162.656,58.375 Z M175.625,72.219 L177.75,72.219 C181.923,72.219 184.775,72.443 185.719,72.656 C185.729,72.656 185.74,72.656 185.75,72.656 C187.34,73.001 188.499,73.579 189.375,74.406 C190.249,75.232 191.016,76.528 191.625,78.375 C192.181,80.061 192.562,82.919 192.562,86.75 C192.562,90.581 192.21,93.516 191.625,95.438 C191,97.488 190.217,98.714 189.625,99.25 C188.879,99.926 187.873,100.469 186.5,100.813 C185.643,101.031 183.649,101.219 180.844,101.219 L175.625,101.219 L175.625,72.219 Z" display="inherit" id="path5728-6" transform="matrix(1,0,0,1,-0.007,-59.529)"/>
			<path d="M214.4,-1.154 C213.057,-1.157 211.834,0.066 211.837,1.408 L211.837,52.94 C211.834,54.282 213.057,55.505 214.4,55.502 L224.806,55.502 C226.148,55.505 227.371,54.282 227.368,52.94 L227.368,1.408 C227.371,0.066 226.148,-1.157 224.806,-1.154 Z" display="inherit" id="path5726-6"/>
			<path d="M234.618,-1.154 C233.276,-1.157 232.053,0.066 232.056,1.408 L232.056,28.908 C232.056,34.778 232.39,39.234 233.15,42.533 C233.15,42.544 233.15,42.554 233.15,42.564 C233.713,44.96 234.9,47.239 236.587,49.314 C238.351,51.484 240.715,53.201 243.556,54.471 C246.674,55.864 250.693,56.377 255.806,56.377 C260.101,56.377 263.703,55.854 266.681,54.627 C269.507,53.462 271.9,51.828 273.712,49.721 C275.527,47.61 276.731,45.051 277.368,42.158 C278.024,39.179 278.275,34.736 278.275,28.471 L278.275,1.408 C278.278,0.066 277.055,-1.157 275.712,-1.154 L265.306,-1.154 C263.963,-1.157 262.74,0.066 262.743,1.408 L262.743,29.908 C262.743,33.931 262.582,36.808 262.337,38.221 C262.137,39.373 261.643,40.252 260.556,41.127 C259.697,41.818 258.066,42.377 255.462,42.377 C252.943,42.377 251.269,41.824 250.15,40.971 C248.936,40.045 248.269,39.015 247.931,37.439 C247.93,37.436 247.932,37.411 247.931,37.408 C247.774,36.595 247.587,33.67 247.587,29.314 L247.587,1.408 C247.59,0.066 246.367,-1.157 245.025,-1.154 L234.618,-1.154 Z" display="inherit" id="path5724-0"/>
			<path d="M286.587,-1.154 C285.245,-1.157 284.022,0.066 284.025,1.408 L284.025,52.94 C284.022,54.282 285.245,55.505 286.587,55.502 L296.243,55.502 C297.586,55.505 298.809,54.282 298.806,52.94 L298.806,32.971 L303.993,53.565 C304.266,54.657 305.336,55.497 306.462,55.502 L316.462,55.502 C317.588,55.497 318.658,54.657 318.931,53.565 L324.15,32.908 L324.15,52.94 C324.147,54.282 325.37,55.505 326.712,55.502 L336.368,55.502 C337.711,55.505 338.934,54.282 338.931,52.94 L338.931,1.408 C338.934,0.066 337.711,-1.157 336.368,-1.154 L320.775,-1.154 C319.656,-1.153 318.59,-0.329 318.306,0.752 L311.493,26.596 L304.618,0.752 C304.334,-0.329 303.268,-1.153 302.15,-1.154 Z" display="inherit" id="path5722-9"/>
		</g>
		<g display="inherit" fill="url(#gr_1232)" font-family="Arial" font-size="72" font-style="normal" font-weight="700" id="bg_iridium" stroke="none" text-anchor="start" transform="matrix(1,0,0,1,0.007,3.451)">
			<path d="M70.4,-1.154 C69.057,-1.154 67.837,0.066 67.837,1.408 L67.837,52.94 C67.834,54.282 69.057,55.505 70.4,55.502 L80.806,55.502 C82.148,55.505 83.371,54.282 83.368,52.94 L83.368,1.408 C83.368,0.066 82.148,-1.154 80.806,-1.154 Z" display="inherit" id="path5734"/>
			<path d="M90.75,58.375 C89.407,58.372 88.188,59.595 88.188,60.938 L88.188,112.469 C88.185,113.811 89.407,115.034 90.75,115.031 L101.156,115.031 C102.499,115.034 103.722,113.811 103.719,112.469 L103.719,93.563 C105.615,93.604 107.184,93.772 107.656,93.938 C108.288,94.159 109.006,94.617 109.781,95.438 C110.435,96.13 112.319,98.682 114.969,102.656 C114.969,102.667 114.969,102.677 114.969,102.687 L122.5,113.906 C122.967,114.598 123.791,115.033 124.625,115.031 L137.063,115.031 C137.966,115.026 138.844,114.51 139.281,113.719 C139.718,112.928 139.696,111.893 139.219,111.125 L132.938,101.063 L132.969,101.063 C130.44,96.983 128.418,94.134 126.719,92.313 C126.226,91.785 125.624,91.31 125.062,90.813 C127.548,89.849 129.718,88.524 131.375,86.688 C134.08,83.689 135.469,79.755 135.469,75.375 C135.469,71.909 134.578,68.662 132.812,65.875 C131.048,63.091 128.534,61.02 125.531,59.906 C122.454,58.765 118.303,58.375 112.656,58.375 L90.75,58.375 Z M103.719,72.219 L109.281,72.219 C113.448,72.219 116.196,72.311 116.469,72.344 C116.471,72.344 116.529,72.343 116.531,72.344 C117.719,72.553 118.346,72.958 118.844,73.531 C119.302,74.06 119.594,74.77 119.594,76.063 C119.594,77.248 119.363,77.936 119,78.469 C118.609,79.042 118.154,79.423 117.375,79.688 C117.126,79.772 113.767,80.156 108.844,80.156 L103.719,80.156 L103.719,72.219 Z" display="inherit" id="path5732" transform="matrix(1,0,0,1,-0.007,-59.529)"/>
			<path d="M142.4,-1.154 C141.057,-1.157 139.834,0.066 139.837,1.408 L139.837,52.94 C139.834,54.282 141.057,55.505 142.4,55.502 L152.806,55.502 C154.148,55.505 155.371,54.282 155.368,52.94 L155.368,1.408 C155.371,0.066 154.148,-1.157 152.806,-1.154 Z" display="inherit" id="path5730"/>
			<path d="M162.656,58.375 C161.314,58.372 160.091,59.595 160.094,60.938 L160.094,112.469 C160.091,113.811 161.314,115.034 162.656,115.031 L182.25,115.031 C186.257,115.031 189.563,114.662 192.25,113.813 C195.594,112.741 198.403,111.229 200.563,109.125 C203.292,106.475 205.297,103.046 206.688,99 C207.858,95.593 208.437,91.646 208.438,87.188 C208.437,82.161 207.843,77.843 206.594,74.188 C205.367,70.598 203.555,67.469 201.125,64.906 C198.671,62.319 195.65,60.48 192.219,59.469 C192.219,59.458 192.219,59.448 192.219,59.438 C189.538,58.656 186.101,58.375 181.688,58.375 L162.656,58.375 Z M175.625,72.219 L177.75,72.219 C181.923,72.219 184.775,72.443 185.719,72.656 C185.729,72.656 185.74,72.656 185.75,72.656 C187.34,73.001 188.499,73.579 189.375,74.406 C190.249,75.232 191.016,76.528 191.625,78.375 C192.181,80.061 192.562,82.919 192.562,86.75 C192.562,90.581 192.21,93.516 191.625,95.438 C191,97.488 190.217,98.714 189.625,99.25 C188.879,99.926 187.873,100.469 186.5,100.813 C185.643,101.031 183.649,101.219 180.844,101.219 L175.625,101.219 L175.625,72.219 Z" display="inherit" id="path5728" transform="matrix(1,0,0,1,-0.007,-59.529)"/>
			<path d="M214.4,-1.154 C213.057,-1.157 211.834,0.066 211.837,1.408 L211.837,52.94 C211.834,54.282 213.057,55.505 214.4,55.502 L224.806,55.502 C226.148,55.505 227.371,54.282 227.368,52.94 L227.368,1.408 C227.371,0.066 226.148,-1.157 224.806,-1.154 Z" display="inherit" id="path5726"/>
			<path d="M234.618,-1.154 C233.276,-1.157 232.053,0.066 232.056,1.408 L232.056,28.908 C232.056,34.778 232.39,39.234 233.15,42.533 C233.15,42.544 233.15,42.554 233.15,42.564 C233.713,44.96 234.9,47.239 236.587,49.314 C238.351,51.484 240.715,53.201 243.556,54.471 C246.674,55.864 250.693,56.377 255.806,56.377 C260.101,56.377 263.703,55.854 266.681,54.627 C269.507,53.462 271.9,51.828 273.712,49.721 C275.527,47.61 276.731,45.051 277.368,42.158 C278.024,39.179 278.275,34.736 278.275,28.471 L278.275,1.408 C278.278,0.066 277.055,-1.157 275.712,-1.154 L265.306,-1.154 C263.963,-1.157 262.74,0.066 262.743,1.408 L262.743,29.908 C262.743,33.931 262.582,36.808 262.337,38.221 C262.137,39.373 261.643,40.252 260.556,41.127 C259.697,41.818 258.066,42.377 255.462,42.377 C252.943,42.377 251.269,41.824 250.15,40.971 C248.936,40.045 248.269,39.015 247.931,37.439 C247.93,37.436 247.932,37.411 247.931,37.408 C247.774,36.595 247.587,33.67 247.587,29.314 L247.587,1.408 C247.59,0.066 246.367,-1.157 245.025,-1.154 L234.618,-1.154 Z" display="inherit" id="path5724"/>
			<path d="M286.587,-1.154 C285.245,-1.157 284.022,0.066 284.025,1.408 L284.025,52.94 C284.022,54.282 285.245,55.505 286.587,55.502 L296.243,55.502 C297.586,55.505 298.809,54.282 298.806,52.94 L298.806,32.971 L303.993,53.565 C304.266,54.657 305.336,55.497 306.462,55.502 L316.462,55.502 C317.588,55.497 318.658,54.657 318.931,53.565 L324.15,32.908 L324.15,52.94 C324.147,54.282 325.37,55.505 326.712,55.502 L336.368,55.502 C337.711,55.505 338.934,54.282 338.931,52.94 L338.931,1.408 C338.934,0.066 337.711,-1.157 336.368,-1.154 L320.775,-1.154 C319.656,-1.153 318.59,-0.329 318.306,0.752 L311.493,26.596 L304.618,0.752 C304.334,-0.329 303.268,-1.153 302.15,-1.154 Z" display="inherit" id="path5722"/>
		</g>
		<g display="inherit" fill="url(#gr_1229)" font-family="Arial" font-size="72" font-style="normal" font-weight="700" id="fg_iridium" stroke="#000000" text-anchor="start" transform="matrix(1,0,0,1,0,3.022)">
			<path d="M70.412,52.941 L70.412,1.402 L80.818,1.402 L80.818,52.941 Z" display="inherit" id="path5497"/>
			<path d="M90.732,52.941 L90.732,1.402 L112.635,1.402 C118.142,1.402 122.144,1.865 124.641,2.791 C127.137,3.717 129.135,5.363 130.635,7.73 C132.135,10.097 132.885,12.804 132.885,15.851 C132.885,19.719 131.748,22.912 129.475,25.431 C127.201,27.951 123.803,29.539 119.279,30.195 C121.529,31.508 123.387,32.949 124.852,34.519 C126.316,36.09 128.291,38.879 130.775,42.886 L137.068,52.941 L124.623,52.941 L117.1,41.726 C114.428,37.719 112.6,35.193 111.615,34.15 C110.631,33.107 109.588,32.392 108.486,32.006 C107.385,31.619 105.639,31.426 103.248,31.426 L101.139,31.426 L101.139,52.941 Z M101.139,23.199 L108.838,23.199 C113.83,23.199 116.947,22.988 118.189,22.566 C119.432,22.144 120.404,21.418 121.107,20.386 C121.81,19.355 122.162,18.066 122.162,16.519 C122.162,14.785 121.699,13.385 120.773,12.318 C119.848,11.252 118.541,10.578 116.853,10.297 C116.01,10.179 113.478,10.121 109.26,10.121 L101.139,10.121 Z" display="inherit" id="path5499"/>
			<path d="M142.412,52.941 L142.412,1.402 L152.818,1.402 L152.818,52.941 Z" display="inherit" id="path5501"/>
			<path d="M162.662,1.402 L181.682,1.402 C185.971,1.402 189.24,1.73 191.49,2.386 C194.514,3.277 197.103,4.859 199.26,7.133 C201.416,9.406 203.057,12.189 204.182,15.482 C205.307,18.775 205.869,22.836 205.869,27.664 C205.869,31.906 205.342,35.562 204.287,38.633 C202.998,42.383 201.158,45.418 198.768,47.738 C196.963,49.496 194.525,50.867 191.455,51.851 C189.158,52.578 186.088,52.941 182.244,52.941 L162.662,52.941 Z M173.068,10.121 L173.068,44.258 L180.838,44.258 C183.744,44.258 185.842,44.094 187.131,43.765 C188.818,43.344 190.219,42.629 191.332,41.621 C192.445,40.613 193.353,38.955 194.057,36.646 C194.76,34.338 195.111,31.191 195.111,27.207 C195.111,23.222 194.76,20.164 194.057,18.031 C193.353,15.898 192.369,14.234 191.103,13.039 C189.838,11.844 188.232,11.035 186.287,10.613 C184.834,10.285 181.986,10.121 177.744,10.121 Z" display="inherit" id="path5503"/>
			<path d="M214.412,52.941 L214.412,1.402 L224.818,1.402 L224.818,52.941 Z" display="inherit" id="path5505"/>
			<path d="M234.627,1.402 L245.033,1.402 L245.033,29.316 C245.033,33.746 245.162,36.617 245.42,37.929 C245.865,40.039 246.926,41.732 248.602,43.01 C250.277,44.287 252.568,44.926 255.475,44.926 C258.428,44.926 260.654,44.322 262.154,43.115 C263.654,41.908 264.557,40.426 264.861,38.668 C265.166,36.91 265.318,33.992 265.318,29.914 L265.318,1.402 L275.725,1.402 L275.725,28.472 C275.725,34.66 275.443,39.031 274.881,41.586 C274.318,44.14 273.281,46.297 271.77,48.054 C270.258,49.812 268.236,51.213 265.705,52.256 C263.174,53.299 259.869,53.82 255.791,53.82 C250.869,53.82 247.137,53.252 244.594,52.115 C242.051,50.978 240.041,49.502 238.564,47.685 C237.088,45.869 236.115,43.965 235.646,41.972 C234.967,39.019 234.627,34.66 234.627,28.894 Z" display="inherit" id="path5507"/>
			<path d="M286.588,52.941 L286.588,1.402 L302.162,1.402 L311.514,36.558 L320.76,1.402 L336.369,1.402 L336.369,52.941 L326.701,52.941 L326.701,12.371 L316.471,52.941 L306.451,52.941 L296.256,12.371 L296.256,52.941 Z" display="inherit" id="path5509"/>
		</g>
	</g>
	<g id="ikivo_ctrl_anim">
		<animate accumulate="none" attributeName="display" begin="0" calcMode="discrete" fill="remove" id="Default" keyTimes="0;1" repeatCount="1" values="inherit;inherit"/>
	</g>
</svg>
