<?xml version="1.0" encoding="UTF-8"?>
<!-- Generator: Ikivo Animator 2.2 (build 2.2.0.10) -->
<!DOCTYPE svg PUBLIC "-//W3C//DTD SVG 1.1 Tiny//EN" "http://www.w3.org/Graphics/SVG/1.1/DTD/svg11-tiny.dtd">
<svg baseProfile="tiny" display="inherit" height="120" id="svg" version="1.1" viewBox="0 0 200 120" width="200" xmlns="http://www.w3.org/2000/svg" xmlns:xlink="http://www.w3.org/1999/xlink" xmlns:ev="http://www.w3.org/2001/xml-events">
	<defs display="inherit" id="defs5">
		<linearGradient id="gr_922" x1="-0.064" x2="0.967" y1="0.917" y2="0.064">
			<stop offset="0.406" stop-color="#f3de36"/>
			<stop offset="0.516" stop-color="#f0f787"/>
			<stop offset="0.767" stop-color="#fac01a"/>
		</linearGradient>
		<linearGradient id="gr_942" y1="0.5" y2="0.5">
			<stop offset="0.02" stop-color="#8a800d"/>
			<stop offset="0.14" stop-color="#d8b9a5"/>
			<stop offset="0.34" stop-color="#ffffff"/>
			<stop offset="0.63" stop-color="#9f940f"/>
			<stop offset="0.78" stop-color="#f7f6eb"/>
			<stop offset="0.85" stop-color="#847a0c"/>
			<stop offset="1" stop-color="#edddd3"/>
		</linearGradient>
		<linearGradient id="gr_946" x1="0.5" x2="0.5" y2="1">
			<stop offset="0.21" stop-color="#ffffff" stop-opacity="0"/>
			<stop offset="1" stop-color="#ffed66" stop-opacity="0.9"/>
		</linearGradient>
	</defs>
	<g display="inherit" id="Gold" transform="matrix(1,0,0,1,0,0)">
		<g display="inherit" fill="#000000" fill-opacity="0.8" id="Ombra" stroke="none" transform="matrix(2.709,0,0,2.709,-6.555,-7.92)">
			<path d="M13.5,3.938 C11.519,3.938 9.943,4.106 8.594,4.781 C6.993,5.528 5.732,6.719 4.875,8.219 C4.023,9.709 3.594,11.422 3.594,13.375 C3.594,15.149 4.017,16.815 4.75,18.281 C5.494,19.769 6.572,20.904 7.969,21.656 C9.407,22.431 11.202,22.719 13.219,22.719 C14.932,22.719 16.396,22.514 17.656,22.094 C18.908,21.677 20.308,20.942 21.906,19.844 C22.137,19.69 22.277,19.433 22.281,19.156 L22.281,12.125 C22.282,11.901 22.193,11.686 22.035,11.528 C21.876,11.369 21.661,11.281 21.438,11.281 L13.5,11.281 C13.276,11.281 13.061,11.369 12.903,11.528 C12.744,11.686 12.656,11.901 12.656,12.125 L12.656,15.5 C12.656,15.724 12.744,15.939 12.903,16.097 C13.061,16.256 13.276,16.344 13.5,16.344 L16.125,16.344 L16.125,16.531 C15.666,16.768 15.179,16.991 14.844,17.125 C14.5,17.263 13.994,17.344 13.5,17.344 C12.526,17.344 11.815,17.043 11.313,16.469 C10.858,15.95 10.594,14.943 10.594,13.188 C10.594,11.635 10.867,10.572 11.313,10.063 C11.84,9.459 12.433,9.187 13.406,9.188 C14.014,9.188 14.493,9.288 14.719,9.469 C15.095,9.769 15.367,10.164 15.5,10.563 C15.633,10.969 16.05,11.211 16.469,11.125 L21.375,10.25 C21.609,10.207 21.814,10.067 21.939,9.865 C22.064,9.662 22.098,9.416 22.031,9.188 C21.71,8.011 21.16,7.02 20.5,6.25 C19.87,5.515 19.074,4.788 17.906,4.438 C16.824,4.113 15.39,3.938 13.5,3.938 Z" display="inherit" id="O_G" stroke="none" stroke-dasharray="none" stroke-linejoin="bevel" stroke-miterlimit="4" stroke-width="0.65"/>
			<path d="M32.344,3.813 C29.492,3.813 27.064,4.544 25.406,6.313 C23.787,8.04 22.969,10.408 22.969,13.281 C22.969,15.302 23.246,17.177 24.156,18.656 C24.995,20.02 26.089,21.147 27.531,21.813 C28.933,22.459 30.601,22.75 32.531,22.75 C34.491,22.75 36.249,22.378 37.594,21.594 C38.918,20.821 40.006,19.619 40.75,18.344 C41.552,16.968 41.812,15.209 41.812,13.188 C41.812,10.314 40.989,7.926 39.344,6.281 C37.699,4.636 35.308,3.813 32.344,3.813 Z M32.438,9.406 C33.285,9.406 33.63,9.63 34.219,10.219 C34.628,10.628 34.938,11.535 34.938,12.969 C34.938,14.709 34.543,15.909 34.25,16.25 C33.843,16.724 33.285,17.031 32.438,17.031 C31.59,17.031 31.123,16.779 30.563,16.219 C30.181,15.837 29.844,14.818 29.844,13.281 C29.844,11.745 30.22,10.562 30.563,10.219 C31.123,9.659 31.59,9.406 32.438,9.406 Z" display="inherit" id="O_O" stroke="none" stroke-dasharray="none" stroke-linejoin="bevel" stroke-miterlimit="4" stroke-width="0.65"/>
			<path d="M59.375,4.063 C59.134,4.059 58.901,4.153 58.73,4.324 C58.56,4.495 58.465,4.727 58.469,4.969 L58.469,21.594 C58.465,21.835 58.56,22.068 58.73,22.238 C58.901,22.409 59.134,22.503 59.375,22.5 L67.031,22.5 C68.127,22.5 69.17,22.262 70.344,21.969 C70.365,21.959 70.386,21.949 70.406,21.938 C71.404,21.605 72.284,21.078 73.031,20.438 C73.865,19.722 74.479,18.724 74.906,17.656 C75.364,16.512 75.563,14.997 75.563,13.188 C75.563,12.06 75.439,10.9 75.125,9.75 C74.816,8.619 74.384,7.59 73.594,6.688 C72.873,5.864 72.063,5.138 70.938,4.688 C69.832,4.245 68.551,4.063 66.938,4.063 L59.375,4.063 Z M65.406,9.625 L65.75,9.625 C66.931,9.625 67.664,9.945 68.031,10.313 C68.255,10.536 68.625,11.644 68.625,13.281 C68.625,14.596 68.492,15.454 68.344,15.75 C68.085,16.268 67.923,16.477 67.625,16.656 C67.448,16.762 66.765,16.906 65.75,16.906 L65.406,16.906 L65.406,9.625 Z" display="inherit" id="O_D" stroke="none" stroke-dasharray="none" stroke-linejoin="bevel" stroke-miterlimit="4" stroke-width="0.65"/>
			<path d="M43.656,4.031 C43.215,4.125 42.901,4.517 42.906,4.969 L42.906,21.469 C42.911,21.984 43.328,22.401 43.844,22.406 L56.969,22.406 C57.484,22.401 57.901,21.984 57.906,21.469 L57.906,17.438 C57.901,16.922 57.484,16.505 56.969,16.5 L49.906,16.5 L49.906,4.969 C49.901,4.453 49.484,4.036 48.969,4.031 L43.844,4.031 C43.781,4.025 43.719,4.025 43.656,4.031 Z" display="inherit" id="O_L" stroke="none" stroke-dasharray="none" stroke-linejoin="bevel" stroke-miterlimit="4" stroke-width="0.65"/>
		</g>
		<g display="inherit" fill="url(#gr_942)" id="GoldBg" stroke="none" transform="matrix(2.709,0,0,2.709,-8.055,-9.42)">
			<path d="M13.5,3.938 C11.519,3.938 9.943,4.106 8.594,4.781 C6.993,5.528 5.732,6.719 4.875,8.219 C4.023,9.709 3.594,11.422 3.594,13.375 C3.594,15.149 4.017,16.815 4.75,18.281 C5.494,19.769 6.572,20.904 7.969,21.656 C9.407,22.431 11.202,22.719 13.219,22.719 C14.932,22.719 16.396,22.514 17.656,22.094 C18.908,21.677 20.308,20.942 21.906,19.844 C22.137,19.69 22.277,19.433 22.281,19.156 L22.281,12.125 C22.282,11.901 22.193,11.686 22.035,11.528 C21.876,11.369 21.661,11.281 21.438,11.281 L13.5,11.281 C13.276,11.281 13.061,11.369 12.903,11.528 C12.744,11.686 12.656,11.901 12.656,12.125 L12.656,15.5 C12.656,15.724 12.744,15.939 12.903,16.097 C13.061,16.256 13.276,16.344 13.5,16.344 L16.125,16.344 L16.125,16.531 C15.666,16.768 15.179,16.991 14.844,17.125 C14.5,17.263 13.994,17.344 13.5,17.344 C12.526,17.344 11.815,17.043 11.313,16.469 C10.858,15.95 10.594,14.943 10.594,13.188 C10.594,11.635 10.867,10.572 11.313,10.063 C11.84,9.459 12.433,9.187 13.406,9.188 C14.014,9.188 14.493,9.288 14.719,9.469 C15.095,9.769 15.367,10.164 15.5,10.563 C15.633,10.969 16.05,11.211 16.469,11.125 L21.375,10.25 C21.609,10.207 21.814,10.067 21.939,9.865 C22.064,9.662 22.098,9.416 22.031,9.188 C21.71,8.011 21.16,7.02 20.5,6.25 C19.87,5.515 19.074,4.788 17.906,4.438 C16.824,4.113 15.39,3.938 13.5,3.938 Z" display="inherit" id="bg_G" stroke="none" stroke-dasharray="none" stroke-linejoin="bevel" stroke-miterlimit="4" stroke-width="0.65"/>
			<path d="M32.344,3.813 C29.492,3.813 27.064,4.544 25.406,6.313 C23.787,8.04 22.969,10.408 22.969,13.281 C22.969,15.302 23.246,17.177 24.156,18.656 C24.995,20.02 26.089,21.147 27.531,21.813 C28.933,22.459 30.601,22.75 32.531,22.75 C34.491,22.75 36.249,22.378 37.594,21.594 C38.918,20.821 40.006,19.619 40.75,18.344 C41.552,16.968 41.812,15.209 41.812,13.188 C41.812,10.314 40.989,7.926 39.344,6.281 C37.699,4.636 35.308,3.813 32.344,3.813 Z M32.438,9.406 C33.285,9.406 33.63,9.63 34.219,10.219 C34.628,10.628 34.938,11.535 34.938,12.969 C34.938,14.709 34.543,15.909 34.25,16.25 C33.843,16.724 33.285,17.031 32.438,17.031 C31.59,17.031 31.123,16.779 30.563,16.219 C30.181,15.837 29.844,14.818 29.844,13.281 C29.844,11.745 30.22,10.562 30.563,10.219 C31.123,9.659 31.59,9.406 32.438,9.406 Z" display="inherit" id="bg_O" stroke="none" stroke-dasharray="none" stroke-linejoin="bevel" stroke-miterlimit="4" stroke-width="0.65"/>
			<path d="M59.375,4.063 C59.134,4.059 58.901,4.153 58.73,4.324 C58.56,4.495 58.465,4.727 58.469,4.969 L58.469,21.594 C58.465,21.835 58.56,22.068 58.73,22.238 C58.901,22.409 59.134,22.503 59.375,22.5 L67.031,22.5 C68.127,22.5 69.17,22.262 70.344,21.969 C70.365,21.959 70.386,21.949 70.406,21.938 C71.404,21.605 72.284,21.078 73.031,20.438 C73.865,19.722 74.479,18.724 74.906,17.656 C75.364,16.512 75.563,14.997 75.563,13.188 C75.563,12.06 75.439,10.9 75.125,9.75 C74.816,8.619 74.384,7.59 73.594,6.688 C72.873,5.864 72.063,5.138 70.938,4.688 C69.832,4.245 68.551,4.063 66.938,4.063 L59.375,4.063 Z M65.406,9.625 L65.75,9.625 C66.931,9.625 67.664,9.945 68.031,10.313 C68.255,10.536 68.625,11.644 68.625,13.281 C68.625,14.596 68.492,15.454 68.344,15.75 C68.085,16.268 67.923,16.477 67.625,16.656 C67.448,16.762 66.765,16.906 65.75,16.906 L65.406,16.906 L65.406,9.625 Z" display="inherit" id="bg_D" stroke="none" stroke-dasharray="none" stroke-linejoin="bevel" stroke-miterlimit="4" stroke-width="0.65"/>
			<path d="M43.656,4.031 C43.215,4.125 42.901,4.517 42.906,4.969 L42.906,21.469 C42.911,21.984 43.328,22.401 43.844,22.406 L56.969,22.406 C57.484,22.401 57.901,21.984 57.906,21.469 L57.906,17.438 C57.901,16.922 57.484,16.505 56.969,16.5 L49.906,16.5 L49.906,4.969 C49.901,4.453 49.484,4.036 48.969,4.031 L43.844,4.031 C43.781,4.025 43.719,4.025 43.656,4.031 Z" display="inherit" id="bg_L" stroke="none" stroke-dasharray="none" stroke-linejoin="bevel" stroke-miterlimit="4" stroke-width="0.65"/>
		</g>
		<g display="inherit" fill="url(#gr_922)" id="GoldFg" stroke="none" transform="matrix(2.709,0,0,2.709,-8.022,-9.371)">
			<g display="inherit" id="GoldFg_1" stroke="none" transform="matrix(0.966,0,0,0.966,28.25,-12.189)">
				<path d="M-15.266,28.756 L-15.266,25.156 L-7.066,25.156 L-7.066,32.456 C-8.666,33.556 -10.066,34.256 -11.266,34.656 C-12.466,35.056 -13.866,35.256 -15.566,35.256 C-17.566,35.256 -19.266,34.956 -20.566,34.256 C-21.866,33.556 -22.866,32.556 -23.566,31.156 C-24.266,29.756 -24.666,28.156 -24.666,26.456 C-24.666,24.556 -24.266,22.956 -23.466,21.556 C-22.666,20.156 -21.466,19.056 -19.966,18.356 C-18.766,17.756 -17.266,17.556 -15.266,17.556 C-13.366,17.556 -11.966,17.756 -10.966,18.056 C-9.966,18.356 -9.266,18.956 -8.666,19.656 C-8.066,20.356 -7.566,21.256 -7.266,22.356 L-12.366,23.256 C-12.566,22.656 -12.966,22.156 -13.466,21.756 C-13.966,21.356 -14.666,21.256 -15.366,21.256 C-16.566,21.256 -17.466,21.656 -18.166,22.456 C-18.866,23.256 -19.166,24.556 -19.166,26.256 C-19.166,28.156 -18.866,29.456 -18.166,30.256 C-17.466,31.056 -16.466,31.456 -15.266,31.456 C-14.666,31.456 -14.066,31.356 -13.566,31.156 C-13.066,30.956 -12.366,30.656 -11.666,30.256 L-11.666,28.656 L-15.266,28.656 L-15.266,28.756 Z" display="inherit" id="fg_G" stroke="none" stroke-dasharray="none" stroke-linejoin="bevel" stroke-miterlimit="4" stroke-width="0.65"/>
				<path d="M-4.566,26.356 C-4.566,23.556 -3.766,21.356 -2.266,19.756 C-0.766,18.156 1.434,17.456 4.234,17.456 C7.134,17.456 9.334,18.256 10.834,19.756 C12.334,21.256 13.134,23.456 13.134,26.256 C13.134,28.256 12.834,29.956 12.134,31.156 C11.434,32.356 10.434,33.456 9.234,34.156 C8.034,34.856 6.334,35.256 4.434,35.256 C2.534,35.256 0.934,34.956 -0.366,34.356 C-1.666,33.756 -2.666,32.756 -3.466,31.456 C-4.266,30.156 -4.566,28.356 -4.566,26.356 Z M0.734,26.356 C0.734,28.056 1.034,29.356 1.734,30.056 C2.434,30.756 3.234,31.156 4.334,31.156 C5.434,31.156 6.334,30.756 6.934,30.056 C7.534,29.356 7.834,27.956 7.834,26.056 C7.834,24.456 7.534,23.256 6.834,22.556 C6.134,21.856 5.434,21.456 4.334,21.456 C3.234,21.456 2.434,21.856 1.734,22.556 C1.034,23.256 0.734,24.656 0.734,26.356 Z" display="inherit" id="fg_O" stroke="none" stroke-dasharray="none" stroke-linejoin="bevel" stroke-miterlimit="4" stroke-width="0.65"/>
				<path d="M32.134,17.756 L40.034,17.756 C41.634,17.756 42.834,17.956 43.834,18.356 C44.834,18.756 45.534,19.356 46.234,20.156 C46.934,20.956 47.334,21.856 47.634,22.956 C47.934,24.056 48.034,25.156 48.034,26.256 C48.034,28.056 47.834,29.556 47.434,30.556 C47.034,31.556 46.434,32.456 45.734,33.056 C45.034,33.656 44.234,34.156 43.334,34.456 C42.134,34.756 41.134,34.956 40.134,34.956 L32.234,34.956 L32.234,17.756 L32.134,17.756 Z M37.534,21.656 L37.534,31.056 L38.834,31.056 C39.934,31.056 40.734,30.956 41.234,30.656 C41.734,30.356 42.034,29.956 42.334,29.356 C42.634,28.756 42.734,27.756 42.734,26.356 C42.734,24.556 42.434,23.256 41.834,22.656 C41.234,22.056 40.234,21.656 38.834,21.656 L37.534,21.656 L37.534,21.656 Z" display="inherit" id="fg_D" stroke="none" stroke-dasharray="none" stroke-linejoin="bevel" stroke-miterlimit="4" stroke-width="0.65"/>
				<path d="M16.134,17.756 L21.434,17.756 L21.434,30.656 L29.734,30.656 L29.734,34.856 L16.134,34.856 L16.134,17.756 Z" display="inherit" id="fg_L" stroke="none" stroke-dasharray="none" stroke-linejoin="bevel" stroke-miterlimit="4" stroke-width="0.65" transform="matrix(1,0,0,1,0,0)"/>
			</g>
		</g>
		<g display="inherit" fill="url(#gr_946)" fill-opacity="0.7" id="Riflesso" stroke="none" transform="matrix(2.709,0,0,-2.709,-7.555,118.056)">
			<path d="M13.5,3.938 C11.519,3.938 9.943,4.106 8.594,4.781 C6.993,5.528 5.732,6.719 4.875,8.219 C4.023,9.709 3.594,11.422 3.594,13.375 C3.594,15.149 4.017,16.815 4.75,18.281 C5.494,19.769 6.572,20.904 7.969,21.656 C9.407,22.431 11.202,22.719 13.219,22.719 C14.932,22.719 16.396,22.514 17.656,22.094 C18.908,21.677 20.308,20.942 21.906,19.844 C22.137,19.69 22.277,19.433 22.281,19.156 L22.281,12.125 C22.282,11.901 22.193,11.686 22.035,11.528 C21.876,11.369 21.661,11.281 21.438,11.281 L13.5,11.281 C13.276,11.281 13.061,11.369 12.903,11.528 C12.744,11.686 12.656,11.901 12.656,12.125 L12.656,15.5 C12.656,15.724 12.744,15.939 12.903,16.097 C13.061,16.256 13.276,16.344 13.5,16.344 L16.125,16.344 L16.125,16.531 C15.666,16.768 15.179,16.991 14.844,17.125 C14.5,17.263 13.994,17.344 13.5,17.344 C12.526,17.344 11.815,17.043 11.313,16.469 C10.858,15.95 10.594,14.943 10.594,13.188 C10.594,11.635 10.867,10.572 11.313,10.063 C11.84,9.459 12.433,9.187 13.406,9.188 C14.014,9.188 14.493,9.288 14.719,9.469 C15.095,9.769 15.367,10.164 15.5,10.563 C15.633,10.969 16.05,11.211 16.469,11.125 L21.375,10.25 C21.609,10.207 21.814,10.067 21.939,9.865 C22.064,9.662 22.098,9.416 22.031,9.188 C21.71,8.011 21.16,7.02 20.5,6.25 C19.87,5.515 19.074,4.788 17.906,4.438 C16.824,4.113 15.39,3.938 13.5,3.938 Z" display="inherit" id="O_G_1" stroke="none" stroke-dasharray="none" stroke-linejoin="bevel" stroke-miterlimit="4" stroke-width="0.65"/>
			<path d="M32.344,3.813 C29.492,3.813 27.064,4.544 25.406,6.313 C23.787,8.04 22.969,10.408 22.969,13.281 C22.969,15.302 23.246,17.177 24.156,18.656 C24.995,20.02 26.089,21.147 27.531,21.813 C28.933,22.459 30.601,22.75 32.531,22.75 C34.491,22.75 36.249,22.378 37.594,21.594 C38.918,20.821 40.006,19.619 40.75,18.344 C41.552,16.968 41.812,15.209 41.812,13.188 C41.812,10.314 40.989,7.926 39.344,6.281 C37.699,4.636 35.308,3.813 32.344,3.813 Z M32.438,9.406 C33.285,9.406 33.63,9.63 34.219,10.219 C34.628,10.628 34.938,11.535 34.938,12.969 C34.938,14.709 34.543,15.909 34.25,16.25 C33.843,16.724 33.285,17.031 32.438,17.031 C31.59,17.031 31.123,16.779 30.563,16.219 C30.181,15.837 29.844,14.818 29.844,13.281 C29.844,11.745 30.22,10.562 30.563,10.219 C31.123,9.659 31.59,9.406 32.438,9.406 Z" display="inherit" id="O_O_1" stroke="none" stroke-dasharray="none" stroke-linejoin="bevel" stroke-miterlimit="4" stroke-width="0.65"/>
			<path d="M59.375,4.063 C59.134,4.059 58.901,4.153 58.73,4.324 C58.56,4.495 58.465,4.727 58.469,4.969 L58.469,21.594 C58.465,21.835 58.56,22.068 58.73,22.238 C58.901,22.409 59.134,22.503 59.375,22.5 L67.031,22.5 C68.127,22.5 69.17,22.262 70.344,21.969 C70.365,21.959 70.386,21.949 70.406,21.938 C71.404,21.605 72.284,21.078 73.031,20.438 C73.865,19.722 74.479,18.724 74.906,17.656 C75.364,16.512 75.563,14.997 75.563,13.188 C75.563,12.06 75.439,10.9 75.125,9.75 C74.816,8.619 74.384,7.59 73.594,6.688 C72.873,5.864 72.063,5.138 70.938,4.688 C69.832,4.245 68.551,4.063 66.938,4.063 L59.375,4.063 Z M65.406,9.625 L65.75,9.625 C66.931,9.625 67.664,9.945 68.031,10.313 C68.255,10.536 68.625,11.644 68.625,13.281 C68.625,14.596 68.492,15.454 68.344,15.75 C68.085,16.268 67.923,16.477 67.625,16.656 C67.448,16.762 66.765,16.906 65.75,16.906 L65.406,16.906 L65.406,9.625 Z" display="inherit" id="O_D_1" stroke="none" stroke-dasharray="none" stroke-linejoin="bevel" stroke-miterlimit="4" stroke-width="0.65"/>
			<path d="M43.656,4.031 C43.215,4.125 42.901,4.517 42.906,4.969 L42.906,21.469 C42.911,21.984 43.328,22.401 43.844,22.406 L56.969,22.406 C57.484,22.401 57.901,21.984 57.906,21.469 L57.906,17.438 C57.901,16.922 57.484,16.505 56.969,16.5 L49.906,16.5 L49.906,4.969 C49.901,4.453 49.484,4.036 48.969,4.031 L43.844,4.031 C43.781,4.025 43.719,4.025 43.656,4.031 Z" display="inherit" id="O_L_1" stroke="none" stroke-dasharray="none" stroke-linejoin="bevel" stroke-miterlimit="4" stroke-width="0.65"/>
		</g>
	</g>
</svg>
