<?xml version="1.0" encoding="UTF-8"?>
<!-- Generator: Ikivo Animator 2.2 (build 2.2.0.10) -->
<!DOCTYPE svg PUBLIC "-//W3C//DTD SVG 1.1 Tiny//EN" "http://www.w3.org/Graphics/SVG/1.1/DTD/svg11-tiny.dtd">
<svg display="inherit" height="235" id="Livello_1" version="1.1" viewBox="0 0 240 235" width="240" xml:space="preserve" baseProfile="tiny" xmlns="http://www.w3.org/2000/svg" xmlns:xlink="http://www.w3.org/1999/xlink" xmlns:ev="http://www.w3.org/2001/xml-events">
	<metadata id="metadata196"/>
	<defs display="inherit" id="defs194">
		<linearGradient id="gr_13" x1="0.5" x2="0.5" y1="1">
			<stop id="stop3157" offset="0.148" stop-color="#ffffff" stop-opacity="0"/>
			<stop id="stop3159" offset="1" stop-color="#e1101a" stop-opacity="0.9"/>
		</linearGradient>
		<linearGradient id="gr_1042" x1="0.5" x2="0.5" y1="0.777">
			<stop id="stop3162" offset="0.148" stop-color="#ffffff" stop-opacity="0"/>
			<stop id="stop3164" offset="1" stop-color="#000000" stop-opacity="0.9"/>
		</linearGradient>
		<linearGradient id="gr_1045" x1="0.5" x2="0.5" y1="1">
			<stop id="stop3167" offset="0.21" stop-color="#ffffff" stop-opacity="0"/>
			<stop id="stop3169" offset="1" stop-color="#000000" stop-opacity="0.9"/>
		</linearGradient>
	</defs>
	<rect display="inherit" fill="none" height="235" id="rect3" width="240"/>
	<g display="inherit" id="GuardianEdEffetti" transform="matrix(0.243,0,0,0.243,24.276,153.044)">
		<g id="ikivo_ctrl_anim">
			<animate accumulate="none" attributeName="display" begin="0" calcMode="discrete" fill="remove" id="Default" keyTimes="0;1" repeatCount="1" values="inherit;inherit"/>
		</g>
		<g display="inherit" fill="url(#gr_1045)" id="RiflessoGuardian" transform="matrix(4.21,0,0,4.21,-115.297,-656.11)">
			<path d="M45.3,180.8 C46.2,180.8 47,180.9 47.7,181.2 C48.4,181.5 49,181.9 49.5,182.4 C50.6,183.5 51.1,184.9 51.1,186.6 L51.1,210.1 L34.4,210.1 C32.6,210.1 31.2,209.6 30.1,208.5 C29,207.4 28.5,206 28.5,204.3 L28.5,197 C28.5,192.9 29,190.2 30.1,189.1 C31.2,188 33.7,187.5 37.9,187.5 L45.3,187.5 L45.3,186.6 L28.6,180.8 L28.6,180.8 L45.3,180.8 Z M34.4,193.4 L34.4,204.3 L45.3,204.3 L45.3,193.4 L34.4,193.4 Z" display="inherit" fill="url(#gr_13)" id="_g"/>
			<path d="M54.4,210 L54.4,198.7 L54.3,197.2 L54.3,195.7 C54.3,193.1 54.6,191.2 55.1,189.9 C55.9,188.1 57.5,187.3 59.8,187.3 L61.8,187.3 L63.8,187.3 L71.2,187.3 C73,187.3 74.4,187.8 75.4,188.9 C76.5,190 77,191.4 77,193.1 L77,209.9 L71.2,209.9 L71.2,193.1 L60.3,193.1 L60.3,209.9 L54.4,210 L54.4,210 Z" display="inherit" id="_u"/>
			<path d="M81.6,189.3 C82.6,188.1 84,187.5 86,187.5 L102.7,187.5 L102.7,198.7 L102.7,200 L102.8,201.4 C102.8,204.1 102.5,206.1 101.9,207.3 C101,209.1 99.3,210 96.8,210 L80,210 L80,204.2 L96.8,204.2 L96.8,201.5 L85.9,201.5 C83.6,201.5 82,200.8 81.1,199.3 C80.4,198.1 80,196.4 80,194 C80.2,192.1 80.6,190.5 81.6,189.3 Z M86,193.4 L86,195.8 L96.9,195.8 L96.9,193.4 L86,193.4 Z" display="inherit" id="_a1"/>
			<path d="M128.5,199 L128.5,202.6 C128.5,204.9 128.1,206.7 127.4,207.9 C126.5,209.4 124.9,210.1 122.7,210.1 L106,210.1 L106,187.5 L111.8,187.5 L111.8,204.2 L122.7,204.2 L122.7,198.9 L128.5,199 L128.5,199 Z" display="inherit" id="_r"/>
			<path d="M131.5,190.6 C132.3,188.6 134,187.6 136.7,187.6 L153.4,187.6 L153.4,216.4 L147.6,216.4 L147.6,210.1 L136.7,210.1 C134.9,210.1 133.5,209.6 132.4,208.5 C131.3,207.4 130.8,206 130.8,204.3 L130.8,197 C130.8,193.9 131.1,191.7 131.5,190.6 Z M147.6,204.2 L147.6,193.3 L136.7,193.3 L136.7,204.2 L147.6,204.2 Z" display="inherit" fill="url(#gr_1042)" id="_d"/>
			<path d="M162.5,215.8 L156.7,215.8 L156.7,210 L162.5,210 L162.5,215.8 Z M156.7,209.3 L156.7,187.5 L162.5,187.5 L162.5,209.3 L156.7,209.3 Z" display="inherit" fill="url(#gr_1042)" id="_i"/>
			<path d="M167,189.3 C168,188.1 169.4,187.5 171.4,187.5 L188.1,187.5 L188.1,198.7 L188.1,200 L188.2,201.4 C188.2,204.1 187.9,206.1 187.3,207.3 C186.4,209.1 184.7,210 182.2,210 L165.4,210 L165.4,204.2 L182.2,204.2 L182.2,201.5 L171.3,201.5 C169,201.5 167.4,200.8 166.5,199.3 C165.8,198.1 165.4,196.4 165.4,194 C165.6,192.1 166.1,190.5 167,189.3 Z M171.4,193.4 L171.4,195.8 L182.3,195.8 L182.3,193.4 L171.4,193.4 Z" display="inherit" id="_a"/>
			<path d="M213.9,200.2 L214,201.7 C214,205 213.5,207.3 212.5,208.5 C211.6,209.5 210.3,210 208.5,210 L206.5,210.1 L204.6,210.1 L197.2,210.1 C195.4,210.1 194,209.6 192.9,208.5 C191.8,207.4 191.3,206 191.3,204.2 L191.3,187.5 L197.1,187.5 L197.1,204.3 L208,204.3 L208,187.5 L213.8,187.5 L213.8,198.7 L213.8,200.2 L213.9,200.2 Z" display="inherit" id="_n"/>
		</g>
		<g display="inherit" id="guardian">
			<path d="M707.06,29.193 C710.991,28.423 715.01,28.703 719,28.673 C733.67,28.713 748.34,28.563 763.01,28.763 C768.43,28.713 774.08,30.203 778.24,33.813 C780.71,36.013 781.929,39.153 783.2,42.133 C786.8,54.883 785.67,68.263 784.82,81.293 C784.83,95.493 784.83,109.683 784.83,123.883 C776.72,123.863 768.62,123.893 760.51,123.863 C760.46,100.293 760.55,76.713 760.47,53.133 C745.2,53.133 729.93,53.123 714.67,53.143 C714.6,76.723 714.66,100.303 714.64,123.883 C706.531,123.873 698.42,123.873 690.31,123.883 C690.3,101.373 690.31,78.863 690.3,56.363 C690.31,51.923 690.481,47.453 691.72,43.163 C694.4,36.483 700.1,31.164 707.06,29.193 L707.06,29.193 Z" display="inherit" id="n-7"/>
			<path d="M314.14,40.293 C310.94,33.513 303.41,29.413 296.04,29.563 C271.46,29.573 246.88,29.553 222.3,29.573 C222.28,37.423 222.3,45.273 222.28,53.123 C228.19,53.353 234.09,53.113 240,53.203 C246.94,53.243 253.89,52.963 260.82,53.383 C271.63,53.213 282.5,52.783 293.3,53.653 C293.22,57.253 293.41,60.873 293.14,64.483 C275.38,65.023 257.58,64.073 239.82,65.033 C236.02,66.223 232.01,67.553 229.3,70.643 C226.6,73.323 225.22,76.933 224.05,80.473 C223.62,82.383 223.36,84.353 222.77,86.243 C222.45,94.783 221.21,104.093 225.68,111.853 C229.63,119.213 237.67,123.913 246.02,123.833 C269.91,123.933 293.8,123.863 317.69,123.873 C317.78,103.013 317.65,82.153 317.78,61.293 C317.9,54.173 317.22,46.803 314.14,40.293 Z M292.54,99.583 C277.22,99.523 261.9,99.513 246.57,99.583 C246.61,96.253 246.59,92.933 246.62,89.603 C261.93,89.533 277.24,89.593 292.54,89.573 C292.52,92.914 292.52,96.244 292.54,99.583 Z" display="inherit" id="a2" transform="matrix(1,0,0,1,359,0)"/>
			<g display="inherit" id="i-4">
				<path d="M544.31,4.233 C552.411,4.353 560.52,3.993 568.611,4.463 C568.581,12.553 568.631,20.643 568.59,28.733 C560.47,28.713 552.35,28.743 544.24,28.713 C544.33,20.553 544.22,12.394 544.31,4.233 L544.31,4.233 Z" display="inherit" id="i2"/>
				<path d="M544.27,123.883 C544.3,93.273 544.231,62.673 544.31,32.073 C552.39,32.133 560.481,32.093 568.571,32.093 C568.64,62.683 568.611,93.273 568.581,123.864 C560.48,123.894 552.38,123.874 544.27,123.883 L544.27,123.883 Z" display="inherit" id="i1"/>
			</g>
			<path d="M530.13,108.333 C530.17,95.333 530.14,82.333 530.14,69.333 C529.951,47.133 530.5,24.913 529.901,2.723 C521.831,2.773 513.77,2.633 505.711,2.803 C505.641,11.733 505.931,20.673 505.551,29.593 C489.362,29.533 473.171,29.583 456.991,29.563 C445.89,29.453 435.571,39.203 435.47,50.383 C435.441,64.023 435.45,77.673 435.46,91.313 C435.58,94.293 435.33,97.343 436.12,100.253 C436.66,106.253 437.56,112.873 441.99,117.363 C445.01,120.933 449.58,122.483 454.01,123.443 C457.66,123.993 461.37,123.853 465.06,123.883 C486.67,123.873 508.281,123.873 529.89,123.883 C530.37,118.713 530.08,113.514 530.13,108.333 Z M460.1,99.553 C460.22,84.083 459.871,68.603 460.281,53.143 C465.191,53.213 470.091,53.103 475.001,53.253 C485.211,52.873 495.421,53.673 505.621,53.113 C505.871,68.592 505.641,84.083 505.741,99.573 C490.53,99.514 475.31,99.553 460.1,99.553 Z" display="inherit" id="d-0"/>
			<path d="M331.19,29.563 C355.78,29.583 380.36,29.533 404.95,29.583 C413.17,29.503 420.63,35.403 423.12,43.123 C426.61,53.663 425.22,64.933 425.51,75.833 C417.38,75.833 409.26,75.833 401.13,75.843 C400.87,68.273 401.61,60.643 400.69,53.114 C387.12,53.064 373.55,53.584 360,53.144 C358.23,53.134 356.5,53.444 354.76,53.714 C354.85,77.104 354.78,100.494 354.8,123.884 C346.93,123.874 339.06,123.874 331.19,123.884 C331.19,92.443 331.2,61.003 331.19,29.563 L331.19,29.563 Z" display="inherit" id="r-9"/>
			<path d="M314.14,40.293 C310.94,33.513 303.41,29.413 296.04,29.563 C271.46,29.573 246.88,29.553 222.3,29.573 C222.28,37.423 222.3,45.273 222.28,53.123 C228.19,53.353 234.09,53.113 240,53.203 C246.94,53.243 253.89,52.963 260.82,53.383 C271.63,53.213 282.5,52.783 293.3,53.653 C293.22,57.253 293.41,60.873 293.14,64.483 C275.38,65.023 257.58,64.073 239.82,65.033 C236.02,66.223 232.01,67.553 229.3,70.643 C226.6,73.323 225.22,76.933 224.05,80.473 C223.62,82.383 223.36,84.353 222.77,86.243 C222.45,94.783 221.21,104.093 225.68,111.853 C229.63,119.213 237.67,123.913 246.02,123.833 C269.91,123.933 293.8,123.863 317.69,123.873 C317.78,103.013 317.65,82.153 317.78,61.293 C317.9,54.173 317.22,46.803 314.14,40.293 Z M292.54,99.583 C277.22,99.523 261.9,99.513 246.57,99.583 C246.61,96.253 246.59,92.933 246.62,89.603 C261.93,89.533 277.24,89.593 292.54,89.573 C292.52,92.914 292.52,96.244 292.54,99.583 Z" display="inherit" id="a1-4"/>
			<path d="M113.79,28.773 C122,28.703 130.21,28.743 138.42,28.763 C138.4,52.533 138.42,76.303 138.41,100.083 C153.71,100.043 169.02,100.143 184.33,100.033 C184.36,76.543 184.33,53.053 184.34,29.573 C192.46,29.563 200.57,29.563 208.68,29.563 C208.67,48.153 208.68,66.733 208.68,85.313 C208.64,92.333 208.89,99.373 208.18,106.373 C207.83,107.413 207.52,108.473 207.26,109.543 C204.62,116.593 198.24,121.743 191.07,123.703 C172.08,124.303 153.06,123.793 134.05,123.963 C126.02,124.293 118.73,118.903 115.71,111.613 C112.19,99.173 113.21,86.063 113.79,73.313 C113.79,58.474 113.79,43.624 113.79,28.773 L113.79,28.773 Z" display="inherit" id="u-8"/>
			<path d="M6.219,152.162 C9.282,152.225 8.63,152.214 9.9,152.224 C32.61,152.264 55.32,152.114 78.02,152.244 C86.6,151.984 93.37,146.004 98.35,139.554 C98.92,135.154 99.84,130.774 99.61,126.304 C99.57,94.075 99.6,61.834 99.6,29.604 C75.42,29.514 51.23,29.594 27.05,29.554 C21.28,29.484 15.69,32.044 11.46,35.865 C6.8,39.935 4.81,46.315 4.63,52.344 C4.63,64.664 4.66,76.974 4.62,89.294 C4.6,91.274 4.77,93.254 5.11,95.214 C5.43,101.904 6.15,108.824 9.34,114.824 C11.5,118.814 15.94,120.774 20.13,121.904 C25.09,123.114 30.19,123.894 35.31,123.944 C48.76,124.024 62.2,123.964 75.65,123.864 C75.64,125.434 75.64,127.024 75.65,128.614 C72.69,129.414 69.69,130.064 66.81,131.104 C49.89,136.924 32.98,142.804 16.16,148.894 M29.42,99.614 C29.42,84.224 29.43,68.824 29.42,53.434 C44.73,52.834 60.07,53.354 75.4,53.174 C75.46,68.664 75.37,84.154 75.45,99.644 C60.11,99.543 44.76,99.604 29.42,99.614 Z" display="inherit" fill="#e2101b" id="g-8"/>
		</g>
		<g display="inherit" id="guardian_effects">
			<path d="M508.28,6.204 C509.92,3.424 513.36,4.414 516.03,4.224 C519.599,4.354 523.25,3.894 526.78,4.684 C527.3,6.004 526.4,7.804 524.849,7.564 C520.079,7.754 515.309,7.544 510.549,7.634 C509.98,7.273 508.85,6.563 508.28,6.204 L508.28,6.204 Z" display="inherit" fill="#bfbfbf" id="path3208"/>
			<path d="M500.06,31.244 C503.54,31.374 506.79,29.934 509.97,28.704 C509.67,30.224 509.79,31.904 508.941,33.274 C507.38,33.954 505.64,33.754 504.001,33.834 C488.661,33.814 473.311,33.744 457.971,33.854 C450.492,34.724 442.862,39.894 440.881,47.404 L440.771,48.394 C440.681,48.814 440.501,49.654 440.412,50.064 C438.641,47.354 440.112,44.114 441.052,41.374 C444.382,35.264 451.052,31.254 458.032,31.204 C472.04,31.244 486.05,31.204 500.06,31.244 L500.06,31.244 Z" display="inherit" fill="#bfbfbf" id="path3210"/>
			<path d="M115.74,31.133 C122.07,29.703 128.68,30.813 135.14,30.473 C135.12,31.093 135.08,32.323 135.07,32.943 C129.41,32.833 123.73,33.133 118.08,32.833 C117.5,32.403 116.32,31.553 115.74,31.133 L115.74,31.133 Z" display="inherit" fill="#bfbfbf" id="path3212"/>
			<path d="M694.96,49.394 C693.31,39.584 702.51,30.694 712,30.474 C728.32,30.444 744.65,30.504 760.97,30.454 C767.2,30.574 774.35,31.784 777.93,37.514 C779.81,41.704 780.731,46.334 780.56,50.924 C782.111,52.994 781.51,55.684 781.581,58.084 C779.291,55.614 780.801,51.854 779.971,48.854 C779.261,42.084 774.661,36.064 768.121,33.984 C764.391,33.774 760.731,32.794 756.981,32.914 C742.64,32.984 728.291,32.904 713.951,32.954 C704.85,33.374 696.71,40.443 694.96,49.394 L694.96,49.394 Z" display="inherit" fill="#bfbfbf" id="path3214"/>
			<path d="M14.65,36.034 C18.48,33.194 23.2,31.314 27.99,31.204 C50.78,31.264 73.57,31.214 96.35,31.234 C96.36,31.874 96.37,33.154 96.37,33.794 C74.24,33.804 52.12,33.814 29.99,33.784 C20,33.754 10.58,41.304 8.86,51.254 C8.52,45.673 10.19,39.673 14.65,36.034 L14.65,36.034 Z" display="inherit" fill="#f8c3c6" id="path3216"/>
			<path d="M186.93,31.273 C193.33,31.193 199.72,31.183 206.12,31.273 C205.85,31.833 205.31,32.933 205.04,33.483 C199.44,34.113 193.69,33.883 188.06,33.613 C187.78,33.023 187.21,31.854 186.93,31.273 L186.93,31.273 Z" display="inherit" fill="#bdbdbd" id="path3218"/>
			<path d="M224.97,31.244 C248.31,31.184 271.64,31.264 294.98,31.204 C298.1,30.994 300.98,32.314 303.91,33.174 C307.41,35.324 310.76,38.224 311.7,42.414 C312.67,46.904 313.88,51.484 313.62,56.114 C311.4,54.944 312.6,52.184 312.55,50.264 C311.44,43.684 307.04,37.324 300.53,35.134 C296.24,33.264 291.52,33.874 286.99,33.804 C266.61,33.794 246.23,33.825 225.85,33.784 C225.63,33.153 225.19,31.883 224.97,31.244 L224.97,31.244 Z" display="inherit" fill="#bfbfbf" id="path3220"/>
			<path d="M333.32,31.284 C356.21,31.134 379.11,31.294 402,31.194 C407.01,31.184 412.47,32.444 415.94,36.324 C418.469,38.634 419.29,42.074 420.379,45.184 C420.379,46.404 420.389,47.634 420.409,48.874 C422.489,50.954 421.489,53.834 420.808,56.284 C421.119,53.774 420.319,51.474 419.388,49.214 C419.038,40.774 411.138,34.314 403.029,33.834 C380.319,33.694 357.589,33.954 334.879,33.714 C334.49,33.104 333.71,31.894 333.32,31.284 L333.32,31.284 Z" display="inherit" fill="#bfbfbf" id="path3222"/>
			<path d="M584.22,31.273 C607.5,31.153 630.79,31.263 654.08,31.213 C660.37,31.393 667.36,34.263 669.97,40.403 C672.56,46.713 672.02,53.693 672.651,60.363 C671.991,54.403 671.97,48.083 668.76,42.793 C665.81,37.483 659.91,34.423 654.01,33.843 C631.25,33.693 608.49,33.943 585.74,33.723 C585.36,33.114 584.6,31.883 584.22,31.273 L584.22,31.273 Z" display="inherit" fill="#bfbfbf" id="path3224"/>
			<path d="M547.28,33.843 C553.25,33.893 559.24,33.553 565.2,33.973 C567.12,35.333 564.41,37.053 562.929,36.913 C557.9,36.713 552.69,37.573 547.789,36.393 C547.66,35.753 547.41,34.483 547.28,33.843 L547.28,33.843 Z" display="inherit" fill="#bfbfbf" id="path3226"/>
			<path d="M289.26,66.574 C291.97,65.694 294.72,64.904 297.33,63.734 C297.26,64.974 297.21,66.234 297.16,67.484 C295.57,68.344 293.93,69.314 292.05,69.134 C276.68,69.124 261.31,69.104 245.94,69.124 C238.32,69.154 231.16,74.004 228.73,81.304 C227.98,83.974 227.36,86.674 226.92,89.414 C226.81,86.234 227.38,83.094 227.81,79.954 C228.43,78.204 228.97,76.414 229.51,74.634 C232.05,69.674 237.65,67.184 242.97,66.664 C258.4,66.574 273.83,66.784 289.26,66.574 L289.26,66.574 Z" display="inherit" fill="#bfbfbf" id="path3228"/>
			<path d="M646.04,66.654 C649.69,66.564 653.2,65.343 656.45,63.744 C656.41,64.724 656.33,66.694 656.29,67.684 C653.19,69.684 649.41,69.054 645.93,69.124 C632.96,69.094 619.981,69.144 607,69.094 C600.97,69.064 594.47,71.204 590.89,76.324 C587.981,80.114 587.17,84.924 586.401,89.514 C586.13,84.364 587.321,79.344 588.981,74.514 C591.52,69.774 596.85,67.454 601.941,66.694 C616.64,66.574 631.34,66.704 646.04,66.654 L646.04,66.654 Z" display="inherit" fill="#bfbfbf" id="path3230"/>
			<path d="M25.26,98.824 C27.69,99.954 30.19,101.294 32.96,101.124 C45.97,101.094 58.99,101.104 72,101.114 C74.7,101.274 77.17,100.074 79.63,99.154 C79.3,100.614 79.94,102.604 78.49,103.604 C76.1,104.484 73.5,104.544 70.98,104.564 C59,104.514 47.02,104.524 35.03,104.554 C32.26,104.534 29.41,104.404 26.77,103.474 C24.93,102.684 25.65,100.383 25.26,98.824 L25.26,98.824 Z" display="inherit" fill="#f8c3c6" id="path3232"/>
			<path d="M455.85,98.793 C458.161,99.763 460.401,101.333 463.031,101.113 C476.041,101.083 489.051,101.083 502.061,101.113 C504.8,101.273 507.321,100.033 509.871,99.223 C509.741,100.313 509.461,102.513 509.331,103.603 C495.601,104.803 481.781,103.813 468.011,104.213 C464.241,104.203 460.482,104.023 456.732,103.593 C456.44,101.994 456.16,100.383 455.85,98.793 L455.85,98.793 Z" display="inherit" fill="#bfbfbf" id="path3234"/>
			<path d="M602.26,98.833 C604.441,99.673 606.51,101.133 608.941,101.093 C622.31,101.103 635.691,101.073 649.071,101.103 C651.791,101.223 654.211,99.773 656.701,98.903 C656.331,100.523 655.941,102.143 655.461,103.743 C641.651,104.643 627.811,103.893 613.991,104.213 C610.491,104.183 607.011,103.963 603.541,103.743 C602.99,102.133 602.58,100.494 602.26,98.833 L602.26,98.833 Z" display="inherit" fill="#bfbfbf" id="path3236"/>
			<path d="M134.1,99.664 C137.37,100.554 140.55,102.204 144.03,101.974 C155.69,101.924 167.34,101.954 178.99,101.964 C182.36,102.044 185.45,100.524 188.57,99.454 C188.28,100.864 188.46,102.484 187.55,103.704 C186.15,104.544 184.5,104.554 182.93,104.554 C168.62,104.524 154.3,104.514 139.99,104.554 C138.19,104.624 136.45,104.204 134.73,103.774 C134.52,102.394 134.31,101.023 134.1,99.664 L134.1,99.664 Z" display="inherit" fill="#bfbfbf" id="path3238"/>
			<path d="M242.34,98.914 C244.82,99.844 247.27,101.254 250,101.104 C263.34,101.074 276.68,101.104 290.02,101.094 C292.44,101.115 294.57,99.774 296.78,98.984 C296.42,100.574 296.93,102.684 295.25,103.664 C289.89,104.554 284.41,104.004 279,104.184 C276,104.154 273,104.154 270.01,104.184 C261.69,103.974 253.35,104.534 245.05,103.824 C242.5,103.894 242.61,100.684 242.34,98.914 L242.34,98.914 Z" display="inherit" fill="#bfbfbf" id="path3240"/>
			<path d="M77.63,129.003 C78.17,128.863 79.24,128.603 79.77,128.463 C79.69,129.653 79.61,130.843 79.53,132.043 C77.98,132.803 76.42,133.593 74.75,134.073 C63.24,137.063 52.26,141.693 41.01,145.483 C34.44,147.923 27.39,148.853 20.42,149.173 C31.08,145.953 41.47,141.923 52.02,138.363 C60.29,134.514 69.67,133.474 77.63,129.003 L77.63,129.003 Z" display="inherit" fill="#f8c3c6" id="path3242"/>
			<path d="M547.58,8.593 C547.559,7.713 547.54,6.853 547.53,5.983 C553.509,5.993 559.5,6.023 565.48,5.973 C565.48,6.843 565.49,7.713 565.49,8.593 C559.52,8.563 553.55,8.574 547.58,8.593 L547.58,8.593 Z" display="inherit" fill="#bfbfbf" id="path3244"/>
		</g>
	</g>
</svg>
