<?xml version="1.0" encoding="UTF-8"?>
<!-- Generator: Ikivo Animator 2.2 (build 2.2.0.10) -->
<!DOCTYPE svg PUBLIC "-//W3C//DTD SVG 1.1 Tiny//EN" "http://www.w3.org/Graphics/SVG/1.1/DTD/svg11-tiny.dtd">
<svg display="inherit" height="30" id="svg" version="1.1" viewBox="0 0 200 30" width="200" baseProfile="tiny" xmlns="http://www.w3.org/2000/svg" xmlns:xlink="http://www.w3.org/1999/xlink" xmlns:ev="http://www.w3.org/2001/xml-events">
	<metadata id="metadata76">
    
  </metadata>
	<defs display="inherit" id="defs5">
		<linearGradient id="gr_1216" x1="0.503" x2="0.503" y1="0.803" y2="0.051">
			<stop id="stop3023" offset="0.21" stop-color="#ffffff" stop-opacity="0"/>
			<stop id="stop3025" offset="1" stop-color="#000000" stop-opacity="0.9"/>
		</linearGradient>
	</defs>
	<path d="M8.171,8.015 L10.589,8.015 L11.638,12.121 L12.963,8.015 L15.216,8.015 L16.59,12.121 L17.64,8.015 L20.039,8.015 L17.64,14.532 L15.418,14.532 L14.099,10.611 L12.822,14.532 L10.589,14.532 L8.171,8.015 Z M20.027,8.015 L22.444,8.015 L23.494,12.121 L24.819,8.015 L27.071,8.015 L28.446,12.121 L29.495,8.015 L31.895,8.015 L29.495,14.532 L27.274,14.532 L25.954,10.611 L24.678,14.532 L22.444,14.532 L20.027,8.015 Z M31.882,8.015 L34.3,8.015 L35.349,12.121 L36.675,8.015 L38.927,8.015 L40.302,12.121 L41.351,8.015 L43.75,8.015 L41.351,14.532 L39.13,14.532 L37.81,10.611 L36.534,14.532 L34.3,14.532 L31.882,8.015 Z M44.481,12.029 L47.15,12.029 L47.15,14.532 L44.481,14.532 L44.481,12.029 Z M53.36,11.274 L53.36,9.402 L57.656,9.402 L57.656,13.238 C56.833,13.798 56.106,14.18 55.474,14.382 C54.842,14.585 54.092,14.686 53.225,14.686 C52.157,14.686 51.287,14.504 50.614,14.14 C49.941,13.776 49.419,13.234 49.049,12.514 C48.679,11.793 48.494,10.967 48.494,10.034 C48.494,9.053 48.696,8.199 49.101,7.472 C49.506,6.746 50.1,6.195 50.881,5.819 C51.49,5.528 52.311,5.383 53.342,5.383 C54.336,5.383 55.079,5.473 55.572,5.653 C56.065,5.833 56.474,6.112 56.8,6.491 C57.125,6.869 57.369,7.349 57.533,7.93 L54.851,8.408 C54.741,8.069 54.554,7.809 54.29,7.629 C54.026,7.449 53.689,7.359 53.28,7.359 C52.671,7.359 52.185,7.571 51.823,7.994 C51.461,8.417 51.28,9.087 51.28,10.004 C51.28,10.977 51.463,11.673 51.829,12.09 C52.195,12.507 52.706,12.716 53.36,12.716 C53.671,12.716 53.968,12.671 54.25,12.581 C54.532,12.491 54.855,12.338 55.219,12.121 L55.219,11.274 L53.36,11.274 Z M66.02,14.532 L63.688,14.532 L63.688,13.477 C63.34,13.911 62.989,14.219 62.635,14.404 C62.282,14.588 61.847,14.68 61.331,14.68 C60.644,14.68 60.105,14.474 59.714,14.063 C59.324,13.652 59.128,13.019 59.128,12.164 L59.128,8.015 L61.638,8.015 L61.638,11.599 C61.638,12.008 61.714,12.299 61.865,12.471 C62.017,12.642 62.229,12.728 62.503,12.728 C62.802,12.728 63.047,12.614 63.237,12.385 C63.427,12.156 63.522,11.744 63.522,11.151 L63.522,8.015 L66.02,8.015 L66.02,14.532 Z M69.824,10.126 L67.437,9.875 C67.527,9.458 67.657,9.129 67.827,8.89 C67.997,8.651 68.241,8.443 68.56,8.267 C68.789,8.14 69.104,8.042 69.505,7.972 C69.906,7.903 70.34,7.868 70.806,7.868 C71.555,7.868 72.156,7.91 72.61,7.994 C73.064,8.078 73.443,8.253 73.746,8.519 C73.958,8.703 74.126,8.964 74.249,9.301 C74.371,9.639 74.433,9.961 74.433,10.268 L74.433,13.146 C74.433,13.452 74.452,13.693 74.491,13.867 C74.53,14.04 74.615,14.262 74.746,14.532 L72.402,14.532 C72.308,14.365 72.246,14.237 72.218,14.149 C72.189,14.061 72.16,13.923 72.132,13.735 C71.804,14.05 71.479,14.275 71.156,14.41 C70.714,14.59 70.201,14.68 69.616,14.68 C68.838,14.68 68.248,14.5 67.845,14.14 C67.442,13.78 67.241,13.336 67.241,12.808 C67.241,12.313 67.386,11.906 67.677,11.587 C67.967,11.268 68.503,11.031 69.284,10.875 C70.221,10.687 70.829,10.555 71.107,10.479 C71.385,10.404 71.68,10.304 71.99,10.182 C71.99,9.875 71.927,9.66 71.8,9.537 C71.673,9.415 71.45,9.353 71.131,9.353 C70.722,9.353 70.415,9.419 70.211,9.55 C70.051,9.652 69.922,9.844 69.824,10.126 L69.824,10.126 Z M71.99,11.44 C71.647,11.562 71.289,11.671 70.917,11.765 C70.409,11.9 70.088,12.033 69.953,12.164 C69.814,12.299 69.745,12.452 69.745,12.624 C69.745,12.82 69.813,12.981 69.95,13.106 C70.087,13.23 70.289,13.293 70.555,13.293 C70.833,13.293 71.091,13.225 71.331,13.09 C71.57,12.955 71.74,12.791 71.84,12.596 C71.94,12.402 71.99,12.149 71.99,11.838 L71.99,11.44 Z M75.967,8.015 L78.305,8.015 L78.305,9.083 C78.53,8.621 78.762,8.303 79.001,8.129 C79.241,7.955 79.536,7.868 79.888,7.868 C80.256,7.868 80.659,7.983 81.097,8.212 L80.324,9.991 C80.029,9.869 79.796,9.807 79.624,9.807 C79.297,9.807 79.043,9.942 78.863,10.212 C78.606,10.593 78.477,11.305 78.477,12.348 L78.477,14.532 L75.967,14.532 L75.967,8.015 Z M88.375,5.536 L88.375,14.532 L86.037,14.532 L86.037,13.569 C85.71,13.978 85.411,14.254 85.141,14.397 C84.781,14.586 84.38,14.68 83.938,14.68 C83.051,14.68 82.372,14.342 81.904,13.667 C81.436,12.992 81.201,12.172 81.201,11.206 C81.201,10.126 81.46,9.3 81.978,8.727 C82.495,8.155 83.153,7.868 83.951,7.868 C84.339,7.868 84.692,7.934 85.009,8.065 C85.326,8.195 85.607,8.392 85.853,8.654 L85.853,5.536 L88.375,5.536 Z M85.871,11.256 C85.871,10.744 85.763,10.363 85.546,10.111 C85.329,9.859 85.055,9.734 84.724,9.734 C84.433,9.734 84.19,9.854 83.993,10.096 C83.797,10.337 83.699,10.742 83.699,11.311 C83.699,11.843 83.8,12.232 84.003,12.48 C84.205,12.727 84.456,12.851 84.754,12.851 C85.073,12.851 85.339,12.726 85.552,12.477 C85.765,12.227 85.871,11.82 85.871,11.256 L85.871,11.256 Z M90.001,5.536 L92.499,5.536 L92.499,7.236 L90.001,7.236 L90.001,5.536 Z M90.001,8.015 L92.499,8.015 L92.499,14.532 L90.001,14.532 L90.001,8.015 Z M96.383,10.126 L93.996,9.875 C94.086,9.458 94.216,9.129 94.386,8.89 C94.555,8.651 94.8,8.443 95.119,8.267 C95.348,8.14 95.663,8.042 96.064,7.972 C96.465,7.903 96.899,7.868 97.365,7.868 C98.114,7.868 98.715,7.91 99.169,7.994 C99.623,8.078 100.002,8.253 100.304,8.519 C100.517,8.703 100.685,8.964 100.807,9.301 C100.93,9.639 100.992,9.961 100.992,10.268 L100.992,13.146 C100.992,13.452 101.011,13.693 101.05,13.867 C101.089,14.04 101.174,14.262 101.305,14.532 L98.96,14.532 C98.866,14.365 98.805,14.237 98.776,14.149 C98.748,14.061 98.719,13.923 98.69,13.735 C98.363,14.05 98.038,14.275 97.715,14.41 C97.273,14.59 96.759,14.68 96.174,14.68 C95.397,14.68 94.807,14.5 94.404,14.14 C94.001,13.78 93.8,13.336 93.8,12.808 C93.8,12.313 93.945,11.906 94.235,11.587 C94.526,11.268 95.062,11.031 95.843,10.875 C96.78,10.687 97.387,10.555 97.666,10.479 C97.944,10.404 98.238,10.304 98.549,10.182 C98.549,9.875 98.486,9.66 98.359,9.537 C98.232,9.415 98.009,9.353 97.69,9.353 C97.281,9.353 96.974,9.419 96.77,9.55 C96.61,9.652 96.481,9.844 96.383,10.126 L96.383,10.126 Z M98.549,11.44 C98.206,11.562 97.848,11.671 97.475,11.765 C96.968,11.9 96.647,12.033 96.512,12.164 C96.373,12.299 96.303,12.452 96.303,12.624 C96.303,12.82 96.372,12.981 96.509,13.106 C96.646,13.23 96.847,13.293 97.113,13.293 C97.391,13.293 97.65,13.225 97.89,13.09 C98.129,12.955 98.299,12.791 98.399,12.596 C98.499,12.402 98.549,12.149 98.549,11.838 L98.549,11.44 Z M102.501,8.015 L104.827,8.015 L104.827,9.077 C105.175,8.643 105.526,8.334 105.882,8.147 C106.238,7.961 106.672,7.868 107.183,7.868 C107.875,7.868 108.416,8.074 108.806,8.485 C109.197,8.896 109.392,9.531 109.392,10.39 L109.392,14.532 L106.883,14.532 L106.883,10.949 C106.883,10.54 106.807,10.25 106.656,10.08 C106.504,9.911 106.291,9.826 106.017,9.826 C105.715,9.826 105.469,9.94 105.281,10.169 C105.093,10.398 104.999,10.81 104.999,11.403 L104.999,14.532 L102.501,14.532 L102.501,8.015 Z M110.417,10.286 L114.05,10.286 L114.05,12.219 L110.417,12.219 L110.417,10.286 Z M115.228,5.536 L118.886,5.536 L120.297,11.01 L121.702,5.536 L125.347,5.536 L125.347,14.532 L123.077,14.532 L123.077,7.672 L121.316,14.532 L119.26,14.532 L117.505,7.672 L117.505,14.532 L115.228,14.532 L115.228,5.536 Z M126.642,11.292 C126.642,10.298 126.978,9.479 127.649,8.835 C128.319,8.19 129.226,7.868 130.367,7.868 C131.672,7.868 132.658,8.247 133.325,9.003 C133.861,9.613 134.129,10.364 134.129,11.256 C134.129,12.258 133.796,13.079 133.132,13.719 C132.467,14.36 131.547,14.68 130.373,14.68 C129.326,14.68 128.479,14.414 127.833,13.882 C127.039,13.223 126.642,12.36 126.642,11.292 L126.642,11.292 Z M129.146,11.286 C129.146,11.867 129.263,12.297 129.499,12.575 C129.734,12.853 130.029,12.992 130.385,12.992 C130.745,12.992 131.041,12.855 131.272,12.581 C131.503,12.307 131.619,11.867 131.619,11.262 C131.619,10.697 131.502,10.277 131.269,10.001 C131.036,9.724 130.747,9.586 130.404,9.586 C130.04,9.586 129.739,9.727 129.502,10.007 C129.264,10.287 129.146,10.713 129.146,11.286 L129.146,11.286 Z M135.356,5.536 L137.878,5.536 L137.878,8.654 C138.128,8.392 138.411,8.195 138.728,8.065 C139.045,7.934 139.396,7.868 139.78,7.868 C140.574,7.868 141.231,8.154 141.75,8.724 C142.27,9.295 142.53,10.114 142.53,11.182 C142.53,11.894 142.411,12.521 142.174,13.063 C141.936,13.605 141.608,14.01 141.189,14.278 C140.769,14.546 140.304,14.68 139.793,14.68 C139.355,14.68 138.954,14.586 138.59,14.397 C138.316,14.25 138.017,13.974 137.694,13.569 L137.694,14.532 L135.356,14.532 L135.356,5.536 Z M137.86,11.256 C137.86,11.816 137.965,12.222 138.176,12.474 C138.386,12.725 138.653,12.851 138.977,12.851 C139.275,12.851 139.526,12.727 139.728,12.48 C139.931,12.232 140.032,11.816 140.032,11.231 C140.032,10.716 139.933,10.337 139.734,10.096 C139.536,9.854 139.296,9.734 139.013,9.734 C138.674,9.734 138.397,9.859 138.182,10.111 C137.967,10.363 137.86,10.744 137.86,11.256 L137.86,11.256 Z M143.83,5.536 L146.328,5.536 L146.328,7.236 L143.83,7.236 L143.83,5.536 Z M143.83,8.015 L146.328,8.015 L146.328,14.532 L143.83,14.532 L143.83,8.015 Z M148.022,5.536 L150.525,5.536 L150.525,14.532 L148.022,14.532 L148.022,5.536 Z M159.368,11.894 L154.361,11.894 C154.406,12.295 154.514,12.593 154.686,12.79 C154.927,13.072 155.242,13.213 155.631,13.213 C155.876,13.213 156.11,13.152 156.331,13.029 C156.466,12.951 156.611,12.814 156.766,12.618 L159.227,12.845 C158.851,13.499 158.396,13.969 157.865,14.253 C157.333,14.538 156.57,14.68 155.576,14.68 C154.713,14.68 154.033,14.558 153.538,14.315 C153.043,14.071 152.633,13.685 152.308,13.155 C151.983,12.625 151.82,12.002 151.82,11.286 C151.82,10.268 152.146,9.443 152.799,8.813 C153.451,8.183 154.353,7.868 155.502,7.868 C156.435,7.868 157.171,8.009 157.711,8.292 C158.251,8.574 158.662,8.983 158.945,9.519 C159.227,10.055 159.368,10.752 159.368,11.611 L159.368,11.894 Z M156.828,10.697 C156.778,10.214 156.649,9.869 156.438,9.66 C156.227,9.451 155.95,9.347 155.606,9.347 C155.21,9.347 154.893,9.505 154.655,9.82 C154.504,10.016 154.408,10.308 154.367,10.697 L156.828,10.697 Z M160.534,12.029 L163.203,12.029 L163.203,14.532 L160.534,14.532 L160.534,12.029 Z M169.585,11.986 L171.96,12.256 C171.829,12.751 171.615,13.179 171.316,13.541 C171.017,13.903 170.636,14.185 170.171,14.385 C169.707,14.586 169.117,14.686 168.401,14.686 C167.71,14.686 167.134,14.621 166.674,14.493 C166.213,14.364 165.818,14.155 165.486,13.867 C165.155,13.578 164.895,13.24 164.707,12.851 C164.519,12.462 164.425,11.947 164.425,11.305 C164.425,10.634 164.539,10.075 164.768,9.629 C164.936,9.302 165.165,9.009 165.456,8.749 C165.746,8.489 166.045,8.296 166.351,8.169 C166.838,7.968 167.462,7.868 168.223,7.868 C169.287,7.868 170.098,8.058 170.656,8.439 C171.215,8.819 171.606,9.376 171.831,10.108 L169.481,10.421 C169.407,10.143 169.273,9.933 169.079,9.792 C168.885,9.651 168.624,9.58 168.297,9.58 C167.884,9.58 167.549,9.729 167.293,10.025 C167.038,10.322 166.91,10.771 166.91,11.372 C166.91,11.908 167.037,12.315 167.29,12.593 C167.544,12.871 167.867,13.011 168.26,13.011 C168.587,13.011 168.862,12.927 169.085,12.759 C169.308,12.591 169.475,12.333 169.585,11.986 L169.585,11.986 Z M172.813,11.292 C172.813,10.298 173.149,9.479 173.82,8.835 C174.49,8.19 175.397,7.868 176.538,7.868 C177.843,7.868 178.829,8.247 179.496,9.003 C180.032,9.613 180.3,10.364 180.3,11.256 C180.3,12.258 179.967,13.079 179.303,13.719 C178.638,14.36 177.718,14.68 176.544,14.68 C175.497,14.68 174.65,14.414 174.004,13.882 C173.21,13.223 172.813,12.36 172.813,11.292 L172.813,11.292 Z M175.317,11.286 C175.317,11.867 175.434,12.297 175.67,12.575 C175.905,12.853 176.201,12.992 176.556,12.992 C176.916,12.992 177.212,12.855 177.443,12.581 C177.674,12.307 177.79,11.867 177.79,11.262 C177.79,10.697 177.673,10.277 177.44,10.001 C177.207,9.724 176.918,9.586 176.575,9.586 C176.211,9.586 175.91,9.727 175.673,10.007 C175.436,10.287 175.317,10.713 175.317,11.286 L175.317,11.286 Z M181.533,8.015 L183.865,8.015 L183.865,8.967 C184.2,8.57 184.539,8.288 184.881,8.12 C185.222,7.952 185.634,7.868 186.117,7.868 C186.637,7.868 187.048,7.96 187.351,8.144 C187.653,8.328 187.901,8.603 188.093,8.967 C188.486,8.541 188.844,8.252 189.167,8.098 C189.49,7.945 189.889,7.868 190.364,7.868 C191.063,7.868 191.609,8.076 192.002,8.491 C192.395,8.906 192.591,9.556 192.591,10.439 L192.591,14.532 L190.087,14.532 L190.087,10.82 C190.087,10.525 190.03,10.306 189.916,10.163 C189.748,9.938 189.539,9.826 189.29,9.826 C188.995,9.826 188.758,9.932 188.578,10.145 C188.398,10.358 188.308,10.699 188.308,11.17 L188.308,14.532 L185.804,14.532 L185.804,10.943 C185.804,10.656 185.788,10.462 185.755,10.36 C185.702,10.196 185.61,10.064 185.479,9.964 C185.348,9.864 185.195,9.813 185.019,9.813 C184.732,9.813 184.497,9.922 184.313,10.139 C184.129,10.356 184.037,10.711 184.037,11.206 L184.037,14.532 L181.533,14.532 L181.533,8.015 Z" display="inherit" fill="#ffffff" id="text2163-1" stroke="none"/>
	<text display="inherit" fill="#000000" font-family="Arial Black" font-size="28" font-style="normal" font-weight="400" id="text2166" stroke="none" stroke-linecap="butt" stroke-linejoin="miter" stroke-width="1" x="11.615" xml:space="preserve" y="32.011"/>
	<path d="M7.79,8.383 L10.208,8.383 L11.257,12.489 L12.582,8.383 L14.835,8.383 L16.209,12.489 L17.259,8.383 L19.658,8.383 L17.259,14.9 L15.037,14.9 L13.718,10.979 L12.441,14.9 L10.208,14.9 L7.79,8.383 Z M19.646,8.383 L22.063,8.383 L23.113,12.489 L24.438,8.383 L26.69,8.383 L28.065,12.489 L29.114,8.383 L31.514,8.383 L29.114,14.9 L26.893,14.9 L25.573,10.979 L24.297,14.9 L22.063,14.9 L19.646,8.383 Z M31.501,8.383 L33.919,8.383 L34.968,12.489 L36.294,8.383 L38.546,8.383 L39.921,12.489 L40.97,8.383 L43.369,8.383 L40.97,14.9 L38.749,14.9 L37.429,10.979 L36.153,14.9 L33.919,14.9 L31.501,8.383 Z M44.1,12.397 L46.769,12.397 L46.769,14.9 L44.1,14.9 L44.1,12.397 Z M52.979,11.642 L52.979,9.77 L57.275,9.77 L57.275,13.606 C56.452,14.166 55.725,14.548 55.093,14.75 C54.461,14.953 53.711,15.054 52.844,15.054 C51.776,15.054 50.906,14.872 50.233,14.508 C49.56,14.144 49.038,13.602 48.668,12.882 C48.298,12.161 48.113,11.335 48.113,10.402 C48.113,9.421 48.315,8.567 48.72,7.84 C49.125,7.114 49.719,6.563 50.5,6.187 C51.109,5.896 51.93,5.751 52.961,5.751 C53.955,5.751 54.698,5.841 55.191,6.021 C55.684,6.201 56.093,6.48 56.419,6.859 C56.744,7.237 56.988,7.717 57.152,8.298 L54.47,8.776 C54.36,8.437 54.173,8.177 53.909,7.997 C53.645,7.817 53.308,7.727 52.899,7.727 C52.29,7.727 51.804,7.939 51.442,8.362 C51.08,8.785 50.899,9.455 50.899,10.372 C50.899,11.345 51.082,12.041 51.448,12.458 C51.814,12.875 52.325,13.084 52.979,13.084 C53.29,13.084 53.587,13.039 53.869,12.949 C54.151,12.859 54.474,12.706 54.838,12.489 L54.838,11.642 L52.979,11.642 Z M65.639,14.9 L63.307,14.9 L63.307,13.845 C62.959,14.279 62.608,14.587 62.254,14.772 C61.901,14.956 61.466,15.048 60.95,15.048 C60.263,15.048 59.724,14.842 59.333,14.431 C58.943,14.02 58.747,13.387 58.747,12.532 L58.747,8.383 L61.257,8.383 L61.257,11.967 C61.257,12.376 61.333,12.667 61.484,12.839 C61.636,13.01 61.848,13.096 62.122,13.096 C62.421,13.096 62.666,12.982 62.856,12.753 C63.046,12.524 63.141,12.112 63.141,11.519 L63.141,8.383 L65.639,8.383 L65.639,14.9 Z M69.443,10.494 L67.056,10.243 C67.146,9.826 67.276,9.497 67.446,9.258 C67.616,9.019 67.86,8.811 68.179,8.635 C68.408,8.508 68.723,8.41 69.124,8.34 C69.525,8.271 69.959,8.236 70.425,8.236 C71.174,8.236 71.775,8.278 72.229,8.362 C72.683,8.446 73.062,8.621 73.365,8.887 C73.577,9.071 73.745,9.332 73.868,9.669 C73.99,10.007 74.052,10.329 74.052,10.636 L74.052,13.514 C74.052,13.82 74.071,14.061 74.11,14.235 C74.149,14.408 74.234,14.63 74.365,14.9 L72.021,14.9 C71.927,14.733 71.865,14.605 71.837,14.517 C71.808,14.429 71.779,14.291 71.751,14.103 C71.423,14.418 71.098,14.643 70.775,14.778 C70.333,14.958 69.82,15.048 69.235,15.048 C68.457,15.048 67.867,14.868 67.464,14.508 C67.061,14.148 66.86,13.704 66.86,13.176 C66.86,12.681 67.005,12.274 67.296,11.955 C67.586,11.636 68.122,11.399 68.903,11.243 C69.84,11.055 70.448,10.923 70.726,10.847 C71.004,10.772 71.299,10.672 71.609,10.55 C71.609,10.243 71.546,10.028 71.419,9.905 C71.292,9.783 71.069,9.721 70.75,9.721 C70.341,9.721 70.034,9.787 69.83,9.918 C69.67,10.02 69.541,10.212 69.443,10.494 L69.443,10.494 Z M71.609,11.808 C71.266,11.93 70.908,12.039 70.536,12.133 C70.028,12.268 69.707,12.401 69.572,12.532 C69.433,12.667 69.364,12.82 69.364,12.992 C69.364,13.188 69.432,13.349 69.569,13.474 C69.706,13.598 69.908,13.661 70.174,13.661 C70.452,13.661 70.71,13.593 70.95,13.458 C71.189,13.323 71.359,13.159 71.459,12.964 C71.559,12.77 71.609,12.517 71.609,12.206 L71.609,11.808 Z M75.586,8.383 L77.924,8.383 L77.924,9.451 C78.149,8.989 78.381,8.671 78.62,8.497 C78.86,8.323 79.155,8.236 79.507,8.236 C79.875,8.236 80.278,8.351 80.716,8.58 L79.943,10.359 C79.648,10.237 79.415,10.175 79.243,10.175 C78.916,10.175 78.662,10.31 78.482,10.58 C78.225,10.961 78.096,11.673 78.096,12.716 L78.096,14.9 L75.586,14.9 L75.586,8.383 Z M87.994,5.904 L87.994,14.9 L85.656,14.9 L85.656,13.937 C85.329,14.346 85.03,14.622 84.76,14.765 C84.4,14.954 83.999,15.048 83.557,15.048 C82.67,15.048 81.991,14.71 81.523,14.035 C81.055,13.36 80.82,12.54 80.82,11.574 C80.82,10.494 81.079,9.668 81.597,9.095 C82.114,8.523 82.772,8.236 83.57,8.236 C83.958,8.236 84.311,8.302 84.628,8.433 C84.945,8.563 85.226,8.76 85.472,9.022 L85.472,5.904 L87.994,5.904 Z M85.49,11.624 C85.49,11.112 85.382,10.731 85.165,10.479 C84.948,10.227 84.674,10.102 84.343,10.102 C84.052,10.102 83.809,10.222 83.612,10.464 C83.416,10.705 83.318,11.11 83.318,11.679 C83.318,12.211 83.419,12.6 83.622,12.848 C83.824,13.095 84.075,13.219 84.373,13.219 C84.692,13.219 84.958,13.094 85.171,12.845 C85.384,12.595 85.49,12.188 85.49,11.624 L85.49,11.624 Z M89.62,5.904 L92.118,5.904 L92.118,7.604 L89.62,7.604 L89.62,5.904 Z M89.62,8.383 L92.118,8.383 L92.118,14.9 L89.62,14.9 L89.62,8.383 Z M96.002,10.494 L93.615,10.243 C93.705,9.826 93.835,9.497 94.005,9.258 C94.174,9.019 94.419,8.811 94.738,8.635 C94.967,8.508 95.282,8.41 95.683,8.34 C96.084,8.271 96.518,8.236 96.984,8.236 C97.733,8.236 98.334,8.278 98.788,8.362 C99.242,8.446 99.621,8.621 99.923,8.887 C100.136,9.071 100.304,9.332 100.426,9.669 C100.549,10.007 100.611,10.329 100.611,10.636 L100.611,13.514 C100.611,13.82 100.63,14.061 100.669,14.235 C100.708,14.408 100.793,14.63 100.924,14.9 L98.579,14.9 C98.485,14.733 98.424,14.605 98.395,14.517 C98.367,14.429 98.338,14.291 98.309,14.103 C97.982,14.418 97.657,14.643 97.334,14.778 C96.892,14.958 96.378,15.048 95.793,15.048 C95.016,15.048 94.426,14.868 94.023,14.508 C93.62,14.148 93.419,13.704 93.419,13.176 C93.419,12.681 93.564,12.274 93.854,11.955 C94.145,11.636 94.681,11.399 95.462,11.243 C96.399,11.055 97.006,10.923 97.285,10.847 C97.563,10.772 97.857,10.672 98.168,10.55 C98.168,10.243 98.105,10.028 97.978,9.905 C97.851,9.783 97.628,9.721 97.309,9.721 C96.9,9.721 96.593,9.787 96.389,9.918 C96.229,10.02 96.1,10.212 96.002,10.494 L96.002,10.494 Z M98.168,11.808 C97.825,11.93 97.467,12.039 97.094,12.133 C96.587,12.268 96.266,12.401 96.131,12.532 C95.992,12.667 95.922,12.82 95.922,12.992 C95.922,13.188 95.991,13.349 96.128,13.474 C96.265,13.598 96.466,13.661 96.732,13.661 C97.01,13.661 97.269,13.593 97.509,13.458 C97.748,13.323 97.918,13.159 98.018,12.964 C98.118,12.77 98.168,12.517 98.168,12.206 L98.168,11.808 Z M102.12,8.383 L104.446,8.383 L104.446,9.445 C104.794,9.011 105.145,8.702 105.501,8.515 C105.857,8.329 106.291,8.236 106.802,8.236 C107.494,8.236 108.035,8.442 108.425,8.853 C108.816,9.264 109.011,9.899 109.011,10.758 L109.011,14.9 L106.502,14.9 L106.502,11.317 C106.502,10.908 106.426,10.618 106.275,10.448 C106.123,10.279 105.91,10.194 105.636,10.194 C105.334,10.194 105.088,10.308 104.9,10.537 C104.712,10.766 104.618,11.178 104.618,11.771 L104.618,14.9 L102.12,14.9 L102.12,8.383 Z M110.036,10.654 L113.669,10.654 L113.669,12.587 L110.036,12.587 L110.036,10.654 Z M114.847,5.904 L118.505,5.904 L119.916,11.378 L121.321,5.904 L124.966,5.904 L124.966,14.9 L122.696,14.9 L122.696,8.04 L120.935,14.9 L118.879,14.9 L117.124,8.04 L117.124,14.9 L114.847,14.9 L114.847,5.904 Z M126.261,11.66 C126.261,10.666 126.597,9.847 127.268,9.203 C127.938,8.558 128.845,8.236 129.986,8.236 C131.291,8.236 132.277,8.615 132.944,9.371 C133.48,9.981 133.748,10.732 133.748,11.624 C133.748,12.626 133.415,13.447 132.751,14.087 C132.086,14.728 131.166,15.048 129.992,15.048 C128.945,15.048 128.098,14.782 127.452,14.25 C126.658,13.591 126.261,12.728 126.261,11.66 L126.261,11.66 Z M128.765,11.654 C128.765,12.235 128.882,12.665 129.118,12.943 C129.353,13.221 129.648,13.36 130.004,13.36 C130.364,13.36 130.66,13.223 130.891,12.949 C131.122,12.675 131.238,12.235 131.238,11.63 C131.238,11.065 131.121,10.645 130.888,10.369 C130.655,10.092 130.366,9.954 130.023,9.954 C129.659,9.954 129.358,10.095 129.121,10.375 C128.883,10.655 128.765,11.081 128.765,11.654 L128.765,11.654 Z M134.975,5.904 L137.497,5.904 L137.497,9.022 C137.747,8.76 138.03,8.563 138.347,8.433 C138.664,8.302 139.015,8.236 139.399,8.236 C140.193,8.236 140.85,8.522 141.369,9.092 C141.889,9.663 142.149,10.482 142.149,11.55 C142.149,12.262 142.03,12.889 141.793,13.431 C141.555,13.973 141.227,14.378 140.808,14.646 C140.388,14.914 139.923,15.048 139.412,15.048 C138.974,15.048 138.573,14.954 138.209,14.765 C137.935,14.618 137.636,14.342 137.313,13.937 L137.313,14.9 L134.975,14.9 L134.975,5.904 Z M137.479,11.624 C137.479,12.184 137.584,12.59 137.795,12.842 C138.005,13.093 138.272,13.219 138.596,13.219 C138.894,13.219 139.145,13.095 139.347,12.848 C139.55,12.6 139.651,12.184 139.651,11.599 C139.651,11.084 139.552,10.705 139.353,10.464 C139.155,10.222 138.915,10.102 138.632,10.102 C138.293,10.102 138.016,10.227 137.801,10.479 C137.586,10.731 137.479,11.112 137.479,11.624 L137.479,11.624 Z M143.449,5.904 L145.947,5.904 L145.947,7.604 L143.449,7.604 L143.449,5.904 Z M143.449,8.383 L145.947,8.383 L145.947,14.9 L143.449,14.9 L143.449,8.383 Z M147.641,5.904 L150.144,5.904 L150.144,14.9 L147.641,14.9 L147.641,5.904 Z M158.987,12.262 L153.98,12.262 C154.025,12.663 154.133,12.961 154.305,13.158 C154.546,13.44 154.861,13.581 155.25,13.581 C155.495,13.581 155.729,13.52 155.95,13.397 C156.085,13.319 156.23,13.182 156.385,12.986 L158.846,13.213 C158.47,13.867 158.015,14.337 157.484,14.621 C156.952,14.906 156.189,15.048 155.195,15.048 C154.332,15.048 153.652,14.926 153.157,14.683 C152.662,14.439 152.252,14.053 151.927,13.523 C151.602,12.993 151.439,12.37 151.439,11.654 C151.439,10.636 151.765,9.811 152.418,9.181 C153.07,8.551 153.972,8.236 155.121,8.236 C156.054,8.236 156.79,8.377 157.33,8.66 C157.87,8.942 158.281,9.351 158.564,9.887 C158.846,10.423 158.987,11.12 158.987,11.979 L158.987,12.262 Z M156.447,11.065 C156.397,10.582 156.268,10.237 156.057,10.028 C155.846,9.819 155.569,9.715 155.225,9.715 C154.829,9.715 154.512,9.873 154.274,10.188 C154.123,10.384 154.027,10.676 153.986,11.065 L156.447,11.065 Z M160.153,12.397 L162.822,12.397 L162.822,14.9 L160.153,14.9 L160.153,12.397 Z M169.204,12.354 L171.579,12.624 C171.448,13.119 171.234,13.547 170.935,13.909 C170.636,14.271 170.255,14.553 169.79,14.753 C169.326,14.954 168.736,15.054 168.02,15.054 C167.329,15.054 166.753,14.989 166.293,14.861 C165.832,14.732 165.437,14.523 165.105,14.235 C164.774,13.946 164.514,13.608 164.326,13.219 C164.138,12.83 164.044,12.315 164.044,11.673 C164.044,11.002 164.158,10.443 164.387,9.997 C164.555,9.67 164.784,9.377 165.075,9.117 C165.365,8.857 165.664,8.664 165.97,8.537 C166.457,8.336 167.081,8.236 167.842,8.236 C168.906,8.236 169.717,8.426 170.275,8.807 C170.834,9.187 171.225,9.744 171.45,10.476 L169.1,10.789 C169.026,10.511 168.892,10.301 168.698,10.16 C168.504,10.019 168.243,9.948 167.916,9.948 C167.503,9.948 167.168,10.097 166.912,10.393 C166.657,10.69 166.529,11.139 166.529,11.74 C166.529,12.276 166.656,12.683 166.909,12.961 C167.163,13.239 167.486,13.379 167.879,13.379 C168.206,13.379 168.481,13.295 168.704,13.127 C168.927,12.959 169.094,12.701 169.204,12.354 L169.204,12.354 Z M172.432,11.66 C172.432,10.666 172.768,9.847 173.439,9.203 C174.109,8.558 175.016,8.236 176.157,8.236 C177.462,8.236 178.448,8.615 179.115,9.371 C179.651,9.981 179.919,10.732 179.919,11.624 C179.919,12.626 179.586,13.447 178.922,14.087 C178.257,14.728 177.337,15.048 176.163,15.048 C175.116,15.048 174.269,14.782 173.623,14.25 C172.829,13.591 172.432,12.728 172.432,11.66 L172.432,11.66 Z M174.936,11.654 C174.936,12.235 175.053,12.665 175.289,12.943 C175.524,13.221 175.82,13.36 176.175,13.36 C176.535,13.36 176.831,13.223 177.062,12.949 C177.293,12.675 177.409,12.235 177.409,11.63 C177.409,11.065 177.292,10.645 177.059,10.369 C176.826,10.092 176.537,9.954 176.194,9.954 C175.83,9.954 175.529,10.095 175.292,10.375 C175.055,10.655 174.936,11.081 174.936,11.654 L174.936,11.654 Z M181.152,8.383 L183.484,8.383 L183.484,9.335 C183.819,8.938 184.158,8.656 184.5,8.488 C184.841,8.32 185.253,8.236 185.736,8.236 C186.256,8.236 186.667,8.328 186.97,8.512 C187.272,8.696 187.52,8.971 187.712,9.335 C188.105,8.909 188.463,8.62 188.786,8.466 C189.109,8.313 189.508,8.236 189.983,8.236 C190.682,8.236 191.228,8.444 191.621,8.859 C192.014,9.274 192.21,9.924 192.21,10.807 L192.21,14.9 L189.706,14.9 L189.706,11.188 C189.706,10.893 189.649,10.674 189.535,10.531 C189.367,10.306 189.158,10.194 188.909,10.194 C188.614,10.194 188.377,10.3 188.197,10.513 C188.017,10.726 187.927,11.067 187.927,11.538 L187.927,14.9 L185.423,14.9 L185.423,11.311 C185.423,11.024 185.407,10.83 185.374,10.728 C185.321,10.564 185.229,10.432 185.098,10.332 C184.967,10.232 184.814,10.181 184.638,10.181 C184.351,10.181 184.116,10.29 183.932,10.507 C183.748,10.724 183.656,11.079 183.656,11.574 L183.656,14.9 L181.152,14.9 L181.152,8.383 Z" display="inherit" fill="#000000" id="text2163" stroke="none" stroke-linecap="butt" stroke-linejoin="miter" stroke-width="1"/>
	<path d="M7.79,22.699 L10.208,22.699 L11.257,18.593 L12.582,22.699 L14.835,22.699 L16.209,18.593 L17.259,22.699 L19.658,22.699 L17.259,16.182 L15.037,16.182 L13.718,20.103 L12.441,16.182 L10.208,16.182 L7.79,22.699 Z M19.646,22.699 L22.063,22.699 L23.113,18.593 L24.438,22.699 L26.69,22.699 L28.065,18.593 L29.114,22.699 L31.514,22.699 L29.114,16.182 L26.893,16.182 L25.573,20.103 L24.297,16.182 L22.063,16.182 L19.646,22.699 Z M31.501,22.699 L33.919,22.699 L34.968,18.593 L36.294,22.699 L38.546,22.699 L39.921,18.593 L40.97,22.699 L43.369,22.699 L40.97,16.182 L38.749,16.182 L37.429,20.103 L36.153,16.182 L33.919,16.182 L31.501,22.699 Z M44.1,18.686 L46.769,18.686 L46.769,16.182 L44.1,16.182 L44.1,18.686 Z M52.979,19.44 L52.979,21.312 L57.275,21.312 L57.275,17.477 C56.452,16.916 55.725,16.535 55.093,16.332 C54.461,16.13 53.711,16.028 52.844,16.028 C51.776,16.028 50.906,16.21 50.233,16.575 C49.56,16.939 49.038,17.481 48.668,18.201 C48.298,18.921 48.113,19.747 48.113,20.68 C48.113,21.662 48.315,22.516 48.72,23.242 C49.125,23.968 49.719,24.519 50.5,24.896 C51.109,25.186 51.93,25.331 52.961,25.331 C53.955,25.331 54.698,25.241 55.191,25.061 C55.684,24.881 56.093,24.602 56.419,24.224 C56.744,23.845 56.988,23.366 57.152,22.785 L54.47,22.306 C54.36,22.646 54.173,22.905 53.909,23.085 C53.645,23.265 53.308,23.355 52.899,23.355 C52.29,23.355 51.804,23.144 51.442,22.72 C51.08,22.297 50.899,21.627 50.899,20.711 C50.899,19.737 51.082,19.041 51.448,18.624 C51.814,18.207 52.325,17.998 52.979,17.998 C53.29,17.998 53.587,18.043 53.869,18.133 C54.151,18.223 54.474,18.377 54.838,18.593 L54.838,19.44 L52.979,19.44 Z M65.639,16.182 L63.307,16.182 L63.307,17.237 C62.959,16.804 62.608,16.495 62.254,16.311 C61.901,16.127 61.466,16.035 60.95,16.035 C60.263,16.035 59.724,16.24 59.333,16.651 C58.943,17.062 58.747,17.696 58.747,18.551 L58.747,22.699 L61.257,22.699 L61.257,19.115 C61.257,18.706 61.333,18.416 61.484,18.244 C61.636,18.072 61.848,17.986 62.122,17.986 C62.421,17.986 62.666,18.101 62.856,18.33 C63.046,18.559 63.141,18.97 63.141,19.563 L63.141,22.699 L65.639,22.699 L65.639,16.182 Z M69.443,20.588 L67.056,20.839 C67.146,21.257 67.276,21.585 67.446,21.824 C67.616,22.064 67.86,22.271 68.179,22.447 C68.408,22.574 68.723,22.672 69.124,22.742 C69.525,22.811 69.959,22.846 70.425,22.846 C71.174,22.846 71.775,22.804 72.229,22.72 C72.683,22.636 73.062,22.462 73.365,22.196 C73.577,22.012 73.745,21.751 73.868,21.413 C73.99,21.076 74.052,20.754 74.052,20.447 L74.052,17.569 C74.052,17.262 74.071,17.022 74.11,16.848 C74.149,16.674 74.234,16.452 74.365,16.182 L72.021,16.182 C71.927,16.35 71.865,16.477 71.837,16.565 C71.808,16.653 71.779,16.791 71.751,16.98 C71.423,16.665 71.098,16.44 70.775,16.305 C70.333,16.125 69.82,16.035 69.235,16.035 C68.457,16.035 67.867,16.215 67.464,16.575 C67.061,16.935 66.86,17.378 66.86,17.906 C66.86,18.401 67.005,18.808 67.296,19.127 C67.586,19.446 68.122,19.684 68.903,19.839 C69.84,20.027 70.448,20.159 70.726,20.235 C71.004,20.311 71.299,20.41 71.609,20.533 C71.609,20.839 71.546,21.054 71.419,21.177 C71.292,21.3 71.069,21.361 70.75,21.361 C70.341,21.361 70.034,21.296 69.83,21.165 C69.67,21.062 69.541,20.87 69.443,20.588 L69.443,20.588 Z M71.609,19.275 C71.266,19.152 70.908,19.043 70.536,18.949 C70.028,18.814 69.707,18.681 69.572,18.551 C69.433,18.416 69.364,18.262 69.364,18.09 C69.364,17.894 69.432,17.733 69.569,17.609 C69.706,17.484 69.908,17.421 70.174,17.421 C70.452,17.421 70.71,17.489 70.95,17.624 C71.189,17.759 71.359,17.924 71.459,18.118 C71.559,18.312 71.609,18.565 71.609,18.876 L71.609,19.275 Z M75.586,22.699 L77.924,22.699 L77.924,21.631 C78.149,22.093 78.381,22.411 78.62,22.585 C78.86,22.759 79.155,22.846 79.507,22.846 C79.875,22.846 80.278,22.732 80.716,22.502 L79.943,20.723 C79.648,20.846 79.415,20.907 79.243,20.907 C78.916,20.907 78.662,20.772 78.482,20.502 C78.225,20.121 78.096,19.41 78.096,18.366 L78.096,16.182 L75.586,16.182 L75.586,22.699 Z M87.994,25.178 L87.994,16.182 L85.656,16.182 L85.656,17.145 C85.329,16.736 85.03,16.46 84.76,16.317 C84.4,16.129 83.999,16.035 83.557,16.035 C82.67,16.035 81.991,16.372 81.523,17.047 C81.055,17.722 80.82,18.542 80.82,19.508 C80.82,20.588 81.079,21.414 81.597,21.987 C82.114,22.56 82.772,22.846 83.57,22.846 C83.958,22.846 84.311,22.781 84.628,22.65 C84.945,22.519 85.226,22.322 85.472,22.061 L85.472,25.178 L87.994,25.178 Z M85.49,19.459 C85.49,19.97 85.382,20.352 85.165,20.603 C84.948,20.855 84.674,20.981 84.343,20.981 C84.052,20.981 83.809,20.86 83.612,20.619 C83.416,20.377 83.318,19.972 83.318,19.403 C83.318,18.872 83.419,18.482 83.622,18.234 C83.824,17.987 84.075,17.863 84.373,17.863 C84.692,17.863 84.958,17.988 85.171,18.238 C85.384,18.487 85.49,18.894 85.49,19.459 L85.49,19.459 Z M89.62,25.178 L92.118,25.178 L92.118,23.478 L89.62,23.478 L89.62,25.178 Z M89.62,22.699 L92.118,22.699 L92.118,16.182 L89.62,16.182 L89.62,22.699 Z M96.002,20.588 L93.615,20.839 C93.705,21.257 93.835,21.585 94.005,21.824 C94.174,22.064 94.419,22.271 94.738,22.447 C94.967,22.574 95.282,22.672 95.683,22.742 C96.084,22.811 96.518,22.846 96.984,22.846 C97.733,22.846 98.334,22.804 98.788,22.72 C99.242,22.636 99.621,22.462 99.923,22.196 C100.136,22.012 100.304,21.751 100.426,21.413 C100.549,21.076 100.611,20.754 100.611,20.447 L100.611,17.569 C100.611,17.262 100.63,17.022 100.669,16.848 C100.708,16.674 100.793,16.452 100.924,16.182 L98.579,16.182 C98.485,16.35 98.424,16.477 98.395,16.565 C98.367,16.653 98.338,16.791 98.309,16.98 C97.982,16.665 97.657,16.44 97.334,16.305 C96.892,16.125 96.378,16.035 95.793,16.035 C95.016,16.035 94.426,16.215 94.023,16.575 C93.62,16.935 93.419,17.378 93.419,17.906 C93.419,18.401 93.564,18.808 93.854,19.127 C94.145,19.446 94.681,19.684 95.462,19.839 C96.399,20.027 97.006,20.159 97.285,20.235 C97.563,20.311 97.857,20.41 98.168,20.533 C98.168,20.839 98.105,21.054 97.978,21.177 C97.851,21.3 97.628,21.361 97.309,21.361 C96.9,21.361 96.593,21.296 96.389,21.165 C96.229,21.062 96.1,20.87 96.002,20.588 L96.002,20.588 Z M98.168,19.275 C97.825,19.152 97.467,19.043 97.094,18.949 C96.587,18.814 96.266,18.681 96.131,18.551 C95.992,18.416 95.922,18.262 95.922,18.09 C95.922,17.894 95.991,17.733 96.128,17.609 C96.265,17.484 96.466,17.421 96.732,17.421 C97.01,17.421 97.269,17.489 97.509,17.624 C97.748,17.759 97.918,17.924 98.018,18.118 C98.118,18.312 98.168,18.565 98.168,18.876 L98.168,19.275 Z M102.12,22.699 L104.446,22.699 L104.446,21.637 C104.794,22.071 105.145,22.381 105.501,22.567 C105.857,22.753 106.291,22.846 106.802,22.846 C107.494,22.846 108.035,22.64 108.425,22.229 C108.816,21.818 109.011,21.183 109.011,20.324 L109.011,16.182 L106.502,16.182 L106.502,19.766 C106.502,20.175 106.426,20.464 106.275,20.634 C106.123,20.804 105.91,20.889 105.636,20.889 C105.334,20.889 105.088,20.774 104.9,20.545 C104.712,20.316 104.618,19.905 104.618,19.311 L104.618,16.182 L102.12,16.182 L102.12,22.699 Z M110.036,20.428 L113.669,20.428 L113.669,18.495 L110.036,18.495 L110.036,20.428 Z M114.847,25.178 L118.505,25.178 L119.916,19.704 L121.321,25.178 L124.966,25.178 L124.966,16.182 L122.696,16.182 L122.696,23.042 L120.935,16.182 L118.879,16.182 L117.124,23.042 L117.124,16.182 L114.847,16.182 L114.847,25.178 Z M126.261,19.422 C126.261,20.416 126.597,21.235 127.268,21.88 C127.938,22.524 128.845,22.846 129.986,22.846 C131.291,22.846 132.277,22.468 132.944,21.711 C133.48,21.101 133.748,20.351 133.748,19.459 C133.748,18.456 133.415,17.635 132.75,16.995 C132.086,16.355 131.166,16.035 129.992,16.035 C128.945,16.035 128.098,16.3 127.452,16.832 C126.658,17.491 126.261,18.354 126.261,19.422 L126.261,19.422 Z M128.765,19.428 C128.765,18.847 128.882,18.418 129.118,18.139 C129.353,17.861 129.648,17.722 130.004,17.722 C130.364,17.722 130.66,17.859 130.891,18.133 C131.122,18.407 131.238,18.847 131.238,19.453 C131.238,20.017 131.121,20.437 130.888,20.714 C130.655,20.99 130.366,21.128 130.023,21.128 C129.659,21.128 129.358,20.988 129.121,20.708 C128.883,20.427 128.765,20.001 128.765,19.428 L128.765,19.428 Z M134.975,25.178 L137.497,25.178 L137.497,22.061 C137.747,22.322 138.03,22.519 138.347,22.65 C138.664,22.781 139.015,22.846 139.399,22.846 C140.193,22.846 140.85,22.561 141.369,21.99 C141.889,21.419 142.149,20.6 142.149,19.532 C142.149,18.821 142.03,18.194 141.793,17.652 C141.555,17.109 141.227,16.704 140.808,16.437 C140.388,16.169 139.923,16.035 139.412,16.035 C138.974,16.035 138.573,16.129 138.209,16.317 C137.935,16.464 137.636,16.74 137.313,17.145 L137.313,16.182 L134.975,16.182 L134.975,25.178 Z M137.479,19.459 C137.479,18.898 137.584,18.492 137.795,18.241 C138.005,17.989 138.272,17.863 138.596,17.863 C138.894,17.863 139.145,17.987 139.347,18.234 C139.55,18.482 139.651,18.898 139.651,19.483 C139.651,19.999 139.552,20.377 139.353,20.619 C139.155,20.86 138.915,20.981 138.632,20.981 C138.293,20.981 138.016,20.855 137.801,20.603 C137.586,20.352 137.479,19.97 137.479,19.459 L137.479,19.459 Z M143.449,25.178 L145.947,25.178 L145.947,23.478 L143.449,23.478 L143.449,25.178 Z M143.449,22.699 L145.947,22.699 L145.947,16.182 L143.449,16.182 L143.449,22.699 Z M147.641,25.178 L150.144,25.178 L150.144,16.182 L147.641,16.182 L147.641,25.178 Z M158.987,18.821 L153.98,18.821 C154.025,18.42 154.133,18.121 154.305,17.925 C154.546,17.642 154.861,17.501 155.25,17.501 C155.495,17.501 155.729,17.563 155.95,17.685 C156.085,17.763 156.23,17.9 156.385,18.096 L158.846,17.869 C158.47,17.215 158.015,16.745 157.484,16.461 C156.952,16.177 156.189,16.035 155.195,16.035 C154.332,16.035 153.652,16.156 153.157,16.4 C152.662,16.643 152.252,17.03 151.927,17.559 C151.602,18.089 151.439,18.712 151.439,19.428 C151.439,20.447 151.765,21.271 152.418,21.901 C153.07,22.531 153.972,22.846 155.121,22.846 C156.054,22.846 156.79,22.705 157.33,22.423 C157.87,22.14 158.281,21.731 158.564,21.195 C158.846,20.659 158.987,19.962 158.987,19.103 L158.987,18.821 Z M156.447,20.017 C156.397,20.5 156.268,20.846 156.057,21.054 C155.846,21.263 155.569,21.367 155.225,21.367 C154.829,21.367 154.512,21.21 154.274,20.895 C154.123,20.698 154.027,20.406 153.986,20.017 L156.447,20.017 Z M160.153,18.686 L162.822,18.686 L162.822,16.182 L160.153,16.182 L160.153,18.686 Z M169.204,18.728 L171.579,18.458 C171.448,17.963 171.233,17.535 170.935,17.173 C170.636,16.811 170.255,16.53 169.79,16.329 C169.326,16.129 168.736,16.028 168.02,16.028 C167.329,16.028 166.753,16.093 166.293,16.222 C165.832,16.351 165.437,16.559 165.105,16.848 C164.774,17.136 164.514,17.475 164.326,17.863 C164.138,18.252 164.044,18.767 164.044,19.41 C164.044,20.081 164.158,20.639 164.387,21.085 C164.555,21.412 164.784,21.706 165.075,21.965 C165.365,22.225 165.664,22.419 165.97,22.545 C166.457,22.746 167.081,22.846 167.842,22.846 C168.906,22.846 169.717,22.656 170.275,22.275 C170.834,21.895 171.225,21.339 171.45,20.606 L169.1,20.293 C169.026,20.571 168.892,20.781 168.698,20.922 C168.504,21.063 168.243,21.134 167.916,21.134 C167.503,21.134 167.168,20.986 166.912,20.689 C166.657,20.392 166.529,19.944 166.529,19.342 C166.529,18.806 166.656,18.399 166.909,18.121 C167.163,17.843 167.486,17.704 167.879,17.704 C168.206,17.704 168.481,17.788 168.704,17.955 C168.927,18.123 169.094,18.381 169.204,18.728 L169.204,18.728 Z M172.432,19.422 C172.432,20.416 172.768,21.235 173.439,21.88 C174.109,22.524 175.016,22.846 176.157,22.846 C177.462,22.846 178.448,22.468 179.115,21.711 C179.651,21.101 179.919,20.351 179.919,19.459 C179.919,18.456 179.586,17.635 178.922,16.995 C178.257,16.355 177.337,16.035 176.163,16.035 C175.116,16.035 174.269,16.3 173.623,16.832 C172.829,17.491 172.432,18.354 172.432,19.422 L172.432,19.422 Z M174.936,19.428 C174.936,18.847 175.053,18.418 175.289,18.139 C175.524,17.861 175.82,17.722 176.175,17.722 C176.535,17.722 176.831,17.859 177.062,18.133 C177.293,18.407 177.409,18.847 177.409,19.453 C177.409,20.017 177.292,20.437 177.059,20.714 C176.826,20.99 176.537,21.128 176.194,21.128 C175.83,21.128 175.529,20.988 175.292,20.708 C175.054,20.427 174.936,20.001 174.936,19.428 L174.936,19.428 Z M181.152,22.699 L183.484,22.699 L183.484,21.748 C183.819,22.144 184.158,22.427 184.5,22.594 C184.841,22.762 185.253,22.846 185.736,22.846 C186.256,22.846 186.667,22.754 186.97,22.57 C187.272,22.386 187.52,22.112 187.712,21.748 C188.105,22.173 188.463,22.463 188.786,22.616 C189.109,22.769 189.508,22.846 189.983,22.846 C190.682,22.846 191.228,22.638 191.621,22.223 C192.014,21.808 192.21,21.159 192.21,20.275 L192.21,16.182 L189.706,16.182 L189.706,19.894 C189.706,20.189 189.649,20.408 189.535,20.551 C189.367,20.776 189.158,20.889 188.909,20.889 C188.614,20.889 188.377,20.782 188.197,20.569 C188.017,20.357 187.927,20.015 187.927,19.545 L187.927,16.182 L185.423,16.182 L185.423,19.772 C185.423,20.058 185.407,20.252 185.374,20.355 C185.321,20.518 185.229,20.65 185.098,20.75 C184.967,20.851 184.814,20.901 184.638,20.901 C184.351,20.901 184.116,20.792 183.932,20.576 C183.748,20.359 183.656,20.003 183.656,19.508 L183.656,16.182 L181.152,16.182 L181.152,22.699 Z" display="inherit" fill="url(#gr_1216)" id="path2168" stroke="none" stroke-linecap="butt" stroke-linejoin="miter" stroke-width="1"/>
</svg>
