<?xml version="1.0" encoding="utf-8"?>
<!-- Generator: Adobe Illustrator 15.0.2, SVG Export Plug-In . SVG Version: 6.00 Build 0)  -->
<!DOCTYPE svg PUBLIC "-//W3C//DTD SVG 1.1//EN" "http://www.w3.org/Graphics/SVG/1.1/DTD/svg11.dtd">
<svg version="1.1"
	 id="Livello_1" sodipodi:version="0.32" inkscape:version="0.45.1" sodipodi:docbase="C:\online\Guardian3rd\GuardGUI\gfx" sodipodi:docname="menu.svg" xmlns:dc="http://purl.org/dc/elements/1.1/" xmlns:cc="http://web.resource.org/cc/" xmlns:rdf="http://www.w3.org/1999/02/22-rdf-syntax-ns#" xmlns:svg="http://www.w3.org/2000/svg" xmlns:sodipodi="http://sodipodi.sourceforge.net/DTD/sodipodi-0.dtd" xmlns:inkscape="http://www.inkscape.org/namespaces/inkscape" inkscape:output_extension="org.inkscape.output.svg.inkscape"
	 xmlns="http://www.w3.org/2000/svg" xmlns:xlink="http://www.w3.org/1999/xlink" x="0px" y="0px" width="613.333px" height="404px"
	 viewBox="-256.283 -102.3 613.333 404" enable-background="new -256.283 -102.3 613.333 404" xml:space="preserve">
<sodipodi:namedview  id="base" inkscape:current-layer="Livello_1" inkscape:window-y="116" inkscape:window-x="88" inkscape:window-width="791" inkscape:pageshadow="2" inkscape:pageopacity="0.0" inkscape:window-height="573" inkscape:zoom="4.5752426" pagecolor="#ffffff" bordercolor="#666666" objecttolerance="10.0" borderopacity="1.0" inkscape:cy="41.200001" inkscape:cx="42.549999" guidetolerance="10.0" gridtolerance="10.0">
	</sodipodi:namedview>
<g id="g2403" transform="translate(0,4.1527853)">
	
		<radialGradient id="ellipse8_1_" cx="268.7004" cy="404.5023" r="54.2455" gradientTransform="matrix(2.0042 0 0 1.9014 -496.3324 -731.3586)" gradientUnits="userSpaceOnUse">
		<stop  offset="0.3152" style="stop-color:#FAD1C1"/>
		<stop  offset="0.6424" style="stop-color:#FF4532"/>
		<stop  offset="0.8788" style="stop-color:#B31E11"/>
	</radialGradient>
	
		<ellipse id="ellipse8" sodipodi:ry="34.700001" sodipodi:rx="35.900002" sodipodi:cy="37.400002" sodipodi:cx="42.400002" fill="url(#ellipse8_1_)" cx="42.198" cy="37.761" rx="107.701" ry="104.101">
	</ellipse>
	<radialGradient id="SVGID_1_" cx="41.05" cy="34.2137" r="105.8722" gradientUnits="userSpaceOnUse">
		<stop  offset="0.4545" style="stop-color:#FFEDC8"/>
		<stop  offset="1" style="stop-color:#FF2100"/>
	</radialGradient>
	<path opacity="0.5" fill="url(#SVGID_1_)" d="M-4.609,15.826c-23.303,0-44.595,8.756-60.875,23.206
		c0.706,56.905,48.64,102.829,107.682,102.829c15.297,0,29.846-3.09,43.024-8.647c1.842-7.409,2.823-15.167,2.823-23.159
		C88.045,58.021,46.554,15.826-4.609,15.826z"/>
	
		<linearGradient id="path15_1_" gradientUnits="userSpaceOnUse" x1="710.9075" y1="155.4085" x2="919.9299" y2="155.4085" gradientTransform="matrix(0.8908 0.4847 -0.9892 1.818 -502.9776 -690.6803)">
		<stop  offset="0" style="stop-color:#2BBFF7"/>
		<stop  offset="1" style="stop-color:#033375"/>
	</linearGradient>
	<path id="path15" fill="url(#path15_1_)" d="M-46.9-20.437c22.5-41.101,92.098-62.701,143.698-33.601
		c49.5,27.899,66,93.299,44.399,131.399"/>
	<g id="g17">
		<path id="path19" fill="#FFFFFF" stroke="#FFFFFF" d="M143.899,68.962C143.899,18.261-5.802-89.437-46.9-18.34"/>
		
			<radialGradient id="path26_1_" cx="273.7278" cy="397.5726" r="38.7574" gradientTransform="matrix(1.9769 0 0 1.9088 -495.3339 -731.1375)" gradientUnits="userSpaceOnUse">
			<stop  offset="0.3152" style="stop-color:#FAD1C1"/>
			<stop  offset="0.6424" style="stop-color:#FF4532"/>
			<stop  offset="0.8788" style="stop-color:#B31E11"/>
		</radialGradient>
		<path id="path26" fill="url(#path26_1_)" stroke="#FFFFFF" d="M141.198,77.362c0-38.101-118.799-124.5-190.799-92.101"/>
		<polygon id="polygon28" fill="#FFFFFF" points="136.1,62.962 145.1,68.66 142.999,74.962 		"/>
		<polygon id="polygon30" fill="#FFFFFF" points="139.999,81.862 139.999,70.462 143.298,73.761 		"/>
		<polygon id="polygon32" fill="#FFFFFF" points="-43.302,-16.538 -52.601,-11.739 -46.601,-21.34 		"/>
	</g>
	<g id="g34">
		<g id="g36">
			<g id="g38">
				<g id="g40">
					<path id="path42" fill="none" stroke="#FFFFFF" stroke-width="0.25" stroke-opacity="0.54" d="M-23.202,53.063
						c38.101-27,90.302-20.101,117.302,15"/>
					<g id="g44">
						<g id="g46">
							<path id="path48" fill="none" stroke="#FFFFFF" stroke-width="0.25" stroke-opacity="0.54" d="M70.399,117.261
								C70.399,53.66,18.198,2.362-46.302,2.362"/>
							<path id="path50" fill="none" stroke="#FFFFFF" stroke-width="0.25" stroke-opacity="0.54" d="M-31.9,92.66
								c62.098-20.698,94.5-63,73.5-121.799"/>
							<path id="path52" fill="none" stroke="#FFFFFF" stroke-width="0.25" stroke-opacity="0.54" d="M0.499,116.66
								C47.6,72.261,57.198,7.462,12.198-36.937"/>
							<path id="path54" fill="none" stroke="#FFFFFF" stroke-width="0.25" stroke-opacity="0.54" d="M-52.9,28.761
								C5.899,57.563,65.298,58.16,94.1,2.66"/>
						</g>
						<path id="path56" fill="none" stroke="#FFFFFF" stroke-width="0.25" stroke-opacity="0.54" d="M19.1-36.937
							C1.399,24.261,40.399,65.962,102.499,82.761"/>
						<path id="path58" fill="none" stroke="#FFFFFF" stroke-width="0.25" stroke-opacity="0.54" d="M59.899-22.538
							c0,45.601-36.601,82.198-81.899,82.198"/>
						<path id="path60" fill="none" stroke="#FFFFFF" stroke-width="0.25" stroke-opacity="0.54" d="M-14.501-4.538
							c45,13.799,70.198,58.799,56.698,100.198"/>
						<path id="path62" fill="none" stroke="#FFFFFF" stroke-width="0.25" stroke-opacity="0.54" d="M3.198,46.16
							c42.902-18.899,93-1.5,111.601,38.402"/>
						<path id="path64" fill="none" stroke="#FFFFFF" stroke-width="0.25" stroke-opacity="0.54" d="M-32.501,12.261
							c47.101-3,87.601,29.701,90.601,73.5"/>
						<path id="path66" fill="none" stroke="#FFFFFF" stroke-width="0.25" stroke-opacity="0.54" d="M35.298,87.563
							C22.1,43.761,25.399,2.063,68.899-10.538"/>
					</g>
					<path id="path68" fill="none" stroke="#FFFFFF" stroke-width="0.25" stroke-opacity="0.54" d="M-21.4,44.66
						c10.198-17.399,32.098-24.299,48.598-15.598"/>
					<path id="path70" fill="none" stroke="#FFFFFF" stroke-width="0.25" stroke-opacity="0.54" d="M78.499,82.761
						c-16.201-12.601-19.802-34.5-7.802-48.899"/>
				</g>
				<g id="g72">
					<path id="path74" fill="none" stroke="#FFFFFF" stroke-width="0.25" stroke-opacity="0.54" d="M-16.601,16.16
						c47.101,2.101,83.701,38.701,81.601,82.5"/>
					<g id="g76">
						<g id="g78">
							<path id="path80" fill="none" stroke="#FFFFFF" stroke-width="0.25" stroke-opacity="0.54" d="M15.198,122.66
								C56.298,72.862,49.1,1.16-1.302-37.84"/>
							<path id="path82" fill="none" stroke="#FFFFFF" stroke-width="0.25" stroke-opacity="0.54" d="M-49.001,41.66
								C13.1,63.261,60.198,52.462,82.1-5.739"/>
							<path id="path84" fill="none" stroke="#FFFFFF" stroke-width="0.25" stroke-opacity="0.54" d="M-39.4,79.761
								C25.999,73.462,73.399,44.962,67.1-16.84"/>
							<path id="path86" fill="none" stroke="#FFFFFF" stroke-width="0.25" stroke-opacity="0.54" d="M-24.101-21.038
								C3.198,36.862,49.1,73.16,107.6,47.362"/>
						</g>
						<path id="path88" fill="none" stroke="#FFFFFF" stroke-width="0.25" stroke-opacity="0.54" d="M55.999-21.638
							C31.999-4.84-0.4,30.563,62.298,115.16"/>
						<path id="path90" fill="none" stroke="#FFFFFF" stroke-width="0.25" stroke-opacity="0.54" d="M97.399,7.462
							C67.999,42.862,15.198,49.462-19.9,22.16"/>
						<path id="path92" fill="none" stroke="#FFFFFF" stroke-width="0.25" stroke-opacity="0.54" d="M27.198-23.739
							c26.101,37.802,17.101,88.201-20.698,112.5"/>
						<path id="path94" fill="none" stroke="#FFFFFF" stroke-width="0.25" stroke-opacity="0.54" d="M8.6,26.362
							c45.598,11.399,73.5,54.601,62.098,97.201"/>
						<path id="path96" fill="none" stroke="#FFFFFF" stroke-width="0.25" stroke-opacity="0.54" d="M2.6-21.638
							C41.298,4.462,51.798,54.563,25.698,90.563"/>
						<path id="path98" fill="none" stroke="#FFFFFF" stroke-width="0.25" stroke-opacity="0.54" d="M6.798,78.261
							c18-42.299,66.302-62.698,108.302-46.198"/>
					</g>
					<path id="path100" fill="none" stroke="#FFFFFF" stroke-width="0.25" stroke-opacity="0.54" d="M-10.001,10.462
						c19.198-7.5,40.799,0.299,47.698,17.399"/>
					<path id="path102" fill="none" stroke="#FFFFFF" stroke-width="0.25" stroke-opacity="0.54" d="M43.399,100.761
						c-4.5-19.799,6.899-39,25.5-42.899"/>
				</g>
				<g id="g104">
					<path id="path106" fill="none" stroke="#FFFFFF" stroke-width="0.25" stroke-opacity="0.54" d="M-5.202-0.937
						C38.6,16.16,60.499,62.66,43.698,103.16"/>
					<g id="g108">
						<g id="g110">
							<path id="path112" fill="none" stroke="#FFFFFF" stroke-width="0.25" stroke-opacity="0.54" d="M-11.501,110.063
								c55.799-33.902,68.101-94.201,33.899-147"/>
							<path id="path114" fill="none" stroke="#FFFFFF" stroke-width="0.25" stroke-opacity="0.54" d="M-44.202,13.16
								C7.1,53.063,55.698,57.563,96.198,8.962"/>
							<path id="path116" fill="none" stroke="#FFFFFF" stroke-width="0.25" stroke-opacity="0.54" d="M-48.702,52.16
								C15.499,67.16,56.6,56.66,71.6-3.937"/>
							<path id="path118" fill="none" stroke="#FFFFFF" stroke-width="0.25" stroke-opacity="0.54" d="M0.499-38.138
								c6,63.299,36.899,112.201,101.101,106.5"/>
						</g>
						<path id="path120" fill="none" stroke="#FFFFFF" stroke-width="0.25" stroke-opacity="0.54" d="M78.798-7.538
							c-63.299,18-61.799,65.399-43.5,125.101"/>
						<path id="path122" fill="none" stroke="#FFFFFF" stroke-width="0.25" stroke-opacity="0.54" d="M105.499,26.962
							C65.6,50.962,13.698,40.761-10.302,3.563"/>
						<path id="path124" fill="none" stroke="#FFFFFF" stroke-width="0.25" stroke-opacity="0.54" d="M49.999-24.638
							c12,44.101-14.101,88.5-57.899,99.899"/>
						<path id="path126" fill="none" stroke="#FFFFFF" stroke-width="0.25" stroke-opacity="0.54" d="M15.198,16.761
							c39.302,25.201,50.701,75.302,25.5,111.601"/>
						<path id="path128" fill="none" stroke="#FFFFFF" stroke-width="0.25" stroke-opacity="0.54" d="M25.698-30.038
							C53.298,6.563,46.399,57.563,9.499,83.063"/>
						<path id="path130" fill="none" stroke="#FFFFFF" stroke-width="0.25" stroke-opacity="0.54" d="M-4.601,65.362
							c31.201-33.899,84-38.101,118.201-9"/>
					</g>
					<path id="path132" fill="none" stroke="#FFFFFF" stroke-width="0.25" stroke-opacity="0.54" d="M2.899-3.937
						C23.6-4.84,41.298,9.261,42.198,27.563"/>
					<path id="path134" fill="none" stroke="#FFFFFF" stroke-width="0.25" stroke-opacity="0.54" d="M22.698,98.362
						c2.402-20.101,19.5-34.5,38.701-32.399"/>
				</g>
			</g>
			<path id="path136" fill="none" stroke="#FFFFFF" stroke-width="0.25" stroke-opacity="0.54" d="M138.798,77.962
				C60.198,36.862,12.198,11.66-33.101,67.462"/>
			<path id="path138" fill="none" stroke="#FFFFFF" stroke-width="0.25" stroke-opacity="0.54" d="M74.6,104.063
				c-31.201-81-68.101-92.402-122.402-117"/>
		</g>
		<g id="g140">
			<g id="g142">
				<g id="g144">
					<path id="path146" fill="none" stroke="#FFFFFF" stroke-width="0.25" stroke-opacity="0.54" d="M99.499,57.563
						c-38.101-27-90.302-20.101-117.302,15"/>
					<g id="g148">
						<g id="g150">
							<path id="path152" fill="none" stroke="#FFFFFF" stroke-width="0.25" stroke-opacity="0.54" d="M5.899,121.761
								c0-63.601,27-114.299,91.5-114.299"/>
							<path id="path154" fill="none" stroke="#FFFFFF" stroke-width="0.25" stroke-opacity="0.54" d="M108.198,97.16
								c-62.098-20.698-94.5-63-73.5-121.799"/>
							<path id="path156" fill="none" stroke="#FFFFFF" stroke-width="0.25" stroke-opacity="0.54" d="M76.399,121.16
								C28.999,76.761,6.798,20.962,51.798-23.739"/>
							<path id="path158" fill="none" stroke="#FFFFFF" stroke-width="0.25" stroke-opacity="0.54" d="M129.499,32.962
								c-58.802,28.799-118.201,29.399-147-26.101"/>
						</g>
						<path id="path160" fill="none" stroke="#FFFFFF" stroke-width="0.25" stroke-opacity="0.54" d="M58.399-19.84
							C76.1,41.362,36.198,70.462-25.9,87.563"/>
						<path id="path162" fill="none" stroke="#FFFFFF" stroke-width="0.25" stroke-opacity="0.54" d="M16.399-18.34
							c0,45.302,36.601,82.201,81.899,82.201"/>
						<path id="path164" fill="none" stroke="#FFFFFF" stroke-width="0.25" stroke-opacity="0.54" d="M91.399-0.038
							c-45,13.799-70.201,58.5-57,100.198"/>
						<path id="path166" fill="none" stroke="#FFFFFF" stroke-width="0.25" stroke-opacity="0.54" d="M73.399,50.362
							c-42.899-18.899-93-1.5-111.601,38.399"/>
						<path id="path168" fill="none" stroke="#FFFFFF" stroke-width="0.25" stroke-opacity="0.54" d="M109.1,16.462
							c-47.101-3-87.601,30-90.601,73.5"/>
						<path id="path170" fill="none" stroke="#FFFFFF" stroke-width="0.25" stroke-opacity="0.54" d="M41.298,92.063
							c13.201-43.802,9.899-85.5-33.601-98.101"/>
					</g>
					<path id="path172" fill="none" stroke="#FFFFFF" stroke-width="0.25" stroke-opacity="0.54" d="M97.999,49.462
						C87.798,32.063,65.899,25.16,49.399,33.862"/>
					<path id="path174" fill="none" stroke="#FFFFFF" stroke-width="0.25" stroke-opacity="0.54" d="M-2.202,87.563
						C13.999,74.962,17.6,53.362,5.6,38.66"/>
				</g>
				<g id="g176">
					<path id="path178" fill="none" stroke="#FFFFFF" stroke-width="0.25" stroke-opacity="0.54" d="M92.899,20.362
						c-47.101,2.101-83.701,38.701-81.899,82.5"/>
					<g id="g180">
						<g id="g182">
							<path id="path184" fill="none" stroke="#FFFFFF" stroke-width="0.25" stroke-opacity="0.54" d="M61.698,127.16
								C20.6,77.362,13.698,25.462,64.1-13.538"/>
							<path id="path186" fill="none" stroke="#FFFFFF" stroke-width="0.25" stroke-opacity="0.54" d="M125.298,46.16
								C63.198,67.761,16.1,56.962-5.802-1.239"/>
							<path id="path188" fill="none" stroke="#FFFFFF" stroke-width="0.25" stroke-opacity="0.54" d="M115.999,84.261
								C50.6,77.962,2.899,49.462,9.499-12.34"/>
							<path id="path190" fill="none" stroke="#FFFFFF" stroke-width="0.25" stroke-opacity="0.54" d="M73.399-10.84
								C46.1,47.063,27.499,77.66-31.001,51.862"/>
						</g>
						<path id="path192" fill="none" stroke="#FFFFFF" stroke-width="0.25" stroke-opacity="0.54" d="M20.6-17.138
							c24,16.799,56.399,52.201-6.302,136.799"/>
						<path id="path194" fill="none" stroke="#FFFFFF" stroke-width="0.25" stroke-opacity="0.54" d="M-21.101,11.66
							C8.298,47.362,60.798,53.962,96.198,26.362"/>
						<path id="path196" fill="none" stroke="#FFFFFF" stroke-width="0.25" stroke-opacity="0.54" d="M49.1-19.239
							c-26.101,37.802-17.101,88.201,20.698,112.5"/>
						<path id="path198" fill="none" stroke="#FFFFFF" stroke-width="0.25" stroke-opacity="0.54" d="M67.999,30.862
							c-45.601,11.399-73.5,54.899-62.101,97.201"/>
						<path id="path200" fill="none" stroke="#FFFFFF" stroke-width="0.25" stroke-opacity="0.54" d="M62.6-14.138
							C23.899,11.66,24.798,59.063,50.6,95.063"/>
						<path id="path202" fill="none" stroke="#FFFFFF" stroke-width="0.25" stroke-opacity="0.54" d="M69.798,82.761
							c-18-42.299-66.299-63-108.299-46.198"/>
					</g>
					<path id="path204" fill="none" stroke="#FFFFFF" stroke-width="0.25" stroke-opacity="0.54" d="M86.298,14.962
						C67.1,7.462,45.499,15.261,38.6,32.362"/>
					<path id="path206" fill="none" stroke="#FFFFFF" stroke-width="0.25" stroke-opacity="0.54" d="M32.899,105.261
						c4.5-19.799-6.899-39-25.5-42.899"/>
				</g>
				<g id="g208">
					<path id="path210" fill="none" stroke="#FFFFFF" stroke-width="0.25" stroke-opacity="0.54" d="M81.798,3.563
						c-43.799,16.799-66,63.299-49.198,103.799"/>
					<g id="g212">
						<g id="g214">
							<path id="path216" fill="none" stroke="#FFFFFF" stroke-width="0.25" stroke-opacity="0.54" d="M88.1,114.261
								c-55.802-33.899-75-85.198-40.5-137.698"/>
							<path id="path218" fill="none" stroke="#FFFFFF" stroke-width="0.25" stroke-opacity="0.54" d="M109.1,16.462
								c-51.302,40.198-88.201,45.299-128.402-3"/>
							<path id="path220" fill="none" stroke="#FFFFFF" stroke-width="0.25" stroke-opacity="0.54" d="M124.999,56.66
								c-63.899,15-105,4.5-120.302-56.098"/>
							<path id="path222" fill="none" stroke="#FFFFFF" stroke-width="0.25" stroke-opacity="0.54" d="M75.198-8.437
								c-6,63.299-35.698,86.698-99.899,81"/>
						</g>
						<path id="path224" fill="none" stroke="#FFFFFF" stroke-width="0.25" stroke-opacity="0.54" d="M-2.501-3.34
							c63.299,18,61.799,65.402,43.5,125.101"/>
						<path id="path226" fill="none" stroke="#FFFFFF" stroke-width="0.25" stroke-opacity="0.54" d="M-28.9,31.462
							c39.899,24,91.799,13.799,115.799-23.399"/>
						<path id="path228" fill="none" stroke="#FFFFFF" stroke-width="0.25" stroke-opacity="0.54" d="M26.899-19.84
							c-12,44.101,14.101,88.5,57.899,99.902"/>
						<path id="path230" fill="none" stroke="#FFFFFF" stroke-width="0.25" stroke-opacity="0.54" d="M61.698,21.563
							c-39.598,24.899-51,75-25.799,111.299"/>
						<path id="path232" fill="none" stroke="#FFFFFF" stroke-width="0.25" stroke-opacity="0.54" d="M50.899-25.84
							C23.298,11.362,30.198,61.761,67.1,87.261"/>
						<path id="path234" fill="none" stroke="#FFFFFF" stroke-width="0.25" stroke-opacity="0.54" d="M80.899,69.563
							c-31.201-33.902-84-38.101-118.201-9"/>
					</g>
					<path id="path236" fill="none" stroke="#FFFFFF" stroke-width="0.25" stroke-opacity="0.54" d="M73.698,0.563
						c-20.698-0.902-38.399,13.198-39.299,31.5"/>
					<path id="path238" fill="none" stroke="#FFFFFF" stroke-width="0.25" stroke-opacity="0.54" d="M53.899,102.563
						c-2.399-20.101-19.5-34.5-38.701-32.402"/>
				</g>
			</g>
			<path id="path240" fill="none" stroke="#FFFFFF" stroke-width="0.25" stroke-opacity="0.54" d="M-50.802,75.261
				C27.798,34.16,64.1,16.462,109.698,71.962"/>
			<path id="path242" fill="none" stroke="#FFFFFF" stroke-width="0.25" stroke-opacity="0.54" d="M1.999,108.261
				c31.198-81,16.799-90.899,71.101-115.5"/>
		</g>
	</g>
	
		<ellipse id="ellipse244" sodipodi:ry="13.9" sodipodi:rx="14.9" sodipodi:cy="37.799999" sodipodi:cx="41.799999" fill="#1B171B" cx="40.399" cy="38.961" rx="44.701" ry="41.7">
	</ellipse>
	
		<ellipse id="ellipse246" sodipodi:ry="5.9000001" sodipodi:rx="5.8000002" sodipodi:cy="31.200001" sodipodi:cx="28.9" fill="#FFFFFF" cx="1.698" cy="19.162" rx="17.402" ry="17.7">
	</ellipse>
</g>
<g>
	<path d="M246.957,219.732c-0.659-2.5-1.093-5.104-2.381-7.371c-2.289-4.571-7.539-7.119-12.522-7.056
		c-17.115,0.021-34.224-0.043-51.331,0.027c0.007,5.487,0.007,10.977-0.008,16.457c13.384,0.435,26.769-0.28,40.159,0.273
		c2.107-0.028,4.215-0.154,6.321-0.273c1.021,0.104,2.059,0.238,3.094,0.371c-0.056,2.562-0.042,5.124-0.056,7.693
		c-9.653-0.021-19.313,0-28.966-0.014c-3.731,0.048-7.539-0.078-11.116,1.183c-3.948,1.554-6.629,5.082-7.847,9.064
		c-1.855,7.351-2.443,15.506,0.574,22.631c2.68,5.3,8.344,8.618,14.251,8.582c16.716,0.063,33.432,0.007,50.148,0.028
		c0.007-9.472,0-18.941,0.007-28.413c0.063-3.947-0.224-7.917,0.294-11.844C247.95,227.27,247.104,223.512,246.957,219.732z
		 M198.146,254.305c0.007-2.317,0-4.642,0-6.958c10.703-0.042,21.406-0.085,32.108,0.021c-0.007,2.317-0.007,4.634,0.014,6.951
		C219.566,254.269,208.856,254.291,198.146,254.305z"/>
	<path d="M144.687,260.444c0.027-9.101,0.007-18.2,0.007-27.3c-0.133-15.54,0.252-31.095-0.168-46.627
		c-5.649,0.034-11.291-0.063-16.934,0.056c-0.049,6.251,0.154,12.509-0.111,18.753c-11.333-0.042-22.666-0.007-33.992-0.021
		c-7.771-0.077-14.994,6.748-15.064,14.573c-0.021,9.548-0.014,19.104-0.007,28.651c0.084,2.086-0.091,4.221,0.462,6.258
		c0.379,4.2,1.009,8.834,4.109,11.978c2.114,2.498,5.313,3.584,8.414,4.255c2.555,0.386,5.152,0.287,7.734,0.309
		c15.128-0.007,30.255-0.007,45.381,0C144.855,267.71,144.652,264.07,144.687,260.444z M95.665,254.298
		c0.084-10.829-0.161-21.665,0.126-32.486c3.438,0.049,6.867-0.028,10.305,0.076c7.146-0.266,14.294,0.294,21.434-0.098
		c0.175,10.836,0.014,21.679,0.084,32.522C116.967,254.269,106.312,254.298,95.665,254.298z"/>
	<path d="M-6.507,212.816c-2.24-4.746-7.511-7.616-12.67-7.511c-17.206,0.007-34.412-0.008-51.618,0.007
		c-0.014,5.494,0,10.989-0.014,16.484c4.137,0.161,8.267-0.007,12.404,0.057c4.858,0.027,9.723-0.168,14.574,0.126
		c7.567-0.119,15.176-0.42,22.736,0.188c-0.056,2.521,0.077,5.055-0.112,7.581c-12.432,0.378-24.892-0.287-37.324,0.386
		c-2.66,0.833-5.467,1.764-7.364,3.927c-1.89,1.876-2.855,4.402-3.675,6.881c-0.301,1.337-0.483,2.716-0.896,4.039
		c-0.224,5.978-1.092,12.494,2.037,17.927c2.765,5.152,8.393,8.442,14.238,8.386c16.723,0.07,33.446,0.021,50.169,0.028
		c0.063-14.603-0.028-29.204,0.063-43.806C-3.875,222.532-4.35,217.373-6.507,212.816z M-21.626,254.319
		c-10.724-0.043-21.448-0.05-32.179,0c0.028-2.331,0.014-4.655,0.035-6.986c10.717-0.049,21.434-0.007,32.144-0.021
		C-21.64,249.65-21.64,251.981-21.626,254.319z"/>
	<path fill="#E2101B" d="M-156.677,273.023c-0.028-22.562-0.007-45.129-0.007-67.69c-16.926-0.063-33.859-0.007-50.785-0.035
		c-4.039-0.049-7.952,1.743-10.913,4.418c-3.262,2.848-4.655,7.314-4.781,11.535c0,8.624,0.021,17.241-0.007,25.865
		c-0.014,1.386,0.105,2.771,0.343,4.144c0.224,4.684,0.728,9.527,2.961,13.728c1.512,2.793,4.62,4.164,7.553,4.956
		c3.472,0.847,7.042,1.394,10.626,1.428c9.415,0.056,18.823,0.014,28.238-0.056c-0.007,1.099-0.007,2.211,0,3.325
		c-2.072,0.56-4.172,1.015-6.188,1.742c-11.844,4.074-23.681,8.19-35.455,12.454c0.112,0.294,0.343,0.875,0.455,1.169
		c-2.436,0.09-4.886,0.041-7.301,0.426c0.756,0.483,1.575,0.729,2.464,0.736c15.897,0.027,31.794-0.077,47.684,0.014
		c6.006-0.183,10.745-4.368,14.231-8.884C-157.16,279.219-156.516,276.151-156.677,273.023z M-205.81,254.341
		c0-10.773,0.007-21.554,0-32.327c10.717-0.42,21.455-0.056,32.186-0.182c0.042,10.843-0.021,21.687,0.035,32.529
		C-184.327,254.291-195.073,254.333-205.81,254.341z"/>
	<path fill="#BFBFBF" d="M129.392,188.953c1.147-1.946,3.556-1.253,5.425-1.386c2.499,0.091,5.054-0.231,7.525,0.322
		c0.363,0.924-0.267,2.184-1.352,2.016c-3.339,0.133-6.679-0.014-10.01,0.049C130.582,189.702,129.79,189.205,129.392,188.953
		L129.392,188.953z"/>
	<path d="M154.613,187.574c5.67,0.084,11.347-0.168,17.01,0.161c-0.021,5.663,0.014,11.326-0.014,16.989
		c-5.685-0.015-11.368,0.007-17.045-0.015C154.626,198.998,154.549,193.286,154.613,187.574L154.613,187.574z"/>
	<path fill="#BFBFBF" d="M156.902,190.626c-0.015-0.616-0.028-1.218-0.035-1.827c4.186,0.008,8.379,0.028,12.565-0.007
		c0,0.609,0.007,1.218,0.007,1.834C165.259,190.605,161.08,190.612,156.902,190.626L156.902,190.626z"/>
	<path d="M-146.751,204.752c5.747-0.049,11.494-0.021,17.241-0.007c-0.014,16.64,0,33.278-0.007,49.924
		c10.71-0.027,21.427,0.043,32.144-0.034c0.021-16.443,0-32.887,0.007-49.322c5.684-0.007,11.361-0.007,17.038-0.007
		c-0.007,13.013,0,26.019,0,39.024c-0.028,4.914,0.147,9.842-0.35,14.742c-0.245,0.728-0.462,1.471-0.644,2.219
		c-1.848,4.935-6.314,8.54-11.333,9.912c-13.293,0.42-26.607,0.063-39.914,0.182c-5.621,0.231-10.724-3.541-12.838-8.645
		c-2.464-8.708-1.75-17.885-1.344-26.81C-146.751,225.543-146.751,215.147-146.751,204.752L-146.751,204.752z"/>
	<path fill="#BFBFBF" d="M123.637,206.481c2.437,0.091,4.712-0.918,6.938-1.778c-0.21,1.064-0.126,2.24-0.721,3.198
		c-1.093,0.477-2.311,0.337-3.458,0.393c-10.738-0.014-21.483-0.063-32.222,0.014c-5.235,0.61-10.576,4.229-11.963,9.485
		l-0.077,0.693c-0.063,0.294-0.188,0.882-0.251,1.169c-1.24-1.897-0.21-4.165,0.447-6.083c2.331-4.277,7-7.084,11.887-7.119
		C104.024,206.481,113.83,206.453,123.637,206.481L123.637,206.481z"/>
	<path d="M268.537,205.046c2.751-0.539,5.565-0.343,8.358-0.364c10.269,0.028,20.538-0.076,30.807,0.063
		c3.794-0.035,7.749,1.008,10.661,3.535c1.729,1.54,2.583,3.738,3.472,5.824c2.521,8.925,1.729,18.29,1.135,27.412
		c0.007,9.939,0.007,19.872,0.007,29.813c-5.678-0.014-11.348,0.008-17.024-0.014c-0.035-16.499,0.028-33.005-0.028-49.512
		c-10.688,0-21.378-0.007-32.06,0.008c-0.049,16.506-0.007,33.012-0.021,49.518c-5.677-0.007-11.354-0.007-17.031,0
		c-0.007-15.757,0-31.514-0.007-47.264c0.007-3.108,0.127-6.237,0.994-9.24C259.676,210.149,263.665,206.425,268.537,205.046
		L268.537,205.046z"/>
	<path d="M5.429,205.305c17.212,0.014,34.418-0.021,51.632,0.014c5.754-0.057,10.976,4.074,12.719,9.478
		c2.443,7.378,1.47,15.267,1.673,22.897c-5.691,0-11.375,0-17.066,0.007c-0.182-5.3,0.337-10.64-0.308-15.911
		c-9.499-0.034-18.998,0.329-28.482,0.021c-1.239-0.008-2.45,0.209-3.669,0.398c0.063,16.373,0.014,32.746,0.028,49.119
		c-5.509-0.007-11.018-0.007-16.526,0C5.429,249.32,5.436,227.313,5.429,205.305L5.429,205.305z"/>
	<path fill="#BFBFBF" d="M-145.386,206.404c4.431-1.001,9.058-0.224,13.58-0.462c-0.014,0.434-0.042,1.295-0.049,1.729
		c-3.961-0.077-7.938,0.133-11.893-0.077C-144.155,207.293-144.981,206.698-145.386,206.404L-145.386,206.404z"/>
	<path fill="#BFBFBF" d="M260.068,219.186c-1.155-6.867,5.285-13.091,11.928-13.244c11.425-0.021,22.855,0.021,34.279-0.014
		c4.361,0.084,9.365,0.931,11.872,4.941c1.315,2.934,1.96,6.174,1.841,9.387c1.085,1.449,0.665,3.332,0.714,5.013
		c-1.603-1.729-0.546-4.361-1.127-6.462c-0.497-4.738-3.717-8.952-8.295-10.408c-2.611-0.147-5.173-0.833-7.798-0.749
		c-10.038,0.049-20.083-0.007-30.121,0.028C266.99,207.972,261.292,212.921,260.068,219.186L260.068,219.186z"/>
	<path fill="#F8C3C6" d="M-216.15,209.834c2.681-1.988,5.985-3.304,9.338-3.381c15.953,0.042,31.906,0.007,47.852,0.021
		c0.007,0.447,0.014,1.344,0.014,1.792c-15.491,0.007-30.975,0.014-46.466-0.007c-6.993-0.021-13.587,5.264-14.791,12.229
		C-220.44,216.582-219.271,212.382-216.15,209.834L-216.15,209.834z"/>
	<path fill="#BDBDBD" d="M-95.553,206.502c4.48-0.057,8.953-0.063,13.433,0c-0.189,0.393-0.567,1.162-0.756,1.548
		c-3.92,0.44-7.945,0.279-11.886,0.091C-94.958,207.726-95.358,206.908-95.553,206.502L-95.553,206.502z"/>
	<path fill="#BFBFBF" d="M-68.925,206.481c16.338-0.043,32.669,0.014,49.007-0.028c2.184-0.146,4.2,0.777,6.251,1.379
		c2.45,1.505,4.794,3.535,5.453,6.468c0.679,3.144,1.526,6.35,1.344,9.591c-1.555-0.82-0.714-2.752-0.75-4.096
		c-0.777-4.606-3.857-9.058-8.414-10.591c-3.003-1.31-6.307-0.882-9.478-0.931c-14.266-0.007-28.532,0.014-42.798-0.014
		C-68.464,207.818-68.771,206.928-68.925,206.481L-68.925,206.481z"/>
	<path fill="#BFBFBF" d="M6.919,206.51c16.023-0.105,32.053,0.007,48.076-0.064c3.507-0.007,7.329,0.875,9.759,3.592
		c1.771,1.617,2.345,4.025,3.107,6.202c0,0.854,0.007,1.715,0.021,2.583c1.456,1.456,0.756,3.472,0.279,5.188
		c0.217-1.758-0.343-3.367-0.994-4.949c-0.245-5.909-5.775-10.43-11.451-10.767c-15.897-0.099-31.809,0.084-47.705-0.084
		C7.739,207.783,7.193,206.936,6.919,206.51L6.919,206.51z"/>
	<path fill="#BFBFBF" d="M182.549,206.502c16.297-0.084,32.6-0.007,48.902-0.042c4.403,0.127,9.296,2.135,11.123,6.434
		c1.813,4.417,1.435,9.302,1.876,13.972c-0.462-4.172-0.477-8.596-2.723-12.299c-2.065-3.717-6.195-5.859-10.325-6.266
		c-15.932-0.105-31.864,0.07-47.789-0.083C183.348,207.79,182.816,206.928,182.549,206.502L182.549,206.502z"/>
	<path d="M154.584,271.329c0.021-21.428-0.027-42.847,0.028-64.267c5.655,0.042,11.319,0.014,16.982,0.014
		c0.048,21.413,0.027,42.825,0.007,64.239C165.932,271.337,160.261,271.322,154.584,271.329L154.584,271.329z"/>
	<path fill="#BFBFBF" d="M156.692,208.301c4.179,0.036,8.372-0.203,12.544,0.092c1.344,0.951-0.553,2.155-1.589,2.058
		c-3.521-0.14-7.168,0.462-10.599-0.363C156.957,209.637,156.782,208.749,156.692,208.301L156.692,208.301z"/>
	<path fill="#BFBFBF" d="M-23.923,231.212c1.897-0.616,3.822-1.169,5.649-1.987c-0.049,0.868-0.084,1.75-0.119,2.625
		c-1.113,0.602-2.261,1.281-3.577,1.154c-10.759-0.007-21.518-0.021-32.277-0.007c-5.334,0.021-10.346,3.416-12.047,8.526
		c-0.525,1.869-0.959,3.759-1.267,5.677c-0.077-2.226,0.322-4.424,0.623-6.622c0.434-1.225,0.812-2.478,1.189-3.724
		c1.778-3.473,5.698-5.216,9.422-5.579C-45.525,231.212-34.723,231.359-23.923,231.212L-23.923,231.212z"/>
	<path fill="#BFBFBF" d="M225.823,231.268c2.556-0.063,5.012-0.918,7.287-2.037c-0.028,0.687-0.084,2.064-0.112,2.758
		c-2.17,1.399-4.815,0.959-7.252,1.008c-9.079-0.021-18.164,0.015-27.251-0.021c-4.221-0.021-8.771,1.478-11.277,5.062
		c-2.036,2.653-2.604,6.02-3.143,9.232c-0.189-3.604,0.645-7.118,1.807-10.5c1.777-3.317,5.508-4.941,9.071-5.474
		C205.243,231.212,215.533,231.303,225.823,231.268L225.823,231.268z"/>
	<path fill="#F8C3C6" d="M-208.722,253.787c1.701,0.791,3.451,1.729,5.39,1.61c9.107-0.021,18.221-0.015,27.328-0.007
		c1.89,0.111,3.619-0.729,5.341-1.372c-0.231,1.021,0.217,2.414-0.798,3.114c-1.673,0.616-3.493,0.658-5.257,0.673
		c-8.386-0.036-16.772-0.029-25.165-0.008c-1.939-0.014-3.934-0.104-5.782-0.755C-208.953,256.489-208.449,254.879-208.722,253.787
		L-208.722,253.787z"/>
	<path fill="#BFBFBF" d="M92.691,253.766c1.617,0.679,3.186,1.777,5.026,1.624c9.106-0.021,18.213-0.021,27.321,0
		c1.917,0.111,3.682-0.756,5.466-1.323c-0.091,0.763-0.287,2.303-0.378,3.065c-9.611,0.84-19.284,0.147-28.924,0.428
		c-2.639-0.007-5.271-0.134-7.896-0.435C93.104,256.006,92.907,254.879,92.691,253.766L92.691,253.766z"/>
	<path fill="#BFBFBF" d="M195.177,253.794c1.526,0.588,2.976,1.61,4.677,1.582c9.358,0.007,18.725-0.014,28.091,0.007
		c1.904,0.085,3.598-0.931,5.341-1.539c-0.259,1.133-0.531,2.268-0.868,3.388c-9.666,0.63-19.355,0.105-29.028,0.329
		c-2.45-0.021-4.887-0.176-7.315-0.329C195.689,256.104,195.402,254.956,195.177,253.794L195.177,253.794z"/>
	<path fill="#BFBFBF" d="M-132.534,254.375c2.289,0.623,4.515,1.778,6.951,1.617c8.162-0.035,16.317-0.014,24.473-0.007
		c2.358,0.056,4.522-1.009,6.706-1.757c-0.203,0.987-0.077,2.121-0.714,2.975c-0.98,0.588-2.135,0.595-3.234,0.595
		c-10.017-0.021-20.042-0.028-30.058,0c-1.26,0.05-2.478-0.244-3.682-0.546C-132.24,256.286-132.387,255.327-132.534,254.375
		L-132.534,254.375z"/>
	<path fill="#BFBFBF" d="M-56.766,253.85c1.736,0.65,3.451,1.638,5.362,1.532c9.338-0.021,18.676,0,28.014-0.007
		c1.694,0.015,3.185-0.924,4.732-1.477c-0.252,1.113,0.105,2.59-1.071,3.275c-3.752,0.623-7.588,0.238-11.375,0.364
		c-2.1-0.021-4.2-0.021-6.293,0c-5.824-0.146-11.662,0.245-17.472-0.252C-56.655,257.337-56.577,255.089-56.766,253.85
		L-56.766,253.85z"/>
	<path fill="#F8C3C6" d="M-172.064,274.913c0.378-0.098,1.127-0.28,1.499-0.378c-0.056,0.833-0.112,1.666-0.168,2.506
		c-1.085,0.532-2.177,1.085-3.346,1.421c-8.057,2.094-15.743,5.334-23.618,7.987c-4.599,1.708-9.534,2.358-14.413,2.583
		c7.462-2.254,14.735-5.075,22.12-7.566C-184.201,278.769-177.635,278.043-172.064,274.913L-172.064,274.913z"/>
</g>
</svg>

