<?xml version="1.0" encoding="UTF-8"?>
<!-- Generator: Ikivo Animator 2.2 (build 2.2.0.10) -->
<!DOCTYPE svg PUBLIC "-//W3C//DTD SVG 1.1 Tiny//EN" "http://www.w3.org/Graphics/SVG/1.1/DTD/svg11-tiny.dtd">
<svg baseProfile="tiny" display="inherit" height="320" version="1.1" viewBox="0 0 240 320" width="240" xmlns="http://www.w3.org/2000/svg" xmlns:xlink="http://www.w3.org/1999/xlink" xmlns:ev="http://www.w3.org/2001/xml-events">
	<g display="inherit" id="Occhio" transform="matrix(1,0,0,1,3,59)">
		<path d="M118,14.8 C141.7,14.8 160.9,33.4 160.9,56.3 C160.9,79.2 141.7,97.8 118,97.8 C94.3,97.8 75.1,79.2 75.1,56.3 C75.1,33.4 94.3,14.8 118,14.8 Z" display="inherit" fill="url(#gr_1195)" fill-opacity="0.92" transform="matrix(1.4,0,0,1.4,-47.249,-22.543)"/>
		<path d="M118,14.8 C141.7,14.8 160.9,33.4 160.9,56.3 C160.9,79.2 141.7,97.8 118,97.8 C94.3,97.8 75.1,79.2 75.1,56.3 C75.1,33.4 94.3,14.8 118,14.8 Z" display="inherit" fill="url(#gr_11)"/>
		<path d="M82.5,33.1 C91.5,16.7 119.3,8.1 139.8,19.7 C159.5,30.8 166.1,57 157.5,72" display="inherit" fill="url(#gr_16)"/>
		<g display="inherit">
			<path d="M158.5,68.8 C158.5,48.5 98.8,5.6 82.5,34" display="inherit" fill="#ffffff" stroke="#ffffff"/>
			<radialGradient cx="366.011" cy="402.584" display="inherit" gradientUnits="userSpaceOnUse" id="SVGID_11_" r="15.444">
				<stop offset="0" stop-color="#fad2c2"/>
				<stop offset="1" stop-color="#ab301e"/>
			</radialGradient>
			<path d="M157.5,72.1 C157.5,56.9 110.1,22.5 81.5,35.3" display="inherit" fill="url(#gr_12)" stroke="#ffffff" transform="matrix(1,0,0,1,-0.25,-0.25)"/>
			<polygon display="inherit" fill="#ffffff" points="155.5,66.4 159,68.6 158.2,71.2"/>
			<polygon display="inherit" fill="#ffffff" points="157,73.9 157,69.4 158.3,70.7"/>
			<polygon display="inherit" fill="#ffffff" points="83.9,34.7 80.2,36.7 82.6,32.8"/>
		</g>
		<g display="inherit" fill-opacity="0.5" stroke-opacity="0.5">
			<g display="inherit">
				<g display="inherit">
					<g display="inherit">
						<path d="M91.9,62.5 C107.1,51.8 127.9,54.5 138.7,68.5" display="inherit" fill="none" stroke="#ffffff" stroke-opacity="0.54" stroke-width="0.25"/>
						<g display="inherit">
							<g display="inherit">
								<path d="M129.3,88 C129.3,62.6 108.4,42.1 82.7,42.1" display="inherit" fill="none" stroke="#ffffff" stroke-opacity="0.54" stroke-width="0.25"/>
								<path d="M88.5,78.2 C113.3,70 126.2,53.1 117.8,29.6" display="inherit" fill="none" stroke="#ffffff" stroke-opacity="0.54" stroke-width="0.25"/>
								<path d="M101.3,87.8 C120,70.1 123.9,44.3 106,26.5" display="inherit" fill="none" stroke="#ffffff" stroke-opacity="0.54" stroke-width="0.25"/>
								<path d="M80.1,52.8 C103.6,64.2 127.2,64.5 138.7,42.4" display="inherit" fill="none" stroke="#ffffff" stroke-opacity="0.54" stroke-width="0.25"/>
							</g>
							<path d="M108.8,26.5 C101.7,50.9 117.3,67.5 142,74.3" display="inherit" fill="none" stroke="#ffffff" stroke-opacity="0.54" stroke-width="0.25"/>
							<path d="M125.1,32.3 C125.1,50.4 110.5,65.1 92.4,65.1" display="inherit" fill="none" stroke="#ffffff" stroke-opacity="0.54" stroke-width="0.25"/>
							<path d="M95.4,39.5 C113.3,45 123.4,62.9 118,79.5" display="inherit" fill="none" stroke="#ffffff" stroke-opacity="0.54" stroke-width="0.25"/>
							<path d="M102.4,59.6 C119.5,52.1 139.5,59 146.8,74.9" display="inherit" fill="none" stroke="#ffffff" stroke-opacity="0.54" stroke-width="0.25"/>
							<path d="M88.3,46.2 C107,45 123.2,58 124.4,75.5" display="inherit" fill="none" stroke="#ffffff" stroke-opacity="0.54" stroke-width="0.25"/>
							<path d="M115.3,76.1 C110,58.7 111.4,42 128.7,37" display="inherit" fill="none" stroke="#ffffff" stroke-opacity="0.54" stroke-width="0.25"/>
						</g>
						<path d="M92.6,59.1 C96.7,52.1 105.4,49.4 111.9,52.9" display="inherit" fill="none" stroke="#ffffff" stroke-opacity="0.54" stroke-width="0.25"/>
						<path d="M132.5,74.3 C126,69.2 124.6,60.5 129.4,54.9" display="inherit" fill="none" stroke="#ffffff" stroke-opacity="0.54" stroke-width="0.25"/>
					</g>
					<g display="inherit">
						<path d="M94.6,47.7 C113.4,48.5 128,63.2 127.2,80.6" display="inherit" fill="none" stroke="#ffffff" stroke-opacity="0.54" stroke-width="0.25"/>
						<g display="inherit">
							<g display="inherit">
								<path d="M107.2,90.2 C123.6,70.4 120.7,41.8 100.6,26.2" display="inherit" fill="none" stroke="#ffffff" stroke-opacity="0.54" stroke-width="0.25"/>
								<path d="M81.7,57.9 C106.4,66.5 125.2,62.3 133.9,39" display="inherit" fill="none" stroke="#ffffff" stroke-opacity="0.54" stroke-width="0.25"/>
								<path d="M85.4,73.1 C111.5,70.6 130.5,59.2 127.9,34.5" display="inherit" fill="none" stroke="#ffffff" stroke-opacity="0.54" stroke-width="0.25"/>
								<path d="M91.6,32.9 C102.5,56 120.8,70.5 144.1,60.1" display="inherit" fill="none" stroke="#ffffff" stroke-opacity="0.54" stroke-width="0.25"/>
							</g>
							<path d="M123.5,32.6 C113.9,39.3 101,53.4 126,87.2" display="inherit" fill="none" stroke="#ffffff" stroke-opacity="0.54" stroke-width="0.25"/>
							<path d="M140,44.2 C128.3,58.4 107.3,61 93.2,50.1" display="inherit" fill="none" stroke="#ffffff" stroke-opacity="0.54" stroke-width="0.25"/>
							<path d="M112.1,31.8 C122.5,46.9 118.9,66.9 103.8,76.7" display="inherit" fill="none" stroke="#ffffff" stroke-opacity="0.54" stroke-width="0.25"/>
							<path d="M104.6,51.7 C122.8,56.3 134,73.6 129.4,90.5" display="inherit" fill="none" stroke="#ffffff" stroke-opacity="0.54" stroke-width="0.25"/>
							<path d="M102.2,32.7 C117.6,43 121.7,63.1 111.4,77.4" display="inherit" fill="none" stroke="#ffffff" stroke-opacity="0.54" stroke-width="0.25"/>
							<path d="M103.9,72.5 C111.1,55.7 130.3,47.5 147,54.1" display="inherit" fill="none" stroke="#ffffff" stroke-opacity="0.54" stroke-width="0.25"/>
						</g>
						<path d="M97.2,45.5 C104.9,42.5 113.5,45.6 116.2,52.4" display="inherit" fill="none" stroke="#ffffff" stroke-opacity="0.54" stroke-width="0.25"/>
						<path d="M118.5,81.5 C116.7,73.6 121.2,66 128.6,64.4" display="inherit" fill="none" stroke="#ffffff" stroke-opacity="0.54" stroke-width="0.25"/>
					</g>
					<g display="inherit">
						<path d="M99.1,40.9 C116.6,47.7 125.3,66.2 118.6,82.4" display="inherit" fill="none" stroke="#ffffff" stroke-opacity="0.54" stroke-width="0.25"/>
						<g display="inherit">
							<g display="inherit">
								<path d="M96.6,85.2 C118.9,71.7 123.7,47.6 110.1,26.6" display="inherit" fill="none" stroke="#ffffff" stroke-opacity="0.54" stroke-width="0.25"/>
								<path d="M83.5,46.5 C104,62.5 123.4,64.2 139.5,44.9" display="inherit" fill="none" stroke="#ffffff" stroke-opacity="0.54" stroke-width="0.25"/>
								<path d="M81.8,62.1 C107.4,68.1 123.8,63.9 129.8,39.7" display="inherit" fill="none" stroke="#ffffff" stroke-opacity="0.54" stroke-width="0.25"/>
								<path d="M101.3,26 C103.7,51.2 116,70.8 141.6,68.4" display="inherit" fill="none" stroke="#ffffff" stroke-opacity="0.54" stroke-width="0.25"/>
							</g>
							<path d="M132.6,38.3 C107.4,45.5 108,64.4 115.3,88.2" display="inherit" fill="none" stroke="#ffffff" stroke-opacity="0.54" stroke-width="0.25"/>
							<path d="M143.3,52 C127.4,61.6 106.7,57.5 97.1,42.7" display="inherit" fill="none" stroke="#ffffff" stroke-opacity="0.54" stroke-width="0.25"/>
							<path d="M121.1,31.5 C125.9,49.1 115.5,66.8 98,71.3" display="inherit" fill="none" stroke="#ffffff" stroke-opacity="0.54" stroke-width="0.25"/>
							<path d="M107.2,48 C122.9,58 127.5,78 117.4,92.4" display="inherit" fill="none" stroke="#ffffff" stroke-opacity="0.54" stroke-width="0.25"/>
							<path d="M111.5,29.3 C122.5,44 119.7,64.2 105,74.5" display="inherit" fill="none" stroke="#ffffff" stroke-opacity="0.54" stroke-width="0.25"/>
							<path d="M99.4,67.3 C111.9,53.7 132.9,52.1 146.5,63.7" display="inherit" fill="none" stroke="#ffffff" stroke-opacity="0.54" stroke-width="0.25"/>
						</g>
						<path d="M102.3,39.7 C110.6,39.3 117.6,45 118,52.3" display="inherit" fill="none" stroke="#ffffff" stroke-opacity="0.54" stroke-width="0.25"/>
						<path d="M110.2,80.5 C111.2,72.5 118,66.7 125.6,67.5" display="inherit" fill="none" stroke="#ffffff" stroke-opacity="0.54" stroke-width="0.25"/>
					</g>
				</g>
				<path d="M156.5,72.4 C125.1,56 106.1,46 88,68.2" display="inherit" fill="none" stroke="#ffffff" stroke-opacity="0.54" stroke-width="0.25"/>
				<path d="M130.9,82.7 C118.4,50.4 103.8,45.8 82.1,36" display="inherit" fill="none" stroke="#ffffff" stroke-opacity="0.54" stroke-width="0.25"/>
			</g>
			<g display="inherit">
				<g display="inherit">
					<g display="inherit">
						<path d="M140.9,64.2 C125.7,53.5 104.9,56.2 94.1,70.2" display="inherit" fill="none" stroke="#ffffff" stroke-opacity="0.54" stroke-width="0.25"/>
						<g display="inherit">
							<g display="inherit">
								<path d="M103.6,89.8 C103.6,64.4 114.3,44.2 140.1,44.2" display="inherit" fill="none" stroke="#ffffff" stroke-opacity="0.54" stroke-width="0.25"/>
								<path d="M144.4,80 C119.6,71.8 106.7,54.9 115.1,31.4" display="inherit" fill="none" stroke="#ffffff" stroke-opacity="0.54" stroke-width="0.25"/>
								<path d="M131.6,89.6 C112.8,71.9 103.9,49.6 121.8,31.8" display="inherit" fill="none" stroke="#ffffff" stroke-opacity="0.54" stroke-width="0.25"/>
								<path d="M152.9,54.5 C129.4,65.9 105.8,66.2 94.3,44.1" display="inherit" fill="none" stroke="#ffffff" stroke-opacity="0.54" stroke-width="0.25"/>
							</g>
							<path d="M124.5,33.3 C131.6,57.7 115.6,69.3 90.9,76.1" display="inherit" fill="none" stroke="#ffffff" stroke-opacity="0.54" stroke-width="0.25"/>
							<path d="M107.7,34 C107.7,52.1 122.3,66.8 140.4,66.8" display="inherit" fill="none" stroke="#ffffff" stroke-opacity="0.54" stroke-width="0.25"/>
							<path d="M137.6,41.3 C119.7,46.8 109.6,64.6 114.9,81.3" display="inherit" fill="none" stroke="#ffffff" stroke-opacity="0.54" stroke-width="0.25"/>
							<path d="M130.5,61.4 C113.4,53.9 93.4,60.8 86.1,76.7" display="inherit" fill="none" stroke="#ffffff" stroke-opacity="0.54" stroke-width="0.25"/>
							<path d="M144.7,47.9 C126,46.7 109.8,59.8 108.6,77.3" display="inherit" fill="none" stroke="#ffffff" stroke-opacity="0.54" stroke-width="0.25"/>
							<path d="M117.6,78 C122.9,60.6 121.5,43.9 104.2,38.9" display="inherit" fill="none" stroke="#ffffff" stroke-opacity="0.54" stroke-width="0.25"/>
						</g>
						<path d="M140.3,61 C136.3,54 127.5,51.3 121,54.8" display="inherit" fill="none" stroke="#ffffff" stroke-opacity="0.54" stroke-width="0.25"/>
						<path d="M100.3,76.1 C106.8,71 108.2,62.4 103.4,56.7" display="inherit" fill="none" stroke="#ffffff" stroke-opacity="0.54" stroke-width="0.25"/>
					</g>
					<g display="inherit">
						<path d="M138.3,49.4 C119.5,50.2 104.9,64.9 105.7,82.3" display="inherit" fill="none" stroke="#ffffff" stroke-opacity="0.54" stroke-width="0.25"/>
						<g display="inherit">
							<g display="inherit">
								<path d="M125.7,91.9 C109.3,72.1 106.6,51.3 126.7,35.8" display="inherit" fill="none" stroke="#ffffff" stroke-opacity="0.54" stroke-width="0.25"/>
								<path d="M151.2,59.6 C126.5,68.2 107.7,64 99,40.7" display="inherit" fill="none" stroke="#ffffff" stroke-opacity="0.54" stroke-width="0.25"/>
								<path d="M147.4,74.8 C121.3,72.3 102.3,60.9 104.9,36.2" display="inherit" fill="none" stroke="#ffffff" stroke-opacity="0.54" stroke-width="0.25"/>
								<path d="M130.5,37 C119.6,60.1 112.2,72.3 88.8,62" display="inherit" fill="none" stroke="#ffffff" stroke-opacity="0.54" stroke-width="0.25"/>
							</g>
							<path d="M109.4,34.4 C119,41.1 131.9,55.2 106.9,89" display="inherit" fill="none" stroke="#ffffff" stroke-opacity="0.54" stroke-width="0.25"/>
							<path d="M92.8,46 C104.5,60.2 125.5,62.8 139.6,51.9" display="inherit" fill="none" stroke="#ffffff" stroke-opacity="0.54" stroke-width="0.25"/>
							<path d="M120.8,33.6 C110.4,48.7 114,68.7 129.1,78.5" display="inherit" fill="none" stroke="#ffffff" stroke-opacity="0.54" stroke-width="0.25"/>
							<path d="M128.3,53.6 C110.1,58.2 98.9,75.5 103.5,92.4" display="inherit" fill="none" stroke="#ffffff" stroke-opacity="0.54" stroke-width="0.25"/>
							<path d="M126.1,35.6 C110.7,45.9 111,64.8 121.3,79.1" display="inherit" fill="none" stroke="#ffffff" stroke-opacity="0.54" stroke-width="0.25"/>
							<path d="M129,74.2 C121.9,57.4 102.6,49.2 85.9,55.9" display="inherit" fill="none" stroke="#ffffff" stroke-opacity="0.54" stroke-width="0.25"/>
						</g>
						<path d="M135.7,47.3 C128,44.3 119.4,47.4 116.7,54.2" display="inherit" fill="none" stroke="#ffffff" stroke-opacity="0.54" stroke-width="0.25"/>
						<path d="M114.3,83.2 C116.1,75.3 111.6,67.7 104.2,66.1" display="inherit" fill="none" stroke="#ffffff" stroke-opacity="0.54" stroke-width="0.25"/>
					</g>
					<g display="inherit">
						<path d="M133.8,42.7 C116.3,49.4 107.5,67.9 114.2,84.1" display="inherit" fill="none" stroke="#ffffff" stroke-opacity="0.54" stroke-width="0.25"/>
						<g display="inherit">
							<g display="inherit">
								<path d="M136.4,86.9 C114.1,73.4 106.5,53 120.2,32" display="inherit" fill="none" stroke="#ffffff" stroke-opacity="0.54" stroke-width="0.25"/>
								<path d="M144.7,47.9 C124.2,63.9 109.6,65.9 93.5,46.7" display="inherit" fill="none" stroke="#ffffff" stroke-opacity="0.54" stroke-width="0.25"/>
								<path d="M151,63.9 C125.5,69.9 109.1,65.7 103,41.5" display="inherit" fill="none" stroke="#ffffff" stroke-opacity="0.54" stroke-width="0.25"/>
								<path d="M131.2,38 C128.8,63.2 116.9,72.6 91.3,70.3" display="inherit" fill="none" stroke="#ffffff" stroke-opacity="0.54" stroke-width="0.25"/>
							</g>
							<path d="M100.2,40 C125.4,47.2 124.8,66.1 117.5,89.9" display="inherit" fill="none" stroke="#ffffff" stroke-opacity="0.54" stroke-width="0.25"/>
							<path d="M89.7,53.9 C105.6,63.5 126.3,59.4 135.9,44.6" display="inherit" fill="none" stroke="#ffffff" stroke-opacity="0.54" stroke-width="0.25"/>
							<path d="M111.9,33.3 C107.1,50.9 117.5,68.6 135,73.1" display="inherit" fill="none" stroke="#ffffff" stroke-opacity="0.54" stroke-width="0.25"/>
							<path d="M125.7,49.8 C110,59.8 105.4,79.8 115.5,94.2" display="inherit" fill="none" stroke="#ffffff" stroke-opacity="0.54" stroke-width="0.25"/>
							<path d="M121.5,31 C110.5,45.8 113.3,65.9 128,76.2" display="inherit" fill="none" stroke="#ffffff" stroke-opacity="0.54" stroke-width="0.25"/>
							<path d="M133.4,69.1 C120.9,55.5 99.9,53.9 86.3,65.5" display="inherit" fill="none" stroke="#ffffff" stroke-opacity="0.54" stroke-width="0.25"/>
						</g>
						<path d="M130.6,41.5 C122.3,41.1 115.3,46.8 114.9,54.1" display="inherit" fill="none" stroke="#ffffff" stroke-opacity="0.54" stroke-width="0.25"/>
						<path d="M122.7,82.2 C121.7,74.2 114.9,68.4 107.3,69.2" display="inherit" fill="none" stroke="#ffffff" stroke-opacity="0.54" stroke-width="0.25"/>
					</g>
				</g>
				<path d="M81,71.3 C112.3,54.9 126.8,47.8 145,70" display="inherit" fill="none" stroke="#ffffff" stroke-opacity="0.54" stroke-width="0.25"/>
				<path d="M101.9,84.4 C114.4,52.1 108.6,48.2 130.3,38.3" display="inherit" fill="none" stroke="#ffffff" stroke-opacity="0.54" stroke-width="0.25"/>
			</g>
		</g>
		<ellipse cx="117.3" cy="56.8" display="inherit" fill="#1c171b" rx="17.8" ry="16.6"/>
		<ellipse cx="101.8" cy="48.9" display="inherit" fill="#ffffff" rx="7" ry="7.1"/>
	</g>
	<g display="inherit" id="Guardian" transform="matrix(1,0,0,1,-3,84)">
		<g display="inherit" fill="url(#gr_1045)" id="RiflessoGuardian">
			<linearGradient display="inherit" gradientUnits="userSpaceOnUse" id="SVGID_1_" x1="217.461" x2="217.461" y1="-278.509" y2="-249.21">
				<stop id="stop20" offset="0" stop-color="#ffffff"/>
				<stop id="stop22" offset="0.121" stop-color="#fffcfc"/>
				<stop id="stop24" offset="0.245" stop-color="#fdeeef"/>
				<stop id="stop26" offset="0.372" stop-color="#fadada"/>
				<stop id="stop28" offset="0.501" stop-color="#f6bcbb"/>
				<stop id="stop30" offset="0.63" stop-color="#f19798"/>
				<stop id="stop32" offset="0.761" stop-color="#eb6b6a"/>
				<stop id="stop34" offset="0.89" stop-color="#e53737"/>
				<stop id="stop36" offset="1" stop-color="#e1101a"/>
			</linearGradient>
			<path d="M45.3,180.8 C46.2,180.8 47,180.9 47.7,181.2 C48.4,181.5 49,181.9 49.5,182.4 C50.6,183.5 51.1,184.9 51.1,186.6 L51.1,210.1 L34.4,210.1 C32.6,210.1 31.2,209.6 30.1,208.5 C29,207.4 28.5,206 28.5,204.3 L28.5,197 C28.5,192.9 29,190.2 30.1,189.1 C31.2,188 33.7,187.5 37.9,187.5 L45.3,187.5 L45.3,186.6 L28.6,180.8 L28.6,180.8 L45.3,180.8 Z M34.4,193.4 L34.4,204.3 L45.3,204.3 L45.3,193.4 L34.4,193.4 Z" display="inherit" fill="url(#gr_13)" id="_g"/>
			<linearGradient display="inherit" gradientUnits="userSpaceOnUse" id="SVGID_2_" x1="243.311" x2="243.311" y1="-278.51" y2="-255.91">
				<stop id="stop41" offset="0" stop-color="#ffffff"/>
				<stop id="stop43" offset="0.121" stop-color="#fcfcfb"/>
				<stop id="stop45" offset="0.245" stop-color="#eeedee"/>
				<stop id="stop47" offset="0.372" stop-color="#dbdada"/>
				<stop id="stop49" offset="0.501" stop-color="#bdbcbd"/>
				<stop id="stop51" offset="0.63" stop-color="#979797"/>
				<stop id="stop53" offset="0.761" stop-color="#6a6a69"/>
				<stop id="stop55" offset="0.89" stop-color="#353535"/>
				<stop id="stop57" offset="1" stop-color="#000000"/>
			</linearGradient>
			<path d="M54.4,210 L54.4,198.7 L54.3,197.2 L54.3,195.7 C54.3,193.1 54.6,191.2 55.1,189.9 C55.9,188.1 57.5,187.3 59.8,187.3 L61.8,187.3 L63.8,187.3 L71.2,187.3 C73,187.3 74.4,187.8 75.4,188.9 C76.5,190 77,191.4 77,193.1 L77,209.9 L71.2,209.9 L71.2,193.1 L60.3,193.1 L60.3,209.9 L54.4,210 L54.4,210 Z" display="inherit" id="_u"/>
			<linearGradient display="inherit" gradientUnits="userSpaceOnUse" id="SVGID_3_" x1="269.06" x2="269.06" y1="-278.51" y2="-256.01">
				<stop id="stop62" offset="0" stop-color="#ffffff"/>
				<stop id="stop64" offset="0.121" stop-color="#fcfcfb"/>
				<stop id="stop66" offset="0.245" stop-color="#eeedee"/>
				<stop id="stop68" offset="0.372" stop-color="#dbdada"/>
				<stop id="stop70" offset="0.501" stop-color="#bdbcbd"/>
				<stop id="stop72" offset="0.63" stop-color="#979797"/>
				<stop id="stop74" offset="0.761" stop-color="#6a6a69"/>
				<stop id="stop76" offset="0.89" stop-color="#353535"/>
				<stop id="stop78" offset="1" stop-color="#000000"/>
			</linearGradient>
			<path d="M81.6,189.3 C82.6,188.1 84,187.5 86,187.5 L102.7,187.5 L102.7,198.7 L102.7,200 L102.8,201.4 C102.8,204.1 102.5,206.1 101.9,207.3 C101,209.1 99.3,210 96.8,210 L80,210 L80,204.2 L96.8,204.2 L96.8,201.5 L85.9,201.5 C83.6,201.5 82,200.8 81.1,199.3 C80.4,198.1 80,196.4 80,194 C80.2,192.1 80.6,190.5 81.6,189.3 Z M86,193.4 L86,195.8 L96.9,195.8 L96.9,193.4 L86,193.4 Z" display="inherit" id="_a1"/>
			<linearGradient display="inherit" gradientUnits="userSpaceOnUse" id="SVGID_4_" x1="294.91" x2="294.91" y1="-278.509" y2="-255.992">
				<stop id="stop83" offset="0" stop-color="#ffffff"/>
				<stop id="stop85" offset="0.121" stop-color="#fcfcfb"/>
				<stop id="stop87" offset="0.245" stop-color="#eeedee"/>
				<stop id="stop89" offset="0.372" stop-color="#dbdada"/>
				<stop id="stop91" offset="0.501" stop-color="#bdbcbd"/>
				<stop id="stop93" offset="0.63" stop-color="#979797"/>
				<stop id="stop95" offset="0.761" stop-color="#6a6a69"/>
				<stop id="stop97" offset="0.89" stop-color="#353535"/>
				<stop id="stop99" offset="1" stop-color="#000000"/>
			</linearGradient>
			<path d="M128.5,199 L128.5,202.6 C128.5,204.9 128.1,206.7 127.4,207.9 C126.5,209.4 124.9,210.1 122.7,210.1 L106,210.1 L106,187.5 L111.8,187.5 L111.8,204.2 L122.7,204.2 L122.7,198.9 L128.5,199 L128.5,199 Z" display="inherit" id="_r"/>
			<linearGradient display="inherit" gradientUnits="userSpaceOnUse" id="SVGID_5_" x1="319.76" x2="319.76" y1="-284.83" y2="-255.992">
				<stop id="stop104" offset="0" stop-color="#ffffff"/>
				<stop id="stop106" offset="0.121" stop-color="#fcfcfb"/>
				<stop id="stop108" offset="0.245" stop-color="#eeedee"/>
				<stop id="stop110" offset="0.372" stop-color="#dbdada"/>
				<stop id="stop112" offset="0.501" stop-color="#bdbcbd"/>
				<stop id="stop114" offset="0.63" stop-color="#979797"/>
				<stop id="stop116" offset="0.761" stop-color="#6a6a69"/>
				<stop id="stop118" offset="0.89" stop-color="#353535"/>
				<stop id="stop120" offset="1" stop-color="#000000"/>
			</linearGradient>
			<path d="M131.5,190.6 C132.3,188.6 134,187.6 136.7,187.6 L153.4,187.6 L153.4,216.4 L147.6,216.4 L147.6,210.1 L136.7,210.1 C134.9,210.1 133.5,209.6 132.4,208.5 C131.3,207.4 130.8,206 130.8,204.3 L130.8,197 C130.8,193.9 131.1,191.7 131.5,190.6 Z M147.6,204.2 L147.6,193.3 L136.7,193.3 L136.7,204.2 L147.6,204.2 Z" display="inherit" fill="url(#gr_1042)" id="_d"/>
			<linearGradient display="inherit" gradientUnits="userSpaceOnUse" id="SVGID_6_" x1="337.26" x2="337.26" y1="-284.302" y2="-256.002">
				<stop id="stop125" offset="0" stop-color="#ffffff"/>
				<stop id="stop127" offset="0.121" stop-color="#fcfcfb"/>
				<stop id="stop129" offset="0.245" stop-color="#eeedee"/>
				<stop id="stop131" offset="0.372" stop-color="#dbdada"/>
				<stop id="stop133" offset="0.501" stop-color="#bdbcbd"/>
				<stop id="stop135" offset="0.63" stop-color="#979797"/>
				<stop id="stop137" offset="0.761" stop-color="#6a6a69"/>
				<stop id="stop139" offset="0.89" stop-color="#353535"/>
				<stop id="stop141" offset="1" stop-color="#000000"/>
			</linearGradient>
			<path d="M162.5,215.8 L156.7,215.8 L156.7,210 L162.5,210 L162.5,215.8 Z M156.7,209.3 L156.7,187.5 L162.5,187.5 L162.5,209.3 L156.7,209.3 Z" display="inherit" fill="url(#gr_1042)" id="_i"/>
			<linearGradient display="inherit" gradientUnits="userSpaceOnUse" id="SVGID_7_" x1="354.461" x2="354.461" y1="-278.51" y2="-256.01">
				<stop id="stop146" offset="0" stop-color="#ffffff"/>
				<stop id="stop148" offset="0.121" stop-color="#fcfcfb"/>
				<stop id="stop150" offset="0.245" stop-color="#eeedee"/>
				<stop id="stop152" offset="0.372" stop-color="#dbdada"/>
				<stop id="stop154" offset="0.501" stop-color="#bdbcbd"/>
				<stop id="stop156" offset="0.63" stop-color="#979797"/>
				<stop id="stop158" offset="0.761" stop-color="#6a6a69"/>
				<stop id="stop160" offset="0.89" stop-color="#353535"/>
				<stop id="stop162" offset="1" stop-color="#000000"/>
			</linearGradient>
			<path d="M167,189.3 C168,188.1 169.4,187.5 171.4,187.5 L188.1,187.5 L188.1,198.7 L188.1,200 L188.2,201.4 C188.2,204.1 187.9,206.1 187.3,207.3 C186.4,209.1 184.7,210 182.2,210 L165.4,210 L165.4,204.2 L182.2,204.2 L182.2,201.5 L171.3,201.5 C169,201.5 167.4,200.8 166.5,199.3 C165.8,198.1 165.4,196.4 165.4,194 C165.6,192.1 166.1,190.5 167,189.3 Z M171.4,193.4 L171.4,195.8 L182.3,195.8 L182.3,193.4 L171.4,193.4 Z" display="inherit" id="_a"/>
			<linearGradient display="inherit" gradientUnits="userSpaceOnUse" id="SVGID_8_" x1="380.31" x2="380.31" y1="-278.631" y2="-255.992">
				<stop id="stop167" offset="0" stop-color="#ffffff"/>
				<stop id="stop169" offset="0.121" stop-color="#fcfcfb"/>
				<stop id="stop171" offset="0.245" stop-color="#eeedee"/>
				<stop id="stop173" offset="0.372" stop-color="#dbdada"/>
				<stop id="stop175" offset="0.501" stop-color="#bdbcbd"/>
				<stop id="stop177" offset="0.63" stop-color="#979797"/>
				<stop id="stop179" offset="0.761" stop-color="#6a6a69"/>
				<stop id="stop181" offset="0.89" stop-color="#353535"/>
				<stop id="stop183" offset="1" stop-color="#000000"/>
			</linearGradient>
			<path d="M213.9,200.2 L214,201.7 C214,205 213.5,207.3 212.5,208.5 C211.6,209.5 210.3,210 208.5,210 L206.5,210.1 L204.6,210.1 L197.2,210.1 C195.4,210.1 194,209.6 192.9,208.5 C191.8,207.4 191.3,206 191.3,204.2 L191.3,187.5 L197.1,187.5 L197.1,204.3 L208,204.3 L208,187.5 L213.8,187.5 L213.8,198.7 L213.8,200.2 L213.9,200.2 Z" display="inherit" id="_n"/>
		</g>
		<g display="inherit" id="ScrittaGuardian">
			<path d="M28.8,192 L28.8,192 L45.5,186.2 L45.5,185.3 L38.1,185.3 C34,185.3 31.4,184.8 30.3,183.7 C29.2,182.6 28.7,180 28.7,175.8 L28.7,168.5 C28.7,166.7 29.2,165.3 30.3,164.3 C31.4,163.3 32.8,162.7 34.6,162.7 L51.3,162.7 L51.3,186.2 C51.3,187.9 50.8,189.3 49.7,190.4 C49.2,190.9 48.6,191.3 47.9,191.6 C47.2,191.9 46.4,192 45.5,192 L28.8,192 Z M45.5,179.4 L45.5,168.5 L34.6,168.5 L34.6,179.4 L45.5,179.4 Z" display="inherit" fill="#e1101a" id="g"/>
			<path d="M60.5,162.7 L60.5,179.5 L71.4,179.5 L71.4,162.7 L77.2,162.7 L77.2,179.5 C77.2,181.3 76.7,182.7 75.6,183.7 C74.5,184.8 73.1,185.3 71.4,185.3 L64,185.3 L62,185.3 L60,185.3 C57.7,185.3 56.2,184.4 55.3,182.7 C54.7,181.5 54.5,179.6 54.5,176.9 L54.5,175.4 L54.6,173.9 L54.6,162.6 L60.5,162.6 L60.5,162.7 Z" display="inherit" id="u"/>
			<path d="M80.4,178.6 C80.4,176.3 80.8,174.5 81.5,173.3 C82.4,171.8 84,171.1 86.3,171.1 L97.2,171.1 L97.2,168.5 L80.4,168.5 L80.4,162.7 L97.2,162.7 C99.7,162.7 101.4,163.6 102.3,165.4 C102.9,166.7 103.2,168.6 103.2,171.3 L103.1,172.7 L103.1,174 L103.1,185.2 L86.4,185.2 C84.4,185.2 83,184.6 82,183.4 C80.9,182.3 80.4,180.7 80.4,178.6 Z M97.1,179.4 L97.1,177.1 L86.2,177.1 L86.2,179.4 L97.1,179.4 Z" display="inherit" id="a1"/>
			<path d="M122.9,173.8 L122.9,168.5 L112,168.5 L112,185.2 L106.2,185.2 L106.2,162.7 L122.9,162.7 C125.1,162.7 126.7,163.4 127.6,164.9 C128.4,166.1 128.7,167.9 128.7,170.2 L128.7,173.8 L122.9,173.8 Z" display="inherit" id="r"/>
			<path d="M131,175.8 L131,168.5 C131,166.7 131.5,165.3 132.6,164.3 C133.7,163.2 135.1,162.7 136.9,162.7 L147.8,162.7 L147.8,156.4 L153.6,156.4 L153.6,185.2 L136.9,185.2 C134.2,185.2 132.5,184.2 131.7,182.2 C131.3,181 131,178.9 131,175.8 Z M136.9,168.5 L136.9,179.4 L147.8,179.4 L147.8,168.5 L136.9,168.5 Z" display="inherit" id="d"/>
			<path d="M162.7,162.6 L156.9,162.6 L156.9,156.8 L162.7,156.8 L162.7,162.6 Z M162.7,163.4 L162.7,185.2 L156.9,185.2 L156.9,163.4 L162.7,163.4 Z" display="inherit" id="i"/>
			<path d="M165.8,178.6 C165.8,176.3 166.2,174.5 166.9,173.3 C167.8,171.8 169.4,171.1 171.7,171.1 L182.6,171.1 L182.6,168.5 L165.8,168.5 L165.8,162.7 L182.5,162.7 C185,162.7 186.7,163.6 187.6,165.4 C188.2,166.7 188.5,168.6 188.5,171.3 L188.4,172.7 L188.4,174 L188.4,185.2 L171.7,185.2 C169.7,185.2 168.3,184.6 167.3,183.4 C166.3,182.3 165.8,180.7 165.8,178.6 Z M182.6,179.4 L182.6,177.1 L171.7,177.1 L171.7,179.4 L182.6,179.4 Z" display="inherit" id="a"/>
			<path d="M214.1,174 L214.1,185.2 L208.3,185.2 L208.3,168.4 L197.4,168.4 L197.4,185.2 L191.6,185.2 L191.6,168.4 C191.6,166.6 192.1,165.2 193.2,164.1 C194.3,163 195.7,162.5 197.5,162.5 L204.9,162.5 L206.8,162.5 L208.8,162.6 C210.6,162.6 211.9,163.1 212.8,164.1 C213.8,165.3 214.3,167.6 214.3,170.9 L214.2,172.4 L214.2,174 L214.1,174 Z" display="inherit" id="n"/>
		</g>
	</g>
	<defs>
		<radialGradient id="gr_11">
			<stop offset="0" stop-color="#fad2c2" stop-opacity="0.99"/>
			<stop offset="1" stop-color="#ab301e" stop-opacity="0.99"/>
		</radialGradient>
		<radialGradient id="gr_1195">
			<stop offset="0.705" stop-color="#ffffff" stop-opacity="0.4"/>
			<stop offset="1" stop-color="#ffffff" stop-opacity="0"/>
		</radialGradient>
		<radialGradient id="gr_12">
			<stop offset="0" stop-color="#fad2c2" stop-opacity="0.99"/>
			<stop offset="1" stop-color="#ab301e" stop-opacity="0.99"/>
		</radialGradient>
		<linearGradient id="gr_16" y1="0.5" y2="0.5">
			<stop offset="0" stop-color="#74b8b4"/>
			<stop offset="1" stop-color="#0a71b4"/>
		</linearGradient>
		<linearGradient id="gr_1042" x1="0.5" x2="0.5" y1="0.777">
			<stop offset="0.148" stop-color="#ffffff" stop-opacity="0"/>
			<stop offset="1" stop-color="#000000" stop-opacity="0.9"/>
		</linearGradient>
		<linearGradient id="gr_1045" x1="0.5" x2="0.5" y1="1">
			<stop offset="0.21" stop-color="#ffffff" stop-opacity="0"/>
			<stop offset="1" stop-color="#000000" stop-opacity="0.9"/>
		</linearGradient>
		<linearGradient id="gr_13" x1="0.5" x2="0.5" y1="1">
			<stop offset="0.148" stop-color="#ffffff" stop-opacity="0"/>
			<stop offset="1" stop-color="#e1101a" stop-opacity="0.9"/>
		</linearGradient>
	</defs>
</svg>
