<?xml version="1.0" encoding="UTF-8" standalone="no"?>
<!-- Generator: Ikivo Animator 2.2 (build 2.2.0.10) -->

<!-- This SVG file is created using a Trial Version of Ikivo Animator.
A "Trial Version" is a version of Ikivo Animator that may only be used to review,
demonstrate, and evaluate Ikivo Animator and only for a limited period of time.
Any use of output from an Ikivo Animator Trial Version for commercial purposes is
strictly prohibited. For more information regarding the Trial Version of Ikivo Animator,
please read the End-User License Agreement. -->

<svg
   xmlns:dc="http://purl.org/dc/elements/1.1/"
   xmlns:cc="http://creativecommons.org/ns#"
   xmlns:rdf="http://www.w3.org/1999/02/22-rdf-syntax-ns#"
   xmlns:svg="http://www.w3.org/2000/svg"
   xmlns="http://www.w3.org/2000/svg"
   xmlns:sodipodi="http://sodipodi.sourceforge.net/DTD/sodipodi-0.dtd"
   xmlns:inkscape="http://www.inkscape.org/namespaces/inkscape"
   display="inherit"
   height="235"
   id="svg2"
   version="1.1"
   viewBox="0 0 240 235"
   width="240"
   inkscape:version="0.48.0 r9654"
   sodipodi:docname="tmp.svg">
  <metadata
     id="metadata3115">
    <rdf:RDF>
      <cc:Work
         rdf:about="">
        <dc:format>image/svg+xml</dc:format>
        <dc:type
           rdf:resource="http://purl.org/dc/dcmitype/StillImage" />
        <dc:title />
      </cc:Work>
    </rdf:RDF>
  </metadata>
  <sodipodi:namedview
     pagecolor="#ffffff"
     bordercolor="#666666"
     borderopacity="1"
     objecttolerance="10"
     gridtolerance="10"
     guidetolerance="10"
     inkscape:pageopacity="0"
     inkscape:pageshadow="2"
     inkscape:window-width="1039"
     inkscape:window-height="808"
     id="namedview3113"
     showgrid="false"
     inkscape:zoom="2.2382979"
     inkscape:cx="131.80227"
     inkscape:cy="122.81751"
     inkscape:window-x="0"
     inkscape:window-y="0"
     inkscape:window-maximized="0"
     inkscape:current-layer="svg2" />
  <rect
     display="inherit"
     fill="none"
     height="235"
     id="rect4"
     width="240" />
  <defs
     display="inherit"
     id="defs3076">
    <linearGradient
       id="gr_1042"
       x1="0.5"
       x2="0.5"
       y1="0.777">
      <stop
         offset="0.148"
         stop-color="#ffffff"
         stop-opacity="0"
         id="stop3079" />
      <stop
         offset="1"
         stop-color="#000000"
         stop-opacity="0.9"
         id="stop3081" />
    </linearGradient>
    <linearGradient
       id="gr_1045"
       x1="0.5"
       x2="0.5"
       y1="1">
      <stop
         offset="0.21"
         stop-color="#ffffff"
         stop-opacity="0"
         id="stop3084" />
      <stop
         offset="1"
         stop-color="#000000"
         stop-opacity="0.9"
         id="stop3086" />
    </linearGradient>
    <linearGradient
       id="gr_13"
       x1="0.5"
       x2="0.5"
       y1="1">
      <stop
         offset="0.148"
         stop-color="#ffffff"
         stop-opacity="0"
         id="stop3089" />
      <stop
         offset="1"
         stop-color="#e1101a"
         stop-opacity="0.9"
         id="stop3091" />
    </linearGradient>
    <linearGradient
       id="gr_1216"
       x1="0.503"
       x2="0.503"
       y1="0.803"
       y2="0.051">
      <stop
         offset="0.21"
         stop-color="#ffffff"
         stop-opacity="0"
         id="stop3094" />
      <stop
         offset="1"
         stop-color="#000000"
         stop-opacity="0.9"
         id="stop3096" />
    </linearGradient>
    <linearGradient
       id="gr_1138"
       x1="0.5"
       x2="0.5"
       y1="1">
      <stop
         offset="0.205"
         stop-color="#ffffff"
         stop-opacity="0"
         id="stop3099" />
      <stop
         offset="1"
         stop-color="#33cc33"
         stop-opacity="0.9"
         id="stop3101" />
    </linearGradient>
    <linearGradient
       id="gr_1341"
       x1="0.56"
       x2="0.56"
       y1="0.142"
       y2="0.958">
      <stop
         offset="0"
         stop-color="#ccff00"
         id="stop3104" />
      <stop
         offset="1"
         stop-color="#009900"
         id="stop3106" />
    </linearGradient>
  </defs>
  <path
     style="fill:#000000;stroke:none;display:inherit;"
     d="m 93.77281,227.37777 c -0.825609,-0.005 -1.898865,0.29561 -1.691081,-0.98008 -0.375589,-2.72265 -0.751179,-5.44532 -1.126769,-8.16798 0.91775,-0.0968 1.782162,-0.12847 1.595691,1.12144 0.250893,1.93323 0.501786,3.86644 0.752679,5.79966 0.972587,-2.30704 1.945173,-4.61406 2.91776,-6.9211 0.969573,-0.0927 1.83361,-0.11292 1.000148,1.03173 -1.149475,2.70545 -2.298951,5.41088 -3.448428,8.11633 z m 8.00832,-2.75792 c -1.15656,0 -2.31313,0 -3.46969,0 -0.246293,1.89496 1.71565,1.81341 2.33285,0.76781 2.52915,0.18231 -1.578297,3.54459 -2.653678,1.67523 -1.969699,-1.81058 -1.000393,-6.4284 1.840818,-6.46188 1.96429,-0.008 2.25266,2.45189 1.9497,4.01884 z m -1.16885,-1.09183 c 0.58873,-2.54571 -2.925384,-1.32893 -1.893915,0 0.631305,0 1.26261,0 1.893915,0 z m 2.67817,-2.77752 c 1.07041,-0.21596 1.54488,0.1029 1.09024,1.25555 0.35594,-1.61781 3.04265,-1.82681 1.72063,0.10395 -1.75423,-0.0959 -2.08337,2.32912 -2.27424,3.88734 0.018,1.08304 -0.35489,1.67207 -1.42445,1.38043 -0.36008,-0.40751 0.2073,-1.64619 0.20131,-2.37104 0.22884,-1.41874 0.45768,-2.83749 0.68651,-4.25623 z m 2.65877,4.77456 c 1.47308,-1.10489 2.38979,2.04677 3.45805,0 -1.43164,-0.83695 -4.19612,-2.74725 -1.72617,-4.58348 1.23735,-1.62663 5.07509,1.35274 2.44571,1.62291 -0.37323,-1.21784 -3.30507,-0.50539 -1.45194,0.52316 3.52825,0.23882 1.99592,5.7507 -1.13229,4.3154 -0.83705,-0.21455 -1.42668,-1.00417 -1.59336,-1.87799 z m 7.15181,-7.29535 c 0.9489,-0.11828 1.74122,-0.0964 1.20379,1.11553 0.20674,0.79161 -1.91208,0.81236 -1.37371,-0.0508 0.0566,-0.35491 0.11328,-0.70982 0.16992,-1.06473 z m -0.40546,2.52079 c 0.94898,-0.12026 1.73414,-0.0937 1.19953,1.11581 -0.29605,1.83716 -0.59211,3.67431 -0.88816,5.51146 -0.94896,0.11994 -1.73531,0.0941 -1.20034,-1.11579 0.29632,-1.83716 0.59264,-3.67432 0.88897,-5.51148 z m 1.87889,3.87553 c -0.31952,-2.42292 2.04895,-5.19249 4.30678,-3.58267 2.1664,1.93997 0.69396,7.04935 -2.42383,6.4362 -1.26052,-0.22171 -1.9321,-1.59486 -1.88295,-2.85353 z m 3.93917,-1.27947 c -0.81055,-3.9792 -4.42875,2.09582 -1.50253,2.80226 1.18269,-0.11928 1.4924,-1.76573 1.50253,-2.80226 z m 2.97693,-2.59606 c 0.72734,-0.0151 1.66729,-0.22182 1.17467,0.86192 1.56828,-2.36476 4.20309,-0.041 2.97272,2.28838 -0.18678,1.15898 -0.37356,2.31798 -0.56033,3.47697 -0.94888,0.11828 -1.74121,0.0964 -1.20394,-1.11555 0.16571,-1.32154 0.54256,-2.63553 0.52409,-3.96586 -1.61933,-1.31808 -2.19929,1.98443 -2.31346,3.33681 -0.21595,0.76374 0.0552,2.14183 -1.08119,1.7446 -1.11659,0.27016 -0.18174,-1.29812 -0.26655,-1.95262 0.25133,-1.55821 0.50266,-3.11643 0.75399,-4.67465 z m 6.31761,0 c 0.9494,-0.12617 1.71318,-0.0855 1.18466,1.11629 0.31927,0.90194 -1.73249,0.90596 -1.39888,0.20057 0.0714,-0.43895 0.14281,-0.87791 0.21422,-1.31686 z m -0.78667,4.89931 c 0.94996,-0.12607 1.71357,-0.0855 1.17968,1.11538 0.3133,0.89431 -1.73202,0.90037 -1.39362,0.19431 0.0713,-0.43656 0.14263,-0.87312 0.21394,-1.30969 z"
     id="Version:"/>
  <path
     style="fill:#000000;stroke:none;display:inherit;"
     d="M 136.21875 217.21875 C 135.75639 217.22776 135.27168 217.38294 134.84375 217.65625 C 133.54004 218.26505 132.33064 220.38728 134.53125 220.15625 C 135.07173 219.61813 137.28375 217.72726 137.21875 220.25 C 136.89648 221.72399 134.84994 220.92928 135.15625 222.75 C 137.02546 222.59397 137.32577 226.49616 134.71875 225.84375 C 134.17967 224.49508 133.43528 224.40426 132.0625 224.75 C 132.16042 225.51991 132.46349 226.29309 133.0625 226.8125 C 135.31683 228.86632 139.59251 226.36803 138.53125 223.375 C 137.58827 222.24669 137.41962 222.21713 138.71875 221.3125 C 140.14642 219.35659 138.22231 217.17971 136.21875 217.21875 z M 148.09375 217.28125 C 147.95257 217.29311 147.80493 217.30713 147.65625 217.34375 C 144.87048 218.14359 144.04204 221.53252 143.9375 224.09375 C 143.7885 225.88878 145.06999 227.77516 147.03125 227.5 C 149.77958 227.08043 150.72193 223.9049 151 221.53125 C 151.46412 219.61287 150.21149 217.10338 148.09375 217.28125 z M 155.875 217.28125 C 155.73382 217.29311 155.58618 217.30713 155.4375 217.34375 C 152.65173 218.14359 151.82329 221.53252 151.71875 224.09375 C 151.55279 225.86903 152.87294 227.78984 154.8125 227.5 C 157.56083 227.08043 158.50319 223.90489 158.78125 221.53125 C 159.24538 219.61286 157.99274 217.10338 155.875 217.28125 z M 147.875 219.0625 C 148.88761 219.04099 149.7487 221.19838 148.75 222.78125 C 149.05052 224.58053 146.13573 227.65697 145.84375 224.5 C 145.87631 223.21042 146.16958 221.91157 146.5625 220.6875 C 146.92262 219.51243 147.41472 219.07228 147.875 219.0625 z M 155.6875 219.0625 C 156.70011 219.04099 157.5612 221.19838 156.5625 222.78125 C 156.86302 224.58053 153.94823 227.65697 153.65625 224.5 C 153.68881 223.21042 153.98208 221.91157 154.375 220.6875 C 154.73512 219.51243 155.22722 219.07228 155.6875 219.0625 z M 141.46875 225.40625 C 141.02813 225.427 140.44558 225.57089 140.15625 225.46875 C 140.13665 225.56256 140.11335 225.6562 140.09375 225.75 C 140.0159 226.48756 139.27657 227.73936 140.59375 227.34375 C 141.6969 227.68262 141.90245 226.93751 141.96875 226 C 142.19167 225.48175 141.90937 225.3855 141.46875 225.40625 z "
     id="3.00" />
</svg>
