<?xml version="1.0" encoding="UTF-8"?>
<!-- Generator: Ikivo Animator 2.2 (build 2.2.0.10) -->
<!DOCTYPE svg PUBLIC "-//W3C//DTD SVG 1.1 Tiny//EN" "http://www.w3.org/Graphics/SVG/1.1/DTD/svg11-tiny.dtd">
<svg display="inherit" height="235" id="Version400" version="1.1" viewBox="0 0 240 235" width="240" baseProfile="tiny" xmlns="http://www.w3.org/2000/svg" xmlns:xlink="http://www.w3.org/1999/xlink" xmlns:ev="http://www.w3.org/2001/xml-events">
	<metadata id="metadata3115">
    
  </metadata>
	<rect display="inherit" fill="none" height="235" id="rect4" width="240"/>
	<defs display="inherit" id="defs3076"/>
	<g display="inherit" fill="#000000" font-family="Sans" font-size="14" font-style="normal" font-weight="400" id="v400" stroke="none" text-anchor="start">
		<path d="M138.944,223.019 L135,223.019 L135.342,221.378 L140.763,215.041 L142.458,215.041 L141.139,221.351 L142.355,221.351 L142.007,223.019 L140.79,223.019 L140.359,225.062 L138.514,225.062 Z M139.293,221.351 L139.942,218.227 L137.297,221.351 Z" font-style="oblique" font-weight="700" id="path3579"/>
		<path d="M143.422,223.169 L145.363,223.169 L144.967,225.063 L143.025,225.063 Z" font-style="oblique" font-weight="700" id="path3581"/>
		<path d="M147.195,221.802 C147.195,220.795 147.366,219.774 147.708,218.739 C148.127,217.477 148.665,216.538 149.321,215.923 C149.978,215.308 150.707,215 151.509,215 C152.32,215 152.986,215.294 153.508,215.882 C154.03,216.47 154.291,217.324 154.291,218.445 C154.291,219.471 154.101,220.554 153.72,221.696 C153.34,222.837 152.826,223.712 152.179,224.321 C151.532,224.929 150.802,225.233 149.991,225.233 C149.18,225.233 148.511,224.939 147.985,224.352 C147.458,223.764 147.195,222.914 147.195,221.802 Z M149.123,222.198 C149.123,222.736 149.21,223.114 149.383,223.333 C149.556,223.552 149.779,223.661 150.053,223.661 C150.417,223.661 150.741,223.493 151.023,223.155 C151.402,222.704 151.737,221.815 152.028,220.489 C152.261,219.437 152.377,218.603 152.377,217.987 C152.377,217.486 152.289,217.125 152.114,216.904 C151.938,216.683 151.714,216.572 151.44,216.572 C151.094,216.572 150.786,216.739 150.518,217.071 C150.121,217.554 149.779,218.404 149.492,219.621 C149.246,220.674 149.123,221.533 149.123,222.198 Z" font-style="oblique" font-weight="700" id="path3583"/>
		<path d="M155.471,219.288 L155.841,217.538 C157.531,216.799 158.839,215.94 159.764,214.961 L160.961,214.961 L158.848,225.044 L156.873,225.044 L158.329,218.098 C157.919,218.363 157.446,218.604 156.91,218.823 C156.375,219.042 155.895,219.197 155.471,219.288 Z" font-size="14" font-style="oblique" id="path3008"/>
	</g>
	<g display="inherit" fill="#000000" font-family="Sans" font-size="37.255" font-style="normal" font-weight="400" id="Version" stroke="none" text-anchor="start" transform="matrix(0.931,0,0,1.074,0,0)">
		<path d="M101.089,209.561 L99.332,209.561 L97.897,201.56 L99.539,201.56 L100.555,207.612 L103.867,201.56 L105.499,201.56 Z" font-size="11.177" font-style="oblique" font-weight="700" id="path3562"/>
		<path d="M110.187,207.149 L106.257,207.149 C106.253,207.21 106.252,207.258 106.252,207.29 C106.252,207.676 106.362,207.987 106.583,208.224 C106.803,208.46 107.071,208.578 107.388,208.578 C107.908,208.578 108.313,208.309 108.605,207.771 L110.007,208.005 C109.734,208.569 109.369,208.992 108.913,209.274 C108.456,209.556 107.944,209.697 107.377,209.697 C106.598,209.697 105.965,209.451 105.477,208.958 C104.99,208.465 104.746,207.813 104.746,207.001 C104.746,206.208 104.966,205.502 105.407,204.884 C106.007,204.047 106.864,203.629 107.977,203.629 C108.686,203.629 109.25,203.848 109.669,204.286 C110.087,204.725 110.296,205.339 110.296,206.128 C110.296,206.506 110.26,206.847 110.187,207.149 Z M108.866,206.194 C108.87,206.124 108.871,206.072 108.871,206.035 C108.871,205.606 108.775,205.284 108.582,205.069 C108.389,204.855 108.131,204.747 107.807,204.747 C107.483,204.747 107.193,204.869 106.936,205.113 C106.68,205.357 106.506,205.717 106.415,206.194 Z" font-size="11.177" font-style="oblique" font-weight="700" id="path3564"/>
		<path d="M111.889,203.765 L113.352,203.765 L113.117,204.889 C113.663,204.049 114.254,203.629 114.891,203.629 C115.116,203.629 115.358,203.685 115.617,203.798 L115.016,205.08 C114.875,205.029 114.724,205.004 114.563,205.004 C114.294,205.004 114.02,205.106 113.742,205.309 C113.464,205.513 113.246,205.785 113.09,206.125 C112.934,206.466 112.779,207.005 112.626,207.743 L112.244,209.561 L110.678,209.561 Z" font-size="11.177" font-style="oblique" font-weight="700" id="path3566"/>
		<path d="M114.907,207.94 L116.424,207.7 C116.559,208.02 116.726,208.246 116.926,208.379 C117.127,208.512 117.399,208.578 117.745,208.578 C118.102,208.578 118.387,208.498 118.602,208.338 C118.751,208.229 118.826,208.096 118.826,207.94 C118.826,207.834 118.787,207.74 118.711,207.656 C118.631,207.576 118.414,207.478 118.062,207.361 C117.116,207.048 116.53,206.801 116.304,206.619 C115.951,206.335 115.775,205.964 115.775,205.506 C115.775,205.047 115.946,204.653 116.288,204.322 C116.765,203.86 117.472,203.629 118.411,203.629 C119.157,203.629 119.721,203.765 120.103,204.038 C120.485,204.311 120.727,204.68 120.828,205.146 L119.382,205.397 C119.306,205.186 119.182,205.027 119.011,204.922 C118.778,204.78 118.498,204.709 118.171,204.709 C117.843,204.709 117.608,204.764 117.464,204.873 C117.32,204.982 117.248,205.108 117.248,205.249 C117.248,205.395 117.321,205.515 117.467,205.61 C117.558,205.668 117.851,205.77 118.345,205.915 C119.109,206.137 119.621,206.355 119.879,206.57 C120.243,206.872 120.425,207.236 120.425,207.662 C120.425,208.211 120.194,208.688 119.732,209.091 C119.269,209.495 118.618,209.697 117.778,209.697 C116.941,209.697 116.294,209.543 115.838,209.236 C115.381,208.929 115.071,208.497 114.907,207.94 Z" font-size="11.177" font-style="oblique" font-weight="700" id="path3568"/>
		<path d="M123,201.56 L124.567,201.56 L124.272,202.979 L122.706,202.979 Z M122.542,203.765 L124.108,203.765 L122.897,209.561 L121.33,209.561 Z" font-size="11.177" font-style="oblique" font-weight="700" id="path3570"/>
		<path d="M124.659,207.154 C124.659,206.081 124.962,205.225 125.568,204.586 C126.174,203.948 126.97,203.629 127.956,203.629 C128.811,203.629 129.478,203.864 129.959,204.335 C130.439,204.806 130.679,205.44 130.679,206.237 C130.679,207.176 130.379,207.987 129.778,208.671 C129.178,209.355 128.374,209.697 127.366,209.697 C126.821,209.697 126.337,209.588 125.915,209.37 C125.493,209.151 125.178,208.842 124.971,208.442 C124.763,208.042 124.659,207.612 124.659,207.154 Z M129.124,206.035 C129.124,205.664 129.015,205.367 128.799,205.143 C128.582,204.919 128.303,204.807 127.961,204.807 C127.623,204.807 127.323,204.912 127.061,205.121 C126.799,205.33 126.595,205.634 126.449,206.033 C126.304,206.431 126.231,206.797 126.231,207.132 C126.231,207.547 126.344,207.876 126.57,208.12 C126.795,208.364 127.079,208.486 127.421,208.486 C127.85,208.486 128.21,208.302 128.501,207.934 C128.916,207.414 129.124,206.781 129.124,206.035 Z" font-size="11.177" font-style="oblique" font-weight="700" id="path3572"/>
		<path d="M132.496,203.765 L133.981,203.765 L133.828,204.518 C134.199,204.198 134.545,203.97 134.867,203.833 C135.189,203.697 135.529,203.629 135.885,203.629 C136.362,203.629 136.737,203.765 137.012,204.038 C137.287,204.311 137.424,204.673 137.424,205.124 C137.424,205.328 137.364,205.713 137.244,206.281 L136.562,209.561 L134.996,209.561 L135.683,206.27 C135.785,205.779 135.836,205.486 135.836,205.391 C135.836,205.191 135.777,205.034 135.659,204.919 C135.54,204.805 135.376,204.747 135.165,204.747 C134.936,204.747 134.681,204.844 134.401,205.037 C134.121,205.229 133.9,205.484 133.74,205.801 C133.624,206.026 133.493,206.486 133.348,207.181 L132.851,209.561 L131.285,209.561 Z" font-size="11.177" font-style="oblique" font-weight="700" id="path3574"/>
		<path d="M139.645,203.765 L141.19,203.765 L140.873,205.282 L139.329,205.282 Z M138.75,208.049 L140.3,208.049 L139.984,209.561 L138.434,209.561 Z" font-size="11.177" font-style="oblique" font-weight="700" id="path3576"/>
	</g>
</svg>
