<?xml version="1.0" encoding="iso-8859-1"?>
<!-- Generator: Adobe Illustrator 13.0.0, SVG Export Plug-In . SVG Version: 6.00 Build 14948)  -->
<!DOCTYPE svg PUBLIC "-//W3C//DTD SVG 1.1 Tiny//EN" "http://www.w3.org/Graphics/SVG/1.1/DTD/svg11-tiny.dtd">
<svg version="1.1" baseProfile="tiny" id="Livello_1"
	 xmlns="http://www.w3.org/2000/svg" xmlns:xlink="http://www.w3.org/1999/xlink" x="0px" y="0px" width="18.6px" height="11px"
	 viewBox="0 0 18.6 11" xml:space="preserve">
<path d="M18.6,9.3c0,2.1-0.6,1.7-2.5,1.7H2.5C0.6,11,0,11.3,0,9.3V3.7C0.1,2.3,3.6,0,4.5,0h11.6c1.9,0,2.5,0.7,2.5,2.7V9.3z"/>
<path fill="#FFFFFE" d="M16.4,6.9c0,1.9-1.5,2.5-3.4,2.5h-2.8c-1.9,0-3.4-0.7-3.4-2.5V4.2c0-1.9,1.5-2.5,3.4-2.5H13
	c1.9,0,3.4,0.7,3.4,2.5V6.9z"/>
<line fill="none" stroke="#000000" stroke-width="0.25" x1="5.9" y1="7" x2="17.4" y2="7"/>
<line fill="none" stroke="#000000" stroke-width="0.25" x1="5.9" y1="5" x2="17.4" y2="5"/>
<line fill="none" stroke="#000000" stroke-width="0.25" x1="13.7" y1="10" x2="13.7" y2="1.2"/>
<line fill="none" stroke="#000000" stroke-width="0.25" x1="11.7" y1="10" x2="11.7" y2="1.2"/>
<line fill="none" stroke="#000000" stroke-width="0.25" x1="9.7" y1="10" x2="9.7" y2="4.8"/>
</svg>
