<?xml version="1.0" encoding="iso-8859-1"?>
<!-- Generator: Adobe Illustrator 13.0.0, SVG Export Plug-In . SVG Version: 6.00 Build 14948)  -->
<!DOCTYPE svg PUBLIC "-//W3C//DTD SVG 1.1//EN" "http://www.w3.org/Graphics/SVG/1.1/DTD/svg11.dtd">
<svg version="1.1" id="Livello_1" xmlns="http://www.w3.org/2000/svg" xmlns:xlink="http://www.w3.org/1999/xlink" x="0px" y="0px"
	 width="85.1px" height="82.4px" viewBox="0 0 85.1 82.4" enable-background="new 0 0 85.1 82.4" xml:space="preserve">
<radialGradient id="SVGID_1_" cx="138.7532" cy="-127.3489" r="18.0993" gradientTransform="matrix(2.0042 0 0 -1.9014 -235.6684 -204.7706)" gradientUnits="userSpaceOnUse">
	<stop  offset="0" style="stop-color:#FAD1C1"/>
	<stop  offset="1" style="stop-color:#AB301E"/>
</radialGradient>
<ellipse fill="url(#SVGID_1_)" cx="42.4" cy="37.4" rx="35.9" ry="34.7"/>
<linearGradient id="SVGID_2_" gradientUnits="userSpaceOnUse" x1="378.4377" y1="5.9011" x2="448.1223" y2="5.9011" gradientTransform="matrix(0.8908 0.4847 0.9892 -1.818 -322.4206 -169.0812)">
	<stop  offset="0" style="stop-color:#66A1B4"/>
	<stop  offset="1" style="stop-color:#0371B4"/>
</linearGradient>
<path fill="url(#SVGID_2_)" d="M12.7,18C20.2,4.3,43.4-2.9,60.6,6.8c16.5,9.3,22,31.1,14.8,43.8"/>
<g>
	<path fill="#FFFFFF" stroke="#FFFFFF" d="M76.3,47.8c0-16.9-49.9-52.8-63.6-29.1"/>
	
		<radialGradient id="SVGID_3_" cx="140.8274" cy="-124.6897" r="12.9145" gradientTransform="matrix(1.9769 0 0 -1.9088 -234.7548 -203.9757)" gradientUnits="userSpaceOnUse">
		<stop  offset="0" style="stop-color:#FAD1C1"/>
		<stop  offset="1" style="stop-color:#AB301E"/>
	</radialGradient>
	<path fill="url(#SVGID_3_)" stroke="#FFFFFF" d="M75.4,50.6c0-12.7-39.6-41.5-63.6-30.7"/>
	<polygon fill="#FFFFFF" points="73.7,45.8 76.7,47.7 76,49.8 	"/>
	<polygon fill="#FFFFFF" points="75,52.1 75,48.3 76.1,49.4 	"/>
	<polygon fill="#FFFFFF" points="13.9,19.3 10.8,20.9 12.8,17.7 	"/>
</g>
<g>
	<g>
		<g>
			<g>
				<path fill="none" stroke="#FFFFFF" stroke-width="0.25" stroke-opacity="0.54" d="M20.6,42.5c12.7-9,30.1-6.7,39.1,5"/>
				<g>
					<g>
						<path fill="none" stroke="#FFFFFF" stroke-width="0.25" stroke-opacity="0.54" d="M51.8,63.9c0-21.2-17.4-38.3-38.9-38.3"/>
						<path fill="none" stroke="#FFFFFF" stroke-width="0.25" stroke-opacity="0.54" d="M17.7,55.7c20.7-6.9,31.5-21,24.5-40.6"/>
						<path fill="none" stroke="#FFFFFF" stroke-width="0.25" stroke-opacity="0.54" d="M28.5,63.7c15.7-14.8,18.9-36.4,3.9-51.2"/>
						<path fill="none" stroke="#FFFFFF" stroke-width="0.25" stroke-opacity="0.54" d="M10.7,34.4c19.6,9.6,39.4,9.8,49-8.7"/>
					</g>
					<path fill="none" stroke="#FFFFFF" stroke-width="0.25" stroke-opacity="0.54" d="M34.7,12.5c-5.9,20.4,7.1,34.3,27.8,39.9"/>
					<path fill="none" stroke="#FFFFFF" stroke-width="0.25" stroke-opacity="0.54" d="M48.3,17.3c0,15.2-12.2,27.4-27.3,27.4"/>
					<path fill="none" stroke="#FFFFFF" stroke-width="0.25" stroke-opacity="0.54" d="M23.5,23.3c15,4.6,23.4,19.6,18.9,33.4"/>
					<path fill="none" stroke="#FFFFFF" stroke-width="0.25" stroke-opacity="0.54" d="M29.4,40.2c14.3-6.3,31-0.5,37.2,12.8"/>
					<path fill="none" stroke="#FFFFFF" stroke-width="0.25" stroke-opacity="0.54" d="M17.5,28.9c15.7-1,29.2,9.9,30.2,24.5"/>
					<path fill="none" stroke="#FFFFFF" stroke-width="0.25" stroke-opacity="0.54" d="M40.1,54c-4.4-14.6-3.3-28.5,11.2-32.7"/>
				</g>
				<path fill="none" stroke="#FFFFFF" stroke-width="0.25" stroke-opacity="0.54" d="M21.2,39.7c3.4-5.8,10.7-8.1,16.2-5.2"/>
				<path fill="none" stroke="#FFFFFF" stroke-width="0.25" stroke-opacity="0.54" d="M54.5,52.4c-5.4-4.2-6.6-11.5-2.6-16.3"/>
			</g>
			<g>
				<path fill="none" stroke="#FFFFFF" stroke-width="0.25" stroke-opacity="0.54" d="M22.8,30.2C38.5,30.9,50.7,43.1,50,57.7"/>
				<g>
					<g>
						<path fill="none" stroke="#FFFFFF" stroke-width="0.25" stroke-opacity="0.54" d="M33.4,65.7c13.7-16.6,11.3-40.5-5.5-53.5"/>
						<path fill="none" stroke="#FFFFFF" stroke-width="0.25" stroke-opacity="0.54" d="M12,38.7c20.7,7.2,36.4,3.6,43.7-15.8"/>
						<path fill="none" stroke="#FFFFFF" stroke-width="0.25" stroke-opacity="0.54" d="M15.2,51.4C37,49.3,52.8,39.8,50.7,19.2"/>
						<path fill="none" stroke="#FFFFFF" stroke-width="0.25" stroke-opacity="0.54" d="M20.3,17.8c9.1,19.3,24.4,31.4,43.9,22.8"/>
					</g>
					<path fill="none" stroke="#FFFFFF" stroke-width="0.25" stroke-opacity="0.54" d="M47,17.6c-8,5.6-18.8,17.4,2.1,45.6"/>
					<path fill="none" stroke="#FFFFFF" stroke-width="0.25" stroke-opacity="0.54" d="M60.8,27.3C51,39.1,33.4,41.3,21.7,32.2"/>
					<path fill="none" stroke="#FFFFFF" stroke-width="0.25" stroke-opacity="0.54" d="M37.4,16.9c8.7,12.6,5.7,29.4-6.9,37.5"/>
					<path fill="none" stroke="#FFFFFF" stroke-width="0.25" stroke-opacity="0.54" d="M31.2,33.6C46.4,37.4,55.7,51.8,51.9,66"/>
					<path fill="none" stroke="#FFFFFF" stroke-width="0.25" stroke-opacity="0.54" d="M29.2,17.6C42.1,26.3,45.6,43,36.9,55"/>
					<path fill="none" stroke="#FFFFFF" stroke-width="0.25" stroke-opacity="0.54" d="M30.6,50.9c6-14.1,22.1-20.9,36.1-15.4"/>
				</g>
				<path fill="none" stroke="#FFFFFF" stroke-width="0.25" stroke-opacity="0.54" d="M25,28.3c6.4-2.5,13.6,0.1,15.9,5.8"/>
				<path fill="none" stroke="#FFFFFF" stroke-width="0.25" stroke-opacity="0.54" d="M42.8,58.4c-1.5-6.6,2.3-13,8.5-14.3"/>
			</g>
			<g>
				<path fill="none" stroke="#FFFFFF" stroke-width="0.25" stroke-opacity="0.54" d="M26.6,24.5c14.6,5.7,21.9,21.2,16.3,34.7"/>
				<g>
					<g>
						<path fill="none" stroke="#FFFFFF" stroke-width="0.25" stroke-opacity="0.54" d="M24.5,61.5c18.6-11.3,22.7-31.4,11.3-49"/>
						<path fill="none" stroke="#FFFFFF" stroke-width="0.25" stroke-opacity="0.54" d="M13.6,29.2C30.7,42.5,46.9,44,60.4,27.8"/>
						<path fill="none" stroke="#FFFFFF" stroke-width="0.25" stroke-opacity="0.54" d="M12.1,42.2c21.4,5,35.1,1.5,40.1-18.7"/>
						<path fill="none" stroke="#FFFFFF" stroke-width="0.25" stroke-opacity="0.54" d="M28.5,12.1c2,21.1,12.3,37.4,33.7,35.5"/>
					</g>
					<path fill="none" stroke="#FFFFFF" stroke-width="0.25" stroke-opacity="0.54" d="M54.6,22.3C33.5,28.3,34,44.1,40.1,64"/>
					<path fill="none" stroke="#FFFFFF" stroke-width="0.25" stroke-opacity="0.54" d="M63.5,33.8c-13.3,8-30.6,4.6-38.6-7.8"/>
					<path fill="none" stroke="#FFFFFF" stroke-width="0.25" stroke-opacity="0.54" d="M45,16.6c4,14.7-4.7,29.5-19.3,33.3"/>
					<path fill="none" stroke="#FFFFFF" stroke-width="0.25" stroke-opacity="0.54" d="M33.4,30.4c13.1,8.4,16.9,25.1,8.5,37.2"/>
					<path fill="none" stroke="#FFFFFF" stroke-width="0.25" stroke-opacity="0.54" d="M36.9,14.8C46.1,27,43.8,44,31.5,52.5"/>
					<path fill="none" stroke="#FFFFFF" stroke-width="0.25" stroke-opacity="0.54" d="M26.8,46.6c10.4-11.3,28-12.7,39.4-3"/>
				</g>
				<path fill="none" stroke="#FFFFFF" stroke-width="0.25" stroke-opacity="0.54" d="M29.3,23.5c6.9-0.3,12.8,4.4,13.1,10.5"/>
				<path fill="none" stroke="#FFFFFF" stroke-width="0.25" stroke-opacity="0.54" d="M35.9,57.6c0.8-6.7,6.5-11.5,12.9-10.8"/>
			</g>
		</g>
		<path fill="none" stroke="#FFFFFF" stroke-width="0.25" stroke-opacity="0.54" d="M74.6,50.8c-26.2-13.7-42.2-22.1-57.3-3.5"/>
		<path fill="none" stroke="#FFFFFF" stroke-width="0.25" stroke-opacity="0.54" d="M53.2,59.5c-10.4-27-22.7-30.8-40.8-39"/>
	</g>
	<g>
		<g>
			<g>
				<path fill="none" stroke="#FFFFFF" stroke-width="0.25" stroke-opacity="0.54" d="M61.5,44c-12.7-9-30.1-6.7-39.1,5"/>
				<g>
					<g>
						<path fill="none" stroke="#FFFFFF" stroke-width="0.25" stroke-opacity="0.54" d="M30.3,65.4c0-21.2,9-38.1,30.5-38.1"/>
						<path fill="none" stroke="#FFFFFF" stroke-width="0.25" stroke-opacity="0.54" d="M64.4,57.2c-20.7-6.9-31.5-21-24.5-40.6"/>
						<path fill="none" stroke="#FFFFFF" stroke-width="0.25" stroke-opacity="0.54" d="M53.8,65.2C38,50.4,30.6,31.8,45.6,16.9"/>
						<path fill="none" stroke="#FFFFFF" stroke-width="0.25" stroke-opacity="0.54" d="M71.5,35.8c-19.6,9.6-39.4,9.8-49-8.7"/>
					</g>
					<path fill="none" stroke="#FFFFFF" stroke-width="0.25" stroke-opacity="0.54" d="M47.8,18.2c5.9,20.4-7.4,30.1-28.1,35.8"/>
					<path fill="none" stroke="#FFFFFF" stroke-width="0.25" stroke-opacity="0.54" d="M33.8,18.7c0,15.1,12.2,27.4,27.3,27.4"/>
					<path fill="none" stroke="#FFFFFF" stroke-width="0.25" stroke-opacity="0.54" d="M58.8,24.8c-15,4.6-23.4,19.5-19,33.4"/>
					<path fill="none" stroke="#FFFFFF" stroke-width="0.25" stroke-opacity="0.54" d="M52.8,41.6c-14.3-6.3-31-0.5-37.2,12.8"/>
					<path fill="none" stroke="#FFFFFF" stroke-width="0.25" stroke-opacity="0.54" d="M64.7,30.3c-15.7-1-29.2,10-30.2,24.5"/>
					<path fill="none" stroke="#FFFFFF" stroke-width="0.25" stroke-opacity="0.54" d="M42.1,55.5c4.4-14.6,3.3-28.5-11.2-32.7"/>
				</g>
				<path fill="none" stroke="#FFFFFF" stroke-width="0.25" stroke-opacity="0.54" d="M61,41.3c-3.4-5.8-10.7-8.1-16.2-5.2"/>
				<path fill="none" stroke="#FFFFFF" stroke-width="0.25" stroke-opacity="0.54" d="M27.6,54c5.4-4.2,6.6-11.4,2.6-16.3"/>
			</g>
			<g>
				<path fill="none" stroke="#FFFFFF" stroke-width="0.25" stroke-opacity="0.54" d="M59.3,31.6c-15.7,0.7-27.9,12.9-27.3,27.5"/>
				<g>
					<g>
						<path fill="none" stroke="#FFFFFF" stroke-width="0.25" stroke-opacity="0.54" d="M48.9,67.2c-13.7-16.6-16-33.9,0.8-46.9"/>
						<path fill="none" stroke="#FFFFFF" stroke-width="0.25" stroke-opacity="0.54" d="M70.1,40.2c-20.7,7.2-36.4,3.6-43.7-15.8"/>
						<path fill="none" stroke="#FFFFFF" stroke-width="0.25" stroke-opacity="0.54" d="M67,52.9c-21.8-2.1-37.7-11.6-35.5-32.2"/>
						<path fill="none" stroke="#FFFFFF" stroke-width="0.25" stroke-opacity="0.54" d="M52.8,21.2C43.7,40.5,37.5,50.7,18,42.1"/>
					</g>
					<path fill="none" stroke="#FFFFFF" stroke-width="0.25" stroke-opacity="0.54" d="M35.2,19.1c8,5.6,18.8,17.4-2.1,45.6"/>
					<path fill="none" stroke="#FFFFFF" stroke-width="0.25" stroke-opacity="0.54" d="M21.3,28.7c9.8,11.9,27.3,14.1,39.1,4.9"/>
					<path fill="none" stroke="#FFFFFF" stroke-width="0.25" stroke-opacity="0.54" d="M44.7,18.4C36,31,39,47.8,51.6,55.9"/>
					<path fill="none" stroke="#FFFFFF" stroke-width="0.25" stroke-opacity="0.54" d="M51,35.1c-15.2,3.8-24.5,18.3-20.7,32.4"/>
					<path fill="none" stroke="#FFFFFF" stroke-width="0.25" stroke-opacity="0.54" d="M49.2,20.1c-12.9,8.6-12.6,24.4-4,36.4"/>
					<path fill="none" stroke="#FFFFFF" stroke-width="0.25" stroke-opacity="0.54" d="M51.6,52.4C45.6,38.3,29.5,31.4,15.5,37"/>
				</g>
				<path fill="none" stroke="#FFFFFF" stroke-width="0.25" stroke-opacity="0.54" d="M57.1,29.8c-6.4-2.5-13.6,0.1-15.9,5.8"/>
				<path fill="none" stroke="#FFFFFF" stroke-width="0.25" stroke-opacity="0.54" d="M39.3,59.9c1.5-6.6-2.3-13-8.5-14.3"/>
			</g>
			<g>
				<path fill="none" stroke="#FFFFFF" stroke-width="0.25" stroke-opacity="0.54" d="M55.6,26c-14.6,5.6-22,21.1-16.4,34.6"/>
				<g>
					<g>
						<path fill="none" stroke="#FFFFFF" stroke-width="0.25" stroke-opacity="0.54" d="M57.7,62.9c-18.6-11.3-25-28.4-13.5-45.9"/>
						<path fill="none" stroke="#FFFFFF" stroke-width="0.25" stroke-opacity="0.54" d="M64.7,30.3c-17.1,13.4-29.4,15.1-42.8-1"/>
						<path fill="none" stroke="#FFFFFF" stroke-width="0.25" stroke-opacity="0.54" d="M70,43.7c-21.3,5-35,1.5-40.1-18.7"/>
						<path fill="none" stroke="#FFFFFF" stroke-width="0.25" stroke-opacity="0.54" d="M53.4,22c-2,21.1-11.9,28.9-33.3,27"/>
					</g>
					<path fill="none" stroke="#FFFFFF" stroke-width="0.25" stroke-opacity="0.54" d="M27.5,23.7c21.1,6,20.6,21.8,14.5,41.7"/>
					<path fill="none" stroke="#FFFFFF" stroke-width="0.25" stroke-opacity="0.54" d="M18.7,35.3c13.3,8,30.6,4.6,38.6-7.8"/>
					<path fill="none" stroke="#FFFFFF" stroke-width="0.25" stroke-opacity="0.54" d="M37.3,18.2c-4,14.7,4.7,29.5,19.3,33.3"/>
					<path fill="none" stroke="#FFFFFF" stroke-width="0.25" stroke-opacity="0.54" d="M48.9,32C35.7,40.3,31.9,57,40.3,69.1"/>
					<path fill="none" stroke="#FFFFFF" stroke-width="0.25" stroke-opacity="0.54" d="M45.3,16.2c-9.2,12.4-6.9,29.2,5.4,37.7"/>
					<path fill="none" stroke="#FFFFFF" stroke-width="0.25" stroke-opacity="0.54" d="M55.3,48c-10.4-11.3-28-12.7-39.4-3"/>
				</g>
				<path fill="none" stroke="#FFFFFF" stroke-width="0.25" stroke-opacity="0.54" d="M52.9,25c-6.9-0.3-12.8,4.4-13.1,10.5"/>
				<path fill="none" stroke="#FFFFFF" stroke-width="0.25" stroke-opacity="0.54" d="M46.3,59c-0.8-6.7-6.5-11.5-12.9-10.8"/>
			</g>
		</g>
		<path fill="none" stroke="#FFFFFF" stroke-width="0.25" stroke-opacity="0.54" d="M11.4,49.9c26.2-13.7,38.3-19.6,53.5-1.1"/>
		<path fill="none" stroke="#FFFFFF" stroke-width="0.25" stroke-opacity="0.54" d="M29,60.9c10.4-27,5.6-30.3,23.7-38.5"/>
	</g>
</g>
<ellipse fill="#1B171B" cx="41.8" cy="37.8" rx="14.9" ry="13.9"/>
<ellipse fill="#FFFFFF" cx="28.9" cy="31.2" rx="5.8" ry="5.9"/>
</svg>
