<?xml version="1.0" encoding="iso-8859-1"?>
<!-- Generator: Adobe Illustrator 13.0.0, SVG Export Plug-In . SVG Version: 6.00 Build 14948)  -->
<!DOCTYPE svg PUBLIC "-//W3C//DTD SVG 1.1//EN" "http://www.w3.org/Graphics/SVG/1.1/DTD/svg11.dtd">
<svg version="1.1" id="Livello_1" xmlns="http://www.w3.org/2000/svg" xmlns:xlink="http://www.w3.org/1999/xlink" x="0px" y="0px"
	 width="240px" height="235px" viewBox="0 0 240 235" enable-background="new 0 0 240 235" xml:space="preserve">
<rect fill="#FFFFFF" width="240" height="235"/>
<g>
	
		<linearGradient id="SVGID_1_" gradientUnits="userSpaceOnUse" x1="440.1201" y1="774.4688" x2="440.1201" y2="745.1689" gradientTransform="matrix(1 0 0 1 -400.3203 -564.4199)">
		<stop  offset="0" style="stop-color:#FFFFFF"/>
		<stop  offset="0.1205" style="stop-color:#FFFCFC"/>
		<stop  offset="0.2454" style="stop-color:#FDEEEF"/>
		<stop  offset="0.3724" style="stop-color:#FADADA"/>
		<stop  offset="0.5008" style="stop-color:#F6BCBB"/>
		<stop  offset="0.6304" style="stop-color:#F19798"/>
		<stop  offset="0.761" style="stop-color:#EB6B6A"/>
		<stop  offset="0.8898" style="stop-color:#E53737"/>
		<stop  offset="1" style="stop-color:#E1101A"/>
	</linearGradient>
	<path fill="url(#SVGID_1_)" d="M45.3,180.8c0.9,0,1.7,0.1,2.4,0.4c0.7,0.3,1.3,0.7,1.8,1.2c1.1,1.1,1.6,2.5,1.6,4.2v23.5H34.4
		c-1.8,0-3.2-0.5-4.3-1.6s-1.6-2.5-1.6-4.2V197c0-4.1,0.5-6.8,1.6-7.9c1.1-1.1,3.6-1.6,7.8-1.6h7.4v-0.9l-16.7-5.8l0,0H45.3z
		 M34.4,193.4v10.9h10.9v-10.9H34.4z"/>
	
		<linearGradient id="SVGID_2_" gradientUnits="userSpaceOnUse" x1="465.9707" y1="774.4697" x2="465.9707" y2="751.8701" gradientTransform="matrix(1 0 0 1 -400.3203 -564.4199)">
		<stop  offset="0" style="stop-color:#FFFFFF"/>
		<stop  offset="0.1205" style="stop-color:#FCFCFB"/>
		<stop  offset="0.2454" style="stop-color:#EEEDEE"/>
		<stop  offset="0.3724" style="stop-color:#DBDADA"/>
		<stop  offset="0.5008" style="stop-color:#BDBCBD"/>
		<stop  offset="0.6304" style="stop-color:#979797"/>
		<stop  offset="0.761" style="stop-color:#6A6A69"/>
		<stop  offset="0.8898" style="stop-color:#353535"/>
		<stop  offset="1" style="stop-color:#000000"/>
	</linearGradient>
	<path fill="url(#SVGID_2_)" d="M54.4,210v-11.3l-0.1-1.5v-1.5c0-2.6,0.3-4.5,0.8-5.8c0.8-1.8,2.4-2.6,4.7-2.6h2h2h7.4
		c1.8,0,3.2,0.5,4.2,1.6c1.1,1.1,1.6,2.5,1.6,4.2v16.8h-5.8v-16.8H60.3v16.8L54.4,210L54.4,210z"/>
	
		<linearGradient id="SVGID_3_" gradientUnits="userSpaceOnUse" x1="491.7207" y1="774.4697" x2="491.7207" y2="751.9697" gradientTransform="matrix(1 0 0 1 -400.3203 -564.4199)">
		<stop  offset="0" style="stop-color:#FFFFFF"/>
		<stop  offset="0.1205" style="stop-color:#FCFCFB"/>
		<stop  offset="0.2454" style="stop-color:#EEEDEE"/>
		<stop  offset="0.3724" style="stop-color:#DBDADA"/>
		<stop  offset="0.5008" style="stop-color:#BDBCBD"/>
		<stop  offset="0.6304" style="stop-color:#979797"/>
		<stop  offset="0.761" style="stop-color:#6A6A69"/>
		<stop  offset="0.8898" style="stop-color:#353535"/>
		<stop  offset="1" style="stop-color:#000000"/>
	</linearGradient>
	<path fill="url(#SVGID_3_)" d="M81.6,189.3c1-1.2,2.4-1.8,4.4-1.8h16.7v11.2v1.3l0.1,1.4c0,2.7-0.3,4.7-0.9,5.9
		c-0.9,1.8-2.6,2.7-5.1,2.7H80v-5.8h16.8v-2.7H85.9c-2.3,0-3.9-0.7-4.8-2.2c-0.7-1.2-1.1-2.9-1.1-5.3
		C80.2,192.1,80.6,190.5,81.6,189.3z M86,193.4v2.4h10.9v-2.4H86z"/>
	
		<linearGradient id="SVGID_4_" gradientUnits="userSpaceOnUse" x1="517.5703" y1="774.4688" x2="517.5703" y2="751.9526" gradientTransform="matrix(1 0 0 1 -400.3203 -564.4199)">
		<stop  offset="0" style="stop-color:#FFFFFF"/>
		<stop  offset="0.1205" style="stop-color:#FCFCFB"/>
		<stop  offset="0.2454" style="stop-color:#EEEDEE"/>
		<stop  offset="0.3724" style="stop-color:#DBDADA"/>
		<stop  offset="0.5008" style="stop-color:#BDBCBD"/>
		<stop  offset="0.6304" style="stop-color:#979797"/>
		<stop  offset="0.761" style="stop-color:#6A6A69"/>
		<stop  offset="0.8898" style="stop-color:#353535"/>
		<stop  offset="1" style="stop-color:#000000"/>
	</linearGradient>
	<path fill="url(#SVGID_4_)" d="M128.5,199v3.6c0,2.3-0.4,4.1-1.1,5.3c-0.9,1.5-2.5,2.2-4.7,2.2H106v-22.6h5.8v16.7h10.9v-5.3
		L128.5,199L128.5,199z"/>
	
		<linearGradient id="SVGID_5_" gradientUnits="userSpaceOnUse" x1="542.4199" y1="780.79" x2="542.4199" y2="751.9512" gradientTransform="matrix(1 0 0 1 -400.3203 -564.4199)">
		<stop  offset="0" style="stop-color:#FFFFFF"/>
		<stop  offset="0.1205" style="stop-color:#FCFCFB"/>
		<stop  offset="0.2454" style="stop-color:#EEEDEE"/>
		<stop  offset="0.3724" style="stop-color:#DBDADA"/>
		<stop  offset="0.5008" style="stop-color:#BDBCBD"/>
		<stop  offset="0.6304" style="stop-color:#979797"/>
		<stop  offset="0.761" style="stop-color:#6A6A69"/>
		<stop  offset="0.8898" style="stop-color:#353535"/>
		<stop  offset="1" style="stop-color:#000000"/>
	</linearGradient>
	<path fill="url(#SVGID_5_)" d="M131.5,190.6c0.8-2,2.5-3,5.2-3h16.7v28.8h-5.8v-6.3h-10.9c-1.8,0-3.2-0.5-4.3-1.6
		c-1.1-1.1-1.6-2.5-1.6-4.2V197C130.8,193.9,131.1,191.7,131.5,190.6z M147.6,204.2v-10.9h-10.9v10.9H147.6z"/>
	
		<linearGradient id="SVGID_6_" gradientUnits="userSpaceOnUse" x1="559.9199" y1="780.2617" x2="559.9199" y2="751.9619" gradientTransform="matrix(1 0 0 1 -400.3203 -564.4199)">
		<stop  offset="0" style="stop-color:#FFFFFF"/>
		<stop  offset="0.1205" style="stop-color:#FCFCFB"/>
		<stop  offset="0.2454" style="stop-color:#EEEDEE"/>
		<stop  offset="0.3724" style="stop-color:#DBDADA"/>
		<stop  offset="0.5008" style="stop-color:#BDBCBD"/>
		<stop  offset="0.6304" style="stop-color:#979797"/>
		<stop  offset="0.761" style="stop-color:#6A6A69"/>
		<stop  offset="0.8898" style="stop-color:#353535"/>
		<stop  offset="1" style="stop-color:#000000"/>
	</linearGradient>
	<path fill="url(#SVGID_6_)" d="M162.5,215.8h-5.8V210h5.8V215.8z M156.7,209.3v-21.8h5.8v21.8H156.7z"/>
	
		<linearGradient id="SVGID_7_" gradientUnits="userSpaceOnUse" x1="577.1211" y1="774.4697" x2="577.1211" y2="751.9697" gradientTransform="matrix(1 0 0 1 -400.3203 -564.4199)">
		<stop  offset="0" style="stop-color:#FFFFFF"/>
		<stop  offset="0.1205" style="stop-color:#FCFCFB"/>
		<stop  offset="0.2454" style="stop-color:#EEEDEE"/>
		<stop  offset="0.3724" style="stop-color:#DBDADA"/>
		<stop  offset="0.5008" style="stop-color:#BDBCBD"/>
		<stop  offset="0.6304" style="stop-color:#979797"/>
		<stop  offset="0.761" style="stop-color:#6A6A69"/>
		<stop  offset="0.8898" style="stop-color:#353535"/>
		<stop  offset="1" style="stop-color:#000000"/>
	</linearGradient>
	<path fill="url(#SVGID_7_)" d="M167,189.3c1-1.2,2.4-1.8,4.4-1.8h16.7v11.2v1.3l0.1,1.4c0,2.7-0.3,4.7-0.9,5.9
		c-0.9,1.8-2.6,2.7-5.1,2.7h-16.8v-5.8h16.8v-2.7h-10.9c-2.3,0-3.9-0.7-4.8-2.2c-0.7-1.2-1.1-2.9-1.1-5.3
		C165.6,192.1,166.1,190.5,167,189.3z M171.4,193.4v2.4h10.9v-2.4H171.4z"/>
	
		<linearGradient id="SVGID_8_" gradientUnits="userSpaceOnUse" x1="602.9707" y1="774.5898" x2="602.9707" y2="751.9517" gradientTransform="matrix(1 0 0 1 -400.3203 -564.4199)">
		<stop  offset="0" style="stop-color:#FFFFFF"/>
		<stop  offset="0.1205" style="stop-color:#FCFCFB"/>
		<stop  offset="0.2454" style="stop-color:#EEEDEE"/>
		<stop  offset="0.3724" style="stop-color:#DBDADA"/>
		<stop  offset="0.5008" style="stop-color:#BDBCBD"/>
		<stop  offset="0.6304" style="stop-color:#979797"/>
		<stop  offset="0.761" style="stop-color:#6A6A69"/>
		<stop  offset="0.8898" style="stop-color:#353535"/>
		<stop  offset="1" style="stop-color:#000000"/>
	</linearGradient>
	<path fill="url(#SVGID_8_)" d="M213.9,200.2l0.1,1.5c0,3.3-0.5,5.6-1.5,6.8c-0.9,1-2.2,1.5-4,1.5l-2,0.1h-1.9h-7.4
		c-1.8,0-3.2-0.5-4.3-1.6c-1.1-1.1-1.6-2.5-1.6-4.3v-16.7h5.8v16.8H208v-16.8h5.8v11.2v1.5H213.9z"/>
</g>
<g>
	<path fill="#E1101A" d="M28.8,192L28.8,192l16.7-5.8v-0.9h-7.4c-4.1,0-6.7-0.5-7.8-1.6c-1.1-1.1-1.6-3.7-1.6-7.9v-7.3
		c0-1.8,0.5-3.2,1.6-4.2c1.1-1,2.5-1.6,4.3-1.6h16.7v23.5c0,1.7-0.5,3.1-1.6,4.2c-0.5,0.5-1.1,0.9-1.8,1.2c-0.7,0.3-1.5,0.4-2.4,0.4
		H28.8z M45.5,179.4v-10.9H34.6v10.9H45.5z"/>
	<path d="M60.5,162.7v16.8h10.9v-16.8h5.8v16.8c0,1.8-0.5,3.2-1.6,4.2c-1.1,1.1-2.5,1.6-4.2,1.6H64h-2h-2c-2.3,0-3.8-0.9-4.7-2.6
		c-0.6-1.2-0.8-3.1-0.8-5.8v-1.5l0.1-1.5v-11.3h5.9V162.7z"/>
	<path d="M80.4,178.6c0-2.3,0.4-4.1,1.1-5.3c0.9-1.5,2.5-2.2,4.8-2.2h10.9v-2.6H80.4v-5.8h16.8c2.5,0,4.2,0.9,5.1,2.7
		c0.6,1.3,0.9,3.2,0.9,5.9l-0.1,1.4v1.3v11.2H86.4c-2,0-3.4-0.6-4.4-1.8C80.9,182.3,80.4,180.7,80.4,178.6z M97.1,179.4v-2.3H86.2
		v2.3H97.1z"/>
	<path d="M122.9,173.8v-5.3H112v16.7h-5.8v-22.5h16.7c2.2,0,3.8,0.7,4.7,2.2c0.8,1.2,1.1,3,1.1,5.3v3.6H122.9z"/>
	<path d="M131,175.8v-7.3c0-1.8,0.5-3.2,1.6-4.2c1.1-1.1,2.5-1.6,4.3-1.6h10.9v-6.3h5.8v28.8h-16.7c-2.7,0-4.4-1-5.2-3
		C131.3,181,131,178.9,131,175.8z M136.9,168.5v10.9h10.9v-10.9H136.9z"/>
	<path d="M162.7,162.6h-5.8v-5.8h5.8V162.6z M162.7,163.4v21.8h-5.8v-21.8H162.7z"/>
	<path d="M165.8,178.6c0-2.3,0.4-4.1,1.1-5.3c0.9-1.5,2.5-2.2,4.8-2.2h10.9v-2.6h-16.8v-5.8h16.7c2.5,0,4.2,0.9,5.1,2.7
		c0.6,1.3,0.9,3.2,0.9,5.9l-0.1,1.4v1.3v11.2h-16.7c-2,0-3.4-0.6-4.4-1.8C166.3,182.3,165.8,180.7,165.8,178.6z M182.6,179.4v-2.3
		h-10.9v2.3H182.6z"/>
	<path d="M214.1,174v11.2h-5.8v-16.8h-10.9v16.8h-5.8v-16.8c0-1.8,0.5-3.2,1.6-4.3c1.1-1.1,2.5-1.6,4.3-1.6h7.4h1.9l2,0.1
		c1.8,0,3.1,0.5,4,1.5c1,1.2,1.5,3.5,1.5,6.8l-0.1,1.5v1.6H214.1z"/>
</g>
</svg>
