<?xml version="1.0" encoding="UTF-8"?>
<svg xmlns="http://www.w3.org/2000/svg" xmlns:xlink="http://www.w3.org/1999/xlink" contentScriptType="text/ecmascript" zoomAndPan="magnify" baseProfile="tiny" contentStyleType="text/css" version="1.1" width="240px" preserveAspectRatio="xMidYMid meet" viewBox="0 0 240 320" height="320px" x="0px" y="0px">
    <rect width="240" fill="#ffffff" height="320"/>
    <g>
        <linearGradient x1="217.4609" gradientTransform="matrix(1 0 0 -1 -177.6602 18.54)" y1="-234.0093" x2="217.4609" gradientUnits="userSpaceOnUse" y2="-204.7095" xlink:type="simple" xlink:actuate="onLoad" id="SVGID_1_" xlink:show="other">
            <stop stop-color="#ffffff" offset="0"/>
            <stop stop-color="#fffcfc" offset="0.1205"/>
            <stop stop-color="#fdeeef" offset="0.2454"/>
            <stop stop-color="#fadada" offset="0.3724"/>
            <stop stop-color="#f6bcbb" offset="0.5008"/>
            <stop stop-color="#f19798" offset="0.6304"/>
            <stop stop-color="#eb6b6a" offset="0.761"/>
            <stop stop-color="#e53737" offset="0.8898"/>
            <stop stop-color="#e1101a" offset="1"/>
        </linearGradient>
        <path fill="url(#SVGID_1_)" d="M 45.3 223.3 C 46.2 223.3 47.0 223.40001 47.7 223.7 C 48.4 224.0 49.0 224.4 49.5 224.9 C 50.6 226.0 51.1 227.4 51.1 229.09999 L 51.1 252.59999 L 34.4 252.59999 C 32.600002 252.59999 31.2 252.09999 30.100002 250.99998 C 29.000004 249.89998 28.500002 248.49998 28.500002 246.79999 L 28.500002 239.49998 C 28.500002 235.39998 29.000002 232.69998 30.100002 231.59999 C 31.200003 230.49998 33.7 229.99998 37.9 229.99998 L 45.300003 229.99998 L 45.300003 229.09999 L 28.600002 223.29999 L 28.600002 223.29999 L 45.3 223.29999 z M 34.4 235.9 L 34.4 246.79999 L 45.300003 246.79999 L 45.300003 235.9 L 34.4 235.9 z "/>
        <linearGradient x1="243.3105" gradientTransform="matrix(1 0 0 -1 -177.6602 18.54)" y1="-234.0098" x2="243.3105" gradientUnits="userSpaceOnUse" y2="-211.4102" xlink:type="simple" xlink:actuate="onLoad" id="SVGID_2_" xlink:show="other">
            <stop stop-color="#ffffff" offset="0"/>
            <stop stop-color="#fcfcfb" offset="0.1205"/>
            <stop stop-color="#eeedee" offset="0.2454"/>
            <stop stop-color="#dbdada" offset="0.3724"/>
            <stop stop-color="#bdbcbd" offset="0.5008"/>
            <stop stop-color="#979797" offset="0.6304"/>
            <stop stop-color="#6a6a69" offset="0.761"/>
            <stop stop-color="#353535" offset="0.8898"/>
            <stop stop-color="#000000" offset="1"/>
        </linearGradient>
        <path fill="url(#SVGID_2_)" d="M 54.4 252.5 L 54.4 241.2 L 54.300003 239.7 L 54.300003 238.2 C 54.300003 235.59999 54.600002 233.7 55.100002 232.4 C 55.9 230.59999 57.500004 229.79999 59.800003 229.79999 L 61.800003 229.79999 L 63.800003 229.79999 L 71.200005 229.79999 C 73.00001 229.79999 74.4 230.29999 75.4 231.4 C 76.5 232.5 77.0 233.9 77.0 235.59999 L 77.0 252.4 L 71.2 252.4 L 71.2 235.59999 L 60.3 235.59999 L 60.3 252.4 L 54.4 252.5 L 54.4 252.5 z "/>
        <linearGradient x1="269.0605" gradientTransform="matrix(1 0 0 -1 -177.6602 18.54)" y1="-234.0098" x2="269.0605" gradientUnits="userSpaceOnUse" y2="-211.5098" xlink:type="simple" xlink:actuate="onLoad" id="SVGID_3_" xlink:show="other">
            <stop stop-color="#ffffff" offset="0"/>
            <stop stop-color="#fcfcfb" offset="0.1205"/>
            <stop stop-color="#eeedee" offset="0.2454"/>
            <stop stop-color="#dbdada" offset="0.3724"/>
            <stop stop-color="#bdbcbd" offset="0.5008"/>
            <stop stop-color="#979797" offset="0.6304"/>
            <stop stop-color="#6a6a69" offset="0.761"/>
            <stop stop-color="#353535" offset="0.8898"/>
            <stop stop-color="#000000" offset="1"/>
        </linearGradient>
        <path fill="url(#SVGID_3_)" d="M 81.6 231.8 C 82.6 230.6 84.0 230.0 86.0 230.0 L 102.7 230.0 L 102.7 241.2 L 102.7 242.5 L 102.799995 243.9 C 102.799995 246.59999 102.49999 248.59999 101.899994 249.79999 C 100.99999 251.59999 99.299995 252.49998 96.799995 252.49998 L 80.0 252.49998 L 80.0 246.69998 L 96.8 246.69998 L 96.8 244.0 L 85.9 244.0 C 83.6 244.0 82.0 243.3 81.1 241.8 C 80.4 240.6 80.0 238.90001 80.0 236.5 C 80.2 234.6 80.6 233.0 81.6 231.8 z M 86.0 235.9 L 86.0 238.29999 L 96.9 238.29999 L 96.9 235.9 L 86.0 235.9 z "/>
        <linearGradient x1="294.9102" gradientTransform="matrix(1 0 0 -1 -177.6602 18.54)" y1="-234.0093" x2="294.9102" gradientUnits="userSpaceOnUse" y2="-211.4922" xlink:type="simple" xlink:actuate="onLoad" id="SVGID_4_" xlink:show="other">
            <stop stop-color="#ffffff" offset="0"/>
            <stop stop-color="#fcfcfb" offset="0.1205"/>
            <stop stop-color="#eeedee" offset="0.2454"/>
            <stop stop-color="#dbdada" offset="0.3724"/>
            <stop stop-color="#bdbcbd" offset="0.5008"/>
            <stop stop-color="#979797" offset="0.6304"/>
            <stop stop-color="#6a6a69" offset="0.761"/>
            <stop stop-color="#353535" offset="0.8898"/>
            <stop stop-color="#000000" offset="1"/>
        </linearGradient>
        <path fill="url(#SVGID_4_)" d="M 128.5 241.5 L 128.5 245.1 C 128.5 247.40001 128.1 249.20001 127.4 250.40001 C 126.5 251.90001 124.9 252.6 122.700005 252.6 L 106.0 252.6 L 106.0 230.0 L 111.8 230.0 L 111.8 246.7 L 122.700005 246.7 L 122.700005 241.4 L 128.5 241.5 L 128.5 241.5 z "/>
        <linearGradient x1="319.7598" gradientTransform="matrix(1 0 0 -1 -177.6602 18.54)" y1="-240.3296" x2="319.7598" gradientUnits="userSpaceOnUse" y2="-211.4917" xlink:type="simple" xlink:actuate="onLoad" id="SVGID_5_" xlink:show="other">
            <stop stop-color="#ffffff" offset="0"/>
            <stop stop-color="#fcfcfb" offset="0.1205"/>
            <stop stop-color="#eeedee" offset="0.2454"/>
            <stop stop-color="#dbdada" offset="0.3724"/>
            <stop stop-color="#bdbcbd" offset="0.5008"/>
            <stop stop-color="#979797" offset="0.6304"/>
            <stop stop-color="#6a6a69" offset="0.761"/>
            <stop stop-color="#353535" offset="0.8898"/>
            <stop stop-color="#000000" offset="1"/>
        </linearGradient>
        <path fill="url(#SVGID_5_)" d="M 131.5 233.1 C 132.3 231.1 134.0 230.1 136.7 230.1 L 153.4 230.1 L 153.4 258.9 L 147.59999 258.9 L 147.59999 252.59999 L 136.7 252.59999 C 134.9 252.59999 133.5 252.09999 132.4 250.99998 C 131.29999 249.89998 130.79999 248.49998 130.79999 246.79999 L 130.79999 239.49998 C 130.8 236.4 131.1 234.2 131.5 233.1 z M 147.6 246.7 L 147.6 235.8 L 136.70001 235.8 L 136.70001 246.7 L 147.6 246.7 z "/>
        <linearGradient x1="337.2598" gradientTransform="matrix(1 0 0 -1 -177.6602 18.54)" y1="-239.8018" x2="337.2598" gradientUnits="userSpaceOnUse" y2="-211.502" xlink:type="simple" xlink:actuate="onLoad" id="SVGID_6_" xlink:show="other">
            <stop stop-color="#ffffff" offset="0"/>
            <stop stop-color="#fcfcfb" offset="0.1205"/>
            <stop stop-color="#eeedee" offset="0.2454"/>
            <stop stop-color="#dbdada" offset="0.3724"/>
            <stop stop-color="#bdbcbd" offset="0.5008"/>
            <stop stop-color="#979797" offset="0.6304"/>
            <stop stop-color="#6a6a69" offset="0.761"/>
            <stop stop-color="#353535" offset="0.8898"/>
            <stop stop-color="#000000" offset="1"/>
        </linearGradient>
        <path fill="url(#SVGID_6_)" d="M 162.5 258.3 L 156.7 258.3 L 156.7 252.49998 L 162.5 252.49998 L 162.5 258.3 z M 156.7 251.8 L 156.7 230.0 L 162.5 230.0 L 162.5 251.8 L 156.7 251.8 z "/>
        <linearGradient x1="354.4609" gradientTransform="matrix(1 0 0 -1 -177.6602 18.54)" y1="-234.0098" x2="354.4609" gradientUnits="userSpaceOnUse" y2="-211.5098" xlink:type="simple" xlink:actuate="onLoad" id="SVGID_7_" xlink:show="other">
            <stop stop-color="#ffffff" offset="0"/>
            <stop stop-color="#fcfcfb" offset="0.1205"/>
            <stop stop-color="#eeedee" offset="0.2454"/>
            <stop stop-color="#dbdada" offset="0.3724"/>
            <stop stop-color="#bdbcbd" offset="0.5008"/>
            <stop stop-color="#979797" offset="0.6304"/>
            <stop stop-color="#6a6a69" offset="0.761"/>
            <stop stop-color="#353535" offset="0.8898"/>
            <stop stop-color="#000000" offset="1"/>
        </linearGradient>
        <path fill="url(#SVGID_7_)" d="M 167.0 231.8 C 168.0 230.6 169.4 230.0 171.4 230.0 L 188.09999 230.0 L 188.09999 241.2 L 188.09999 242.5 L 188.2 243.9 C 188.2 246.59999 187.9 248.59999 187.3 249.79999 C 186.40001 251.59999 184.7 252.49998 182.2 252.49998 L 165.4 252.49998 L 165.4 246.69998 L 182.2 246.69998 L 182.2 244.0 L 171.3 244.0 C 169.0 244.0 167.40001 243.3 166.5 241.8 C 165.8 240.6 165.4 238.90001 165.4 236.5 C 165.6 234.6 166.1 233.0 167.0 231.8 z M 171.4 235.9 L 171.4 238.29999 L 182.29999 238.29999 L 182.29999 235.9 L 171.4 235.9 z "/>
        <linearGradient x1="380.3105" gradientTransform="matrix(1 0 0 -1 -177.6602 18.54)" y1="-234.1313" x2="380.3105" gradientUnits="userSpaceOnUse" y2="-211.4922" xlink:type="simple" xlink:actuate="onLoad" id="SVGID_8_" xlink:show="other">
            <stop stop-color="#ffffff" offset="0"/>
            <stop stop-color="#fcfcfb" offset="0.1205"/>
            <stop stop-color="#eeedee" offset="0.2454"/>
            <stop stop-color="#dbdada" offset="0.3724"/>
            <stop stop-color="#bdbcbd" offset="0.5008"/>
            <stop stop-color="#979797" offset="0.6304"/>
            <stop stop-color="#6a6a69" offset="0.761"/>
            <stop stop-color="#353535" offset="0.8898"/>
            <stop stop-color="#000000" offset="1"/>
        </linearGradient>
        <path fill="url(#SVGID_8_)" d="M 213.9 242.7 L 214.0 244.2 C 214.0 247.5 213.5 249.8 212.5 251.0 C 211.6 252.0 210.3 252.5 208.5 252.5 L 206.5 252.6 L 204.6 252.6 L 197.20001 252.6 C 195.40001 252.6 194.00002 252.1 192.90001 251.0 C 191.8 249.9 191.3 248.5 191.3 246.7 L 191.3 230.0 L 197.1 230.0 L 197.1 246.8 L 208.0 246.8 L 208.0 230.0 L 213.8 230.0 L 213.8 241.2 L 213.8 242.7 L 213.9 242.7 z "/>
    </g>
    <radialGradient gradientTransform="matrix(2.0042 0 0 1.9014 -608.4649 -754.9501)" gradientUnits="userSpaceOnUse" xlink:type="simple" r="21.6628" xlink:actuate="onLoad" cx="362.4717" id="SVGID_9_" cy="449.0107" xlink:show="other">
        <stop stop-color="#fad2c2" offset="0"/>
        <stop stop-color="#ab301e" offset="1"/>
    </radialGradient>
    <path fill="url(#SVGID_9_)" d="M 118.0 57.3 C 141.7 57.3 160.9 75.9 160.9 98.8 C 160.9 121.700005 141.7 140.3 117.99999 140.3 C 94.29999 140.3 75.09999 121.700005 75.09999 98.8 C 75.1 75.9 94.3 57.3 118.0 57.3 z "/>
    <linearGradient x1="742.7129" gradientTransform="matrix(0.8908 0.4847 -0.9892 1.818 -308.7652 -781.2434)" y1="263.834" x2="826.0137" gradientUnits="userSpaceOnUse" y2="263.834" xlink:type="simple" xlink:actuate="onLoad" id="SVGID_10_" xlink:show="other">
        <stop stop-color="#68a2b4" offset="0"/>
        <stop stop-color="#0a71b4" offset="1"/>
    </linearGradient>
    <path fill="url(#SVGID_10_)" d="M 82.5 75.6 C 91.5 59.199997 119.3 50.6 139.8 62.199997 C 159.5 73.299995 166.1 99.5 157.5 114.5 "/>
    <g>
        <path fill="#ffffff" d="M 158.5 111.3 C 158.5 91.0 98.8 48.100002 82.5 76.5 " stroke="#ffffff"/>
        <radialGradient gradientTransform="matrix(1.9769 0 0 1.9088 -603.0883 -755.6824)" gradientUnits="userSpaceOnUse" xlink:type="simple" r="15.4443" xlink:actuate="onLoad" cx="365.5166" id="SVGID_11_" cy="445.5605" xlink:show="other">
            <stop stop-color="#fad2c2" offset="0"/>
            <stop stop-color="#ab301e" offset="1"/>
        </radialGradient>
        <path fill="url(#SVGID_11_)" d="M 157.5 114.6 C 157.5 99.4 110.1 65.0 81.5 77.8 " stroke="#ffffff"/>
        <polygon fill="#ffffff" points="155.5,108.9 159,111.1 158.2,113.7  "/>
        <polygon fill="#ffffff" points="157,116.4 157,111.9 158.3,113.2  "/>
        <polygon fill="#ffffff" points="83.9,77.2 80.2,79.2 82.6,75.3  "/>
    </g>
    <g stroke-opacity="0.5" fill-opacity="0.5">
        <g>
            <g>
                <g>
                    <path fill="none" d="M 91.9 105.0 C 107.1 94.3 127.9 97.0 138.7 111.0 " stroke-width="0.25" stroke-opacity="0.54" stroke="#ffffff"/>
                    <g>
                        <g>
                            <path fill="none" d="M 129.3 130.5 C 129.3 105.1 108.4 84.6 82.700005 84.6 " stroke-width="0.25" stroke-opacity="0.54" stroke="#ffffff"/>
                            <path fill="none" d="M 88.5 120.7 C 113.3 112.5 126.2 95.6 117.8 72.1 " stroke-width="0.25" stroke-opacity="0.54" stroke="#ffffff"/>
                            <path fill="none" d="M 101.3 130.3 C 120.0 112.6 123.9 86.8 106.0 69.0 " stroke-width="0.25" stroke-opacity="0.54" stroke="#ffffff"/>
                            <path fill="none" d="M 80.1 95.3 C 103.6 106.700005 127.2 107.0 138.7 84.9 " stroke-width="0.25" stroke-opacity="0.54" stroke="#ffffff"/>
                        </g>
                        <path fill="none" d="M 108.8 69.0 C 101.700005 93.4 117.3 110.0 142.0 116.8 " stroke-width="0.25" stroke-opacity="0.54" stroke="#ffffff"/>
                        <path fill="none" d="M 125.1 74.8 C 125.1 92.9 110.5 107.600006 92.399994 107.600006 " stroke-width="0.25" stroke-opacity="0.54" stroke="#ffffff"/>
                        <path fill="none" d="M 95.4 82.0 C 113.3 87.5 123.4 105.4 118.0 122.0 " stroke-width="0.25" stroke-opacity="0.54" stroke="#ffffff"/>
                        <path fill="none" d="M 102.4 102.1 C 119.5 94.6 139.5 101.5 146.8 117.4 " stroke-width="0.25" stroke-opacity="0.54" stroke="#ffffff"/>
                        <path fill="none" d="M 88.3 88.7 C 107.0 87.5 123.200005 100.5 124.4 118.0 " stroke-width="0.25" stroke-opacity="0.54" stroke="#ffffff"/>
                        <path fill="none" d="M 115.3 118.6 C 110.0 101.2 111.4 84.5 128.7 79.5 " stroke-width="0.25" stroke-opacity="0.54" stroke="#ffffff"/>
                    </g>
                    <path fill="none" d="M 92.6 101.6 C 96.7 94.6 105.4 91.9 111.899994 95.4 " stroke-width="0.25" stroke-opacity="0.54" stroke="#ffffff"/>
                    <path fill="none" d="M 132.5 116.8 C 126.0 111.700005 124.6 103.0 129.4 97.4 " stroke-width="0.25" stroke-opacity="0.54" stroke="#ffffff"/>
                </g>
                <g>
                    <path fill="none" d="M 94.6 90.2 C 113.399994 91.0 128.0 105.7 127.2 123.1 " stroke-width="0.25" stroke-opacity="0.54" stroke="#ffffff"/>
                    <g>
                        <g>
                            <path fill="none" d="M 107.2 132.7 C 123.6 112.899994 120.7 84.299995 100.6 68.7 " stroke-width="0.25" stroke-opacity="0.54" stroke="#ffffff"/>
                            <path fill="none" d="M 81.7 100.4 C 106.399994 109.0 125.2 104.8 133.9 81.5 " stroke-width="0.25" stroke-opacity="0.54" stroke="#ffffff"/>
                            <path fill="none" d="M 85.4 115.6 C 111.5 113.1 130.5 101.7 127.9 77.0 " stroke-width="0.25" stroke-opacity="0.54" stroke="#ffffff"/>
                            <path fill="none" d="M 91.6 75.4 C 102.5 98.5 120.8 113.0 144.1 102.600006 " stroke-width="0.25" stroke-opacity="0.54" stroke="#ffffff"/>
                        </g>
                        <path fill="none" d="M 123.5 75.1 C 113.9 81.799995 101.0 95.899994 126.0 129.7 " stroke-width="0.25" stroke-opacity="0.54" stroke="#ffffff"/>
                        <path fill="none" d="M 140.0 86.7 C 128.3 100.899994 107.3 103.5 93.2 92.6 " stroke-width="0.25" stroke-opacity="0.54" stroke="#ffffff"/>
                        <path fill="none" d="M 112.1 74.3 C 122.5 89.4 118.9 109.4 103.799995 119.200005 " stroke-width="0.25" stroke-opacity="0.54" stroke="#ffffff"/>
                        <path fill="none" d="M 104.6 94.2 C 122.8 98.799995 134.0 116.1 129.4 133.0 " stroke-width="0.25" stroke-opacity="0.54" stroke="#ffffff"/>
                        <path fill="none" d="M 102.2 75.2 C 117.6 85.5 121.7 105.6 111.399994 119.899994 " stroke-width="0.25" stroke-opacity="0.54" stroke="#ffffff"/>
                        <path fill="none" d="M 103.9 115.0 C 111.1 98.2 130.3 90.0 147.0 96.6 " stroke-width="0.25" stroke-opacity="0.54" stroke="#ffffff"/>
                    </g>
                    <path fill="none" d="M 97.2 88.0 C 104.899994 85.0 113.5 88.1 116.2 94.9 " stroke-width="0.25" stroke-opacity="0.54" stroke="#ffffff"/>
                    <path fill="none" d="M 118.5 124.0 C 116.7 116.1 121.2 108.5 128.6 106.9 " stroke-width="0.25" stroke-opacity="0.54" stroke="#ffffff"/>
                </g>
                <g>
                    <path fill="none" d="M 99.1 83.4 C 116.6 90.200005 125.3 108.7 118.6 124.9 " stroke-width="0.25" stroke-opacity="0.54" stroke="#ffffff"/>
                    <g>
                        <g>
                            <path fill="none" d="M 96.6 127.7 C 118.899994 114.2 123.7 90.1 110.1 69.1 " stroke-width="0.25" stroke-opacity="0.54" stroke="#ffffff"/>
                            <path fill="none" d="M 83.5 89.0 C 104.0 105.0 123.4 106.7 139.5 87.4 " stroke-width="0.25" stroke-opacity="0.54" stroke="#ffffff"/>
                            <path fill="none" d="M 81.8 104.6 C 107.4 110.6 123.8 106.4 129.8 82.2 " stroke-width="0.25" stroke-opacity="0.54" stroke="#ffffff"/>
                            <path fill="none" d="M 101.3 68.5 C 103.700005 93.7 116.0 113.3 141.6 110.9 " stroke-width="0.25" stroke-opacity="0.54" stroke="#ffffff"/>
                        </g>
                        <path fill="none" d="M 132.6 80.8 C 107.40001 88.0 108.00001 106.9 115.3 130.70001 " stroke-width="0.25" stroke-opacity="0.54" stroke="#ffffff"/>
                        <path fill="none" d="M 143.3 94.5 C 127.4 104.1 106.700005 100.0 97.100006 85.2 " stroke-width="0.25" stroke-opacity="0.54" stroke="#ffffff"/>
                        <path fill="none" d="M 121.1 74.0 C 125.9 91.6 115.5 109.3 98.0 113.8 " stroke-width="0.25" stroke-opacity="0.54" stroke="#ffffff"/>
                        <path fill="none" d="M 107.2 90.5 C 122.899994 100.5 127.5 120.5 117.399994 134.9 " stroke-width="0.25" stroke-opacity="0.54" stroke="#ffffff"/>
                        <path fill="none" d="M 111.5 71.8 C 122.5 86.5 119.7 106.700005 105.0 117.0 " stroke-width="0.25" stroke-opacity="0.54" stroke="#ffffff"/>
                        <path fill="none" d="M 99.4 109.8 C 111.9 96.200005 132.9 94.600006 146.5 106.200005 " stroke-width="0.25" stroke-opacity="0.54" stroke="#ffffff"/>
                    </g>
                    <path fill="none" d="M 102.3 82.2 C 110.600006 81.799995 117.600006 87.5 118.0 94.799995 " stroke-width="0.25" stroke-opacity="0.54" stroke="#ffffff"/>
                    <path fill="none" d="M 110.2 123.0 C 111.2 115.0 118.0 109.2 125.6 110.0 " stroke-width="0.25" stroke-opacity="0.54" stroke="#ffffff"/>
                </g>
            </g>
            <path fill="none" d="M 156.5 114.9 C 125.1 98.5 106.1 88.5 88.0 110.700005 " stroke-width="0.25" stroke-opacity="0.54" stroke="#ffffff"/>
            <path fill="none" d="M 130.9 125.2 C 118.399994 92.899994 103.799995 88.299995 82.09999 78.5 " stroke-width="0.25" stroke-opacity="0.54" stroke="#ffffff"/>
        </g>
        <g>
            <g>
                <g>
                    <path fill="none" d="M 140.9 106.7 C 125.7 96.0 104.899994 98.7 94.09999 112.7 " stroke-width="0.25" stroke-opacity="0.54" stroke="#ffffff"/>
                    <g>
                        <g>
                            <path fill="none" d="M 103.6 132.3 C 103.6 106.9 114.299995 86.700005 140.1 86.700005 " stroke-width="0.25" stroke-opacity="0.54" stroke="#ffffff"/>
                            <path fill="none" d="M 144.4 122.5 C 119.59999 114.3 106.7 97.4 115.09999 73.9 " stroke-width="0.25" stroke-opacity="0.54" stroke="#ffffff"/>
                            <path fill="none" d="M 131.6 132.1 C 112.8 114.40001 103.90001 92.100006 121.8 74.3 " stroke-width="0.25" stroke-opacity="0.54" stroke="#ffffff"/>
                            <path fill="none" d="M 152.9 97.0 C 129.4 108.4 105.799995 108.7 94.299995 86.6 " stroke-width="0.25" stroke-opacity="0.54" stroke="#ffffff"/>
                        </g>
                        <path fill="none" d="M 124.5 75.8 C 131.6 100.200005 115.6 111.8 90.9 118.600006 " stroke-width="0.25" stroke-opacity="0.54" stroke="#ffffff"/>
                        <path fill="none" d="M 107.7 76.5 C 107.7 94.6 122.299995 109.3 140.4 109.3 " stroke-width="0.25" stroke-opacity="0.54" stroke="#ffffff"/>
                        <path fill="none" d="M 137.6 83.8 C 119.700005 89.3 109.600006 107.100006 114.90001 123.8 " stroke-width="0.25" stroke-opacity="0.54" stroke="#ffffff"/>
                        <path fill="none" d="M 130.5 103.9 C 113.4 96.4 93.4 103.3 86.1 119.200005 " stroke-width="0.25" stroke-opacity="0.54" stroke="#ffffff"/>
                        <path fill="none" d="M 144.7 90.4 C 126.0 89.200005 109.799995 102.3 108.6 119.8 " stroke-width="0.25" stroke-opacity="0.54" stroke="#ffffff"/>
                        <path fill="none" d="M 117.6 120.5 C 122.9 103.1 121.5 86.4 104.2 81.4 " stroke-width="0.25" stroke-opacity="0.54" stroke="#ffffff"/>
                    </g>
                    <path fill="none" d="M 140.3 103.5 C 136.3 96.5 127.5 93.8 121.0 97.3 " stroke-width="0.25" stroke-opacity="0.54" stroke="#ffffff"/>
                    <path fill="none" d="M 100.3 118.6 C 106.8 113.5 108.200005 104.9 103.4 99.2 " stroke-width="0.25" stroke-opacity="0.54" stroke="#ffffff"/>
                </g>
                <g>
                    <path fill="none" d="M 138.3 91.9 C 119.5 92.700005 104.9 107.4 105.700005 124.8 " stroke-width="0.25" stroke-opacity="0.54" stroke="#ffffff"/>
                    <g>
                        <g>
                            <path fill="none" d="M 125.7 134.4 C 109.299995 114.59999 106.6 93.799995 126.7 78.299995 " stroke-width="0.25" stroke-opacity="0.54" stroke="#ffffff"/>
                            <path fill="none" d="M 151.2 102.1 C 126.5 110.7 107.7 106.5 99.0 83.2 " stroke-width="0.25" stroke-opacity="0.54" stroke="#ffffff"/>
                            <path fill="none" d="M 147.4 117.3 C 121.299995 114.8 102.299995 103.4 104.899994 78.700005 " stroke-width="0.25" stroke-opacity="0.54" stroke="#ffffff"/>
                            <path fill="none" d="M 130.5 79.5 C 119.6 102.6 112.2 114.8 88.8 104.5 " stroke-width="0.25" stroke-opacity="0.54" stroke="#ffffff"/>
                        </g>
                        <path fill="none" d="M 109.4 76.9 C 119.0 83.6 131.9 97.7 106.9 131.5 " stroke-width="0.25" stroke-opacity="0.54" stroke="#ffffff"/>
                        <path fill="none" d="M 92.8 88.5 C 104.5 102.7 125.5 105.3 139.6 94.4 " stroke-width="0.25" stroke-opacity="0.54" stroke="#ffffff"/>
                        <path fill="none" d="M 120.8 76.1 C 110.4 91.2 114.0 111.2 129.1 121.0 " stroke-width="0.25" stroke-opacity="0.54" stroke="#ffffff"/>
                        <path fill="none" d="M 128.3 96.1 C 110.100006 100.7 98.9 118.0 103.5 134.9 " stroke-width="0.25" stroke-opacity="0.54" stroke="#ffffff"/>
                        <path fill="none" d="M 126.1 78.1 C 110.7 88.4 111.0 107.3 121.299995 121.6 " stroke-width="0.25" stroke-opacity="0.54" stroke="#ffffff"/>
                        <path fill="none" d="M 129.0 116.7 C 121.9 99.899994 102.6 91.7 85.9 98.399994 " stroke-width="0.25" stroke-opacity="0.54" stroke="#ffffff"/>
                    </g>
                    <path fill="none" d="M 135.7 89.8 C 128.0 86.8 119.399994 89.9 116.7 96.700005 " stroke-width="0.25" stroke-opacity="0.54" stroke="#ffffff"/>
                    <path fill="none" d="M 114.3 125.7 C 116.100006 117.799995 111.600006 110.2 104.200005 108.6 " stroke-width="0.25" stroke-opacity="0.54" stroke="#ffffff"/>
                </g>
                <g>
                    <path fill="none" d="M 133.8 85.2 C 116.3 91.899994 107.5 110.399994 114.200005 126.6 " stroke-width="0.25" stroke-opacity="0.54" stroke="#ffffff"/>
                    <g>
                        <g>
                            <path fill="none" d="M 136.4 129.4 C 114.09999 115.899994 106.49999 95.49999 120.2 74.49999 " stroke-width="0.25" stroke-opacity="0.54" stroke="#ffffff"/>
                            <path fill="none" d="M 144.7 90.4 C 124.2 106.4 109.6 108.4 93.5 89.200005 " stroke-width="0.25" stroke-opacity="0.54" stroke="#ffffff"/>
                            <path fill="none" d="M 151.0 106.4 C 125.5 112.4 109.1 108.200005 103.0 84.0 " stroke-width="0.25" stroke-opacity="0.54" stroke="#ffffff"/>
                            <path fill="none" d="M 131.2 80.5 C 128.8 105.7 116.899994 115.1 91.299995 112.8 " stroke-width="0.25" stroke-opacity="0.54" stroke="#ffffff"/>
                        </g>
                        <path fill="none" d="M 100.2 82.5 C 125.399994 89.7 124.799995 108.6 117.5 132.4 " stroke-width="0.25" stroke-opacity="0.54" stroke="#ffffff"/>
                        <path fill="none" d="M 89.7 96.4 C 105.6 106.0 126.299995 101.9 135.9 87.1 " stroke-width="0.25" stroke-opacity="0.54" stroke="#ffffff"/>
                        <path fill="none" d="M 111.9 75.8 C 107.1 93.4 117.5 111.100006 135.0 115.600006 " stroke-width="0.25" stroke-opacity="0.54" stroke="#ffffff"/>
                        <path fill="none" d="M 125.7 92.3 C 110.0 102.3 105.399994 122.3 115.5 136.70001 " stroke-width="0.25" stroke-opacity="0.54" stroke="#ffffff"/>
                        <path fill="none" d="M 121.5 73.5 C 110.5 88.3 113.3 108.4 128.0 118.7 " stroke-width="0.25" stroke-opacity="0.54" stroke="#ffffff"/>
                        <path fill="none" d="M 133.4 111.6 C 120.9 98.0 99.9 96.4 86.3 108.0 " stroke-width="0.25" stroke-opacity="0.54" stroke="#ffffff"/>
                    </g>
                    <path fill="none" d="M 130.6 84.0 C 122.3 83.6 115.3 89.3 114.90001 96.6 " stroke-width="0.25" stroke-opacity="0.54" stroke="#ffffff"/>
                    <path fill="none" d="M 122.7 124.7 C 121.7 116.7 114.899994 110.899994 107.299995 111.7 " stroke-width="0.25" stroke-opacity="0.54" stroke="#ffffff"/>
                </g>
            </g>
            <path fill="none" d="M 81.0 113.8 C 112.3 97.4 126.8 90.3 145.0 112.5 " stroke-width="0.25" stroke-opacity="0.54" stroke="#ffffff"/>
            <path fill="none" d="M 101.9 126.9 C 114.4 94.600006 108.6 90.7 130.3 80.8 " stroke-width="0.25" stroke-opacity="0.54" stroke="#ffffff"/>
        </g>
    </g>
    <ellipse rx="17.8" ry="16.6" fill="#1c171b" cx="117.3" cy="99.3"/>
    <ellipse rx="7" ry="7.1" fill="#ffffff" cx="101.8" cy="91.4"/>
    <g>
        <path fill="#e1101a" d="M 28.8 234.5 L 28.8 234.5 L 45.5 228.7 L 45.5 227.8 L 38.1 227.8 C 34.0 227.8 31.399998 227.3 30.3 226.2 C 29.199999 225.09999 28.699999 222.5 28.699999 218.3 L 28.699999 211.0 C 28.699999 209.2 29.199999 207.8 30.3 206.8 C 31.4 205.8 32.8 205.2 34.6 205.2 L 51.3 205.2 L 51.3 228.7 C 51.3 230.4 50.8 231.8 49.7 232.9 C 49.2 233.4 48.600002 233.79999 47.9 234.09999 C 47.2 234.4 46.4 234.49998 45.5 234.49998 L 28.8 234.49998 z M 45.5 221.9 L 45.5 211.0 L 34.6 211.0 L 34.6 221.9 L 45.5 221.9 z "/>
        <path d="M 60.5 205.2 L 60.5 222.0 L 71.4 222.0 L 71.4 205.2 L 77.200005 205.2 L 77.200005 222.0 C 77.200005 223.8 76.700005 225.2 75.600006 226.2 C 74.50001 227.3 73.100006 227.8 71.40001 227.8 L 64.0 227.8 L 62.0 227.8 L 60.0 227.8 C 57.7 227.8 56.2 226.90001 55.3 225.2 C 54.7 224.0 54.5 222.09999 54.5 219.4 L 54.5 217.9 L 54.6 216.4 L 54.6 205.09999 L 60.5 205.09999 L 60.5 205.2 z "/>
        <path d="M 80.4 221.1 C 80.4 218.8 80.8 217.0 81.5 215.8 C 82.4 214.3 84.0 213.6 86.3 213.6 L 97.200005 213.6 L 97.200005 211.0 L 80.4 211.0 L 80.4 205.2 L 97.2 205.2 C 99.7 205.2 101.399994 206.09999 102.299995 207.9 C 102.899994 209.2 103.2 211.09999 103.2 213.79999 L 103.1 215.19998 L 103.1 216.49998 L 103.1 227.69998 L 86.4 227.69998 C 84.4 227.69998 83.0 227.09998 82.0 225.89998 C 80.9 224.8 80.4 223.2 80.4 221.1 z M 97.1 221.9 L 97.1 219.59999 L 86.2 219.59999 L 86.2 221.9 L 97.1 221.9 z "/>
        <path d="M 122.9 216.3 L 122.9 211.0 L 112.0 211.0 L 112.0 227.7 L 106.2 227.7 L 106.2 205.2 L 122.899994 205.2 C 125.09999 205.2 126.7 205.9 127.59999 207.4 C 128.4 208.59999 128.7 210.4 128.7 212.7 L 128.7 216.3 L 122.9 216.3 z "/>
        <path d="M 131.0 218.3 L 131.0 211.0 C 131.0 209.2 131.5 207.8 132.6 206.8 C 133.70001 205.7 135.1 205.2 136.90001 205.2 L 147.8 205.2 L 147.8 198.9 L 153.6 198.9 L 153.6 227.7 L 136.90001 227.7 C 134.20001 227.7 132.50002 226.7 131.70001 224.7 C 131.3 223.5 131.0 221.4 131.0 218.3 z M 136.9 211.0 L 136.9 221.9 L 147.79999 221.9 L 147.79999 211.0 L 136.9 211.0 z "/>
        <path d="M 162.7 205.1 L 156.9 205.1 L 156.9 199.3 L 162.7 199.3 L 162.7 205.1 z M 162.7 205.9 L 162.7 227.7 L 156.9 227.7 L 156.9 205.9 L 162.7 205.9 z "/>
        <path d="M 165.8 221.1 C 165.8 218.8 166.2 217.0 166.90001 215.8 C 167.8 214.3 169.40001 213.6 171.70001 213.6 L 182.6 213.6 L 182.6 211.0 L 165.8 211.0 L 165.8 205.2 L 182.5 205.2 C 185.0 205.2 186.7 206.09999 187.6 207.9 C 188.20001 209.2 188.5 211.09999 188.5 213.79999 L 188.4 215.19998 L 188.4 216.49998 L 188.4 227.69998 L 171.7 227.69998 C 169.7 227.69998 168.3 227.09998 167.3 225.89998 C 166.3 224.8 165.8 223.2 165.8 221.1 z M 182.6 221.9 L 182.6 219.59999 L 171.70001 219.59999 L 171.70001 221.9 L 182.6 221.9 z "/>
        <path d="M 214.1 216.5 L 214.1 227.7 L 208.3 227.7 L 208.3 210.9 L 197.40001 210.9 L 197.40001 227.7 L 191.6 227.7 L 191.6 210.9 C 191.6 209.09999 192.1 207.7 193.20001 206.59999 C 194.30002 205.49998 195.70001 204.99998 197.50002 204.99998 L 204.90001 204.99998 L 206.8 204.99998 L 208.8 205.09999 C 210.6 205.09999 211.90001 205.59999 212.8 206.59999 C 213.8 207.79999 214.3 210.09999 214.3 213.4 L 214.2 214.9 L 214.2 216.5 L 214.1 216.5 z "/>
    </g>
</svg>
