<?xml version="1.0" encoding="UTF-8"?>
<svg xmlns="http://www.w3.org/2000/svg" xmlns:xlink="http://www.w3.org/1999/xlink" contentScriptType="text/ecmascript" zoomAndPan="magnify" baseProfile="tiny" contentStyleType="text/css" version="1.1" width="85.1px" preserveAspectRatio="xMidYMid meet"  width="100%" height="100%" viewBox="0 0 88 88">     
<g id="g4" transform="matrix(0.7984108,0,0,0.7984108,8.8699258,8.869825)">
    <radialGradient gradientTransform="matrix(2.0042 0 0 1.9014 -46.0971 -44.503)" gradientUnits="userSpaceOnUse" xlink:type="simple" r="21.3765" xlink:actuate="onLoad" cx="44.168" id="SVGID_1_" cy="45.1768" xlink:show="other">
        <stop stop-color="#fad1c1" offset="0"/>
        <stop stop-color="#ab301e" offset="1"/>
    </radialGradient>
    <ellipse rx="42.4" ry="41" fill="url(#SVGID_1_)" cx="42.4" cy="41.4"/>
    <linearGradient x1="6.2881" gradientTransform="matrix(0.8908 0.4847 -0.9892 1.818 18.2878 -15.1337)" y1="7.4736" x2="88.6523" gradientUnits="userSpaceOnUse" y2="7.4736" xlink:type="simple" xlink:actuate="onLoad" id="SVGID_2_" xlink:show="other">
        <stop stop-color="#66a1b4" offset="0"/>
        <stop stop-color="#0371b4" offset="1"/>
    </linearGradient>
    <path fill="url(#SVGID_2_)" d="M 7.3 18.5 C 16.2 2.3 43.6 -6.2 63.9 5.3 C 83.4 16.3 89.9 42.1 81.4 57.0 "/>
    <g>
        <path fill="#ffffff" d="M 82.4 53.7 C 82.4 33.7 23.400002 -8.700001 7.300003 19.3 " stroke="#ffffff"/>
        <radialGradient gradientTransform="matrix(1.9769 0 0 1.9088 -44.2835 -44.5635)" gradientUnits="userSpaceOnUse" xlink:type="simple" r="15.2591" xlink:actuate="onLoad" cx="44.5684" id="SVGID_3_" cy="42.9697" xlink:show="other">
            <stop stop-color="#fad1c1" offset="0"/>
            <stop stop-color="#ab301e" offset="1"/>
        </radialGradient>
        <path fill="url(#SVGID_3_)" d="M 81.4 57.0 C 81.4 42.0 34.600002 8.0 6.300003 20.7 " stroke="#ffffff"/>
        <polygon fill="#ffffff" points="79.4,51.4 82.9,53.6 82.1,56.1  "/>
        <polygon fill="#ffffff" points="80.9,58.8 80.9,54.3 82.2,55.6  "/>
        <polygon fill="#ffffff" points="8.7,20.1 5,22 7.4,18.2  "/>
    </g>
    <g stroke-opacity="0.54" fill-opacity="0.54">
        <g>
            <g>
                <g>
                    <path fill="none" d="M 16.6 47.5 C 31.6 36.9 52.199997 39.6 62.800003 53.4 " stroke-width="0.25" stroke="#ffffff"/>
                    <g>
                        <g>
                            <path fill="none" d="M 53.5 72.7 C 53.5 47.6 32.9 27.399998 7.5 27.399998 " stroke-width="0.25" stroke="#ffffff"/>
                            <path fill="none" d="M 13.2 63.0 C 37.7 54.9 50.4 38.2 42.1 15.0 " stroke-width="0.25" stroke="#ffffff"/>
                            <path fill="none" d="M 25.9 72.5 C 44.4 55.0 48.2 29.5 30.5 12.0 " stroke-width="0.25" stroke="#ffffff"/>
                            <path fill="none" d="M 4.9 37.9 C 28.1 49.2 51.4 49.5 62.800003 27.600002 " stroke-width="0.25" stroke="#ffffff"/>
                        </g>
                        <path fill="none" d="M 33.3 12.0 C 26.3 36.1 41.699997 52.5 66.1 59.2 " stroke-width="0.25" stroke="#ffffff"/>
                        <path fill="none" d="M 49.4 17.7 C 49.4 35.6 35.0 50.100002 17.100002 50.100002 " stroke-width="0.25" stroke="#ffffff"/>
                        <path fill="none" d="M 20.0 24.8 C 37.7 30.199999 47.7 47.9 42.3 64.3 " stroke-width="0.25" stroke="#ffffff"/>
                        <path fill="none" d="M 27.0 44.7 C 43.9 37.3 63.6 44.100002 70.9 59.800003 " stroke-width="0.25" stroke="#ffffff"/>
                        <path fill="none" d="M 13.0 31.4 C 31.5 30.199999 47.5 43.1 48.7 60.3 " stroke-width="0.25" stroke="#ffffff"/>
                        <path fill="none" d="M 39.7 61.0 C 34.5 43.8 35.8 27.3 52.9 22.400002 " stroke-width="0.25" stroke="#ffffff"/>
                    </g>
                    <path fill="none" d="M 17.3 44.2 C 21.3 37.3 29.9 34.6 36.4 38.100002 " stroke-width="0.25" stroke="#ffffff"/>
                    <path fill="none" d="M 56.7 59.2 C 50.3 54.2 48.9 45.6 53.600002 40.0 " stroke-width="0.25" stroke="#ffffff"/>
                </g>
                <g>
                    <path fill="none" d="M 19.2 32.9 C 37.800003 33.7 52.2 48.2 51.4 65.4 " stroke-width="0.25" stroke="#ffffff"/>
                    <g>
                        <g>
                            <path fill="none" d="M 31.7 74.9 C 47.9 55.3 45.0 27.1 25.2 11.7 " stroke-width="0.25" stroke="#ffffff"/>
                            <path fill="none" d="M 6.5 43.0 C 30.9 51.5 49.5 47.3 58.1 24.3 " stroke-width="0.25" stroke="#ffffff"/>
                            <path fill="none" d="M 10.2 58.0 C 36.0 55.5 54.7 44.3 52.2 19.900002 " stroke-width="0.25" stroke="#ffffff"/>
                            <path fill="none" d="M 16.3 18.3 C 27.099998 41.1 45.1 55.399998 68.2 45.199997 " stroke-width="0.25" stroke="#ffffff"/>
                        </g>
                        <path fill="none" d="M 47.8 18.0 C 38.3 24.6 25.599998 38.5 50.3 71.9 " stroke-width="0.25" stroke="#ffffff"/>
                        <path fill="none" d="M 64.1 29.5 C 52.5 43.5 31.8 46.1 17.899998 35.3 " stroke-width="0.25" stroke="#ffffff"/>
                        <path fill="none" d="M 36.5 17.2 C 46.8 32.1 43.2 51.9 28.3 61.5 " stroke-width="0.25" stroke="#ffffff"/>
                        <path fill="none" d="M 29.1 36.9 C 47.1 41.4 58.1 58.5 53.6 75.2 " stroke-width="0.25" stroke="#ffffff"/>
                        <path fill="none" d="M 26.8 18.1 C 42.0 28.3 46.1 48.1 35.9 62.199997 " stroke-width="0.25" stroke="#ffffff"/>
                        <path fill="none" d="M 28.4 57.4 C 35.5 40.800003 54.5 32.7 71.0 39.2 " stroke-width="0.25" stroke="#ffffff"/>
                    </g>
                    <path fill="none" d="M 21.8 30.7 C 29.4 27.7 37.9 30.800001 40.6 37.5 " stroke-width="0.25" stroke="#ffffff"/>
                    <path fill="none" d="M 42.9 66.3 C 41.100002 58.500004 45.600002 51.000004 52.9 49.4 " stroke-width="0.25" stroke="#ffffff"/>
                </g>
                <g>
                    <path fill="none" d="M 23.7 26.2 C 41.0 32.9 49.6 51.2 43.0 67.2 " stroke-width="0.25" stroke="#ffffff"/>
                    <g>
                        <g>
                            <path fill="none" d="M 21.2 69.9 C 43.2 56.600002 48.0 32.800003 34.5 12.0 " stroke-width="0.25" stroke="#ffffff"/>
                            <path fill="none" d="M 8.3 31.7 C 28.5 47.5 47.7 49.2 63.6 30.1 " stroke-width="0.25" stroke="#ffffff"/>
                            <path fill="none" d="M 6.6 47.1 C 31.9 53.0 48.1 48.9 54.0 25.0 " stroke-width="0.25" stroke="#ffffff"/>
                            <path fill="none" d="M 25.9 11.5 C 28.3 36.4 40.4 55.7 65.7 53.4 " stroke-width="0.25" stroke="#ffffff"/>
                        </g>
                        <path fill="none" d="M 56.8 23.6 C 31.9 30.7 32.5 49.4 39.699997 72.9 " stroke-width="0.25" stroke="#ffffff"/>
                        <path fill="none" d="M 67.3 37.2 C 51.600002 46.7 31.200005 42.600002 21.700005 28.0 " stroke-width="0.25" stroke="#ffffff"/>
                        <path fill="none" d="M 45.4 16.9 C 50.100002 34.3 39.9 51.800003 22.600002 56.199997 " stroke-width="0.25" stroke="#ffffff"/>
                        <path fill="none" d="M 31.7 33.2 C 47.2 43.1 51.7 62.800003 41.800003 77.100006 " stroke-width="0.25" stroke="#ffffff"/>
                        <path fill="none" d="M 35.9 14.7 C 46.800003 29.2 44.0 49.2 29.500002 59.3 " stroke-width="0.25" stroke="#ffffff"/>
                        <path fill="none" d="M 24.0 52.3 C 36.3 38.9 57.1 37.3 70.5 48.7 " stroke-width="0.25" stroke="#ffffff"/>
                    </g>
                    <path fill="none" d="M 26.9 25.0 C 35.1 24.6 42.0 30.2 42.4 37.4 " stroke-width="0.25" stroke="#ffffff"/>
                    <path fill="none" d="M 34.7 65.3 C 35.7 57.4 42.4 51.700005 49.9 52.500004 " stroke-width="0.25" stroke="#ffffff"/>
                </g>
            </g>
            <path fill="none" d="M 80.4 57.3 C 49.4 41.1 30.600002 31.199999 12.700005 53.2 " stroke-width="0.25" stroke="#ffffff"/>
            <path fill="none" d="M 55.1 67.5 C 42.8 35.6 28.3 31.1 6.9 21.4 " stroke-width="0.25" stroke="#ffffff"/>
        </g>
        <g>
            <g>
                <g>
                    <path fill="none" d="M 65.0 49.2 C 50.0 38.6 29.400002 41.3 18.8 55.100002 " stroke-width="0.25" stroke="#ffffff"/>
                    <g>
                        <g>
                            <path fill="none" d="M 28.1 74.5 C 28.1 49.4 38.7 29.5 64.1 29.5 " stroke-width="0.25" stroke="#ffffff"/>
                            <path fill="none" d="M 68.4 64.8 C 43.9 56.700005 31.2 40.000004 39.5 16.800003 " stroke-width="0.25" stroke="#ffffff"/>
                            <path fill="none" d="M 55.8 74.3 C 37.199997 56.800003 28.4 34.800003 46.1 17.200005 " stroke-width="0.25" stroke="#ffffff"/>
                            <path fill="none" d="M 76.8 39.6 C 53.6 50.9 30.3 51.2 18.9 29.3 " stroke-width="0.25" stroke="#ffffff"/>
                        </g>
                        <path fill="none" d="M 48.8 18.7 C 55.8 42.800003 40.0 54.3 15.599998 61.0 " stroke-width="0.25" stroke="#ffffff"/>
                        <path fill="none" d="M 32.2 19.4 C 32.2 37.3 46.6 51.800003 64.5 51.800003 " stroke-width="0.25" stroke="#ffffff"/>
                        <path fill="none" d="M 61.7 26.6 C 44.0 32.0 34.0 49.6 39.3 66.1 " stroke-width="0.25" stroke="#ffffff"/>
                        <path fill="none" d="M 54.7 46.4 C 37.800003 39.0 18.100002 45.800003 10.799999 61.5 " stroke-width="0.25" stroke="#ffffff"/>
                        <path fill="none" d="M 68.7 33.1 C 50.2 31.9 34.2 44.9 33.0 62.1 " stroke-width="0.25" stroke="#ffffff"/>
                        <path fill="none" d="M 42.0 62.8 C 47.2 45.6 45.9 29.099998 28.8 24.2 " stroke-width="0.25" stroke="#ffffff"/>
                    </g>
                    <path fill="none" d="M 64.4 46.0 C 60.4 39.1 51.800003 36.4 45.300003 39.9 " stroke-width="0.25" stroke="#ffffff"/>
                    <path fill="none" d="M 24.9 61.0 C 31.3 56.0 32.7 47.5 28.0 41.8 " stroke-width="0.25" stroke="#ffffff"/>
                </g>
                <g>
                    <path fill="none" d="M 62.4 34.6 C 43.800003 35.399998 29.400002 49.899998 30.2 67.1 " stroke-width="0.25" stroke="#ffffff"/>
                    <g>
                        <g>
                            <path fill="none" d="M 50.0 76.6 C 33.8 57.0 31.1 36.5 51.0 21.199997 " stroke-width="0.25" stroke="#ffffff"/>
                            <path fill="none" d="M 75.1 44.7 C 50.699997 53.2 32.1 49.0 23.5 26.0 " stroke-width="0.25" stroke="#ffffff"/>
                            <path fill="none" d="M 71.4 59.7 C 45.600002 57.2 26.900002 46.0 29.400002 21.600002 " stroke-width="0.25" stroke="#ffffff"/>
                            <path fill="none" d="M 54.7 22.3 C 43.9 45.1 36.6 57.2 13.5 47.0 " stroke-width="0.25" stroke="#ffffff"/>
                        </g>
                        <path fill="none" d="M 33.9 19.8 C 43.4 26.4 56.100002 40.3 31.400002 73.7 " stroke-width="0.25" stroke="#ffffff"/>
                        <path fill="none" d="M 17.5 31.2 C 29.1 45.2 49.8 47.800003 63.7 37.0 " stroke-width="0.25" stroke="#ffffff"/>
                        <path fill="none" d="M 45.1 19.0 C 34.8 33.9 38.399998 53.7 53.3 63.3 " stroke-width="0.25" stroke="#ffffff"/>
                        <path fill="none" d="M 52.5 38.7 C 34.5 43.2 23.5 60.300003 28.0 77.0 " stroke-width="0.25" stroke="#ffffff"/>
                        <path fill="none" d="M 50.4 21.0 C 35.2 31.2 35.5 49.8 45.7 64.0 " stroke-width="0.25" stroke="#ffffff"/>
                        <path fill="none" d="M 53.2 59.1 C 46.2 42.5 27.1 34.4 10.6 41.0 " stroke-width="0.25" stroke="#ffffff"/>
                    </g>
                    <path fill="none" d="M 59.8 32.5 C 52.2 29.5 43.699997 32.6 41.0 39.3 " stroke-width="0.25" stroke="#ffffff"/>
                    <path fill="none" d="M 38.7 68.0 C 40.5 60.2 36.0 52.7 28.7 51.1 " stroke-width="0.25" stroke="#ffffff"/>
                </g>
                <g>
                    <path fill="none" d="M 58.0 28.0 C 40.7 34.6 32.0 52.9 38.6 68.9 " stroke-width="0.25" stroke="#ffffff"/>
                    <g>
                        <g>
                            <path fill="none" d="M 60.5 71.6 C 38.5 58.3 31.0 38.1 44.5 17.399998 " stroke-width="0.25" stroke="#ffffff"/>
                            <path fill="none" d="M 68.7 33.1 C 48.5 48.9 34.0 50.9 18.1 31.9 " stroke-width="0.25" stroke="#ffffff"/>
                            <path fill="none" d="M 75.0 48.9 C 49.8 54.800003 33.6 50.7 27.599998 26.800001 " stroke-width="0.25" stroke="#ffffff"/>
                            <path fill="none" d="M 55.4 23.3 C 53.0 48.199997 41.300003 57.5 16.0 55.199997 " stroke-width="0.25" stroke="#ffffff"/>
                        </g>
                        <path fill="none" d="M 24.8 25.3 C 49.699997 32.399998 49.1 51.1 41.9 74.6 " stroke-width="0.25" stroke="#ffffff"/>
                        <path fill="none" d="M 14.4 39.0 C 30.099998 48.5 50.5 44.4 60.0 29.8 " stroke-width="0.25" stroke="#ffffff"/>
                        <path fill="none" d="M 36.3 18.7 C 31.6 36.1 41.8 53.6 59.1 58.0 " stroke-width="0.25" stroke="#ffffff"/>
                        <path fill="none" d="M 50.0 35.0 C 34.5 44.9 30.0 64.6 39.9 78.9 " stroke-width="0.25" stroke="#ffffff"/>
                        <path fill="none" d="M 45.8 16.4 C 34.9 31.0 37.7 50.9 52.2 61.0 " stroke-width="0.25" stroke="#ffffff"/>
                        <path fill="none" d="M 57.6 54.0 C 45.3 40.6 24.5 39.0 11.099998 50.4 " stroke-width="0.25" stroke="#ffffff"/>
                    </g>
                    <path fill="none" d="M 54.8 26.8 C 46.6 26.4 39.699997 32.0 39.3 39.199997 " stroke-width="0.25" stroke="#ffffff"/>
                    <path fill="none" d="M 47.0 67.0 C 46.0 59.1 39.3 53.4 31.8 54.2 " stroke-width="0.25" stroke="#ffffff"/>
                </g>
            </g>
            <path fill="none" d="M 5.8 56.2 C 36.7 40.0 51.0 33.0 69.0 54.9 " stroke-width="0.25" stroke="#ffffff"/>
            <path fill="none" d="M 26.5 69.2 C 38.8 37.299995 33.1 33.399998 54.5 23.699997 " stroke-width="0.25" stroke="#ffffff"/>
        </g>
    </g>
    <ellipse rx="17.6" ry="16.4" fill="#1b171b" cx="41.7" cy="41.9"/>
    <ellipse rx="6.9" ry="7" fill="#ffffff" cx="26.4" cy="34.1"/>
</g>
</svg>
