<?xml version="1.0" encoding="UTF-8"?>
<!-- Generator: Ikivo Animator 2.2 (build 2.2.0.10) -->
<!DOCTYPE svg PUBLIC "-//W3C//DTD SVG 1.1 Tiny//EN" "http://www.w3.org/Graphics/SVG/1.1/DTD/svg11-tiny.dtd">
<svg baseProfile="tiny" display="inherit" height="120" id="svg" version="1.1" viewBox="0 0 400 120" width="400" xmlns="http://www.w3.org/2000/svg" xmlns:xlink="http://www.w3.org/1999/xlink" xmlns:ev="http://www.w3.org/2001/xml-events">
	<defs display="inherit" id="defs9">
		<linearGradient id="gr_1036" x1="0.433" x2="0.433" y1="0.383" y2="1.031">
			<stop offset="0" stop-color="#ffffff"/>
			<stop offset="1" stop-color="#b3b3b3"/>
		</linearGradient>
		<linearGradient id="gr_1146" x1="0.524" x2="0.522" y1="0.953" y2="-0.003">
			<stop offset="0" stop-color="#cdcdcd"/>
			<stop offset="1" stop-color="#ffffff" stop-opacity="0"/>
		</linearGradient>
	</defs>
	<metadata id="metadata56">
    
  </metadata>
	<path d="M4.375,-0.031 C3.342,0.086 2.562,0.96 2.563,2 L2.563,53.531 C2.569,54.65 3.475,55.556 4.594,55.563 L19.375,55.563 C20.494,55.556 21.4,54.65 21.406,53.531 L21.406,36.438 L27.438,36.438 C33.715,36.438 38.773,34.863 42.156,31.438 C45.472,28.08 47.062,23.395 47.063,17.813 C47.062,12.388 45.591,7.88 42.5,4.688 C39.368,1.453 34.739,-0.031 29.063,-0.031 L4.594,-0.031 C4.521,-0.035 4.448,-0.035 4.375,-0.031 L4.375,-0.031 Z M52.531,-0.031 C51.498,0.086 50.718,0.96 50.719,2 L50.719,53.531 C50.725,54.65 51.631,55.556 52.75,55.563 L90.469,55.563 C90.807,55.561 91.14,55.475 91.438,55.312 C91.744,55.48 92.088,55.566 92.438,55.563 L107.469,55.563 C108.388,55.562 109.193,54.948 109.438,54.063 L111.344,47.063 L125,47.063 L126.938,54.063 C127.182,54.948 127.987,55.562 128.906,55.563 L144.313,55.563 C144.969,55.562 145.585,55.247 145.969,54.714 C146.352,54.182 146.457,53.498 146.25,52.875 L128.344,1.344 C128.058,0.518 127.28,-0.034 126.406,-0.031 L110.344,-0.031 C109.47,-0.034 108.692,0.518 108.406,1.344 L92.5,47.125 L92.5,40.844 C92.494,39.725 91.588,38.819 90.469,38.812 L69.531,38.812 L69.531,2 C69.525,0.881 68.619,-0.025 67.5,-0.031 L52.75,-0.031 C52.677,-0.035 52.604,-0.035 52.531,-0.031 L52.531,-0.031 Z M145.438,-0.031 C144.405,0.086 143.624,0.96 143.625,2 L143.625,14.719 C143.631,15.838 144.537,16.744 145.656,16.75 L158.625,16.75 L158.625,53.531 C158.631,54.65 159.537,55.556 160.656,55.563 L175.375,55.563 C176.494,55.556 177.4,54.65 177.406,53.531 L177.406,16.75 L190.406,16.75 C191.525,16.744 192.431,15.838 192.438,14.719 L192.438,2 C192.431,0.881 191.525,-0.025 190.406,-0.031 L145.656,-0.031 C145.583,-0.035 145.51,-0.035 145.438,-0.031 L145.438,-0.031 Z M197.469,-0.031 C196.436,0.086 195.656,0.96 195.656,2 L195.656,53.531 C195.663,54.65 196.568,55.556 197.688,55.563 L212.438,55.563 C213.557,55.556 214.462,54.65 214.469,53.531 L214.469,2 C214.462,0.881 213.557,-0.025 212.438,-0.031 L197.688,-0.031 C197.615,-0.035 197.542,-0.035 197.469,-0.031 L197.469,-0.031 Z M222.875,-0.031 C221.842,0.086 221.062,0.96 221.063,2 L221.063,53.531 C221.069,54.65 221.975,55.556 223.094,55.563 L236.938,55.563 C238.057,55.556 238.962,54.65 238.969,53.531 L238.969,32.25 L253.063,54.625 C253.439,55.21 254.086,55.563 254.781,55.563 L268.656,55.563 C269.775,55.556 270.681,54.65 270.687,53.531 L270.687,2 C270.681,0.881 269.775,-0.025 268.656,-0.031 L254.781,-0.031 C253.662,-0.025 252.756,0.881 252.75,2 L252.75,23.438 L238.563,0.906 C238.186,0.322 237.539,-0.031 236.844,-0.031 L223.094,-0.031 C223.021,-0.035 222.948,-0.035 222.875,-0.031 L222.875,-0.031 Z M278.313,-0.031 C277.28,0.086 276.499,0.96 276.5,2 L276.5,32.719 C276.5,35.5 276.992,38.561 277.937,41.969 C278.587,44.318 279.804,46.562 281.469,48.656 C283.129,50.745 284.992,52.404 287.094,53.594 C289.227,54.802 291.78,55.561 294.719,55.938 C297.531,56.298 300.138,56.469 302.563,56.469 C306.766,56.469 310.455,55.897 313.625,54.625 C316.027,53.668 318.247,52.012 320.281,49.812 C322.355,47.57 323.881,44.939 324.844,41.969 C325.791,39.047 326.25,35.96 326.25,32.719 L326.25,2 C326.244,0.881 325.338,-0.025 324.219,-0.031 L309.531,-0.031 C308.412,-0.025 307.506,0.881 307.5,2 L307.5,33.469 C307.5,35.988 306.892,37.619 305.875,38.719 C304.848,39.83 303.537,40.375 301.406,40.375 C299.271,40.375 297.942,39.794 296.906,38.656 C295.864,37.512 295.281,35.935 295.281,33.469 L295.281,2 C295.275,0.881 294.369,-0.025 293.25,-0.031 L278.531,-0.031 C278.458,-0.035 278.385,-0.035 278.313,-0.031 L278.313,-0.031 Z M333.656,-0.031 C332.623,0.086 331.843,0.96 331.844,2 L331.844,53.531 C331.85,54.65 332.756,55.556 333.875,55.563 L345.937,55.563 C347.057,55.556 347.962,54.65 347.969,53.531 L347.969,31.719 L353.25,54 C353.473,54.922 354.301,55.569 355.25,55.563 L366.125,55.563 C367.074,55.569 367.902,54.922 368.125,54 L373.437,31.656 L373.437,53.531 C373.444,54.65 374.35,55.556 375.469,55.563 L387.5,55.563 C388.619,55.556 389.525,54.65 389.531,53.531 L389.531,2 C389.525,0.881 388.619,-0.025 387.5,-0.031 L368.187,-0.031 C367.239,-0.038 366.411,0.609 366.187,1.531 L360.719,24.469 L355.25,1.531 C355.027,0.609 354.199,-0.038 353.25,-0.031 L333.875,-0.031 C333.802,-0.035 333.729,-0.035 333.656,-0.031 L333.656,-0.031 Z M21.406,14.5 L23.563,14.5 C26.037,14.5 27.278,15.074 27.656,15.5 C28.328,16.258 28.656,17.088 28.656,18.281 C28.656,19.479 28.353,20.17 27.594,20.875 C27.071,21.361 25.555,21.938 22.969,21.938 L21.406,21.938 L21.406,14.5 Z M118.219,22.844 L120.75,31.844 L115.688,31.844 L118.219,22.844 Z" display="inherit" fill="#b3b3b3" font-family="Arial Black" font-size="69.238" font-style="normal" font-weight="400" id="path2195" stroke="none" stroke-linecap="butt" stroke-linejoin="miter" stroke-width="1" transform="matrix(1,0,0,1,0.554,1.864)"/>
	<path d="M5.116,3.933 L29.597,3.933 C34.928,3.933 38.922,5.304 41.577,8.046 C44.232,10.788 45.559,14.69 45.559,19.753 C45.559,24.956 44.113,29.022 41.219,31.952 C38.326,34.882 33.91,36.347 27.971,36.347 L19.908,36.347 L19.908,55.472 L5.116,55.472 L5.116,3.933 Z M19.908,25.905 L23.517,25.905 C26.356,25.905 28.35,25.372 29.499,24.306 C30.648,23.239 31.222,21.874 31.222,20.21 C31.222,18.593 30.724,17.222 29.727,16.097 C28.73,14.972 26.855,14.409 24.102,14.409 L19.908,14.409 L19.908,25.905 Z M53.297,3.933 L68.024,3.933 L68.024,42.78 L91.009,42.78 L91.009,55.472 L53.297,55.472 L53.297,3.933 Z M127.096,46.964 L110.32,46.964 L108.012,55.472 L92.96,55.472 L110.873,3.933 L126.933,3.933 L144.846,55.472 L129.436,55.472 L127.096,46.964 Z M124.007,35.819 L118.74,17.292 L113.506,35.819 L124.007,35.819 Z M146.179,3.933 L190.946,3.933 L190.946,16.659 L175.926,16.659 L175.926,55.472 L161.199,55.472 L161.199,16.659 L146.179,16.659 L146.179,3.933 Z M198.229,3.933 L212.988,3.933 L212.988,55.472 L198.229,55.472 L198.229,3.933 Z M223.619,3.933 L237.371,3.933 L255.317,32.444 L255.317,3.933 L269.199,3.933 L269.199,55.472 L255.317,55.472 L237.469,27.171 L237.469,55.472 L223.619,55.472 L223.619,3.933 Z M310.065,3.933 L324.76,3.933 L324.76,34.659 C324.76,37.706 324.321,40.583 323.443,43.29 C322.565,45.997 321.189,48.364 319.314,50.391 C317.439,52.419 315.472,53.843 313.413,54.663 C310.552,55.811 307.117,56.386 303.108,56.386 C300.788,56.386 298.258,56.21 295.516,55.858 C292.775,55.507 290.483,54.809 288.64,53.766 C286.798,52.724 285.113,51.241 283.585,49.319 C282.057,47.397 281.011,45.417 280.448,43.378 C279.537,40.097 279.082,37.19 279.082,34.659 L279.082,3.933 L293.777,3.933 L293.777,35.397 C293.777,38.21 294.498,40.407 295.939,41.989 C297.38,43.571 299.38,44.362 301.937,44.362 C304.473,44.362 306.462,43.583 307.903,42.024 C309.344,40.466 310.065,38.257 310.065,35.397 L310.065,3.933 Z M334.415,3.933 L353.792,3.933 L361.269,35.292 L368.714,3.933 L388.025,3.933 L388.025,55.472 L375.996,55.472 L375.996,16.167 L366.666,55.472 L355.775,55.472 L346.477,16.167 L346.477,55.472 L334.415,55.472 L334.415,3.933 Z" display="inherit" fill="url(#gr_1036)" id="text2185" stroke="none" stroke-linecap="butt" stroke-linejoin="miter" stroke-width="1"/>
	<path d="M4.375,-0.031 C3.342,0.086 2.562,0.96 2.563,2 L2.563,53.531 C2.569,54.65 3.475,55.556 4.594,55.563 L19.375,55.563 C20.494,55.556 21.4,54.65 21.406,53.531 L21.406,36.438 L27.438,36.438 C33.715,36.438 38.773,34.863 42.156,31.438 C45.472,28.08 47.062,23.395 47.063,17.813 C47.062,12.388 45.591,7.88 42.5,4.688 C39.368,1.453 34.739,-0.031 29.063,-0.031 L4.594,-0.031 C4.521,-0.035 4.448,-0.035 4.375,-0.031 L4.375,-0.031 Z M52.531,-0.031 C51.498,0.086 50.718,0.96 50.719,2 L50.719,53.531 C50.725,54.65 51.631,55.556 52.75,55.563 L90.469,55.563 C90.807,55.561 91.14,55.475 91.438,55.312 C91.744,55.48 92.088,55.566 92.438,55.563 L107.469,55.563 C108.388,55.562 109.193,54.948 109.438,54.063 L111.344,47.063 L125,47.063 L126.938,54.063 C127.182,54.948 127.987,55.562 128.906,55.563 L144.313,55.563 C144.969,55.562 145.585,55.247 145.969,54.714 C146.352,54.182 146.457,53.498 146.25,52.875 L128.344,1.344 C128.058,0.518 127.28,-0.034 126.406,-0.031 L110.344,-0.031 C109.47,-0.034 108.692,0.518 108.406,1.344 L92.5,47.125 L92.5,40.844 C92.494,39.725 91.588,38.819 90.469,38.812 L69.531,38.812 L69.531,2 C69.525,0.881 68.619,-0.025 67.5,-0.031 L52.75,-0.031 C52.677,-0.035 52.604,-0.035 52.531,-0.031 L52.531,-0.031 Z M145.438,-0.031 C144.405,0.086 143.624,0.96 143.625,2 L143.625,14.719 C143.631,15.838 144.537,16.744 145.656,16.75 L158.625,16.75 L158.625,53.531 C158.631,54.65 159.537,55.556 160.656,55.563 L175.375,55.563 C176.494,55.556 177.4,54.65 177.406,53.531 L177.406,16.75 L190.406,16.75 C191.525,16.744 192.431,15.838 192.438,14.719 L192.438,2 C192.431,0.881 191.525,-0.025 190.406,-0.031 L145.656,-0.031 C145.583,-0.035 145.51,-0.035 145.438,-0.031 L145.438,-0.031 Z M197.469,-0.031 C196.436,0.086 195.656,0.96 195.656,2 L195.656,53.531 C195.663,54.65 196.568,55.556 197.688,55.563 L212.438,55.563 C213.557,55.556 214.462,54.65 214.469,53.531 L214.469,2 C214.462,0.881 213.557,-0.025 212.438,-0.031 L197.688,-0.031 C197.615,-0.035 197.542,-0.035 197.469,-0.031 L197.469,-0.031 Z M222.875,-0.031 C221.842,0.086 221.062,0.96 221.063,2 L221.063,53.531 C221.069,54.65 221.975,55.556 223.094,55.563 L236.938,55.563 C238.057,55.556 238.962,54.65 238.969,53.531 L238.969,32.25 L253.063,54.625 C253.439,55.21 254.086,55.563 254.781,55.563 L268.656,55.563 C269.775,55.556 270.681,54.65 270.687,53.531 L270.687,2 C270.681,0.881 269.775,-0.025 268.656,-0.031 L254.781,-0.031 C253.662,-0.025 252.756,0.881 252.75,2 L252.75,23.438 L238.563,0.906 C238.186,0.322 237.539,-0.031 236.844,-0.031 L223.094,-0.031 C223.021,-0.035 222.948,-0.035 222.875,-0.031 L222.875,-0.031 Z M278.313,-0.031 C277.28,0.086 276.499,0.96 276.5,2 L276.5,32.719 C276.5,35.5 276.992,38.561 277.937,41.969 C278.587,44.318 279.804,46.562 281.469,48.656 C283.129,50.745 284.992,52.404 287.094,53.594 C289.227,54.802 291.78,55.561 294.719,55.938 C297.531,56.298 300.138,56.469 302.563,56.469 C306.766,56.469 310.455,55.897 313.625,54.625 C316.027,53.668 318.247,52.012 320.281,49.812 C322.355,47.57 323.881,44.939 324.844,41.969 C325.791,39.047 326.25,35.96 326.25,32.719 L326.25,2 C326.244,0.881 325.338,-0.025 324.219,-0.031 L309.531,-0.031 C308.412,-0.025 307.506,0.881 307.5,2 L307.5,33.469 C307.5,35.988 306.892,37.619 305.875,38.719 C304.848,39.83 303.537,40.375 301.406,40.375 C299.271,40.375 297.942,39.794 296.906,38.656 C295.864,37.512 295.281,35.935 295.281,33.469 L295.281,2 C295.275,0.881 294.369,-0.025 293.25,-0.031 L278.531,-0.031 C278.458,-0.035 278.385,-0.035 278.313,-0.031 L278.313,-0.031 Z M333.656,-0.031 C332.623,0.086 331.843,0.96 331.844,2 L331.844,53.531 C331.85,54.65 332.756,55.556 333.875,55.563 L345.937,55.563 C347.057,55.556 347.962,54.65 347.969,53.531 L347.969,31.719 L353.25,54 C353.473,54.922 354.301,55.569 355.25,55.563 L366.125,55.563 C367.074,55.569 367.902,54.922 368.125,54 L373.437,31.656 L373.437,53.531 C373.444,54.65 374.35,55.556 375.469,55.563 L387.5,55.563 C388.619,55.556 389.525,54.65 389.531,53.531 L389.531,2 C389.525,0.881 388.619,-0.025 387.5,-0.031 L368.187,-0.031 C367.239,-0.038 366.411,0.609 366.187,1.531 L360.719,24.469 L355.25,1.531 C355.027,0.609 354.199,-0.038 353.25,-0.031 L333.875,-0.031 C333.802,-0.035 333.729,-0.035 333.656,-0.031 L333.656,-0.031 Z M21.406,14.5 L23.563,14.5 C26.037,14.5 27.278,15.074 27.656,15.5 C28.328,16.258 28.656,17.088 28.656,18.281 C28.656,19.479 28.353,20.17 27.594,20.875 C27.071,21.361 25.555,21.938 22.969,21.938 L21.406,21.938 L21.406,14.5 Z M118.219,22.844 L120.75,31.844 L115.688,31.844 L118.219,22.844 Z" display="inherit" fill="url(#gr_1146)" id="path3169" stroke="none" stroke-linecap="butt" stroke-linejoin="miter" stroke-width="1" transform="matrix(1,0,0,-1,0.554,117.787)"/>
</svg>
