<?xml version="1.0" encoding="iso-8859-1"?>
<!-- Generator: Adobe Illustrator 13.0.0, SVG Export Plug-In . SVG Version: 6.00 Build 14948)  -->
<!DOCTYPE svg PUBLIC "-//W3C//DTD SVG 1.1 Tiny//EN" "http://www.w3.org/Graphics/SVG/1.1/DTD/svg11-tiny.dtd">
<svg version="1.1" baseProfile="tiny" id="Livello_1"
	 xmlns="http://www.w3.org/2000/svg" xmlns:xlink="http://www.w3.org/1999/xlink" x="0px" y="0px" width="21.5px" height="9.9px"
	 viewBox="0 0 21.5 9.9" xml:space="preserve">
<g>
	<ellipse fill="none" stroke="#000000" stroke-width="1.5" cx="19.3" cy="4" rx="1.5" ry="3.2"/>
	<line fill="none" stroke="#000000" stroke-width="1.5" x1="18.3" y1="4" x2="8.7" y2="4"/>
	<line fill="none" stroke="#000000" stroke-width="1.5" x1="9.9" y1="4" x2="9.9" y2="7"/>
	<line fill="none" stroke="#000000" stroke-width="1.5" x1="11.8" y1="4" x2="11.8" y2="6"/>
</g>
<path fill="#FFFFFF" stroke="#1A171B" d="M1.7,4.4c0-1.8-0.2-2.9,2.3-3.7c1.4-0.5,2.3,0.1,2.3,1.9"/>
<path fill="#FFFFFF" stroke="#1A171B" d="M7.7,7.3c0,1.4-1.1,1.6-2.4,1.6H2.8c-1.3,0-2.4-0.2-2.4-1.6l0,0c0-1.4,0.2-2.6,1.5-3.5h4.2
	C7.5,4.7,7.7,5.9,7.7,7.3L7.7,7.3z"/>
<line fill="none" stroke="#1A171B" x1="2.3" y1="5.7" x2="5.7" y2="5.7"/>
<line fill="none" stroke="#1A171B" x1="2.3" y1="7.5" x2="5.7" y2="7.5"/>
</svg>
