<?xml version="1.0" encoding="UTF-8" standalone="no"?>
<!-- Generator: Adobe Illustrator 13.0.0, SVG Export Plug-In . SVG Version: 6.00 Build 14948)  -->
<svg
   xmlns:dc="http://purl.org/dc/elements/1.1/"
   xmlns:cc="http://web.resource.org/cc/"
   xmlns:rdf="http://www.w3.org/1999/02/22-rdf-syntax-ns#"
   xmlns:svg="http://www.w3.org/2000/svg"
   xmlns="http://www.w3.org/2000/svg"
   xmlns:sodipodi="http://sodipodi.sourceforge.net/DTD/sodipodi-0.dtd"
   xmlns:inkscape="http://www.inkscape.org/namespaces/inkscape"
   version="1.1"
   baseProfile="tiny"
   id="Livello_1"
   x="0px"
   y="0px"
   width="18.6px"
   height="11px"
   viewBox="0 0 18.6 11"
   xml:space="preserve"
   sodipodi:version="0.32"
   inkscape:version="0.45.1"
   sodipodi:docname="Copia di sim.svg"
   inkscape:output_extension="org.inkscape.output.svg.inkscape"
   sodipodi:docbase="C:\online\Guardian3rd\S60_GuardGUI\gfx">
  <defs
   id="defs18" /><sodipodi:namedview
   inkscape:window-height="712"
   inkscape:window-width="1024"
   inkscape:pageshadow="2"
   inkscape:pageopacity="0.0"
   guidetolerance="10.0"
   gridtolerance="10.0"
   objecttolerance="10.0"
   borderopacity="1.0"
   bordercolor="#666666"
   pagecolor="#ffffff"
   id="base"
   inkscape:zoom="34.272727"
   inkscape:cx="8.9650399"
   inkscape:cy="4.6605601"
   inkscape:window-x="-4"
   inkscape:window-y="-4"
   inkscape:current-layer="Livello_1" />
<path
   d="M18.6,9.3c0,2.1-0.6,1.7-2.5,1.7H2.5C0.6,11,0,11.3,0,9.3V3.7C0.1,2.3,3.6,0,4.5,0h11.6c1.9,0,2.5,0.7,2.5,2.7V9.3z"
   id="path3" />
<path
   d="M16.4,6.9c0,1.9-1.5,2.5-3.4,2.5h-2.8c-1.9,0-3.4-0.7-3.4-2.5V4.2c0-1.9,1.5-2.5,3.4-2.5H13  c1.9,0,3.4,0.7,3.4,2.5V6.9z"
   id="path5"
   fill="#FFFFFE" />



  <metadata id="metadata20">
<path
       d="M16.4,6.9c0,1.9-1.5,2.5-3.4,2.5h-2.8c-1.9,0-3.4-0.7-3.4-2.5V4.2c0-1.9,1.5-2.5,3.4-2.5H13  c1.9,0,3.4,0.7,3.4,2.5V6.9z"
       id="path111"
       fill="#FFFFFE" />
</metadata>


<path
   style="fill:#000000;fill-opacity:1"
   d="M 10.28125 1.9375 C 8.7270172 1.9375 7.4329222 2.3465602 7.125 3.625 L 10.6875 3.625 L 10.625 1.9375 L 10.28125 1.9375 z M 10.84375 1.9375 L 10.90625 3.34375 C 11.041402 3.2363077 11.202552 3.1875 11.375 3.1875 L 12.09375 3.1875 C 12.265219 3.1875 12.42985 3.2320027 12.5625 3.34375 L 12.5 1.9375 L 10.84375 1.9375 z M 12.71875 1.9375 L 12.75 3.59375 L 12.75 3.625 L 16.03125 3.625 C 15.706096 2.4185792 14.443623 1.9375 12.90625 1.9375 L 12.71875 1.9375 z M 11.4375 3.40625 C 11.02218 3.40625 10.6875 3.7467808 10.6875 4.8125 L 10.6875 6.34375 C 10.6875 7.3533787 11.02218 7.7500002 11.4375 7.75 L 12.03125 7.75 C 12.44657 7.75 12.78125 7.4094695 12.78125 6.34375 L 12.78125 4.8125 C 12.78125 3.8028713 12.44657 3.40625 12.03125 3.40625 L 11.4375 3.40625 z M 7.125 3.8125 C 7.1008537 3.9591565 7.0625 4.1135557 7.0625 4.28125 L 7.0625 4.78125 L 10.46875 4.78125 L 10.46875 4.71875 C 10.46875 4.3074901 10.540797 4.0447829 10.625 3.8125 L 7.125 3.8125 z M 12.84375 3.8125 C 12.924357 4.0431658 12.96875 4.3330607 12.96875 4.71875 L 12.96875 4.75 L 16.125 4.75 L 16.125 4.28125 C 16.125 4.1140833 16.089185 3.9598091 16.0625 3.8125 L 12.84375 3.8125 z M 12.96875 4.9375 L 12.96875 6.21875 L 16.125 6.21875 L 16.125 4.9375 L 12.96875 4.9375 z M 7.0625 4.96875 L 7.0625 6.21875 L 10.46875 6.21875 L 10.46875 4.96875 L 7.0625 4.96875 z M 7.0625 6.40625 L 7.0625 6.8125 C 7.0625 7.0126373 7.087035 7.2032231 7.125 7.375 L 10.65625 7.375 C 10.54937 7.1351174 10.472168 6.831087 10.46875 6.40625 L 7.0625 6.40625 z M 12.96875 6.40625 C 12.965577 6.8754703 12.891077 7.1982597 12.78125 7.4375 L 16.0625 7.4375 C 16.104644 7.2514805 16.125 7.0353569 16.125 6.8125 L 16.125 6.40625 L 12.96875 6.40625 z M 10.71875 7.5 L 10.71875 7.5625 L 7.1875 7.5625 C 7.5523843 8.6987848 8.7852629 9.1562499 10.28125 9.15625 L 10.78125 9.15625 L 10.71875 7.59375 L 10.78125 7.59375 C 10.761551 7.5661581 10.736781 7.531304 10.71875 7.5 z M 12.75 7.625 L 12.78125 9.15625 L 12.90625 9.15625 C 14.389976 9.15625 15.624036 8.7723102 16 7.625 L 12.75 7.625 z M 10.9375 7.78125 L 10.96875 9.15625 L 12.59375 9.15625 L 12.53125 7.78125 C 12.403186 7.8786862 12.256099 7.9375 12.09375 7.9375 L 11.375 7.9375 C 11.212651 7.9374999 11.070066 7.8854053 10.9375 7.78125 z "
   id="path2172" /></svg>